<svg xmlns="http://www.w3.org/2000/svg" viewBox="0 0 450 450"><defs><style>.cls-1{isolation:isolate;}.cls-2{fill:#111329;}.cls-3{fill:#9bb3ba;}.cls-12,.cls-4{fill:#fcf7e6;}.cls-5{fill:#3e436e;}.cls-6{fill:#e2153b;}.cls-7{fill:#402840;}.cls-8{fill:#c2beb1;}.cls-9{fill:#36395e;}.cls-10{fill:#2e1a2b;}.cls-11{fill:#1e2147;}.cls-12{opacity:0.75;}.cls-13{fill:#ff1843;}.cls-14{fill:#7b969e;}.cls-15{fill:#b8b4a8;}.cls-16{fill:#eeae6a;}.cls-17{fill:#fff;}.cls-18{fill:#252949;}.cls-19,.cls-20,.cls-21{fill:#101226;}.cls-20{opacity:0.25;}.cls-20,.cls-21{mix-blend-mode:multiply;}.cls-21{opacity:0.5;}.cls-22{opacity:0.4;}</style></defs><g class="cls-1"><g id="Layer_2" data-name="Layer 2"><rect class="cls-2" width="450" height="450"/></g><g id="Layer_1" data-name="Layer 1"><path class="cls-3" d="M169,152.24l-1.75-4a7.37,7.37,0,0,1,3.83-9.69l28.49-12.34a7.36,7.36,0,0,1,9.68,3.83c.69,1.58,22.66,52.3,22.66,52.3A7.36,7.36,0,0,1,228.1,192L194,206.78a7.36,7.36,0,0,1-9.68-3.83L168.6,166.76l-.8-1.85-1.55-3.57C165.43,159.45,164.54,154.18,169,152.24Z"/><path class="cls-3" d="M173.28,154.19,170.14,147a7.36,7.36,0,0,1,3.83-9.68l28.49-12.35a7.36,7.36,0,0,1,9.68,3.83l3.14,7.25c1.9-.79,2.85.62,3.67,2.5l2.35,5.42c.82,1.89,1.19,3.55-.68,4.39l14.18,32.75a7.35,7.35,0,0,1-3.83,9.68l-28.48,12.34a7.36,7.36,0,0,1-9.69-3.83l-14.18-32.74a3.76,3.76,0,0,1-4.9-2l-2.34-5.41A3.77,3.77,0,0,1,173.28,154.19Z"/><path class="cls-4" d="M194.43,198.55l-14.88-34.34-1.61.67a2,2,0,0,1-2.59-1L173,158.41a2,2,0,0,1,1-2.6l1.59-.72-3.83-8.84a5.61,5.61,0,0,1,2.9-7.36l28.49-12.34a5.6,5.6,0,0,1,7.36,2.91l3.83,8.84.39-.14a2,2,0,0,1,2.58,1.05l2.35,5.42a2,2,0,0,1-1,2.6l-.37.19,14.88,34.34a5.6,5.6,0,0,1-2.91,7.35l-28.49,12.35A5.6,5.6,0,0,1,194.43,198.55Zm-19.6-59.3a5.21,5.21,0,0,0-2.7,6.84l4,9.2-1.94.88a1.61,1.61,0,0,0-.81,2.09l2.35,5.41a1.61,1.61,0,0,0,2.08.84l2-.81,15,34.69a5.21,5.21,0,0,0,6.84,2.71l28.48-12.35a5.2,5.2,0,0,0,2.71-6.83l-15-34.7.72-.35a1.61,1.61,0,0,0,.81-2.09L217,139.37a1.59,1.59,0,0,0-2.07-.84l-.75.28-4-9.2a5.21,5.21,0,0,0-6.84-2.7Z"/><path class="cls-3" d="M232.19,141.27l-.07-.11a6.12,6.12,0,0,1,1.57-8.5l4.83-3.33c2.29,3.33,4.68,6.8,7,10.17l-4.83,3.33A6.12,6.12,0,0,1,232.19,141.27Z"/><path class="cls-4" d="M238.52,129.33l10.34-7.13a6.12,6.12,0,0,1,8.51,1.57l.07.1a6.14,6.14,0,0,1-.37,7.43,6.21,6.21,0,0,1-1.2,1.08l-10.34,7.13Z"/><path class="cls-5" d="M255.37,120.43l4.47,6.49a1.7,1.7,0,0,1-2.8,1.93l-4.47-6.49a1.7,1.7,0,0,1,2.8-1.93Z"/><path class="cls-5" d="M258.63,115.07a1.43,1.43,0,0,1,1.32,1.54l-.32,3.71a1.44,1.44,0,0,1-2.86-.25l.32-3.71A1.42,1.42,0,0,1,258.63,115.07Z"/><path class="cls-5" d="M258.75,117.34a5,5,0,1,1,5.65,8.21c-2.26,1.56-4.72.54-6.28-1.72S256.49,118.9,258.75,117.34Z"/><path class="cls-5" d="M268.73,116.45l.06.08a4.93,4.93,0,0,1-1.26,6.86l-3.13,2.16-5.65-8.21,3.13-2.15A4.92,4.92,0,0,1,268.73,116.45Z"/><rect class="cls-4" x="257.61" y="119.73" width="1.4" height="7.48" transform="matrix(0.82, -0.57, 0.57, 0.82, -24.44, 168.4)"/><path class="cls-5" d="M238.24,128.61a1.08,1.08,0,0,1,1.28,0,1,1,0,0,1,.24.25l6.64,9.63a1,1,0,0,1,.14.3,1.1,1.1,0,0,1-1.72,1.18,1.26,1.26,0,0,1-.22-.24L238,130.11a1,1,0,0,1-.15-.32A1.08,1.08,0,0,1,238.24,128.61Z"/><path class="cls-3" d="M242,126.91l1.4-1,2.65,3.84a.85.85,0,0,1-.22,1.17.84.84,0,0,1-1.18-.21Z"/><path class="cls-3" d="M244.69,125.07l1.4-1,2.65,3.84a.85.85,0,0,1-1.4,1Z"/><path class="cls-3" d="M247.37,123.23l1.4-1,2.64,3.84a.83.83,0,0,1-.21,1.17.85.85,0,0,1-1.19-.2Z"/><path class="cls-3" d="M247.14,133.9l6.34-4.37a2,2,0,0,1,2.71.5l.88,1.27a6.21,6.21,0,0,1-1.2,1.08l-4.74,3.27-3.51,2.4-1-1.43A2,2,0,0,1,247.14,133.9Z"/><path class="cls-4" d="M255.2,130.78,256,132a.82.82,0,0,1-.21,1.13l-6.17,4.25a.82.82,0,0,1-1.13-.21l-.84-1.21a.76.76,0,0,1,.2-1.06l6.25-4.31A.77.77,0,0,1,255.2,130.78Z"/><rect class="cls-6" x="249.53" y="135.26" width="3.08" height="1.67" rx="0.68" transform="translate(-32.89 166.53) rotate(-34.58)"/><rect class="cls-5" x="252.58" y="133.15" width="3.08" height="1.67" rx="0.68" transform="translate(-31.16 167.82) rotate(-34.56)"/><path class="cls-3" d="M241.47,136.93a4.82,4.82,0,0,0-.22-.57l-7.54-3.72-5.62,1.45c1,4,2.1,8,3.12,11.95l5.92-1.52a6.12,6.12,0,0,0,4.37-7.47Z"/><path class="cls-4" d="M228.09,134.09,212.4,138.2a6.12,6.12,0,0,0-4.38,7.46l0,.12a6.1,6.1,0,0,0,7.46,4.37L231.21,146Z"/><path class="cls-5" d="M231.22,146.82a1.1,1.1,0,0,1-1.2-.45,1.3,1.3,0,0,1-.14-.32l-2.95-11.32a.89.89,0,0,1,0-.32,1.07,1.07,0,0,1,.8-1,1.08,1.08,0,0,1,1.22.48,1.28,1.28,0,0,1,.13.29L232,145.5a1,1,0,0,1,0,.35A1.08,1.08,0,0,1,231.22,146.82Z"/><path class="cls-4" d="M241.73,143.07l1.9-2.18-.4-.39a5.39,5.39,0,0,0-8.87,4.8h2.35a6,6,0,0,0,2.37-.47A6.12,6.12,0,0,0,241.73,143.07Z"/><path class="cls-5" d="M242.67,142l-.4-.4a3.92,3.92,0,0,0-6.43,3.71C238.39,146.65,242.37,144.78,242.67,142Z"/><path class="cls-5" d="M201.83,123.32l.29-.13-4.77-11a1.35,1.35,0,0,1-.3-2.56,1.32,1.32,0,0,1,1.76.7,1.35,1.35,0,0,1-.11,1.28l4.77,11,.3-.13a1.27,1.27,0,0,1,1.65.65l1.15,2.66-4.24,1.83L201.18,125A1.26,1.26,0,0,1,201.83,123.32Z"/><path class="cls-4" d="M189.94,185.57c-.5-1.15-.38-2.31.26-2.59s1.57.43,2.07,1.58.38,2.32-.26,2.6S190.44,186.72,189.94,185.57Z"/><path class="cls-4" d="M223.92,167.56a2.51,2.51,0,1,1,3.3,1.31A2.52,2.52,0,0,1,223.92,167.56Z"/><path class="cls-4" d="M237.15,189.92,215.59,140l-11-3.2-19.06,8.26-5.17,10.18,17.49,40.35A10.41,10.41,0,0,0,211.57,201Z"/><path class="cls-3" d="M206.35,201.81a11,11,0,0,1-8.91-6.2l-17-40.36Z"/><path class="cls-4" d="M208.79,161.38a.78.78,0,1,1,1,.4A.77.77,0,0,1,208.79,161.38Z"/><path class="cls-4" d="M204,163.45a.77.77,0,1,1,1,.41A.78.78,0,0,1,204,163.45Z"/><path class="cls-4" d="M259.57,230.68A8,8,0,0,0,270,234.87l.15-.06a8,8,0,0,0,4.19-10.48l-7.81-18.25-14.82,6.34Z"/><polygon class="cls-3" points="278.75 234.54 263.52 239.89 256.59 223.74 271.41 217.39 278.75 234.54"/><path class="cls-3" d="M266.57,206.08,263,197.62a8,8,0,0,0-10.48-4.19l-.15.06A8,8,0,0,0,248.13,204l3.62,8.46Z"/><path class="cls-4" d="M284.6,230.86l-.12-.33a8.76,8.76,0,1,0-16.11,6.9c0,.11.1.21.15.32A103.35,103.35,0,0,0,284.6,230.86Z"/><rect class="cls-3" x="264.26" y="207.5" width="3.3" height="18.28" transform="translate(-63.8 122.14) rotate(-23.18)"/><path class="cls-5" d="M267.43,205.72a1.43,1.43,0,0,0-1.43-.87,1.14,1.14,0,0,0-.43.11l-14,6a1.11,1.11,0,0,0-.36.23,1.42,1.42,0,0,0,1.07,2.49,1.45,1.45,0,0,0,.41-.1l14-6a1.44,1.44,0,0,0,.39-.25A1.42,1.42,0,0,0,267.43,205.72Z"/><path class="cls-5" d="M274.23,221.61a1.43,1.43,0,0,0-1.42-.88,1.36,1.36,0,0,0-.44.11l-14,6a1.09,1.09,0,0,0-.36.22,1.43,1.43,0,0,0,1.08,2.5,1.49,1.49,0,0,0,.4-.11l14-6a1.3,1.3,0,0,0,.39-.25A1.42,1.42,0,0,0,274.23,221.61Z"/><rect class="cls-4" x="261.23" y="228.33" width="14.19" height="9.49" transform="translate(-70.08 124.41) rotate(-23.18)"/><path class="cls-5" d="M285.37,232.62l-.75-1.76-21.1,9,.75,1.76a2,2,0,0,0,2.56,1l17.52-7.5A1.94,1.94,0,0,0,285.37,232.62Z"/><path class="cls-3" d="M236,183.38s10.14,4.91,10.14,4.91a3.37,3.37,0,0,0-1.57-4.54l-4.06-2A3.37,3.37,0,0,0,236,183.38Z"/><path class="cls-3" d="M243.16,202.84l8.3,4a8,8,0,0,0,10.64-3.74l.07-.15a8,8,0,0,0-3.74-10.64l-8.29-4Z"/><path class="cls-4" d="M232.24,179.71a8,8,0,0,0-10.65,3.74l-.07.15a8,8,0,0,0,3.74,10.64l17.9,8.6,7-14.53Z"/><polygon class="cls-3" points="231.78 186.6 233.54 183.79 249.08 191.24 247.65 194.22 231.78 186.6"/><path class="cls-5" d="M250.37,187.39a1.42,1.42,0,0,0-1.64.27,1.28,1.28,0,0,0-.26.38l-6.59,13.72a1.3,1.3,0,0,0-.13.41,1.43,1.43,0,0,0,2.46,1.17,1.56,1.56,0,0,0,.23-.34l6.6-13.73a1.26,1.26,0,0,0,.12-.45A1.39,1.39,0,0,0,250.37,187.39Z"/><path class="cls-4" d="M261.67,200c-1.72,1.93-4.94,1.88-7.17-.11s-2.64-5.18-.92-7.1,4.93-1.88,7.16.11S263.39,198,261.67,200Z"/><path class="cls-5" d="M259.9,193.81a3.45,3.45,0,1,0,.67,5.19A3.73,3.73,0,0,0,259.9,193.81Z"/><path class="cls-5" d="M227.39,195.69a1.42,1.42,0,0,0,.25-.34l8.22-15.81a1.46,1.46,0,1,0-2.6-1.35L225,194a1.47,1.47,0,0,0,2.36,1.69Z"/><rect class="cls-5" x="208.05" y="152.1" width="2.31" height="4.05" transform="translate(-44.03 95.88) rotate(-23.43)"/><path class="cls-5" d="M203.73,154.67l12-5.19a2,2,0,0,0,.88-2.63,2,2,0,0,0-2.54-1.19l-12,5.2a2.09,2.09,0,0,0,1.66,3.81Z"/><path class="cls-3" d="M205.1,154.08l12-5.19a2.1,2.1,0,0,0-1.66-3.82l-12,5.19a2.1,2.1,0,0,0,1.66,3.82Z"/><path class="cls-5" d="M214.08,147.92a1.08,1.08,0,0,1,.48-1.44,1.14,1.14,0,1,1-.48,1.44Z"/><path class="cls-6" d="M211.49,149.05a1,1,0,1,1,1.87-.81,1,1,0,1,1-1.87.81Z"/><path class="cls-5" d="M208.9,150.17a1,1,0,1,1,1.87-.81,1.08,1.08,0,0,1-.49,1.44A1.07,1.07,0,0,1,208.9,150.17Z"/><path class="cls-5" d="M191.6,158.18l-.38-.88a1.19,1.19,0,0,1,.54-1.59l6-2.62a1.2,1.2,0,0,1,1.53.7l.38.88a1.19,1.19,0,0,1-.54,1.59l-6,2.62A1.2,1.2,0,0,1,191.6,158.18Z"/><path class="cls-7" d="M205.68,152.21l2.18-1a.54.54,0,0,0,.25-.73.54.54,0,0,0-.7-.32l-2.18.94a.54.54,0,0,0-.25.74A.55.55,0,0,0,205.68,152.21Z"/><path class="cls-5" d="M211.36,182.07l5.41-2.35a.7.7,0,0,0,.31-.93l-2.46-5.68a.71.71,0,0,0-.9-.41l-5.4,2.34a.7.7,0,0,0-.32.94l2.47,5.68A.7.7,0,0,0,211.36,182.07Z"/><path class="cls-3" d="M212.72,181.48l5.41-2.35a.7.7,0,0,0,.31-.93L216,172.52a.71.71,0,0,0-.9-.41l-5.41,2.35a.7.7,0,0,0-.31.93l2.46,5.68A.71.71,0,0,0,212.72,181.48Z"/><path class="cls-5" d="M211.35,178a2.83,2.83,0,1,1,3.82,1.75A3,3,0,0,1,211.35,178Z"/><path class="cls-4" d="M212.25,177.59a2,2,0,0,1,.88-2.6,2,2,0,1,1-.88,2.6Z"/><path class="cls-3" d="M218.87,167.37a3.3,3.3,0,0,0,1.49-4.42l-2.79-6.45a3.31,3.31,0,0,0-4.25-1.94L202,159.46a3.32,3.32,0,0,0-1.49,4.43l2.8,6.45a3.3,3.3,0,0,0,4.24,1.94Z"/><path class="cls-3" d="M216.92,168.22a3.32,3.32,0,0,0,1.49-4.43l-2.79-6.45a3.34,3.34,0,0,0-4.26-1.94L200,160.31a3.31,3.31,0,0,0-1.49,4.43l2.79,6.45a3.32,3.32,0,0,0,4.25,1.94Z"/><path class="cls-4" d="M207,170.94,218.29,166a1.92,1.92,0,0,0,.86-2.56L216.36,157a1.93,1.93,0,0,0-2.46-1.12l-11.33,4.91a1.92,1.92,0,0,0-.85,2.56l2.79,6.44A1.92,1.92,0,0,0,207,170.94Z"/><path class="cls-3" d="M212.34,159.84a1.53,1.53,0,1,1,2.07.95A1.61,1.61,0,0,1,212.34,159.84Z"/><path class="cls-3" d="M208,161.71a1.53,1.53,0,1,1,2.07.95A1.61,1.61,0,0,1,208,161.71Z"/><path class="cls-5" d="M212.75,159.66a1.54,1.54,0,1,1,2.08,1A1.62,1.62,0,0,1,212.75,159.66Z"/><path class="cls-5" d="M208.44,161.53a1.54,1.54,0,1,1,2.08.95A1.62,1.62,0,0,1,208.44,161.53Z"/><path class="cls-5" d="M209.84,165.43l6.64-2.88a.29.29,0,0,0,.14-.4.31.31,0,0,0-.39-.17l-6.63,2.88a.29.29,0,0,0-.14.39A.3.3,0,0,0,209.84,165.43Z"/><path class="cls-5" d="M210.33,166.55l6.64-2.87a.32.32,0,0,0-.25-.58L210.08,166a.3.3,0,0,0-.13.4A.29.29,0,0,0,210.33,166.55Z"/><path class="cls-5" d="M210.82,167.68l6.64-2.88a.3.3,0,0,0,.13-.4.3.3,0,0,0-.38-.17l-6.64,2.88a.29.29,0,0,0-.13.39A.3.3,0,0,0,210.82,167.68Z"/><path class="cls-3" d="M207.46,168.8a1.83,1.83,0,0,0,.85-2.45l-1.53-3.53a1.75,1.75,0,1,0-3.19,1.38l1.53,3.53A1.83,1.83,0,0,0,207.46,168.8Z"/><path class="cls-6" d="M207.75,168.67a1.83,1.83,0,0,0,.85-2.45l-1.53-3.53a1.74,1.74,0,1,0-3.18,1.38l1.52,3.53A1.82,1.82,0,0,0,207.75,168.67Z"/><path class="cls-3" d="M207.13,167.21a.43.43,0,0,0,.21-.6l-1.3-3a.44.44,0,0,0-.58-.26.45.45,0,0,0-.21.6l1.31,3A.43.43,0,0,0,207.13,167.21Z"/><path class="cls-4" d="M206.24,165.74l.44-.19a.71.71,0,0,0,.32-1,.72.72,0,0,0-.92-.43l-.44.19a.71.71,0,0,0-.32.95A.72.72,0,0,0,206.24,165.74Z"/><path class="cls-5" d="M202.1,169.91c1-.57-1.2-5.11-2-4.75a2,2,0,0,0-.94,2.75l.34.79A2.06,2.06,0,0,0,202.1,169.91Z"/><path class="cls-5" d="M214.32,177.75l9.5-4.11a3.09,3.09,0,0,0,1.39-4.13,1.24,1.24,0,0,1,.53-1.68l1.53-.66a1,1,0,0,0-.77-1.79L225,166a3.1,3.1,0,0,0-1.39,4.13,1.24,1.24,0,0,1-.53,1.68l-9.5,4.11a1,1,0,0,0,.77,1.79Z"/><path class="cls-5" d="M191.9,185.79l6.66-2.88a4.59,4.59,0,0,0,2.06-6.13l-1.78-4.1a2.73,2.73,0,0,1,1.23-3.64.94.94,0,0,0,.43-1.25.91.91,0,0,0-1.17-.56,4.6,4.6,0,0,0-2.1,6.15l1.78,4.1a2.73,2.73,0,0,1-1.23,3.64L191.12,184a.93.93,0,0,0-.41,1.25A.92.92,0,0,0,191.9,185.79Z"/><path class="cls-4" d="M213.75,248a8,8,0,0,0,7.25,8.65h.16a8,8,0,0,0,8.65-7.25l1.73-19.78-16-1.41Z"/><polygon class="cls-3" points="229.06 257.91 213.28 251.42 214.41 240.48 230.47 241.89 229.06 257.91"/><path class="cls-3" d="M231.54,229.63l.81-9.17a8,8,0,0,0-7.26-8.64h-.16a8,8,0,0,0-8.64,7.25l-.8,9.16Z"/><rect class="cls-3" x="216.84" y="236.98" width="18.28" height="3.3" transform="translate(-31.47 442.91) rotate(-84.99)"/><path class="cls-5" d="M232.47,229.72a1.44,1.44,0,0,0-.84-1.44,1.29,1.29,0,0,0-.44-.11L216,226.84a1.53,1.53,0,0,0-.43,0,1.43,1.43,0,0,0-.22,2.71,1.67,1.67,0,0,0,.4.1L230.94,231a1.39,1.39,0,0,0,.46,0A1.42,1.42,0,0,0,232.47,229.72Z"/><path class="cls-5" d="M231,246.94a1.43,1.43,0,0,0-.84-1.45,1.5,1.5,0,0,0-.44-.11l-15.17-1.33a1.46,1.46,0,0,0-.42,0,1.42,1.42,0,0,0-.23,2.71,1.31,1.31,0,0,0,.4.1l15.17,1.33a1.39,1.39,0,0,0,.46,0A1.41,1.41,0,0,0,231,246.94Z"/><polygon class="cls-4" points="216.4 260.37 226.14 259.18 227.42 252.66 213.28 251.42 216.4 260.37"/><path class="cls-3" d="M213.65,215.4l4.67,7.92a8,8,0,0,0,10.93,2.83l.14-.08a8,8,0,0,0,2.82-10.93l-4.67-7.92Z"/><path class="cls-4" d="M217.46,190.11a8,8,0,0,0-10.93-2.83l-.14.08a8,8,0,0,0-2.82,10.93l10.08,17.11,13.89-8.18Z"/><polygon class="cls-3" points="213.81 196.54 217.31 195.97 225.02 209.06 222.17 210.74 213.81 196.54"/><path class="cls-5" d="M228.25,206.58a1.43,1.43,0,0,0-1.53-.69,1.48,1.48,0,0,0-.42.17l-13.12,7.73a1.7,1.7,0,0,0-.33.27,1.43,1.43,0,0,0,1.39,2.34,1.19,1.19,0,0,0,.39-.16l13.12-7.73a1.41,1.41,0,0,0,.5-1.93Z"/><path class="cls-4" d="M228.63,223.06c-2.39-.46-3.87-3.22-3.3-6.15s3-4.95,5.34-4.5,3.86,3.22,3.3,6.16S231,223.52,228.63,223.06Z"/><path class="cls-5" d="M232.8,218.34c.41-2.14-.67-4.15-2.41-4.48s-3.48,1.13-3.89,3.27.66,4.15,2.4,4.49S232.39,220.49,232.8,218.34Z"/><path class="cls-5" d="M222.75,197.77a1.87,1.87,0,0,1-.41.09l-18.82,1.3a1.47,1.47,0,0,1-.22-2.93l18.82-1.3a1.46,1.46,0,0,1,1.57,1.35A1.48,1.48,0,0,1,222.75,197.77Z"/><path class="cls-3" d="M206.9,204s5.76,9.69,5.76,9.69a3.39,3.39,0,0,1-4.66-1.18l-2.29-3.88A3.39,3.39,0,0,1,206.9,204Z"/><path class="cls-4" d="M237.51,251.4l-.12-.33a8.76,8.76,0,1,0-16.13,6.85l.15.32A103.27,103.27,0,0,0,237.51,251.4Z"/><path class="cls-5" d="M238.27,253.15l-.74-1.76-21.13,9,.75,1.76a2,2,0,0,0,2.56,1l17.53-7.45A1.94,1.94,0,0,0,238.27,253.15Z"/><path class="cls-3" d="M215.56,142.29a3.14,3.14,0,0,0,1.54-4.17l-2.43-5.61a3.14,3.14,0,0,0-4.1-1.73l-27.75,12a3.16,3.16,0,0,0-1.54,4.18l2.43,5.6a3.16,3.16,0,0,0,4.1,1.74Z"/><path class="cls-3" d="M175.81,133.14c-.82-4.09,0-8.22,3.61-9.81l11.66-5a7.4,7.4,0,0,1,9.62,4.08l3.38,7.79a15,15,0,0,1,1.16,4.53l2.11-.91a1.72,1.72,0,0,1,2.23.95l2.43,5.6a1.73,1.73,0,0,1-.84,2.28l-24.06,11.92c-4.75.13-5.34.51-5.92-.84l-2.43-5.61C178.37,147.18,176.76,137.83,175.81,133.14Z"/><path class="cls-4" d="M183.41,144.15l2.1-.92a14.79,14.79,0,0,1-2.51-3.94l-3.38-7.8a7.4,7.4,0,0,1,3.61-9.81l11.66-5.05a7.4,7.4,0,0,1,9.62,4.08l3.38,7.79a15,15,0,0,1,1.16,4.53l2.11-.91a1.72,1.72,0,0,1,2.23.95l2.43,5.6A1.73,1.73,0,0,1,215,141l-27.75,12A1.71,1.71,0,0,1,185,152l-2.43-5.61A1.7,1.7,0,0,1,183.41,144.15Z"/><path class="cls-5" d="M197.1,120a1.78,1.78,0,1,1,2.38,1A1.82,1.82,0,0,1,197.1,120Z"/><path class="cls-6" d="M198,119.65a.82.82,0,1,1,1.1.46A.85.85,0,0,1,198,119.65Z"/><path class="cls-3" d="M209.12,137.09l2.87-1.24a.37.37,0,0,0-.3-.67l-2.86,1.24a.36.36,0,0,0-.17.48A.35.35,0,0,0,209.12,137.09Z"/><path class="cls-3" d="M209.7,138.41l2.86-1.24a.37.37,0,0,0-.29-.67l-2.87,1.24a.37.37,0,0,0-.17.48A.36.36,0,0,0,209.7,138.41Z"/><path class="cls-3" d="M210.27,139.73l2.86-1.24a.37.37,0,0,0-.29-.67L210,139.06a.37.37,0,0,0,.29.67Z"/><path class="cls-8" d="M209.12,137.09l2.87-1.24a.37.37,0,0,0-.3-.67l-2.86,1.24a.36.36,0,0,0-.17.48A.35.35,0,0,0,209.12,137.09Z"/><path class="cls-8" d="M209.7,138.41l2.86-1.24a.37.37,0,0,0-.29-.67l-2.87,1.24a.37.37,0,0,0-.17.48A.36.36,0,0,0,209.7,138.41Z"/><path class="cls-8" d="M210.27,139.73l2.86-1.24a.37.37,0,0,0-.29-.67L210,139.06a.37.37,0,0,0,.29.67Z"/><path class="cls-5" d="M186.72,149.65l1.29-.56a.8.8,0,0,0,.39-1.07l-.58-1.35a.81.81,0,0,0-1-.44l-1.29.56a.8.8,0,0,0-.39,1.06l.59,1.35A.8.8,0,0,0,186.72,149.65Z"/><path class="cls-3" d="M184.83,138.5a12.56,12.56,0,0,1,4.41-15.62,1.24,1.24,0,0,1,.66-1.54l1.17-.51a1.25,1.25,0,0,1,1.57.58,12.87,12.87,0,0,1,11.15,22.24,1.22,1.22,0,0,1-.7,1.34l-3.79,1.64a1.23,1.23,0,0,1-1.46-.4A12.67,12.67,0,0,1,184.83,138.5Z"/><path class="cls-4" d="M186.55,137.75A12.54,12.54,0,0,1,191,122.14a1.25,1.25,0,0,1,.65-1.55l1.17-.51a1.26,1.26,0,0,1,1.58.58,12.88,12.88,0,0,1,11.15,22.24,1.69,1.69,0,0,1-.74,1.64L201,146.18c-.52.22-1.07-.25-1.42-.7A12.64,12.64,0,0,1,186.55,137.75Z"/><path class="cls-2" d="M188,137.12a10.77,10.77,0,0,0,14,5.95,9.89,9.89,0,0,0,3.63-2.68,11.07,11.07,0,0,0,1.61-11.62,10.77,10.77,0,0,0-14-6,10,10,0,0,0-4.22,3.44A11.11,11.11,0,0,0,188,137.12Z"/><path class="cls-9" d="M188,137.12a10.77,10.77,0,0,0,14,5.95,9.89,9.89,0,0,0,3.63-2.68l-1.73.75a1.22,1.22,0,0,1-1-2.23l1.38-.6a1.23,1.23,0,0,0-1-2.26l-5.34,2.32a1.23,1.23,0,0,1-1-2.26l2.19-1a1.23,1.23,0,0,0-1-2.26l-5.39,2.34a1.23,1.23,0,0,1-1-2.26l.5-.22a1.23,1.23,0,0,0-1-2.25l-.89.38a1.23,1.23,0,0,1-1-2.26l2.24-1a1.19,1.19,0,0,0,.58-1.58,1.2,1.2,0,0,0-1.27-.75c-.46.24-1.36.58-2.07.93A11.11,11.11,0,0,0,188,137.12Z"/><path class="cls-4" d="M198,126.93a2,2,0,0,1-.11-2.75,2.33,2.33,0,1,1,.11,2.75Z"/><path class="cls-4" d="M202.29,126.84a.89.89,0,0,1,0-1.21,1,1,0,1,1,0,1.21Z"/><path class="cls-3" d="M214.39,130.68l.69-.3a2,2,0,0,0,.95-2.6l-1.35-3.13a2,2,0,0,0-2.56-1.09l-3.85,1.67-.78-1.78,3.86-1.67a3.87,3.87,0,0,1,5,2.13l1.36,3.13a3.88,3.88,0,0,1-1.92,5.14l-.65.28a1,1,0,0,1-.78-1.78Z"/><path class="cls-4" d="M206.49,122.65l-1,.42,1.67,3.86,1-.42a1,1,0,0,0,.49-1.32l-.86-2A1,1,0,0,0,206.49,122.65Z"/><path class="cls-4" d="M183.31,140.1a14.49,14.49,0,0,0-1.09-2.62,1.25,1.25,0,0,0-.65,1.67l.11.26A1.26,1.26,0,0,0,183.31,140.1Z"/><path class="cls-3" d="M177.91,132a3.85,3.85,0,0,0,1.88-5.1l-1.6-3.69c-.87-2,.22-5.45-1.67-4.62a24.8,24.8,0,0,0-3.39,2.52c-1.53,1.38-2.73,3.1-1.87,5.1l1.6,3.69a3.85,3.85,0,0,0,5,2.12Z"/><path class="cls-4" d="M182.07,131.21c1.89-.82,2.62-3.37,1.62-5.69l-1.87-4.3c-1-2.31-3.36-3.53-5.25-2.71l0,0c-1.9.82-2.62,3.37-1.62,5.68l1.86,4.3c1,2.32,3.36,3.53,5.26,2.71Z"/><path class="cls-3" d="M181.5,130l.05,0a3,3,0,0,0,1.16-4.08l-1.86-4.29a3,3,0,0,0-3.77-1.94l-.05,0a3,3,0,0,0-1.15,4.07l1.86,4.3A3,3,0,0,0,181.5,130Z"/><path class="cls-10" d="M176.82,123.57a1.79,1.79,0,1,1,2.46,1.27A2,2,0,0,1,176.82,123.57Z"/><path class="cls-6" d="M179.36,127.58a1.14,1.14,0,0,1,.44-1.54,1.16,1.16,0,0,1,1.43.74,1,1,0,1,1-1.87.8Z"/><path class="cls-4" d="M178.92,121.55a.52.52,0,0,0-.73-.24.61.61,0,0,0-.11.81.54.54,0,0,0,.74.25A.62.62,0,0,0,178.92,121.55Z"/><path class="cls-4" d="M179.76,122.41a.29.29,0,0,0-.4-.13.34.34,0,0,0-.06.44.29.29,0,0,0,.4.13A.33.33,0,0,0,179.76,122.41Z"/><rect class="cls-5" x="195.8" y="184.35" width="38.29" height="4.9" transform="translate(-56.55 100.85) rotate(-23.43)"/><path class="cls-3" d="M169.46,173.08l.12-.05a6.12,6.12,0,0,1,8,3.18l2.33,5.38-11.34,4.92-2.33-5.38A6.13,6.13,0,0,1,169.46,173.08Z"/><path class="cls-4" d="M168.61,186.51l5,11.52a6.13,6.13,0,0,0,8.05,3.18l.11-.05a6.1,6.1,0,0,0,3.18-8l-5-11.53Z"/><path class="cls-3" d="M181.27,184.57l.68,1.56L177.67,188a.84.84,0,1,1-.67-1.55Z"/><path class="cls-3" d="M182.56,187.55l.68,1.56L179,191a.83.83,0,0,1-1.1-.43.84.84,0,0,1,.43-1.13Z"/><path class="cls-3" d="M183.86,190.53l.67,1.56-4.28,1.85a.83.83,0,0,1-1.1-.43.85.85,0,0,1,.43-1.13Z"/><rect class="cls-5" x="173.1" y="186.09" width="3.55" height="11.76" rx="0.72" transform="translate(-61.9 85.34) rotate(-23.42)"/><path class="cls-4" d="M172.44,188.05a.49.49,0,0,1,.25-.65l.35-.15a.5.5,0,0,1,.65.26l1.3,3-1.25.54Z"/><path class="cls-6" d="M175,190.52l1.36,3.14a.48.48,0,0,1-.25.64l-.35.16a.5.5,0,0,1-.65-.26l-1.36-3.14Z"/><path class="cls-6" d="M177.2,195.58a.69.69,0,0,0-.92-.36.7.7,0,1,0,.92.36Z"/><path class="cls-5" d="M185.42,199.85,178.19,203a1.7,1.7,0,0,1-1.35-3.11l7.23-3.14a1.7,1.7,0,0,1,1.35,3.12Z"/><path class="cls-5" d="M190.05,204.09a1.44,1.44,0,0,1-1.77,1l-3.58-1a1.44,1.44,0,0,1,.8-2.76l3.58,1A1.42,1.42,0,0,1,190.05,204.09Z"/><path class="cls-5" d="M187.8,203.76a5,5,0,0,1-9.14,4c-1.1-2.52.37-4.73,2.9-5.83S186.7,201.24,187.8,203.76Z"/><path class="cls-5" d="M186.74,213.73l-.09,0a5,5,0,0,1-6.49-2.56l-1.5-3.49,9.14-4,1.5,3.49A4.92,4.92,0,0,1,186.74,213.73Z"/><rect class="cls-4" x="178.17" y="201.44" width="7.44" height="1.4" transform="translate(-65.37 88.98) rotate(-23.43)"/><path class="cls-5" d="M180.71,181.46a1.09,1.09,0,0,1-.26,1.26,1.21,1.21,0,0,1-.29.19l-10.73,4.64a1,1,0,0,1-.32.09A1.1,1.1,0,0,1,168,187a1.08,1.08,0,0,1,.29-1.27.83.83,0,0,1,.27-.17l10.73-4.65a1.07,1.07,0,0,1,.34-.09A1.1,1.1,0,0,1,180.71,181.46Z"/><path class="cls-3" d="M169,183.64a6.12,6.12,0,0,1-2.56-8l2.64-5.46,11.14,5.35-2,4.11Z"/><path class="cls-4" d="M180.2,175.53l7-14.67a6.12,6.12,0,0,0-2.87-8.16l-.11,0a6.1,6.1,0,0,0-8.16,2.86l-7,14.67Z"/><path class="cls-5" d="M168.47,169.69a1.1,1.1,0,0,1,1.12-.63,1.39,1.39,0,0,1,.33.1l10.54,5.07a1,1,0,0,1,.27.19,1.07,1.07,0,0,1,.23,1.26,1.09,1.09,0,0,1-1.14.62,1.24,1.24,0,0,1-.31-.1L169,171.13a1,1,0,0,1-.29-.2A1.08,1.08,0,0,1,168.47,169.69Z"/><path class="cls-3" d="M171.16,165.92l4.8,2.32a.55.55,0,0,0,.74-.26l2.76-5.69a.55.55,0,0,0-.26-.74l-4.8-2.32a.68.68,0,0,0-.92.32L170.84,165A.7.7,0,0,0,171.16,165.92Z"/><rect class="cls-4" x="171.95" y="160.8" width="5.12" height="5.22" transform="translate(-48.61 249.27) rotate(-64.17)"/><rect class="cls-5" x="174.78" y="159.03" width="1.18" height="5.22" transform="translate(-46.54 249.04) rotate(-64.17)"/><rect class="cls-5" x="173.06" y="162.57" width="1.18" height="5.22" transform="translate(-50.69 249.5) rotate(-64.17)"/><rect class="cls-5" x="173.92" y="160.8" width="1.18" height="5.22" transform="translate(-48.61 249.27) rotate(-64.17)"/><rect class="cls-6" x="175.06" y="160.74" width="1.97" height="3.33" transform="translate(-46.84 250.08) rotate(-64.17)"/><path class="cls-4" d="M166.28,181.13l1.15,2.65c.18-.06.35-.12.53-.2a5.38,5.38,0,0,0-.52-10.06l-.64,1.33-.38.79a7.12,7.12,0,0,0-.14,5.49Z"/><path class="cls-5" d="M166.85,182.43l.53-.18a3.92,3.92,0,0,0-.58-7.4C164.31,177.24,165.26,180.67,166.85,182.43Z"/><path class="cls-8" d="M283.62,286.27c-4.22,1.76-8.24,1.75-8.71.62s2.78-3,7-4.72,7.81-2.76,8.28-1.63S287.84,284.52,283.62,286.27Z"/><path class="cls-8" d="M271.66,286.75l-.7-1.68,20.75-8.6.69,1.67a1.65,1.65,0,0,1-.89,2.16l-17.7,7.34A1.64,1.64,0,0,1,271.66,286.75Z"/><path class="cls-8" d="M327.62,261.6a13.35,13.35,0,0,1,4.79-4.35l.87.92a3.08,3.08,0,0,1-.1,4.37l-.26.25a3.08,3.08,0,0,1-4.36-.12Z"/><path class="cls-8" d="M328.63,261.11l.78.83a27.15,27.15,0,0,0,3.1-2.95l-.77-.82Z"/><path class="cls-8" d="M329.42,262s3.09-3,3.09-3a2,2,0,0,1-.06,2.82l-.23.22A2,2,0,0,1,329.42,262Z"/><path class="cls-8" d="M222.8,285.42,174.15,305.6l-.1,0-1.25-3,.09,0,48.65-20.17A1.08,1.08,0,0,1,223,283l.44,1.05A1.09,1.09,0,0,1,222.8,285.42Z"/><path class="cls-8" d="M349.49,231.09c-21-8.69-38.13-9.39-62.15.57,5.6,14.2,11.65,28.51,17.84,43C329.19,264.71,340.8,252.1,349.49,231.09Z"/><path class="cls-8" d="M299.33,275,283,235.55l-95.27,39.51a5.63,5.63,0,0,0-3,7.37l12,29.05a5.65,5.65,0,0,0,7.37,3Z"/><polygon class="cls-8" points="191.44 312.59 180.46 286.1 184.47 282.01 197.18 312.64 191.44 312.59"/><path class="cls-8" d="M185.15,314.33l-10.37-25a.72.72,0,0,1,.39-.95l5.32-2.2,10.93,26.35-5.32,2.21A.72.72,0,0,1,185.15,314.33Z"/><path class="cls-8" d="M284.84,246l-94.71,39.28a1.53,1.53,0,0,1-2-.83l-1.48-3.56a1.53,1.53,0,0,1,.83-2l94.71-39.28Z"/><path class="cls-8" d="M286.87,250.87l-94.71,39.27a1.53,1.53,0,0,1-2-.83l-.15-.37a1.51,1.51,0,0,1,.82-2l94.71-39.28Z"/><path class="cls-8" d="M195.43,297.15a2.36,2.36,0,0,0,4.36-1.81l-4.47-10.77a2.36,2.36,0,0,0-4.35,1.81Z"/><path class="cls-8" d="M196.7,296.62a1,1,0,0,0,1.27.53,1,1,0,0,0,.55-1.28l-4.47-10.77a1,1,0,0,0-1.26-.53,1,1,0,0,0-.56,1.28Z"/><path class="cls-8" d="M198.35,304.17a2.39,2.39,0,1,0,1.29-3.12A2.38,2.38,0,0,0,198.35,304.17Z"/><path class="cls-8" d="M199.61,303.65a1,1,0,1,0,.55-1.33A1,1,0,0,0,199.61,303.65Z"/><rect class="cls-8" x="186.23" y="268.61" width="33.39" height="5.99" rx="2.32" transform="matrix(0.92, -0.38, 0.38, 0.92, -88.56, 98.44)"/><rect class="cls-8" x="185.52" y="266.89" width="33.39" height="5.99" rx="2.32" transform="translate(-87.95 98.04) rotate(-22.52)"/><path class="cls-8" d="M214.78,263.24c-3.43-8.27-12.89-12.2-23.72-7.71l-30.95,12.84a1.38,1.38,0,0,0-.75,1.81l.49,1.19,7.43-3.09c8.49-3.5,17.1-2.17,20.62,6.32l27.51-9.84Z"/><rect class="cls-8" x="160.09" y="267.81" width="10.39" height="6.2" transform="translate(-91.17 83.98) rotate(-22.52)"/><path class="cls-8" d="M215.22,264.31c-3.88-9.34-13.61-10.48-23.37-6.44L161.2,270.58a1.56,1.56,0,0,0-.84,2l1.21,2.9a1.54,1.54,0,0,0,2,.84l6-2.49c8.49-3.51,15.57-5.86,18.94,2.26l26.95-11.18Z"/><path class="cls-8" d="M345.21,232.27c-17.88-7.16-35.6-6-55.14,2.11l2.89,7c25.94-10.76,40.13-10.94,52.21-8.91C345.27,232.45,345.3,232.31,345.21,232.27Z"/><path class="cls-8" d="M343.11,233.38c-13.61-2.34-29.88,1.73-49.38,9.81l1.44,3.48c13.23-5.49,35.15-13.14,47.92-13.13C343.19,233.54,343.21,233.39,343.11,233.38Z"/><path class="cls-8" d="M237.3,299a1.18,1.18,0,0,0,.64-1.53,1.17,1.17,0,1,0-.64,1.53Z"/><path class="cls-8" d="M223.09,264.69a1.18,1.18,0,0,0,.63-1.53,1.17,1.17,0,0,0-2.16.89A1.18,1.18,0,0,0,223.09,264.69Z"/><path class="cls-8" d="M296.18,274.11c.6-.25.95-.76.79-1.15s-.77-.5-1.37-.26-1,.77-.79,1.15S295.59,274.36,296.18,274.11Z"/><path class="cls-8" d="M289.23,257.35a1.17,1.17,0,1,0-1.53-.64A1.18,1.18,0,0,0,289.23,257.35Z"/><path class="cls-8" d="M292.88,266.15a1,1,0,1,0-1.44-.42A1.07,1.07,0,0,0,292.88,266.15Z"/><path class="cls-8" d="M281.33,238.29c.59-.25,1.21-.14,1.37.25s-.19.91-.79,1.15-1.21.14-1.37-.25S280.73,238.53,281.33,238.29Z"/><path class="cls-8" d="M284.63,246.25a1,1,0,1,1-.72,1.31A1.07,1.07,0,0,1,284.63,246.25Z"/><path class="cls-8" d="M306.11,270c.6-.25.95-.77.79-1.16s-.78-.5-1.38-.25-.94.76-.78,1.15S305.51,270.24,306.11,270Z"/><path class="cls-8" d="M299.16,253.23a1.17,1.17,0,1,0-1.53-.63A1.17,1.17,0,0,0,299.16,253.23Z"/><path class="cls-8" d="M302.81,262a1,1,0,1,0-1.44-.42A1.07,1.07,0,0,0,302.81,262Z"/><path class="cls-8" d="M291.25,234.17c.6-.25,1.21-.13,1.37.26s-.19.9-.78,1.15-1.21.13-1.37-.26S290.66,234.42,291.25,234.17Z"/><path class="cls-8" d="M294.55,242.13a1,1,0,1,1,.72,1.74,1,1,0,1,1-.72-1.74Z"/><path class="cls-8" d="M247.24,254.67a1.17,1.17,0,1,0-1.52-.63A1.17,1.17,0,0,0,247.24,254.67Z"/><path class="cls-8" d="M282.27,274.57a9,9,0,1,1-.38-12.76A9,9,0,0,1,282.27,274.57Z"/><path class="cls-8" d="M281.31,273.66a7.7,7.7,0,1,1-.32-10.89A7.71,7.71,0,0,1,281.31,273.66Z"/><path class="cls-8" d="M279.49,272a5.2,5.2,0,1,1-.22-7.35A5.21,5.21,0,0,1,279.49,272Z"/><path class="cls-8" d="M281.58,271.6c-.51,1-3.65.56-7-1.09s-5.66-3.83-5.15-4.88,3.66-.56,7,1.09S282.1,270.55,281.58,271.6Z"/><path class="cls-8" d="M267.11,289.15l-3.8-9.16a2,2,0,0,0-2.67-1.1l-5.81,2.41a2,2,0,0,0-1.1,2.67l3.79,9.16Z"/><path class="cls-8" d="M267.13,289.21l-3-7.15a2,2,0,0,0-2.68-1.11l-5.8,2.41a2,2,0,0,0-1.11,2.67l3,7.16a1.21,1.21,0,0,0,1.58.65l7.35-3A1.2,1.2,0,0,0,267.13,289.21Z"/><path class="cls-8" d="M261.79,282a1,1,0,1,0,1.34.56A1,1,0,0,0,261.79,282Z"/><path class="cls-8" d="M259,283.1a1,1,0,1,0,1.34.56A1,1,0,0,0,259,283.1Z"/><path class="cls-8" d="M256.2,284.28a1,1,0,1,0,.78,1.89,1,1,0,0,0-.78-1.89Z"/><path class="cls-8" d="M264.25,285.24l1.53,3.69a.86.86,0,0,1-1.58.66l-1.53-3.69a.86.86,0,1,1,1.58-.66Z"/><rect class="cls-8" x="257.38" y="286.54" width="5.12" height="5.51" rx="0.54" transform="translate(-90.99 121.64) rotate(-22.52)"/><path class="cls-8" d="M261,287.07a.33.33,0,0,0,.18-.43.33.33,0,0,0-.43-.17.32.32,0,0,0-.17.42A.32.32,0,0,0,261,287.07Z"/><path class="cls-8" d="M257.67,288.44a.32.32,0,0,0,.18-.42.33.33,0,0,0-.61.25A.33.33,0,0,0,257.67,288.44Z"/><path class="cls-8" d="M262.51,290.76a.32.32,0,0,0,.18-.42.33.33,0,0,0-.43-.18.33.33,0,0,0-.17.43A.32.32,0,0,0,262.51,290.76Z"/><path class="cls-8" d="M259.2,292.14a.33.33,0,1,0-.43-.18A.33.33,0,0,0,259.2,292.14Z"/><circle class="cls-8" cx="221.47" cy="284.18" r="4.68" transform="translate(-71.52 493.86) rotate(-87.66)"/><path class="cls-8" d="M222.85,287.52a3.62,3.62,0,1,0-4.72-1.95A3.61,3.61,0,0,0,222.85,287.52Z"/><path class="cls-8" d="M222.28,286.15A2.13,2.13,0,1,0,219.5,285,2.14,2.14,0,0,0,222.28,286.15Z"/><path class="cls-8" d="M220.45,284.6a1.1,1.1,0,0,1,.6-1.43L231.11,279a7,7,0,0,1,5.44,0,7.07,7.07,0,0,1,3.85,3.84l1.66,4a4.92,4.92,0,0,0,6.42,2.65l5-2.06a1.1,1.1,0,0,1,1.43.6,1.08,1.08,0,0,1-.59,1.43l-5,2.06a7.11,7.11,0,0,1-9.28-3.84l-1.67-4A4.9,4.9,0,0,0,232,281l-10.06,4.19a1.08,1.08,0,0,1-1.43-.59Z"/><path class="cls-8" d="M254,290l-1.18-2.86a1.09,1.09,0,0,1,.59-1.43l.9-.38,2,4.89-.9.38A1.11,1.11,0,0,1,254,290Z"/><path class="cls-8" d="M253,290l-.88-2.12a.43.43,0,0,1,.23-.56l.42-.18,1.21,2.92-.42.17A.42.42,0,0,1,253,290Z"/><path class="cls-8" d="M207.12,288.11h7.68a.64.64,0,0,1,.64.64v11.09a.63.63,0,0,1-.63.63h-7.68a.63.63,0,0,1-.63-.63V288.74A.64.64,0,0,1,207.12,288.11Z" transform="translate(-96.64 103.26) rotate(-22.52)"/><rect class="cls-8" x="212.46" y="288.51" width="1.39" height="9.73" transform="translate(-96.12 104.03) rotate(-22.52)"/><rect class="cls-8" x="210.25" y="289.43" width="1.39" height="9.73" transform="translate(-96.64 103.25) rotate(-22.52)"/><rect class="cls-8" x="208.03" y="290.35" width="1.39" height="9.73" transform="translate(-97.16 102.47) rotate(-22.52)"/><rect class="cls-8" x="212.42" y="293.38" width="2.41" height="4.86" transform="translate(-97.02 104.39) rotate(-22.52)"/><rect class="cls-8" x="212.42" y="293.38" width="2.41" height="4.86" transform="translate(-97.02 104.39) rotate(-22.52)"/><rect class="cls-8" x="296.94" y="234.22" width="10.66" height="13.96" rx="1.63" transform="translate(-69.34 134.18) rotate(-22.52)"/><rect class="cls-8" x="297.96" y="235.24" width="8.62" height="11.92" rx="0.61" transform="translate(-69.34 134.18) rotate(-22.52)"/><rect class="cls-8" x="303.72" y="235.63" width="1.34" height="9.38" transform="translate(-68.84 134.93) rotate(-22.52)"/><rect class="cls-8" x="301.58" y="236.52" width="1.34" height="9.38" transform="translate(-69.34 134.18) rotate(-22.52)"/><rect class="cls-8" x="299.45" y="237.4" width="1.34" height="9.38" transform="translate(-69.84 133.43) rotate(-22.52)"/><rect class="cls-8" x="303.67" y="240.33" width="2.32" height="4.69" transform="translate(-69.71 135.28) rotate(-22.52)"/><rect class="cls-8" x="303.67" y="240.33" width="2.32" height="4.69" transform="translate(-69.71 135.28) rotate(-22.52)"/><path class="cls-8" d="M230.66,283l-1.83-4.41a.85.85,0,0,0-1.11-.46.86.86,0,0,0-.48,1.12l1.83,4.42a.86.86,0,0,0,1.59-.67Z"/><rect class="cls-8" x="228.09" y="279.64" width="1.73" height="2.9" transform="translate(-90.21 109.14) rotate(-22.52)"/><path class="cls-8" d="M228.21,279.28a.45.45,0,0,1-.35-.83.45.45,0,0,1,.59.24A.44.44,0,0,1,228.21,279.28Z"/><path class="cls-8" d="M230.05,283.72a.45.45,0,1,1,.24-.59A.44.44,0,0,1,230.05,283.72Z"/><path class="cls-8" d="M238.31,287.45l4.42-1.83a.87.87,0,0,0-.66-1.6l-4.42,1.83a.87.87,0,0,0,.66,1.6Z"/><rect class="cls-8" x="238.73" y="284.88" width="2.9" height="1.73" transform="translate(-91.13 113.8) rotate(-22.52)"/><path class="cls-8" d="M242,285a.46.46,0,0,1,.25-.59.45.45,0,1,1,.34.83A.45.45,0,0,1,242,285Z"/><path class="cls-8" d="M237.55,286.83a.45.45,0,0,1,.24-.59.45.45,0,1,1,.34.83A.44.44,0,0,1,237.55,286.83Z"/><path class="cls-8" d="M251.43,292l-1.84-4.42a.85.85,0,0,0-1.11-.46.86.86,0,0,0-.48,1.12l1.83,4.42a.87.87,0,0,0,1.6-.66Z"/><rect class="cls-8" x="248.86" y="288.66" width="1.73" height="2.9" transform="translate(-92.08 117.78) rotate(-22.52)"/><path class="cls-8" d="M249,288.3a.45.45,0,0,1-.59-.24.45.45,0,1,1,.83-.35A.44.44,0,0,1,249,288.3Z"/><path class="cls-8" d="M250.81,292.74a.45.45,0,0,1-.59-.24.45.45,0,0,1,.24-.59.45.45,0,1,1,.35.83Z"/><polygon class="cls-8" points="305.15 274.66 287.33 231.69 282.96 235.55 299.32 275.02 305.15 274.66"/><path class="cls-8" d="M313.22,256.61a1.09,1.09,0,0,1,.59-1.43l3.8-1.57a10.89,10.89,0,0,1,14.22,5.88l.23.55a1.1,1.1,0,0,1-.6,1.43,1.08,1.08,0,0,1-1.43-.59l-.23-.55a8.7,8.7,0,0,0-11.35-4.7l-3.8,1.58A1.1,1.1,0,0,1,313.22,256.61Z"/><path class="cls-8" d="M314,258l-1.18-2.86a1.11,1.11,0,0,0-1.44-.59l-.9.37,2,4.89.9-.37A1.1,1.1,0,0,0,314,258Z"/><path class="cls-8" d="M314.69,257.29l-.89-2.13a.43.43,0,0,0-.56-.23l-.41.17L314,258l.41-.17A.43.43,0,0,0,314.69,257.29Z"/><path class="cls-8" d="M325.67,252.06l-1.83,4.42a.85.85,0,0,0,.46,1.11.86.86,0,0,0,1.13-.45l1.83-4.42a.86.86,0,0,0-1.59-.66Z"/><rect class="cls-8" x="324.1" y="253.72" width="2.9" height="1.73" transform="translate(-34.15 458.08) rotate(-67.52)"/><path class="cls-8" d="M324.81,256.4a.43.43,0,0,1,.24.58.46.46,0,0,1-.59.25.45.45,0,1,1,.35-.83Z"/><path class="cls-8" d="M326.64,252a.45.45,0,0,1,.25.58.45.45,0,1,1-.84-.34A.45.45,0,0,1,326.64,252Z"/><path class="cls-8" d="M319.18,256.73l-1.83-4.41a.86.86,0,0,0-1.12-.47.87.87,0,0,0-.48,1.13l1.83,4.41a.87.87,0,0,0,1.6-.66Z"/><rect class="cls-8" x="316.61" y="253.42" width="1.73" height="2.9" transform="translate(-73.41 141.05) rotate(-22.52)"/><path class="cls-8" d="M316.72,253.06a.47.47,0,0,1-.59-.24.46.46,0,0,1,.25-.59.43.43,0,0,1,.58.24A.45.45,0,0,1,316.72,253.06Z"/><path class="cls-8" d="M318.56,257.5a.45.45,0,0,1-.34-.84.45.45,0,0,1,.34.84Z"/><path class="cls-8" d="M184.08,287.76a1.18,1.18,0,0,0,.63-1.53,1.17,1.17,0,0,0-2.16.89A1.18,1.18,0,0,0,184.08,287.76Z"/><path class="cls-8" d="M188.74,299a1.17,1.17,0,1,0-1.53-.64A1.18,1.18,0,0,0,188.74,299Z"/><path class="cls-8" d="M193.4,310.24a1.17,1.17,0,1,0-1.52-.63A1.17,1.17,0,0,0,193.4,310.24Z"/><rect class="cls-8" x="307.42" y="252.6" width="6.08" height="19.26" rx="2.12" transform="translate(-76.77 138.92) rotate(-22.52)"/><rect class="cls-8" x="307.99" y="254" width="6.08" height="19.26" rx="2.12" transform="translate(-77.26 139.25) rotate(-22.52)"/><path class="cls-8" d="M308.72,262.56l-2.4-5.79a.24.24,0,0,1,.44-.18l2.4,5.79a.23.23,0,0,1-.13.31A.24.24,0,0,1,308.72,262.56Z"/><path class="cls-8" d="M309.64,262.18l-2.4-5.79a.23.23,0,0,1,.13-.31.24.24,0,0,1,.31.13l2.4,5.79a.24.24,0,1,1-.44.18Z"/><path class="cls-8" d="M310.55,261.8l-2.4-5.79a.24.24,0,0,1,.13-.31.25.25,0,0,1,.32.13l2.4,5.79a.24.24,0,0,1-.13.31A.25.25,0,0,1,310.55,261.8Z"/><path class="cls-8" d="M311.47,261.42l-2.4-5.79a.24.24,0,0,1,.13-.31.25.25,0,0,1,.32.13l2.4,5.79a.24.24,0,0,1-.13.31A.25.25,0,0,1,311.47,261.42Z"/><path class="cls-8" d="M308.72,262.56l-2.4-5.79a.24.24,0,0,1,.44-.18l2.4,5.79a.23.23,0,0,1-.13.31A.24.24,0,0,1,308.72,262.56Z"/><path class="cls-8" d="M309.64,262.18l-2.4-5.79a.23.23,0,0,1,.13-.31.24.24,0,0,1,.31.13l2.4,5.79a.24.24,0,1,1-.44.18Z"/><path class="cls-8" d="M310.55,261.8l-2.4-5.79a.24.24,0,0,1,.13-.31.25.25,0,0,1,.32.13l2.4,5.79a.24.24,0,0,1-.13.31A.25.25,0,0,1,310.55,261.8Z"/><path class="cls-8" d="M311.47,261.42l-2.4-5.79a.24.24,0,0,1,.13-.31.25.25,0,0,1,.32.13l2.4,5.79a.24.24,0,0,1-.13.31A.25.25,0,0,1,311.47,261.42Z"/><path class="cls-8" d="M308.72,262.56l-2.4-5.79a.24.24,0,0,1,.44-.18l2.4,5.79a.23.23,0,0,1-.13.31A.24.24,0,0,1,308.72,262.56Z"/><path class="cls-8" d="M309.64,262.18l-2.4-5.79a.23.23,0,0,1,.13-.31.24.24,0,0,1,.31.13l2.4,5.79a.24.24,0,1,1-.44.18Z"/><path class="cls-8" d="M310.55,261.8l-2.4-5.79a.24.24,0,0,1,.13-.31.25.25,0,0,1,.32.13l2.4,5.79a.24.24,0,0,1-.13.31A.25.25,0,0,1,310.55,261.8Z"/><path class="cls-8" d="M311.47,261.42l-2.4-5.79a.24.24,0,0,1,.13-.31.25.25,0,0,1,.32.13l2.4,5.79a.24.24,0,0,1-.13.31A.25.25,0,0,1,311.47,261.42Z"/><rect class="cls-8" x="311.46" y="267.53" width="3.9" height="3.66" rx="1.07" transform="translate(-79.28 140.61) rotate(-22.52)"/><rect class="cls-8" x="309.53" y="262.87" width="3.9" height="3.66" rx="1.07" transform="translate(-77.63 139.49) rotate(-22.52)"/><path class="cls-8" d="M313.05,268.48a1,1,0,0,0-.51,1.24.94.94,0,0,0,1.23.51.93.93,0,0,0,.51-1.23A.94.94,0,0,0,313.05,268.48Z"/><path class="cls-8" d="M311.12,263.82a.95.95,0,1,0,1.23.52A.94.94,0,0,0,311.12,263.82Z"/><polygon class="cls-8" points="302.24 274.84 285.14 233.62 287.35 231.66 305.18 274.67 302.24 274.84"/><path class="cls-8" d="M348.3,233.86c13-6.25,24.33-11.65,28.69-13.87a.27.27,0,0,0-.21-.5c-4.7,1.55-16.65,5.8-30.09,10.49Z"/><rect class="cls-8" x="200.88" y="303.94" width="33.39" height="5.99" rx="2.32" transform="translate(-100.97 106.75) rotate(-22.52)"/><rect class="cls-8" x="201.59" y="305.66" width="33.39" height="5.99" rx="2.32" transform="translate(-101.57 107.14) rotate(-22.52)"/><path class="cls-8" d="M231.87,304.45c3.43,8.27-.47,17.74-11.3,22.23l-30.95,12.84a1.4,1.4,0,0,1-1.82-.75l-.49-1.19,7.43-3.08c8.48-3.53,13.62-10.56,10.1-19.05l26.4-12.52Z"/><rect class="cls-8" x="186.28" y="330.96" width="10.39" height="6.2" transform="translate(-113.36 98.82) rotate(-22.52)"/><path class="cls-8" d="M231.42,303.39c3.88,9.34-2.19,17-11.95,21.08l-30.65,12.71a1.54,1.54,0,0,1-2-.83l-1.21-2.9a1.55,1.55,0,0,1,.84-2l6-2.49c8.47-3.53,15.14-6.88,11.77-15l27-11.18Z"/><path class="cls-8" d="M78.39,333.22a2.45,2.45,0,0,1,1.3-3.23l33.07-13.72a2.47,2.47,0,0,1,1.89,4.56L81.58,334.54A2.43,2.43,0,0,1,78.39,333.22Z"/><path class="cls-8" d="M52.9,343.79a2.44,2.44,0,0,1,1.3-3.23l16-6.62A2.46,2.46,0,0,1,72,338.49l-16,6.62A2.43,2.43,0,0,1,52.9,343.79Z"/><path class="cls-8" d="M41,348.71a2.44,2.44,0,0,1,1.3-3.23L44,344.8a2.46,2.46,0,0,1,1.88,4.55l-1.64.68A2.42,2.42,0,0,1,41,348.71Z"/><path class="cls-8" d="M67.2,348.53a2.45,2.45,0,0,1,1.3-3.24l25.42-10.54a2.46,2.46,0,0,1,1.89,4.55L70.39,349.85A2.45,2.45,0,0,1,67.2,348.53Z"/><path class="cls-8" d="M51,355.27a2.45,2.45,0,0,1,1.3-3.24l5.24-2.17a2.46,2.46,0,0,1,1.89,4.55l-5.24,2.18A2.45,2.45,0,0,1,51,355.27Z"/><path class="cls-8" d="M37.66,360.78a2.47,2.47,0,0,1,1.3-3.24l2.63-1.09A2.47,2.47,0,0,1,43.48,361l-2.63,1.09A2.45,2.45,0,0,1,37.66,360.78Z"/><path class="cls-8" d="M182.76,308.58,180.88,304,179,299.48l-1.89-4.55-1.89-4.56-52.6,21.82a2.43,2.43,0,0,0-1.31,3.18l0,.05a2.42,2.42,0,0,0,3.18,1.32l5.88-2.44a2.46,2.46,0,0,1,1.89,4.55l-27.6,11.44a2.44,2.44,0,0,0-1.31,3.19l0,0a2.44,2.44,0,0,0,3.18,1.32l36.5-15.14a2.43,2.43,0,0,1,3.19,1.32l0,.05a2.44,2.44,0,0,1-1.32,3.18l-21.57,8.95a2.44,2.44,0,0,0-1.32,3.18l0,.05a2.43,2.43,0,0,0,3.19,1.32l59.38-24.63Z"/><path class="cls-8" d="M89.63,349.9a2.45,2.45,0,0,1,1.3-3.24l22.6-9.37a2.47,2.47,0,0,1,1.88,4.56l-22.59,9.37A2.45,2.45,0,0,1,89.63,349.9Z"/><path class="cls-8" d="M64.47,360.33a2.47,2.47,0,0,1,1.3-3.24l14.48-6a2.47,2.47,0,0,1,1.88,4.56l-14.47,6A2.45,2.45,0,0,1,64.47,360.33Z"/><path class="cls-8" d="M51.65,365.65a2.46,2.46,0,0,1,1.3-3.24L56.39,361a2.44,2.44,0,0,1,3.19,1.31,2.46,2.46,0,0,1-1.3,3.24L54.84,367A2.45,2.45,0,0,1,51.65,365.65Z"/><path class="cls-8" d="M180.88,304,179,299.48l-1.89-4.55-36,14.94a2.44,2.44,0,0,0-1.32,3.18l0,.05a2.43,2.43,0,0,0,3.19,1.32l10-4.16a2.46,2.46,0,0,1,1.89,4.55l-1.44.59a2.44,2.44,0,0,0-1.31,3.19l0,.05a2.44,2.44,0,0,0,3.18,1.32l27.43-11.38Z"/><path class="cls-8" d="M162.87,308.86a2.47,2.47,0,0,1,1.3-3.24L179,299.48l1.89,4.55-14.82,6.15A2.45,2.45,0,0,1,162.87,308.86Z"/><path class="cls-5" d="M283.62,286.27c-4.22,1.76-8.24,1.75-8.71.62s2.78-3,7-4.72,7.81-2.76,8.28-1.63S287.84,284.52,283.62,286.27Z"/><path class="cls-4" d="M271.66,286.75l-.7-1.68,20.75-8.6.69,1.67a1.65,1.65,0,0,1-.89,2.16l-17.7,7.34A1.64,1.64,0,0,1,271.66,286.75Z"/><path class="cls-3" d="M327.62,261.6a13.35,13.35,0,0,1,4.79-4.35l.87.92a3.08,3.08,0,0,1-.1,4.37l-.26.25a3.08,3.08,0,0,1-4.36-.12Z"/><path class="cls-11" d="M328.63,261.11l.78.83a27.15,27.15,0,0,0,3.1-2.95l-.77-.82Z"/><path class="cls-11" d="M329.42,262s3.09-3,3.09-3a2,2,0,0,1-.06,2.82l-.23.22A2,2,0,0,1,329.42,262Z"/><path class="cls-3" d="M222.8,285.42,174.15,305.6l-.1,0-1.25-3,.09,0,48.65-20.17A1.08,1.08,0,0,1,223,283l.44,1.05A1.09,1.09,0,0,1,222.8,285.42Z"/><path class="cls-3" d="M349.49,231.09c-21-8.69-38.13-9.39-62.15.57,5.6,14.2,11.65,28.51,17.84,43C329.19,264.71,340.8,252.1,349.49,231.09Z"/><path class="cls-3" d="M299.33,275,283,235.55l-95.27,39.51a5.63,5.63,0,0,0-3,7.37l12,29.05a5.65,5.65,0,0,0,7.37,3Z"/><polygon class="cls-11" points="191.44 312.59 180.46 286.1 184.47 282.01 197.18 312.64 191.44 312.59"/><path class="cls-5" d="M185.15,314.33l-10.37-25a.72.72,0,0,1,.39-.95l5.32-2.2,10.93,26.35-5.32,2.21A.72.72,0,0,1,185.15,314.33Z"/><path class="cls-12" d="M284.84,246l-94.71,39.28a1.53,1.53,0,0,1-2-.83l-1.48-3.56a1.53,1.53,0,0,1,.83-2l94.71-39.28Z"/><path class="cls-12" d="M286.87,250.87l-94.71,39.27a1.53,1.53,0,0,1-2-.83l-.15-.37a1.51,1.51,0,0,1,.82-2l94.71-39.28Z"/><path class="cls-11" d="M195.43,297.15a2.36,2.36,0,0,0,4.36-1.81l-4.47-10.77a2.36,2.36,0,0,0-4.35,1.81Z"/><path class="cls-5" d="M196.7,296.62a1,1,0,0,0,1.27.53,1,1,0,0,0,.55-1.28l-4.47-10.77a1,1,0,0,0-1.26-.53,1,1,0,0,0-.56,1.28Z"/><path class="cls-11" d="M198.35,304.17a2.39,2.39,0,1,0,1.29-3.12A2.38,2.38,0,0,0,198.35,304.17Z"/><path class="cls-5" d="M199.61,303.65a1,1,0,1,0,.55-1.33A1,1,0,0,0,199.61,303.65Z"/><rect class="cls-11" x="186.23" y="268.61" width="33.39" height="5.99" rx="2.32" transform="matrix(0.92, -0.38, 0.38, 0.92, -88.56, 98.44)"/><rect class="cls-5" x="185.52" y="266.89" width="33.39" height="5.99" rx="2.32" transform="translate(-87.95 98.04) rotate(-22.52)"/><path class="cls-3" d="M214.78,263.24c-3.43-8.27-12.89-12.2-23.72-7.71l-30.95,12.84a1.38,1.38,0,0,0-.75,1.81l.49,1.19,7.43-3.09c8.49-3.5,17.1-2.17,20.62,6.32l27.51-9.84Z"/><rect class="cls-3" x="160.09" y="267.81" width="10.39" height="6.2" transform="translate(-91.17 83.98) rotate(-22.52)"/><path class="cls-4" d="M215.22,264.31c-3.88-9.34-13.61-10.48-23.37-6.44L161.2,270.58a1.56,1.56,0,0,0-.84,2l1.21,2.9a1.54,1.54,0,0,0,2,.84l6-2.49c8.49-3.51,15.57-5.86,18.94,2.26l26.95-11.18Z"/><path class="cls-12" d="M345.21,232.27c-17.88-7.16-35.6-6-55.14,2.11l2.89,7c25.94-10.76,40.13-10.94,52.21-8.91C345.27,232.45,345.3,232.31,345.21,232.27Z"/><path class="cls-12" d="M343.11,233.38c-13.61-2.34-29.88,1.73-49.38,9.81l1.44,3.48c13.23-5.49,35.15-13.14,47.92-13.13C343.19,233.54,343.21,233.39,343.11,233.38Z"/><path class="cls-11" d="M237.3,299a1.18,1.18,0,0,0,.64-1.53,1.17,1.17,0,1,0-.64,1.53Z"/><path class="cls-11" d="M223.09,264.69a1.18,1.18,0,0,0,.63-1.53,1.17,1.17,0,0,0-2.16.89A1.18,1.18,0,0,0,223.09,264.69Z"/><path class="cls-11" d="M296.18,274.11c.6-.25.95-.76.79-1.15s-.77-.5-1.37-.26-1,.77-.79,1.15S295.59,274.36,296.18,274.11Z"/><path class="cls-11" d="M289.23,257.35a1.17,1.17,0,1,0-1.53-.64A1.18,1.18,0,0,0,289.23,257.35Z"/><path class="cls-11" d="M292.88,266.15a1,1,0,1,0-1.44-.42A1.07,1.07,0,0,0,292.88,266.15Z"/><path class="cls-11" d="M281.33,238.29c.59-.25,1.21-.14,1.37.25s-.19.91-.79,1.15-1.21.14-1.37-.25S280.73,238.53,281.33,238.29Z"/><path class="cls-11" d="M284.63,246.25a1,1,0,1,1-.72,1.31A1.07,1.07,0,0,1,284.63,246.25Z"/><path class="cls-11" d="M306.11,270c.6-.25.95-.77.79-1.16s-.78-.5-1.38-.25-.94.76-.78,1.15S305.51,270.24,306.11,270Z"/><path class="cls-11" d="M299.16,253.23a1.17,1.17,0,1,0-1.53-.63A1.17,1.17,0,0,0,299.16,253.23Z"/><path class="cls-11" d="M302.81,262a1,1,0,1,0-1.44-.42A1.07,1.07,0,0,0,302.81,262Z"/><path class="cls-11" d="M291.25,234.17c.6-.25,1.21-.13,1.37.26s-.19.9-.78,1.15-1.21.13-1.37-.26S290.66,234.42,291.25,234.17Z"/><path class="cls-11" d="M294.55,242.13a1,1,0,1,1,.72,1.74,1,1,0,1,1-.72-1.74Z"/><path class="cls-11" d="M247.24,254.67a1.17,1.17,0,1,0-1.52-.63A1.17,1.17,0,0,0,247.24,254.67Z"/><path class="cls-3" d="M282.27,274.57a9,9,0,1,1-.38-12.76A9,9,0,0,1,282.27,274.57Z"/><path class="cls-4" d="M281.31,273.66a7.7,7.7,0,1,1-.32-10.89A7.71,7.71,0,0,1,281.31,273.66Z"/><path class="cls-11" d="M279.49,272a5.2,5.2,0,1,1-.22-7.35A5.21,5.21,0,0,1,279.49,272Z"/><path class="cls-13" d="M281.58,271.6c-.51,1-3.65.56-7-1.09s-5.66-3.83-5.15-4.88,3.66-.56,7,1.09S282.1,270.55,281.58,271.6Z"/><path class="cls-14" d="M267.11,289.15l-3.8-9.16a2,2,0,0,0-2.67-1.1l-5.81,2.41a2,2,0,0,0-1.1,2.67l3.79,9.16Z"/><path class="cls-4" d="M267.13,289.21l-3-7.15a2,2,0,0,0-2.68-1.11l-5.8,2.41a2,2,0,0,0-1.11,2.67l3,7.16a1.21,1.21,0,0,0,1.58.65l7.35-3A1.2,1.2,0,0,0,267.13,289.21Z"/><path class="cls-13" d="M261.79,282a1,1,0,1,0,1.34.56A1,1,0,0,0,261.79,282Z"/><path class="cls-11" d="M259,283.1a1,1,0,1,0,1.34.56A1,1,0,0,0,259,283.1Z"/><path class="cls-5" d="M256.2,284.28a1,1,0,1,0,.78,1.89,1,1,0,0,0-.78-1.89Z"/><path class="cls-3" d="M264.25,285.24l1.53,3.69a.86.86,0,0,1-1.58.66l-1.53-3.69a.86.86,0,1,1,1.58-.66Z"/><rect class="cls-3" x="257.38" y="286.54" width="5.12" height="5.51" rx="0.54" transform="translate(-90.99 121.64) rotate(-22.52)"/><path class="cls-11" d="M261,287.07a.33.33,0,0,0,.18-.43.33.33,0,0,0-.43-.17.32.32,0,0,0-.17.42A.32.32,0,0,0,261,287.07Z"/><path class="cls-11" d="M257.67,288.44a.32.32,0,0,0,.18-.42.33.33,0,0,0-.61.25A.33.33,0,0,0,257.67,288.44Z"/><path class="cls-11" d="M262.51,290.76a.32.32,0,0,0,.18-.42.33.33,0,0,0-.43-.18.33.33,0,0,0-.17.43A.32.32,0,0,0,262.51,290.76Z"/><path class="cls-11" d="M259.2,292.14a.33.33,0,1,0-.43-.18A.33.33,0,0,0,259.2,292.14Z"/><circle class="cls-4" cx="221.47" cy="284.18" r="4.68" transform="translate(-71.52 493.86) rotate(-87.66)"/><path class="cls-3" d="M222.85,287.52a3.62,3.62,0,1,0-4.72-1.95A3.61,3.61,0,0,0,222.85,287.52Z"/><path class="cls-11" d="M222.28,286.15A2.13,2.13,0,1,0,219.5,285,2.14,2.14,0,0,0,222.28,286.15Z"/><path class="cls-5" d="M220.45,284.6a1.1,1.1,0,0,1,.6-1.43L231.11,279a7,7,0,0,1,5.44,0,7.07,7.07,0,0,1,3.85,3.84l1.66,4a4.92,4.92,0,0,0,6.42,2.65l5-2.06a1.1,1.1,0,0,1,1.43.6,1.08,1.08,0,0,1-.59,1.43l-5,2.06a7.11,7.11,0,0,1-9.28-3.84l-1.67-4A4.9,4.9,0,0,0,232,281l-10.06,4.19a1.08,1.08,0,0,1-1.43-.59Z"/><path class="cls-4" d="M254,290l-1.18-2.86a1.09,1.09,0,0,1,.59-1.43l.9-.38,2,4.89-.9.38A1.11,1.11,0,0,1,254,290Z"/><path class="cls-11" d="M253,290l-.88-2.12a.43.43,0,0,1,.23-.56l.42-.18,1.21,2.92-.42.17A.42.42,0,0,1,253,290Z"/><path class="cls-4" d="M207.12,288.11h7.68a.64.64,0,0,1,.64.64v11.09a.63.63,0,0,1-.63.63h-7.68a.63.63,0,0,1-.63-.63V288.74A.64.64,0,0,1,207.12,288.11Z" transform="translate(-96.64 103.26) rotate(-22.52)"/><rect class="cls-11" x="212.46" y="288.51" width="1.39" height="9.73" transform="translate(-96.12 104.03) rotate(-22.52)"/><rect class="cls-11" x="210.25" y="289.43" width="1.39" height="9.73" transform="translate(-96.64 103.25) rotate(-22.52)"/><rect class="cls-11" x="208.03" y="290.35" width="1.39" height="9.73" transform="translate(-97.16 102.47) rotate(-22.52)"/><rect class="cls-6" x="212.42" y="293.38" width="2.41" height="4.86" transform="translate(-97.02 104.39) rotate(-22.52)"/><rect class="cls-3" x="296.94" y="234.22" width="10.66" height="13.96" rx="1.63" transform="translate(-69.34 134.18) rotate(-22.52)"/><rect class="cls-4" x="297.96" y="235.24" width="8.62" height="11.92" rx="0.61" transform="translate(-69.34 134.18) rotate(-22.52)"/><rect class="cls-11" x="303.72" y="235.63" width="1.34" height="9.38" transform="translate(-68.84 134.93) rotate(-22.52)"/><rect class="cls-11" x="301.58" y="236.52" width="1.34" height="9.38" transform="translate(-69.34 134.18) rotate(-22.52)"/><rect class="cls-11" x="299.45" y="237.4" width="1.34" height="9.38" transform="translate(-69.84 133.43) rotate(-22.52)"/><rect class="cls-6" x="303.67" y="240.33" width="2.32" height="4.69" transform="translate(-69.71 135.28) rotate(-22.52)"/><path class="cls-4" d="M230.66,283l-1.83-4.41a.85.85,0,0,0-1.11-.46.86.86,0,0,0-.48,1.12l1.83,4.42a.86.86,0,0,0,1.59-.67Z"/><rect class="cls-4" x="228.09" y="279.64" width="1.73" height="2.9" transform="translate(-90.21 109.14) rotate(-22.52)"/><path class="cls-11" d="M228.21,279.28a.45.45,0,0,1-.35-.83.45.45,0,0,1,.59.24A.44.44,0,0,1,228.21,279.28Z"/><path class="cls-11" d="M230.05,283.72a.45.45,0,1,1,.24-.59A.44.44,0,0,1,230.05,283.72Z"/><path class="cls-4" d="M238.31,287.45l4.42-1.83a.87.87,0,0,0-.66-1.6l-4.42,1.83a.87.87,0,0,0,.66,1.6Z"/><rect class="cls-4" x="238.73" y="284.88" width="2.9" height="1.73" transform="translate(-91.13 113.8) rotate(-22.52)"/><path class="cls-11" d="M242,285a.46.46,0,0,1,.25-.59.45.45,0,1,1,.34.83A.45.45,0,0,1,242,285Z"/><path class="cls-11" d="M237.55,286.83a.45.45,0,0,1,.24-.59.45.45,0,1,1,.34.83A.44.44,0,0,1,237.55,286.83Z"/><path class="cls-4" d="M251.43,292l-1.84-4.42a.85.85,0,0,0-1.11-.46.86.86,0,0,0-.48,1.12l1.83,4.42a.87.87,0,0,0,1.6-.66Z"/><rect class="cls-4" x="248.86" y="288.66" width="1.73" height="2.9" transform="translate(-92.08 117.78) rotate(-22.52)"/><path class="cls-11" d="M249,288.3a.45.45,0,0,1-.59-.24.45.45,0,1,1,.83-.35A.44.44,0,0,1,249,288.3Z"/><path class="cls-11" d="M250.81,292.74a.45.45,0,0,1-.59-.24.45.45,0,0,1,.24-.59.45.45,0,1,1,.35.83Z"/><polygon class="cls-5" points="305.15 274.66 287.33 231.69 282.96 235.55 299.32 275.02 305.15 274.66"/><path class="cls-5" d="M313.22,256.61a1.09,1.09,0,0,1,.59-1.43l3.8-1.57a10.89,10.89,0,0,1,14.22,5.88l.23.55a1.1,1.1,0,0,1-.6,1.43,1.08,1.08,0,0,1-1.43-.59l-.23-.55a8.7,8.7,0,0,0-11.35-4.7l-3.8,1.58A1.1,1.1,0,0,1,313.22,256.61Z"/><path class="cls-4" d="M314,258l-1.18-2.86a1.11,1.11,0,0,0-1.44-.59l-.9.37,2,4.89.9-.37A1.1,1.1,0,0,0,314,258Z"/><path class="cls-11" d="M314.69,257.29l-.89-2.13a.43.43,0,0,0-.56-.23l-.41.17L314,258l.41-.17A.43.43,0,0,0,314.69,257.29Z"/><path class="cls-4" d="M325.67,252.06l-1.83,4.42a.85.85,0,0,0,.46,1.11.86.86,0,0,0,1.13-.45l1.83-4.42a.86.86,0,0,0-1.59-.66Z"/><rect class="cls-4" x="324.1" y="253.72" width="2.9" height="1.73" transform="translate(-34.15 458.08) rotate(-67.52)"/><path class="cls-11" d="M324.81,256.4a.43.43,0,0,1,.24.58.46.46,0,0,1-.59.25.45.45,0,1,1,.35-.83Z"/><path class="cls-11" d="M326.64,252a.45.45,0,0,1,.25.58.45.45,0,1,1-.84-.34A.45.45,0,0,1,326.64,252Z"/><path class="cls-4" d="M319.18,256.73l-1.83-4.41a.86.86,0,0,0-1.12-.47.87.87,0,0,0-.48,1.13l1.83,4.41a.87.87,0,0,0,1.6-.66Z"/><rect class="cls-4" x="316.61" y="253.42" width="1.73" height="2.9" transform="translate(-73.41 141.05) rotate(-22.52)"/><path class="cls-11" d="M316.72,253.06a.47.47,0,0,1-.59-.24.46.46,0,0,1,.25-.59.43.43,0,0,1,.58.24A.45.45,0,0,1,316.72,253.06Z"/><path class="cls-11" d="M318.56,257.5a.45.45,0,0,1-.34-.84.45.45,0,0,1,.34.84Z"/><path class="cls-5" d="M184.08,287.76a1.18,1.18,0,0,0,.63-1.53,1.17,1.17,0,0,0-2.16.89A1.18,1.18,0,0,0,184.08,287.76Z"/><path class="cls-5" d="M188.74,299a1.17,1.17,0,1,0-1.53-.64A1.18,1.18,0,0,0,188.74,299Z"/><path class="cls-5" d="M193.4,310.24a1.17,1.17,0,1,0-1.52-.63A1.17,1.17,0,0,0,193.4,310.24Z"/><rect class="cls-14" x="307.42" y="252.6" width="6.08" height="19.26" rx="2.12" transform="translate(-76.77 138.92) rotate(-22.52)"/><rect class="cls-4" x="307.99" y="254" width="6.08" height="19.26" rx="2.12" transform="translate(-77.26 139.25) rotate(-22.52)"/><path class="cls-3" d="M308.72,262.56l-2.4-5.79a.24.24,0,0,1,.44-.18l2.4,5.79a.23.23,0,0,1-.13.31A.24.24,0,0,1,308.72,262.56Z"/><path class="cls-3" d="M309.64,262.18l-2.4-5.79a.23.23,0,0,1,.13-.31.24.24,0,0,1,.31.13l2.4,5.79a.24.24,0,1,1-.44.18Z"/><path class="cls-3" d="M310.55,261.8l-2.4-5.79a.24.24,0,0,1,.13-.31.25.25,0,0,1,.32.13l2.4,5.79a.24.24,0,0,1-.13.31A.25.25,0,0,1,310.55,261.8Z"/><path class="cls-3" d="M311.47,261.42l-2.4-5.79a.24.24,0,0,1,.13-.31.25.25,0,0,1,.32.13l2.4,5.79a.24.24,0,0,1-.13.31A.25.25,0,0,1,311.47,261.42Z"/><path class="cls-15" d="M308.72,262.56l-2.4-5.79a.24.24,0,0,1,.44-.18l2.4,5.79a.23.23,0,0,1-.13.31A.24.24,0,0,1,308.72,262.56Z"/><path class="cls-15" d="M309.64,262.18l-2.4-5.79a.23.23,0,0,1,.13-.31.24.24,0,0,1,.31.13l2.4,5.79a.24.24,0,1,1-.44.18Z"/><path class="cls-15" d="M310.55,261.8l-2.4-5.79a.24.24,0,0,1,.13-.31.25.25,0,0,1,.32.13l2.4,5.79a.24.24,0,0,1-.13.31A.25.25,0,0,1,310.55,261.8Z"/><path class="cls-15" d="M311.47,261.42l-2.4-5.79a.24.24,0,0,1,.13-.31.25.25,0,0,1,.32.13l2.4,5.79a.24.24,0,0,1-.13.31A.25.25,0,0,1,311.47,261.42Z"/><rect class="cls-11" x="311.46" y="267.53" width="3.9" height="3.66" rx="1.07" transform="translate(-79.28 140.61) rotate(-22.52)"/><rect class="cls-13" x="309.53" y="262.87" width="3.9" height="3.66" rx="1.07" transform="translate(-77.63 139.49) rotate(-22.52)"/><path class="cls-4" d="M313.05,268.48a1,1,0,0,0-.51,1.24.94.94,0,0,0,1.23.51.93.93,0,0,0,.51-1.23A.94.94,0,0,0,313.05,268.48Z"/><path class="cls-4" d="M311.12,263.82a.95.95,0,1,0,1.23.52A.94.94,0,0,0,311.12,263.82Z"/><polygon class="cls-11" points="302.24 274.84 285.14 233.62 287.35 231.66 305.18 274.67 302.24 274.84"/><path class="cls-4" d="M348.3,233.86c13-6.25,24.33-11.65,28.69-13.87a.27.27,0,0,0-.21-.5c-4.7,1.55-16.65,5.8-30.09,10.49Z"/><rect class="cls-11" x="200.88" y="303.94" width="33.39" height="5.99" rx="2.32" transform="translate(-100.97 106.75) rotate(-22.52)"/><rect class="cls-5" x="201.59" y="305.66" width="33.39" height="5.99" rx="2.32" transform="translate(-101.57 107.14) rotate(-22.52)"/><path class="cls-3" d="M231.87,304.45c3.43,8.27-.47,17.74-11.3,22.23l-30.95,12.84a1.4,1.4,0,0,1-1.82-.75l-.49-1.19,7.43-3.08c8.48-3.53,13.62-10.56,10.1-19.05l26.4-12.52Z"/><rect class="cls-3" x="186.28" y="330.96" width="10.39" height="6.2" transform="translate(-113.36 98.82) rotate(-22.52)"/><path class="cls-4" d="M231.42,303.39c3.88,9.34-2.19,17-11.95,21.08l-30.65,12.71a1.54,1.54,0,0,1-2-.83l-1.21-2.9a1.55,1.55,0,0,1,.84-2l6-2.49c8.47-3.53,15.14-6.88,11.77-15l27-11.18Z"/><path class="cls-6" d="M78.39,333.22a2.45,2.45,0,0,1,1.3-3.23l33.07-13.72a2.47,2.47,0,0,1,1.89,4.56L81.58,334.54A2.43,2.43,0,0,1,78.39,333.22Z"/><path class="cls-6" d="M52.9,343.79a2.44,2.44,0,0,1,1.3-3.23l16-6.62A2.46,2.46,0,0,1,72,338.49l-16,6.62A2.43,2.43,0,0,1,52.9,343.79Z"/><path class="cls-6" d="M41,348.71a2.44,2.44,0,0,1,1.3-3.23L44,344.8a2.46,2.46,0,0,1,1.88,4.55l-1.64.68A2.42,2.42,0,0,1,41,348.71Z"/><path class="cls-6" d="M67.2,348.53a2.45,2.45,0,0,1,1.3-3.24l25.42-10.54a2.46,2.46,0,0,1,1.89,4.55L70.39,349.85A2.45,2.45,0,0,1,67.2,348.53Z"/><path class="cls-6" d="M51,355.27a2.45,2.45,0,0,1,1.3-3.24l5.24-2.17a2.46,2.46,0,0,1,1.89,4.55l-5.24,2.18A2.45,2.45,0,0,1,51,355.27Z"/><path class="cls-6" d="M37.66,360.78a2.47,2.47,0,0,1,1.3-3.24l2.63-1.09A2.47,2.47,0,0,1,43.48,361l-2.63,1.09A2.45,2.45,0,0,1,37.66,360.78Z"/><path class="cls-6" d="M182.76,308.58,180.88,304,179,299.48l-1.89-4.55-1.89-4.56-52.6,21.82a2.43,2.43,0,0,0-1.31,3.18l0,.05a2.42,2.42,0,0,0,3.18,1.32l5.88-2.44a2.46,2.46,0,0,1,1.89,4.55l-27.6,11.44a2.44,2.44,0,0,0-1.31,3.19l0,0a2.44,2.44,0,0,0,3.18,1.32l36.5-15.14a2.43,2.43,0,0,1,3.19,1.32l0,.05a2.44,2.44,0,0,1-1.32,3.18l-21.57,8.95a2.44,2.44,0,0,0-1.32,3.18l0,.05a2.43,2.43,0,0,0,3.19,1.32l59.38-24.63Z"/><path class="cls-6" d="M89.63,349.9a2.45,2.45,0,0,1,1.3-3.24l22.6-9.37a2.47,2.47,0,0,1,1.88,4.56l-22.59,9.37A2.45,2.45,0,0,1,89.63,349.9Z"/><path class="cls-6" d="M64.47,360.33a2.47,2.47,0,0,1,1.3-3.24l14.48-6a2.47,2.47,0,0,1,1.88,4.56l-14.47,6A2.45,2.45,0,0,1,64.47,360.33Z"/><path class="cls-6" d="M51.65,365.65a2.46,2.46,0,0,1,1.3-3.24L56.39,361a2.44,2.44,0,0,1,3.19,1.31,2.46,2.46,0,0,1-1.3,3.24L54.84,367A2.45,2.45,0,0,1,51.65,365.65Z"/><path class="cls-16" d="M180.88,304,179,299.48l-1.89-4.55-36,14.94a2.44,2.44,0,0,0-1.32,3.18l0,.05a2.43,2.43,0,0,0,3.19,1.32l10-4.16a2.46,2.46,0,0,1,1.89,4.55l-1.44.59a2.44,2.44,0,0,0-1.31,3.19l0,.05a2.44,2.44,0,0,0,3.18,1.32l27.43-11.38Z"/><path class="cls-17" d="M162.87,308.86a2.47,2.47,0,0,1,1.3-3.24L179,299.48l1.89,4.55-14.82,6.15A2.45,2.45,0,0,1,162.87,308.86Z"/><path class="cls-4" d="M32.5,306.18a.68.68,0,0,0-.54.23.82.82,0,0,0-.18.52.7.7,0,0,0,.72.75.67.67,0,0,0,.54-.22.87.87,0,0,0,.18-.53A.7.7,0,0,0,32.5,306.18Z"/><path class="cls-4" d="M144.88,82.72a.67.67,0,0,0-.54.22.85.85,0,0,0-.18.53.7.7,0,0,0,.72.75.66.66,0,0,0,.53-.23.79.79,0,0,0,.19-.52A.7.7,0,0,0,144.88,82.72Z"/><path class="cls-4" d="M60.68,421.09a.68.68,0,0,0-.61-.35.9.9,0,0,0-.76.46l0,.08-.08,0a.87.87,0,0,0-.46.71.71.71,0,0,0,.35.66,1.18,1.18,0,0,0,1.6-1.6Z"/><path class="cls-4" d="M15.5,402.67a.67.67,0,0,0-.54.22.85.85,0,0,0-.18.53.7.7,0,0,0,.72.75.68.68,0,0,0,.54-.23.84.84,0,0,0,.18-.52A.69.69,0,0,0,15.5,402.67Z"/><path class="cls-4" d="M75.17,400.3a.68.68,0,0,0-.54.23.82.82,0,0,0-.18.52.7.7,0,0,0,.72.75.67.67,0,0,0,.53-.23.77.77,0,0,0,.18-.52A.7.7,0,0,0,75.17,400.3Z"/><path class="cls-4" d="M124,401.67a.67.67,0,0,0-.54.22.85.85,0,0,0-.18.53.7.7,0,0,0,.72.75.68.68,0,0,0,.54-.23.84.84,0,0,0,.18-.52A.69.69,0,0,0,124,401.67Z"/><path class="cls-4" d="M139.57,370.69a.69.69,0,0,0-.75.72v.67a.75.75,0,0,0,1.5,0v-.67A.7.7,0,0,0,139.57,370.69Z"/><path class="cls-4" d="M184.14,238.65a.69.69,0,0,0-.75.71V240a.75.75,0,0,0,1.5,0v-.67A.7.7,0,0,0,184.14,238.65Z"/><path class="cls-4" d="M24.33,180.54a.7.7,0,0,0-.75.72v.67a.75.75,0,0,0,1.5,0v-.67A.7.7,0,0,0,24.33,180.54Z"/><path class="cls-4" d="M196.38,13a.7.7,0,0,0-.75.72v.67a.75.75,0,0,0,1.5,0v-.67A.7.7,0,0,0,196.38,13Z"/><path class="cls-4" d="M101.69,42.47a.7.7,0,0,0-.75.71v.67a.75.75,0,0,0,1.5,0v-.67A.69.69,0,0,0,101.69,42.47Z"/><path class="cls-4" d="M225.21,368.73a.68.68,0,0,0-.54.23.82.82,0,0,0-.18.52.7.7,0,0,0,.72.75.67.67,0,0,0,.53-.23.77.77,0,0,0,.18-.52A.7.7,0,0,0,225.21,368.73Z"/><path class="cls-4" d="M288.78,142.45a.67.67,0,0,0-.53.22.79.79,0,0,0-.18.53.7.7,0,0,0,.71.75.68.68,0,0,0,.54-.23.84.84,0,0,0,.18-.52A.69.69,0,0,0,288.78,142.45Z"/><path class="cls-4" d="M292.52,72.09a.67.67,0,0,0-.53.22.8.8,0,0,0-.19.53.7.7,0,0,0,.72.75.68.68,0,0,0,.54-.23.84.84,0,0,0,.18-.52A.69.69,0,0,0,292.52,72.09Z"/><path class="cls-4" d="M316.1,71.94a.68.68,0,0,0-.54.23.82.82,0,0,0-.18.52.69.69,0,0,0,.72.75.67.67,0,0,0,.53-.22.82.82,0,0,0,.19-.53A.7.7,0,0,0,316.1,71.94Z"/><path class="cls-4" d="M264.23,308.41a.67.67,0,0,0-.54.22.81.81,0,0,0-.18.53.7.7,0,0,0,.72.75.67.67,0,0,0,.53-.23.77.77,0,0,0,.18-.52A.7.7,0,0,0,264.23,308.41Z"/><path class="cls-4" d="M159.25,220.92a.67.67,0,0,0-.53.22.81.81,0,0,0-.18.53.7.7,0,0,0,.71.75.68.68,0,0,0,.54-.23.82.82,0,0,0,.18-.52A.69.69,0,0,0,159.25,220.92Z"/><path class="cls-4" d="M60.61,52.76a.68.68,0,0,0,.54-.23.77.77,0,0,0,.18-.52.69.69,0,0,0-.72-.75.67.67,0,0,0-.53.22.81.81,0,0,0-.18.53A.7.7,0,0,0,60.61,52.76Z"/><path class="cls-4" d="M112.5,368.73a.68.68,0,0,0-.54.23.82.82,0,0,0-.18.52.7.7,0,0,0,.72.75A.68.68,0,0,0,113,370a.82.82,0,0,0,.18-.52A.7.7,0,0,0,112.5,368.73Z"/><path class="cls-4" d="M37.21,150.9h-.66a.67.67,0,0,0-.54.22.85.85,0,0,0-.18.53.7.7,0,0,0,.72.75h.66a.68.68,0,0,0,.54-.23.84.84,0,0,0,.18-.52A.69.69,0,0,0,37.21,150.9Z"/><path class="cls-4" d="M30.06,46.68h-.67a.67.67,0,0,0-.53.23.77.77,0,0,0-.18.52.7.7,0,0,0,.71.75h.67A.68.68,0,0,0,30.6,48a.82.82,0,0,0,.18-.52A.7.7,0,0,0,30.06,46.68Z"/><path class="cls-4" d="M27.83,252.17h-.66a.67.67,0,0,0-.54.22.87.87,0,0,0-.18.53.7.7,0,0,0,.72.75h.66a.68.68,0,0,0,.54-.23.82.82,0,0,0,.18-.52A.69.69,0,0,0,27.83,252.17Z"/><path class="cls-4" d="M61.21,140.9a.67.67,0,0,0-.53.22.79.79,0,0,0-.18.53.7.7,0,0,0,.71.75.68.68,0,0,0,.54-.23.84.84,0,0,0,.18-.52A.69.69,0,0,0,61.21,140.9Z"/><path class="cls-4" d="M110.55,162.9a.67.67,0,0,0-.54.22.85.85,0,0,0-.18.53.7.7,0,0,0,.72.75.67.67,0,0,0,.53-.23.78.78,0,0,0,.18-.52A.69.69,0,0,0,110.55,162.9Z"/><path class="cls-4" d="M49.55,21.56a.65.65,0,0,0-.53.23.77.77,0,0,0-.19.52.7.7,0,0,0,.72.75.67.67,0,0,0,.54-.22.87.87,0,0,0,.18-.53A.7.7,0,0,0,49.55,21.56Z"/><path class="cls-4" d="M114.12,212.76a.65.65,0,0,0-.53.23.77.77,0,0,0-.19.52.7.7,0,0,0,.72.75.67.67,0,0,0,.54-.22.87.87,0,0,0,.18-.53A.7.7,0,0,0,114.12,212.76Z"/><path class="cls-4" d="M144.63,36.27a.7.7,0,0,0-.72-.75.65.65,0,0,0-.53.23.77.77,0,0,0-.19.52.69.69,0,0,0,.72.75.67.67,0,0,0,.54-.22A.87.87,0,0,0,144.63,36.27Z"/><path class="cls-4" d="M85.52,279.3a.68.68,0,0,0-.54.23.82.82,0,0,0-.18.52.7.7,0,0,0,.72.75.64.64,0,0,0,.53-.22.82.82,0,0,0,.19-.53A.7.7,0,0,0,85.52,279.3Z"/><path class="cls-4" d="M71.88,174.93a.7.7,0,0,0-.75.72v.66a.75.75,0,0,0,1.5,0v-.66A.7.7,0,0,0,71.88,174.93Z"/><path class="cls-4" d="M269.35,406.53a.67.67,0,0,0-.53.22.82.82,0,0,0-.19.53.7.7,0,0,0,.72.75.68.68,0,0,0,.54-.23.82.82,0,0,0,.18-.52A.7.7,0,0,0,269.35,406.53Z"/><path class="cls-4" d="M288.78,381.05a.7.7,0,0,0-.53.22.81.81,0,0,0-.18.53.7.7,0,0,0,.71.75.68.68,0,0,0,.54-.23.82.82,0,0,0,.18-.52A.7.7,0,0,0,288.78,381.05Z"/><path class="cls-4" d="M429.8,144.77a.66.66,0,0,0-.53.23.79.79,0,0,0-.19.52.7.7,0,0,0,.72.75.67.67,0,0,0,.54-.22.87.87,0,0,0,.18-.53A.7.7,0,0,0,429.8,144.77Z"/><path class="cls-4" d="M418.47,29.25a.68.68,0,0,0-.54.23.82.82,0,0,0-.18.52.7.7,0,0,0,.72.75.67.67,0,0,0,.53-.23.77.77,0,0,0,.18-.52A.7.7,0,0,0,418.47,29.25Z"/><path class="cls-4" d="M292.66,27.25a.67.67,0,0,0-.53.23A.77.77,0,0,0,292,28a.7.7,0,0,0,.71.75.68.68,0,0,0,.54-.23.82.82,0,0,0,.18-.52A.7.7,0,0,0,292.66,27.25Z"/><path class="cls-4" d="M417.5,165.2a.68.68,0,0,0-.54.23.82.82,0,0,0-.18.52.69.69,0,0,0,.72.75.67.67,0,0,0,.54-.22.87.87,0,0,0,.18-.53A.7.7,0,0,0,417.5,165.2Z"/><path class="cls-4" d="M425.87,54.94a.67.67,0,0,0-.53.22.81.81,0,0,0-.18.53.7.7,0,0,0,.71.75.68.68,0,0,0,.54-.23.77.77,0,0,0,.18-.52A.7.7,0,0,0,425.87,54.94Z"/><path class="cls-4" d="M310.1,202.37a.67.67,0,0,0-.54.22.87.87,0,0,0-.18.53.7.7,0,0,0,.72.75.65.65,0,0,0,.53-.23.77.77,0,0,0,.19-.52A.7.7,0,0,0,310.1,202.37Z"/><path class="cls-4" d="M276.71,324.66a.67.67,0,0,0-.54.22.87.87,0,0,0-.18.53.7.7,0,0,0,.72.75.66.66,0,0,0,.53-.23.77.77,0,0,0,.19-.52A.7.7,0,0,0,276.71,324.66Z"/><path class="cls-4" d="M256.68,331.18a.67.67,0,0,0-.53.22.81.81,0,0,0-.18.53.7.7,0,0,0,.71.75.68.68,0,0,0,.54-.23.82.82,0,0,0,.18-.52A.69.69,0,0,0,256.68,331.18Z"/><path class="cls-4" d="M139.28,287a.7.7,0,0,0-.71-.75.68.68,0,0,0-.54.23.77.77,0,0,0-.18.52.69.69,0,0,0,.72.75.67.67,0,0,0,.53-.22A.81.81,0,0,0,139.28,287Z"/><path class="cls-4" d="M242,34.52a.65.65,0,0,0-.53.23.77.77,0,0,0-.19.52A.7.7,0,0,0,242,36a.67.67,0,0,0,.54-.22.87.87,0,0,0,.18-.53A.7.7,0,0,0,242,34.52Z"/><path class="cls-4" d="M299,401.67h-.66a.67.67,0,0,0-.54.22.79.79,0,0,0-.18.53.7.7,0,0,0,.72.75H299a.68.68,0,0,0,.54-.23.84.84,0,0,0,.18-.52A.69.69,0,0,0,299,401.67Z"/><path class="cls-4" d="M377.94,300.12a.68.68,0,0,0-.54.23.82.82,0,0,0-.18.52.69.69,0,0,0,.72.75.67.67,0,0,0,.54-.22.87.87,0,0,0,.18-.53A.7.7,0,0,0,377.94,300.12Z"/><path class="cls-4" d="M253.57,55.52a.68.68,0,0,0-.54.23.82.82,0,0,0-.18.52.7.7,0,0,0,.72.75.66.66,0,0,0,.53-.23.77.77,0,0,0,.19-.52A.7.7,0,0,0,253.57,55.52Z"/><path class="cls-4" d="M404,311.89a.68.68,0,0,0-.54.23.82.82,0,0,0-.18.52.7.7,0,0,0,.72.75.65.65,0,0,0,.53-.23.77.77,0,0,0,.19-.52A.7.7,0,0,0,404,311.89Z"/><path class="cls-4" d="M351.38,187.56a.65.65,0,0,0-.53.22.82.82,0,0,0-.19.53.7.7,0,0,0,.72.75.68.68,0,0,0,.54-.23.82.82,0,0,0,.18-.52A.69.69,0,0,0,351.38,187.56Z"/><path class="cls-4" d="M353.38,26.25a.67.67,0,0,0-.53.23.77.77,0,0,0-.18.52.7.7,0,0,0,.71.75.68.68,0,0,0,.54-.23.82.82,0,0,0,.18-.52A.7.7,0,0,0,353.38,26.25Z"/><path class="cls-4" d="M404.94,188.25a.68.68,0,0,0-.54.23.84.84,0,0,0-.18.52.69.69,0,0,0,.72.75.67.67,0,0,0,.53-.22.79.79,0,0,0,.18-.53A.7.7,0,0,0,404.94,188.25Z"/><path class="cls-4" d="M392.51,49.24a.65.65,0,0,0-.53.22.82.82,0,0,0-.19.53.7.7,0,0,0,.72.75.68.68,0,0,0,.54-.23.82.82,0,0,0,.18-.52A.69.69,0,0,0,392.51,49.24Z"/><path class="cls-4" d="M248,230.91a.67.67,0,0,0-.53.22.81.81,0,0,0-.18.53.7.7,0,0,0,.71.75.68.68,0,0,0,.54-.23.82.82,0,0,0,.18-.52A.7.7,0,0,0,248,230.91Z"/><path class="cls-4" d="M236.86,77.56a.68.68,0,0,0-.54.23.82.82,0,0,0-.18.52.7.7,0,0,0,.72.75.67.67,0,0,0,.53-.22.81.81,0,0,0,.18-.53A.7.7,0,0,0,236.86,77.56Z"/><path class="cls-4" d="M295.17,429.57a.67.67,0,0,0-.53.23.78.78,0,0,0-.18.52.69.69,0,0,0,.71.75.67.67,0,0,0,.54-.22.87.87,0,0,0,.18-.53A.7.7,0,0,0,295.17,429.57Z"/><path class="cls-4" d="M337.5,306.37a.7.7,0,0,0-.75.72v.66a.75.75,0,0,0,1.5,0v-.66A.7.7,0,0,0,337.5,306.37Z"/><path class="cls-4" d="M359.5,434.89a.68.68,0,0,0-.54.23.82.82,0,0,0-.18.52.7.7,0,0,0,.72.75.68.68,0,0,0,.54-.23.82.82,0,0,0,.18-.52A.7.7,0,0,0,359.5,434.89Z"/><path class="cls-4" d="M397,292.36a.71.71,0,0,0-.54.22.87.87,0,0,0-.18.53.7.7,0,0,0,.72.75.65.65,0,0,0,.53-.23.77.77,0,0,0,.19-.52A.7.7,0,0,0,397,292.36Z"/><path class="cls-4" d="M428.83,208.22a.67.67,0,0,0-.53.23.77.77,0,0,0-.18.52.7.7,0,0,0,.71.75.67.67,0,0,0,.54-.22.81.81,0,0,0,.18-.53A.7.7,0,0,0,428.83,208.22Z"/><path class="cls-4" d="M323.77,170.32a.67.67,0,0,0-.53.23.77.77,0,0,0-.18.52.7.7,0,0,0,.71.75.67.67,0,0,0,.54-.22.87.87,0,0,0,.18-.53A.7.7,0,0,0,323.77,170.32Z"/><path class="cls-4" d="M379.37,255.57a.47.47,0,0,0-.17,0,.69.69,0,0,0-.49.23l-.67.66a.69.69,0,0,0-.2.67.89.89,0,0,0,.6.59.63.63,0,0,0,.66-.2l.67-.66a.67.67,0,0,0,.2-.67A.89.89,0,0,0,379.37,255.57Z"/><path class="cls-4" d="M285.3,166.11a.43.43,0,0,0-.17,0,.71.71,0,0,0-.49.23L284,167a.66.66,0,0,0-.19.67.85.85,0,0,0,.59.59.63.63,0,0,0,.66-.2l.67-.66a.67.67,0,0,0,.2-.67A.87.87,0,0,0,285.3,166.11Z"/><path class="cls-4" d="M319.58,41.13a.72.72,0,0,0-.53.22l-.67.67a.75.75,0,0,0,1.06,1.06l.67-.67a.69.69,0,0,0,.22-.54.89.89,0,0,0-.75-.74Z"/><path class="cls-4" d="M423.94,428.22a.67.67,0,0,0-.54.22.87.87,0,0,0-.18.53.7.7,0,0,0,.72.75.68.68,0,0,0,.54-.23.82.82,0,0,0,.18-.52A.69.69,0,0,0,423.94,428.22Z"/><path class="cls-4" d="M425.87,383.44a.67.67,0,0,0-.53.22.81.81,0,0,0-.18.53.7.7,0,0,0,.71.75.68.68,0,0,0,.54-.23.77.77,0,0,0,.18-.52A.69.69,0,0,0,425.87,383.44Z"/><circle class="cls-2" cx="80.11" cy="106.84" r="44.69" transform="translate(-36.26 41.33) rotate(-23.76)"/><path class="cls-18" d="M111.15,129.33l-.05-.13a8.09,8.09,0,0,0-10.56-4.42l-4.48,1.83A4.68,4.68,0,0,1,90,124.05l0-.08a4.69,4.69,0,0,1,2.57-6.11l9.83-4a6.16,6.16,0,0,0,3.38-8l-.23-.55a6.15,6.15,0,0,0-8-3.37l-22.17,9.07a4.68,4.68,0,0,1-6.11-2.56l-.51-1.25a4.67,4.67,0,0,1,2.56-6.1l6.27-2.56a6.18,6.18,0,0,0,3.37-8l0-.11a6.17,6.17,0,0,0-8-3.37l-2.5,1a6.59,6.59,0,0,1-8.6-3.6l-.06-.15a9.77,9.77,0,0,0-12.73-5.34l-4,1.64a44.51,44.51,0,0,1,71.95,52.41A5.78,5.78,0,0,1,111.15,129.33Z"/><path class="cls-19" d="M102,132.31a2.82,2.82,0,1,1-1.54,3.68A2.82,2.82,0,0,1,102,132.31ZM80.4,131a3.86,3.86,0,1,0,2.11-5A3.87,3.87,0,0,0,80.4,131Zm12.07-19a1.35,1.35,0,1,0,.74-1.75A1.34,1.34,0,0,0,92.47,112ZM46.9,89.32A3.76,3.76,0,1,0,49,84.41,3.75,3.75,0,0,0,46.9,89.32Zm11.54,26.35A2,2,0,1,0,59.55,113,2,2,0,0,0,58.44,115.67Zm27.3-20.36a6.31,6.31,0,1,0,3.45-8.22A6.31,6.31,0,0,0,85.74,95.31Zm20.67,25.29a5.16,5.16,0,1,0,2.82-6.73A5.16,5.16,0,0,0,106.41,120.6Zm8-11.56a3.23,3.23,0,1,0,1.77-4.21A3.23,3.23,0,0,0,114.36,109ZM63.64,80.15a3.23,3.23,0,1,0,1.77-4.21A3.24,3.24,0,0,0,63.64,80.15Zm13.85.55a2.2,2.2,0,1,0,1.2-2.86A2.2,2.2,0,0,0,77.49,80.7Zm20.62.59a1.86,1.86,0,1,0,1-2.43A1.86,1.86,0,0,0,98.11,81.29Zm8.32,16.83a1.86,1.86,0,1,0,1-2.43A1.86,1.86,0,0,0,106.43,98.12Zm-11.9,23.62a1.86,1.86,0,1,0,1-2.42A1.85,1.85,0,0,0,94.53,121.74ZM72,106.71a2.2,2.2,0,1,0,1.2-2.87A2.19,2.19,0,0,0,72,106.71Zm9.54-35.17a3.39,3.39,0,1,0,1.85-4.41A3.39,3.39,0,0,0,81.49,71.54Z"/><path class="cls-6" d="M324.58,124.36a45.57,45.57,0,1,0,5.66-44.6A45.59,45.59,0,0,0,324.58,124.36Z"/><path class="cls-20" d="M324.58,124.36a45.59,45.59,0,0,0,79.39,9,5.91,5.91,0,0,1-5.79-3.68l-.05-.12A8.3,8.3,0,0,0,387.31,125l-4.58,1.89a4.8,4.8,0,0,1-6.26-2.62l0-.08a4.79,4.79,0,0,1,2.62-6.26l10.07-4.14a6.32,6.32,0,0,0,3.45-8.24l-.23-.56a6.31,6.31,0,0,0-8.24-3.44l-22.7,9.31a4.8,4.8,0,0,1-6.26-2.62l-.52-1.28a4.78,4.78,0,0,1,2.62-6.25l6.41-2.63a6.31,6.31,0,0,0,3.44-8.24l0-.12a6.33,6.33,0,0,0-8.25-3.45l-2.56,1.06a6.75,6.75,0,0,1-8.81-3.68l-.07-.16a10,10,0,0,0-13-5.45l-4.09,1.68A45.57,45.57,0,0,0,324.58,124.36Z"/><path class="cls-2" d="M305.94,87.83l3.62-1.49a11,11,0,0,1,14.38,6l.07.17a7.45,7.45,0,0,0,9.71,4.06l2.84-1.16a7,7,0,0,1,9.09,3.8l.06.13a7,7,0,0,1-3.81,9.09l-7.07,2.91a5.29,5.29,0,0,0-2.89,6.9l.58,1.41a5.29,5.29,0,0,0,6.9,2.88l14-5.74a7,7,0,0,1,9.1,3.81l.25.61a7,7,0,0,1-3.8,9.1l-1.06.43a5.28,5.28,0,0,0-2.89,6.9l0,.1a5.29,5.29,0,0,0,6.9,2.89l5.07-2.08a9.14,9.14,0,0,1,11.93,5l.06.14a6.56,6.56,0,0,0,8.56,3.58l7.65-3.14,2.92,7.12-.26.23-.26-.64L341.29,174Z"/><path class="cls-6" d="M387.26,136.53a2.89,2.89,0,1,0,1.58-3.77A2.89,2.89,0,0,0,387.26,136.53Z"/><path class="cls-6" d="M366.7,131.47a4,4,0,1,0,2.15-5.16A4,4,0,0,0,366.7,131.47Z"/><path class="cls-6" d="M379,112a1.37,1.37,0,1,0,.75-1.8A1.38,1.38,0,0,0,379,112Z"/><path class="cls-6" d="M332.35,88.78a3.85,3.85,0,1,0,2.1-5A3.85,3.85,0,0,0,332.35,88.78Z"/><path class="cls-6" d="M344.19,115.76a2.09,2.09,0,1,0,1.14-2.72A2.09,2.09,0,0,0,344.19,115.76Z"/><circle class="cls-21" cx="378.11" cy="92.43" r="6.46" transform="translate(0.19 185.62) rotate(-27.59)"/><path class="cls-16" d="M380.18,98.66a1,1,0,0,0-.75-1.83A4.58,4.58,0,1,1,376,88.36a1,1,0,0,0-.75-1.83,6.55,6.55,0,1,0,5,12.13Z"/><path class="cls-21" d="M393.32,120.76a5.28,5.28,0,1,0,2.88-6.89A5.3,5.3,0,0,0,393.32,120.76Z"/><path class="cls-16" d="M399.91,123.85a.81.81,0,0,0,.44-1.06.82.82,0,0,0-1.06-.44,3.74,3.74,0,1,1-2.84-6.92.82.82,0,0,0,.44-1.06.81.81,0,0,0-1.05-.44,5.36,5.36,0,1,0,4.07,9.92Z"/><path class="cls-21" d="M401.46,108.92a3.31,3.31,0,1,0,1.8-4.32A3.29,3.29,0,0,0,401.46,108.92Z"/><path class="cls-16" d="M405.58,110.86a.52.52,0,0,0,.28-.66.51.51,0,0,0-.66-.28,2.35,2.35,0,0,1-1.79-4.34.5.5,0,0,0,.28-.66.51.51,0,0,0-.66-.28,3.36,3.36,0,0,0,2.55,6.22Z"/><path class="cls-21" d="M349.49,79.37a3.31,3.31,0,1,0,1.8-4.31A3.31,3.31,0,0,0,349.49,79.37Z"/><path class="cls-16" d="M353.61,81.31a.51.51,0,0,0,.28-.66.5.5,0,0,0-.66-.27A2.35,2.35,0,0,1,351.44,76a.5.5,0,0,0,.28-.66.51.51,0,0,0-.66-.27,3.36,3.36,0,1,0,2.55,6.21Z"/><path class="cls-21" d="M363.67,79.93A2.25,2.25,0,1,0,364.9,77,2.25,2.25,0,0,0,363.67,79.93Z"/><path class="cls-16" d="M366.47,81.25a.35.35,0,0,0,.19-.45.34.34,0,0,0-.45-.19,1.59,1.59,0,1,1-1.21-3,.35.35,0,0,0,.19-.45.35.35,0,0,0-.45-.19,2.29,2.29,0,0,0,1.73,4.23Z"/><path class="cls-21" d="M384.78,80.51a1.91,1.91,0,1,0,1-2.49A1.91,1.91,0,0,0,384.78,80.51Z"/><path class="cls-16" d="M387.16,81.63a.29.29,0,1,0-.22-.54,1.35,1.35,0,0,1-1-2.5.29.29,0,1,0-.22-.54,1.94,1.94,0,0,0,1.47,3.58Z"/><path class="cls-21" d="M393.32,97.74a1.91,1.91,0,1,0,1-2.49A1.91,1.91,0,0,0,393.32,97.74Z"/><path class="cls-16" d="M395.7,98.85a.29.29,0,0,0,.15-.38.29.29,0,0,0-.38-.16,1.34,1.34,0,0,1-1.76-.73,1.37,1.37,0,0,1,.74-1.77.29.29,0,1,0-.22-.54,1.94,1.94,0,1,0,1.47,3.58Z"/><path class="cls-21" d="M381.15,121.94a1.91,1.91,0,1,0,1-2.48A1.9,1.9,0,0,0,381.15,121.94Z"/><path class="cls-16" d="M383.53,123.06a.29.29,0,1,0-.22-.54,1.37,1.37,0,0,1-1.77-.74,1.35,1.35,0,0,1,.74-1.76.29.29,0,1,0-.22-.54,1.94,1.94,0,1,0,1.47,3.58Z"/><path class="cls-21" d="M358,106.57a2.25,2.25,0,1,0,1.23-2.94A2.25,2.25,0,0,0,358,106.57Z"/><path class="cls-16" d="M360.82,107.88a.34.34,0,1,0-.26-.63,1.6,1.6,0,0,1-1.21-3,.34.34,0,0,0,.18-.45.33.33,0,0,0-.44-.18,2.28,2.28,0,1,0,1.73,4.22Z"/><path class="cls-21" d="M367.76,70.54A3.46,3.46,0,1,0,369.65,66,3.46,3.46,0,0,0,367.76,70.54Z"/><path class="cls-16" d="M372.08,72.57a.53.53,0,0,0,.29-.69.54.54,0,0,0-.7-.29A2.46,2.46,0,0,1,369.81,67a.53.53,0,0,0-.4-1,3.52,3.52,0,0,0,2.67,6.51Z"/><circle class="cls-3" cx="68.09" cy="229.65" r="29.13" transform="translate(-55.05 24.19) rotate(-14.42)"/><path class="cls-2" d="M27.5,218.44l23.13-8.87a6.38,6.38,0,0,1,8.24,3.68l0,.1a4.31,4.31,0,0,0,5.57,2.48l8.61-3.3a4,4,0,0,1,5.22,2.33l0,.07A4,4,0,0,1,76,220.15L62.1,225.48a3.07,3.07,0,0,0-1.76,4l.32.82a3.06,3.06,0,0,0,4,1.77l10.71-4.11a4,4,0,0,1,5.22,2.32l.14.36a4,4,0,0,1-2.33,5.22l-4.63,1.78a3.06,3.06,0,0,0-1.76,4l0,.05a3.07,3.07,0,0,0,4,1.77l11.27-4.33a5.29,5.29,0,0,1,6.84,3l0,.09A3.79,3.79,0,0,0,99,244.37l8.33-3.19L89.19,268l-23.27,3.59L34.17,246.3Z"/><path class="cls-2" d="M82.76,229a3,3,0,1,0,1.7-3.82A3,3,0,0,0,82.76,229Z"/><path class="cls-2" d="M60.76,210.48A2.18,2.18,0,1,0,62,207.67,2.18,2.18,0,0,0,60.76,210.48Z"/><path class="cls-2" d="M75.27,240.41a1.53,1.53,0,1,0,.88-2A1.53,1.53,0,0,0,75.27,240.41Z"/><path class="cls-2" d="M91.52,236.87a1.53,1.53,0,1,0,.88-2A1.51,1.51,0,0,0,91.52,236.87Z"/><path class="cls-2" d="M62.4,229.25a1.53,1.53,0,1,0,.88-2A1.53,1.53,0,0,0,62.4,229.25Z"/><circle class="cls-2" cx="79.97" cy="213.51" r="1.25" transform="translate(-138.21 279.69) rotate(-86.34)"/><circle class="cls-4" cx="176.77" cy="404.71" r="17.08" transform="translate(-264.77 413.64) rotate(-67.56)"/><path class="cls-2" d="M152.78,398.87l13.39-5.62a3.75,3.75,0,0,1,4.9,2l0,.06a2.53,2.53,0,0,0,3.31,1.36l2.53-1a2.39,2.39,0,0,1,1.85,4.41l-1.64.77a1.79,1.79,0,0,0-1,2.35l.2.48a1.8,1.8,0,0,0,2.35,1l7.23-3.15a2.37,2.37,0,0,1,3.1,1.27l.08.21a2.37,2.37,0,0,1-1.26,3.1l-7.68,3.2a1.81,1.81,0,0,0,1.4,3.34l4-1.7a3.11,3.11,0,0,1,4.06,1.67l0,.05a2.23,2.23,0,0,0,2.92,1.19l4.83-2-7.6,15-13.58,2.52-19.05-14.24Z"/><path class="cls-2" d="M186.67,398.85a1.73,1.73,0,1,0,.92-2.26A1.72,1.72,0,0,0,186.67,398.85Z"/><path class="cls-2" d="M172.13,393.61a1.28,1.28,0,0,0,2.36-1,1.29,1.29,0,0,0-1.68-.69A1.28,1.28,0,0,0,172.13,393.61Z"/><path class="cls-2" d="M181.17,410.89a.9.9,0,1,0,.48-1.18A.9.9,0,0,0,181.17,410.89Z"/><path class="cls-2" d="M190.62,408.52a.9.9,0,1,0,.49-1.17A.9.9,0,0,0,190.62,408.52Z"/><path class="cls-2" d="M177.34,402.94a1.37,1.37,0,1,0,.73-1.78A1.36,1.36,0,0,0,177.34,402.94Z"/><path class="cls-2" d="M182.77,395.32a.73.73,0,0,0,1.35-.56.73.73,0,1,0-1.35.56Z"/><g class="cls-22"><circle class="cls-18" cx="198.42" cy="53.19" r="15.4" transform="translate(42.07 186.44) rotate(-55.45)"/><path class="cls-2" d="M176.67,48.47l11.94-5.36a3.36,3.36,0,0,1,4.46,1.69l0,.06a2.27,2.27,0,0,0,3,1.14l1.35-.6a2.12,2.12,0,0,1,2.82,1.07,2.14,2.14,0,0,1-1.05,2.86l-4.09,1.84a1.62,1.62,0,0,0-.82,2.14l.2.42a1.62,1.62,0,0,0,2.14.82l3.85-1.73a2.13,2.13,0,0,1,2.82,1.07l.08.19a2.12,2.12,0,0,1-1.07,2.82l-.72.32a1.63,1.63,0,0,0,1.34,3l5.83-2.61a2.8,2.8,0,0,1,3.7,1.41,2,2,0,0,0,2.67,1l4.31-1.93L210.68,72.8l-12.17,2.59L181,63Z"/><path class="cls-2" d="M202.21,50a1.85,1.85,0,1,0,.93-2.44A1.84,1.84,0,0,0,202.21,50Z"/><path class="cls-2" d="M195.1,43.9a.94.94,0,1,0,.47-1.24A.95.95,0,0,0,195.1,43.9Z"/><path class="cls-2" d="M204.83,56.74a1.14,1.14,0,0,0,2.08-.94,1.15,1.15,0,0,0-1.51-.57A1.13,1.13,0,0,0,204.83,56.74Z"/><path class="cls-2" d="M209.71,50.54a.81.81,0,1,0,.4-1.07A.81.81,0,0,0,209.71,50.54Z"/><path class="cls-2" d="M195.4,53.15a.81.81,0,1,0,.41-1.07A.8.8,0,0,0,195.4,53.15Z"/><path class="cls-2" d="M202.61,44.55a1.11,1.11,0,1,0,.56-1.47A1.11,1.11,0,0,0,202.61,44.55Z"/><path class="cls-2" d="M210.13,55.36a.55.55,0,0,0,.73.28.56.56,0,0,0,.28-.73.55.55,0,1,0-1,.45Z"/></g><circle class="cls-16" cx="356.98" cy="374.11" r="38.07" transform="translate(-159.82 391.85) rotate(-48.31)"/><path class="cls-2" d="M303.63,360.58l30-12.23a8.35,8.35,0,0,1,10.88,4.58l.05.13a5.63,5.63,0,0,0,7.35,3.09l3.39-1.38a5.33,5.33,0,0,1,4,9.88L349,368.83a4,4,0,0,0-2.19,5.22l.43,1.07a4,4,0,0,0,5.22,2.19l9.67-3.94a5.28,5.28,0,0,1,6.88,2.9l.19.46a5.28,5.28,0,0,1-2.89,6.88l-1.8.74a4,4,0,0,0,3.06,7.49l14.61-6a6.92,6.92,0,0,1,9,3.8,5,5,0,0,0,6.52,2.83l10.8-4.4-23,35.52L355.29,429,313.11,396.8Z"/><path class="cls-2" d="M366.61,366.64a4.56,4.56,0,1,0,2.5-5.95A4.57,4.57,0,0,0,366.61,366.64Z"/><path class="cls-2" d="M349.57,350.88a2.33,2.33,0,1,0,1.28-3A2.33,2.33,0,0,0,349.57,350.88Z"/><path class="cls-2" d="M372.5,383.43a2.82,2.82,0,1,0,1.55-3.68A2.83,2.83,0,0,0,372.5,383.43Z"/><path class="cls-2" d="M382.35,361.7a2,2,0,1,0,1.09-2.61A2,2,0,0,0,382.35,361.7Z"/><path class="cls-2" d="M349.53,373.75a2,2,0,1,0,1.1-2.61A2,2,0,0,0,349.53,373.75Z"/><path class="cls-2" d="M368.07,353.13a2.75,2.75,0,1,0,1.51-3.59A2.74,2.74,0,0,0,368.07,353.13Z"/><path class="cls-2" d="M388.05,382.32a1.37,1.37,0,1,0,2.54-1,1.36,1.36,0,0,0-1.78-.75A1.38,1.38,0,0,0,388.05,382.32Z"/><path class="cls-2" d="M430,333.62c-1.42-2.45-4.46-3.69-9-3.69-6.93,0-17.66,2.82-30.76,8.05v12.6c9.44-4.05,16.78-6.35,20.32-6.35a4.65,4.65,0,0,1,1,.09c-.8,4-18.32,18.94-49.55,37-6,3.45-11.95,6.71-17.78,9.71l-.19.09L320.79,410l2,3.42a313,313,0,0,0,45.18-21.85c18.8-10.85,35.59-22.62,47.28-33.14C428,347,432.93,338.63,430,333.62Z"/><path class="cls-4" d="M428.3,334.62c-3.38-5.86-21.88-1.87-46.45,9.09a29,29,0,0,1,5.73,5.85c14.26-6.28,24.28-8.95,25.8-6.32,2.56,4.43-20,22.24-50.38,39.78-6.17,3.56-12.18,6.83-17.87,9.76l-23.07,18.78a312.64,312.64,0,0,0,44.88-21.71C405.57,367.55,433,342.82,428.3,334.62Z"/><path class="cls-16" d="M339,397.81c5.83-3,19.09-9.61,25.05-13.06,14.78-8.53,28.19-17.4,37.78-25,14.28-11.28,14.63-15.3,13.33-17.54-.77-1.33-2.29-2-4.54-2-5.26,0-16.8,4.23-24.37,7.5a27.61,27.61,0,0,0-2.61-2.56c15.27-6.59,30.05-11.24,37.42-11.24,2.95,0,4.93.6,5.56,1.69,1.27,2.19-1.65,8.7-14,19.84-11.48,10.34-28,21.94-46.6,32.66-11,6.37-29.25,15.32-39.45,19.83Z"/></g></g></svg>