<svg xmlns="http://www.w3.org/2000/svg" xmlns:xlink="http://www.w3.org/1999/xlink" viewBox="0 0 338.67 178.99"><defs><style>.cls-1{fill:#8ec2ff;}.cls-1,.cls-10,.cls-11,.cls-12,.cls-13,.cls-14,.cls-15,.cls-16,.cls-17,.cls-18,.cls-19,.cls-2,.cls-20,.cls-21,.cls-22,.cls-23,.cls-24,.cls-25,.cls-26,.cls-27,.cls-28,.cls-29,.cls-3,.cls-30,.cls-31,.cls-32,.cls-33,.cls-34,.cls-35,.cls-36,.cls-37,.cls-38,.cls-39,.cls-4,.cls-40,.cls-41,.cls-42,.cls-43,.cls-44,.cls-45,.cls-46,.cls-47,.cls-48,.cls-49,.cls-5,.cls-50,.cls-51,.cls-52,.cls-53,.cls-54,.cls-55,.cls-6,.cls-7,.cls-8,.cls-9{fill-rule:evenodd;}.cls-2{fill:#031f6c;}.cls-3{fill:#4367c7;}.cls-4{fill:#373059;}.cls-5{fill:#62598e;}.cls-6{fill:#9188bc;}.cls-7{fill:#85c2f7;}.cls-8{fill:#003;}.cls-9{fill:#92d7ff;}.cls-10{fill:#ff65a7;}.cls-11{fill:#fabd00;}.cls-12{fill:#d2e9f6;}.cls-13{fill:#fffbf0;}.cls-14{fill:#fff;}.cls-15{fill:#bfd8df;}.cls-16{fill:#566cd2;}.cls-17{fill:#0b498e;}.cls-18{fill:#d1e7f4;}.cls-19{fill:#a7c4e4;}.cls-20{fill:#713d22;}.cls-21{fill:#452312;}.cls-22{fill:#52517b;}.cls-23{fill:#b58866;}.cls-24{fill:#dda274;}.cls-25{fill:#e8b588;}.cls-26{fill:#343354;}.cls-27{fill:#60bfff;}.cls-29{fill:#f60;}.cls-30{fill:#f90;}.cls-31{fill:#ffd22e;}.cls-32{fill:#ffaa83;}.cls-33{fill:#ed9870;}.cls-34{fill:#ffa92e;}.cls-35{fill:#8c6e54;}.cls-36{fill:#3a90db;}.cls-37{fill:#27e0c0;}.cls-38{fill:#0aa98e;}.cls-39{fill:#ce7c56;}.cls-40{fill:#3b3635;}.cls-41{fill:#d7f0ff;}.cls-42{fill:#2a78cd;}.cls-43{fill:#039;}.cls-44{fill:#00195f;}.cls-45{fill:#a9cbf3;}.cls-46{fill:#d8eaff;}.cls-47{fill:#a48263;}.cls-48{fill:#826448;}.cls-49{fill:#ceab8b;}.cls-50{fill:#333;}.cls-51{fill:#e1f8fe;}.cls-52{fill:#03f4d0;}.cls-53{fill:url(#linear-gradient);}.cls-54{fill:#cbdfff;}.cls-55{fill:url(#linear-gradient-2);}.cls-56{fill:#52bd95;}</style><linearGradient id="linear-gradient" x1="216.17" y1="146.33" x2="187.2" y2="146.33" gradientUnits="userSpaceOnUse"><stop offset="0.34" stop-color="#00ab8e"/><stop offset="0.57" stop-color="#00e1c0"/></linearGradient><linearGradient id="linear-gradient-2" x1="-1190.93" y1="-910.74" x2="-1161.88" y2="-910.74" gradientTransform="translate(-950.91 -749.95) rotate(180)" gradientUnits="userSpaceOnUse"><stop offset="0.34" stop-color="#f11f79"/><stop offset="0.57" stop-color="#ff4494"/></linearGradient></defs><g id="Layer_2" data-name="Layer 2"><g id="Layer_4" data-name="Layer 4"><path class="cls-1" d="M305.15,133.48l-11.8-6.8c0-.64,0-1.25,0-1.85a2,2,0,0,0,.65-.35,11.94,11.94,0,0,1,1.6-.85,5.77,5.77,0,0,0,.95-.45.87.87,0,0,0,.25-.15l32.8,18.85V66.28a3.09,3.09,0,0,0-1.15-2.15L224.55,3.28a5,5,0,0,0-2-.7L226.7.38a1.87,1.87,0,0,1,2.25,0l104.6,61.05a1.79,1.79,0,0,1,1.35,1.9v2.45c0,1.53,0,3.06,0,4.6V83.53c0,1.33,0,2.68-.05,4v11.3c0,1.2,0,2.38-.05,3.55v10.95c0,1.4,0,2.8-.05,4.2v20.75a34.42,34.42,0,0,1-.2,3.7,2.11,2.11,0,0,1-.85,1.55l-.2.15-.3.2c-.54.4-1.07.76-1.6,1.1s-1.32.75-1.95,1.15a2.27,2.27,0,0,1-2.2,0,34,34,0,0,1-3.1-1.65l-5.6-3.2-5.35-3.15-3.6-2.1-1.5-.8c-1.37-.84-2.3-1.39-2.8-1.65ZM252.6,103.23l-5.95-3.5q-3.15-1.86-6.3-3.6l-5.85-3.45q-3.3-2-6.65-3.75a.37.37,0,0,1-.15-.05,45.06,45.06,0,0,1-4.95-3.2,2.62,2.62,0,0,1-.7-.8,4.85,4.85,0,0,1-.7-2.1c-.07-.87-.1-1.94-.1-3.2l57.8,33.25a1.9,1.9,0,0,0-.35.2,2.48,2.48,0,0,0-.6.9,1,1,0,0,0-.2.4,13.77,13.77,0,0,0-.7,2.65,1.9,1.9,0,0,1-.05.4l-17.55-10q-2.36-1.35-4.85-2.85c-.44-.24-.9-.5-1.4-.8Z" transform="translate(-0.38)"/><path class="cls-2" d="M222.55,2.58a5,5,0,0,1,2,.7l103.9,60.85a3.09,3.09,0,0,1,1.15,2.15v75.6L296.8,123c.56-.3,1.11-.64,1.65-1s.95-.67,1.45-1l.35-.2,25.15,14.4V66.58l-1.9-1.1v-.55L226.1,9v2.9h0V9L221.4,6.33V9.18h-.05V5.23C221.45,3.73,221.85,2.84,222.55,2.58Zm-1.3,75.3,5-16v16.6l55.45,31.75a1.63,1.63,0,0,1,.05.35v.35a10.82,10.82,0,0,0-1.05.85,8.35,8.35,0,0,1-1.2.8l-.1,0a1.9,1.9,0,0,0-.35.2l-57.8-33.25v-1.7Zm72.9,39.5-.8.4a15.41,15.41,0,0,0-1.65,1l-.5.3-.45-.55c-.34-.34-.7-.67-1.1-1s-1.12-.82-1.75-1.25l.3-2.25.05,0Zm-71.7-91.55,3.8,2.15v8.9l-4.9-2.8V29.33ZM226.25,40v8.85L221.35,46V37.13Zm-4.9,16v-6.9l4.5,2.6-1.5,4.6Zm0,9.85V61l1.3.75Z" transform="translate(-0.38)"/><path class="cls-3" d="M222.45,14.13,219.7,23l-4.45-2.55V5.68l6.1,3.5h.05l4.65,2.7h0l94.65,54.35V81L258.7,45.38l-2.55-1.45-1-.55L235.6,32.13l2.1-6.75,1.15-3.65L237,20.63l-1.7,1L233,28.88l-9.7-5.65,1.1-3.5h-.05l1.7-5.5-1.85-1.1Zm77,43.4a1.8,1.8,0,0,0-1.85-.15,1.74,1.74,0,0,0-.75,1.7,5.1,5.1,0,0,0,.75,2.55,4.73,4.73,0,0,0,1.85,1.95,1.76,1.76,0,0,0,1.85.2,1.82,1.82,0,0,0,.75-1.7,5.33,5.33,0,0,0-.75-2.6A5.21,5.21,0,0,0,299.45,57.53Zm7.8,4.7a1.6,1.6,0,0,0-2.65,1.5,5.1,5.1,0,0,0,.75,2.55,5,5,0,0,0,1.9,2,1.67,1.67,0,0,0,1.8.2,1.82,1.82,0,0,0,.75-1.7,5.33,5.33,0,0,0-.75-2.6A5,5,0,0,0,307.25,62.23Zm5.15,4.45a1.76,1.76,0,0,0-.8,1.7,4.81,4.81,0,0,0,.8,2.55,4.73,4.73,0,0,0,1.85,1.95,1.67,1.67,0,0,0,1.8.2,1.79,1.79,0,0,0,.8-1.7,4.85,4.85,0,0,0-.8-2.55,4.9,4.9,0,0,0-1.8-2A1.74,1.74,0,0,0,312.4,66.68Zm3,23.25L265.65,61.18V55.53l2.9,1.7L315.4,84.28Zm-8.3-8.15a1.83,1.83,0,0,0-.65-.75c-.27-.17-.49-.19-.65,0a.68.68,0,0,0-.35.65,1.64,1.64,0,0,0,.35,1,1.48,1.48,0,0,0,.65.75.62.62,0,0,0,.65.1.59.59,0,0,0,.35-.6A2,2,0,0,0,307.1,81.78Zm1.7.65a.77.77,0,0,0-.65-.1.68.68,0,0,0-.35.65,2.09,2.09,0,0,0,.35,1,1.51,1.51,0,0,0,.65.65.69.69,0,0,0,.7.1c.2-.07.3-.25.3-.55a2.25,2.25,0,0,0-.3-1.1A3.55,3.55,0,0,0,308.8,82.43Zm3.6,3.25a2,2,0,0,0-.35-1.05,1.75,1.75,0,0,0-.7-.7.7.7,0,0,0-.65-.15.92.92,0,0,0-.25.7,2.41,2.41,0,0,0,.25,1,1.9,1.9,0,0,0,.65.75.67.67,0,0,0,.7,0A.5.5,0,0,0,312.4,85.68Zm-64.35-53.8v-1.8l-7.4-4.25v1.8Zm0-3.65v-1.8l-7.4-4.3v1.8Zm-7.4,1.2v1.8l7.4,4.25v-1.8Z" transform="translate(-0.38)"/><path class="cls-4" d="M226.25,61.88l-5,16-4.5,14.5h-.05L215.55,96l-1.85,5.85-.45,1.5-4.8,15.35-1.5.1,5.1-16.15.45-1.5,1.3-4.1,1.25-4,6.25-20,4.25-13.45,1.4-.15-.4,1.35ZM224.3,15.23l1.75-1-1.7,5.5h.05l-1.1,3.5,9.7,5.65h.05l-.2.65h0l-11-6.35,1.1-3.45h0Zm14.55,6.5-1.15,3.65-2.1,6.75L235,34v.1l-.75,2.35-.25-.2a2.7,2.7,0,0,0-1-.3l.6-1.95.5-1.55.3-1,1.9-6.05.8-2.6.05-.05Zm-12.6,15.15,2.5,1.5a.88.88,0,0,0-.3.55l-9.8-5.65,2.55-8.2,1.25.75-1.1,3.5-1.25,4,1.25.75Zm-4.9,9.1,4.9,2.85.4.25-.2.65-11-6.35,2.6-8.15,1.25.7-.3,1H219l-2,6.5Zm7.1,8.85-.6,2c-.2.06-.47.13-.8.2a4.1,4.1,0,0,0-.35-.5h-.2l1.15-3.6.75-2.4v4A1.41,1.41,0,0,0,228.45,54.83ZM215,55.08l-1.05-.6.6-.35,2.35,1.3C216.26,55.29,215.63,55.18,215,55.08Zm-.85-2.85-1.5,0,2.2-6.85,1.25.7-1.6,5.15h-.05Zm4.9,17.05a5.62,5.62,0,0,0,0-.7l1.15.65v0l-.2.6Zm-4.4,9.45.25-.45,0-.15,2.15,1.25-.2.65Zm-1.75,10.2,1,.55,0,0h0l-.25.65-1.5-.9A1.23,1.23,0,0,0,212.9,88.93Zm-6.4-12.65-2.35,7.55.95.55h0l-.25.35a2.74,2.74,0,0,1,.15.4l-1.35-.8.1-.65.35-1.25.7-5.1.55-1.75Zm-1.3,21,.55-.2.1-.25,4.2,2.45.7.4-.2.7Zm-5.9,2.35L198,104l2.05,1.2,7.65,4.45-.25.8-11.05-6.35,2.6-8.2.3.15.1.75,0,1.6Zm10.2-23.8-2-1.15.85-.35,1.45.85Zm17.05-14.9h-.05v0ZM208,70.53l-.45.5-.2,0,.15,0Zm1.2-4.65-.45.1-.05-.35Zm4.1-.65-1.05.15-3.2-1.8,1.4-4.55h.05l.1-.4a1,1,0,0,1,.35,0l1.1.2-1.5,4.7Zm-16.2,41.55-1.55,4.8-1.5.1,1.25-4.15.5-1.5ZM223.3,71l0,0h0Z" transform="translate(-0.38)"/><path class="cls-5" d="M207,118.83l-1.8-1,1.65-5.5-9.7-5.55-1.3-.75-.5,1.5-1.25,4.15-1.85-1,.5-1.7,5.8-18.5.75,5.55-.3-.15-2.6,8.2,11.05,6.35.25-.8,2.3-7.5-.9-.5-5.9-3.35a.94.94,0,0,0,.1-.35l1.95-.7,5.35,3.1.2-.7.3-1,2.1-6.6-9.8-5.6,0-.75.3-1.35,1.35.8a4.93,4.93,0,0,0,2.6,2.3h.1l.55-.35q1.29,1,2.7,2a1.18,1.18,0,0,0,1,.3,1,1,0,0,0,.25,0l1.5.9.25-.65h0l0,0,2.3-7.5-2.5-1.45.9-1.8L216.9,80l.2-.65,2.35-7.55-1-.55a11,11,0,0,0,.6-2l1,.6.2-.6,1.1-3.45,1.3-4-1.3-.75L219.5,60l2.45.1,1.9-.2.05-.05,1.65-.15L221.3,73.13l-6.25,20-1.25,4-1.3,4.1-.45,1.5ZM219.7,23l2.75-8.9,1.85,1.1-1.4,4.5h0l-1.1,3.45,11,6.35h0l.2-.65H233l2.3-7.25,1.8,1.1v.05l-.8,2.6-1.9,6.05-.3,1L233.6,34,233,36l-.3.1-1.95,1.1-.45.25.15-.4,1.3-4.25h.05l.4-1.35-1.75-1L226.25,28l-3.8-2.15-1.25-.75-2.55,8.2,9.8,5.65a2.58,2.58,0,0,0,0,.6v1.7L226.25,40l-4.9-2.85-2-1.2-1.25-.7-2.6,8.15,11,6.35.2-.65,1.75-5.75v7.15l-.75,2.4-1.15,3.6-2.15-.2,1.5-4.6-4.5-2.6-5.25-3-1.25-.7-2.2,6.85-.2,0-1,.1-.95.1Zm11.05,14.15a.3.3,0,0,1,.15,0,.14.14,0,0,0-.1,0ZM214,54.48l1.05.6-1.35-.3,0-.15ZM207.5,74.63l2,1.15-.7,1.85-2.3-1.35-1.2-.7-.55,1.75.3-2,1.1-.15Zm4.75-9.25-3.05.5-.5-.25-.2-2.8.65-3.8a4,4,0,0,0,.15-.55.53.53,0,0,0,0-.2,3.63,3.63,0,0,0,.55.15,2.93,2.93,0,0,0,.7.2l-.1.4h-.05l-1.4,4.55Z" transform="translate(-0.38)"/><path class="cls-6" d="M224.3,15.23l-1.85-1.1,1.75-1,1.85,1.1Zm12.8,7.5-1.8-1.1,1.7-1,1.85,1.1-1.7,1Z" transform="translate(-0.38)"/><path class="cls-7" d="M320.75,76.63V66.23L226.1,11.88V9l97.4,56v13.3ZM235.6,32.13l19.55,11.25v43l1,.6-.05-43.05,2.55,1.45V91.53l-28.25-16.3V59.33l1-.35.55-.55.1,0A8.68,8.68,0,0,0,236,63l11.15,6.4c3,1.66,4.45.83,4.45-2.5V55.48a8.09,8.09,0,0,0-2.95-6.55v-2.2a3.12,3.12,0,0,0-1.65-2.9l-12.75-7.35.75-2.35V34Zm79.8,92.55V84.28L268.55,57.23V54.08L318.3,82.83v43.55ZM238.35,36l10.5,6v-1.2l-10.5-6.05Zm-7.9,1v-6.6l1.75,1-.4,1.35h-.05Zm6,31a.77.77,0,0,0-.3.7,2.13,2.13,0,0,0,.3,1,2.53,2.53,0,0,0,.75.8.59.59,0,0,0,.75,0,.64.64,0,0,0,.35-.65,2.23,2.23,0,0,0-.35-1.1,1.89,1.89,0,0,0-.75-.8A.72.72,0,0,0,236.45,68Zm13.7,8.15-9.85-5.7v1.25l9.85,5.65Zm-14-1.55a2,2,0,0,0,.3,1,3.17,3.17,0,0,0,.75.85.71.71,0,0,0,.75,0,.64.64,0,0,0,.35-.65,2.23,2.23,0,0,0-.35-1.1,1.89,1.89,0,0,0-.75-.8.67.67,0,0,0-.75,0A.85.85,0,0,0,236.15,74.63Zm4.15,3,9.85,5.7v-1.2l-9.85-5.7Z" transform="translate(-0.38)"/><polygon class="cls-8" points="225.67 11.88 221.02 9.18 221.02 6.33 225.67 8.98 225.67 11.88"/><path class="cls-9" d="M299.45,57.53a5.21,5.21,0,0,1,1.85,1.95,5.33,5.33,0,0,1,.75,2.6,1.82,1.82,0,0,1-.75,1.7,1.76,1.76,0,0,1-1.85-.2,4.73,4.73,0,0,1-1.85-1.95,5.1,5.1,0,0,1-.75-2.55,1.74,1.74,0,0,1,.75-1.7A1.8,1.8,0,0,1,299.45,57.53Z" transform="translate(-0.38)"/><path class="cls-10" d="M307.25,62.23a5,5,0,0,1,1.8,1.9,5.33,5.33,0,0,1,.75,2.6,1.82,1.82,0,0,1-.75,1.7,1.67,1.67,0,0,1-1.8-.2,5,5,0,0,1-1.9-2,5.1,5.1,0,0,1-.75-2.55,1.6,1.6,0,0,1,2.65-1.5Zm-38.1,5.25,7.05,4.15a2.65,2.65,0,0,1,1.35,2.45v8.55q0,1.7-1.35.9l-7.05-4A2.67,2.67,0,0,1,267.7,77V68.43C267.7,67.26,268.18,66.94,269.15,67.48Zm28.6,29.3a7.82,7.82,0,0,1-1.2-1.4,4.75,4.75,0,0,1-.8-2.3v-.15a1.51,1.51,0,0,1,.1-.6,1.2,1.2,0,0,1,.7-.9,3.83,3.83,0,0,1,.45-.1,2.27,2.27,0,0,1,1.5.4l8.4,4.85a5.09,5.09,0,0,1,1.9,2,5.73,5.73,0,0,1,.75,1.65,3.58,3.58,0,0,1,.1.8,1.47,1.47,0,0,1-.85,1.5,1.89,1.89,0,0,1-1.2,0,3.28,3.28,0,0,1-.7-.3l-8.4-4.85A6,6,0,0,1,297.75,96.78Zm-6.1,4.7-.6,1.2L281.35,97V95.48Zm17.15-19a3.55,3.55,0,0,1,.7.7,2.25,2.25,0,0,1,.3,1.1c0,.3-.1.48-.3.55a.69.69,0,0,1-.7-.1,1.51,1.51,0,0,1-.65-.65,2.09,2.09,0,0,1-.35-1,.68.68,0,0,1,.35-.65A.77.77,0,0,1,308.8,82.43Zm-1.1,29.9.6-1.1a.11.11,0,0,1,.05-.1l4.75,2.75v1.55Zm-11.9-8.5,8.55,5c-.24.36-.49.73-.75,1.1l-8.35-4.8a3.18,3.18,0,0,1,.2-.45C295.55,104.41,295.66,104.13,295.8,103.83Zm-58.45,14.25,8.3,4.75-1.55.9-8.25-4.8Zm2.5,36.6a1.19,1.19,0,0,1-.53.62l-.22.13-12,7a3,3,0,0,1-3.15,0l-12.15-7a2.55,2.55,0,0,1-.63-.5.81.81,0,0,1-.17-.4c0-.3.26-.6.8-.9l12.05-6.95a3,3,0,0,1,3.15-.05l3.5,2.05v-.05l5.15,3h0l3.5,2a1.49,1.49,0,0,1,.8.85A.23.23,0,0,1,239.85,154.68Zm-16.1-4.35c-.4.23-.6.5-.6.8v2.75h-4.7a2.09,2.09,0,0,0-1.35.3.89.89,0,0,0-.6.8.9.9,0,0,0,.6.8,2.46,2.46,0,0,0,1.35.35h4.7v2.7a1,1,0,0,0,.55.8,2.46,2.46,0,0,0,1.4.3,3.1,3.1,0,0,0,1.4-.3,1,1,0,0,0,.55-.8v-2.7l4.7,0a2.48,2.48,0,0,0,1.4-.3.91.91,0,0,0,.55-.8c0-.3-.2-.57-.6-.8a2.12,2.12,0,0,0-1.35-.3h-4.7v-2.7a1,1,0,0,0-.55-.85,3.1,3.1,0,0,0-1.4-.3A2.75,2.75,0,0,0,223.75,150.33Z" transform="translate(-0.38)"/><path class="cls-11" d="M312.4,66.68a1.74,1.74,0,0,1,1.85.2,4.9,4.9,0,0,1,1.8,2,4.85,4.85,0,0,1,.8,2.55,1.79,1.79,0,0,1-.8,1.7,1.67,1.67,0,0,1-1.8-.2,4.73,4.73,0,0,1-1.85-1.95,4.81,4.81,0,0,1-.8-2.55A1.76,1.76,0,0,1,312.4,66.68Zm0,19a.5.5,0,0,1-.35.55.67.67,0,0,1-.7,0,1.9,1.9,0,0,1-.65-.75,2.41,2.41,0,0,1-.25-1,.92.92,0,0,1,.25-.7.7.7,0,0,1,.65.15,1.75,1.75,0,0,1,.7.7A2,2,0,0,1,312.4,85.68Z" transform="translate(-0.38)"/><path class="cls-12" d="M281.7,110.23,226.25,78.48V61.88l.3-1,.4-1.35.45-.1a1.6,1.6,0,0,0,.15-.35v-.2a7.26,7.26,0,0,1,1.15.45,2.57,2.57,0,0,0,1.75,0v15.9l28.25,16.3V45.38L320.75,81v-4.4l2.75,1.6V65.48l1.9,1.1v68.65l-25.15-14.4.8-.5a5,5,0,0,1,.7-.4l13.65,7.85v-3.1l2.9,1.7V82.83L268.55,54.08v3.15l-2.9-1.7V99.08l16.45,9.5A4.54,4.54,0,0,0,281.7,110.23Zm7.75,2.6,6.55,3.75a16.92,16.92,0,0,0-1.85.8l-5.9-3.4a.55.55,0,0,1,.15-.2l.15-.15a5.37,5.37,0,0,1,.55-.5A3.63,3.63,0,0,0,289.45,112.83Zm-59-82.4V37l-.15.4-1.45.85-.1.1-2.5-1.5V28Zm-2,12.9-1.75,5.75-.4-.25V40l2.15,1.25Zm-.55,13.45.6-2a4.33,4.33,0,0,0,.35,1.25l-.55.45A1.3,1.3,0,0,1,227.85,56.78Z" transform="translate(-0.38)"/><path class="cls-13" d="M256.15,43.93,256.2,87l-1-.6v-43ZM238.35,36v-1.2l10.5,6.05v1.2Zm-1.9,32a.72.72,0,0,1,.75,0,1.89,1.89,0,0,1,.75.8,2.23,2.23,0,0,1,.35,1.1.64.64,0,0,1-.35.65.59.59,0,0,1-.75,0,2.53,2.53,0,0,1-.75-.8,2.13,2.13,0,0,1-.3-1A.77.77,0,0,1,236.45,68Zm13.7,8.15v1.2l-9.85-5.65V70.48Zm-14-1.55a.85.85,0,0,1,.3-.7.67.67,0,0,1,.75,0,1.89,1.89,0,0,1,.75.8,2.23,2.23,0,0,1,.35,1.1.64.64,0,0,1-.35.65.71.71,0,0,1-.75,0,3.17,3.17,0,0,1-.75-.85A2,2,0,0,1,236.15,74.63Zm4.15,3v-1.2l9.85,5.7v1.2Z" transform="translate(-0.38)"/><path class="cls-14" d="M264.25,129.93l-14.5,8.95-.55-.25-29-16.7.15-.1-.55-.3,14-8.1,5.2-3.2.2.1-2.1,1.25-2.25,1.3,29.35,17.05Zm25.1-23.75q-1.56-2.21-4.2-.65a7.33,7.33,0,0,0-3,3l-16.45-9.5V61.18L315.4,89.93v37.85l-13.65-7.85a1.24,1.24,0,0,1,.2-.1l1.1-.6a4.23,4.23,0,0,0,1.35-1.35,23.35,23.35,0,0,0,1.55-2.35c.43-.7.83-1.44,1.2-2.2.2-.34.38-.67.55-1l5.4,3.1v-1.55l-4.75-2.75a11.8,11.8,0,0,1,.55-1.25l4.2,2.45v-1.55l-3.6-2.1a1.85,1.85,0,0,1,.15-.35,2.51,2.51,0,0,0-.35-1.85c.13-.24.25-.44.35-.6a8,8,0,0,1,.65-.95,2.67,2.67,0,0,0,.45-1.55c0-.34-.09-.65-.15-.95a11,11,0,0,0-.8-2.15.48.48,0,0,0-.25-.1,5.73,5.73,0,0,0-.75-1.65,5.09,5.09,0,0,0-1.9-2l-8.4-4.85a2.27,2.27,0,0,0-1.5-.4l-15.75-9v1.55l14.6,8.45a1.51,1.51,0,0,0-.1.6v.15a3,3,0,0,0-1.1,1.9,6.24,6.24,0,0,1-.4,2l-.35.1c-.34.63-.67,1.26-1,1.9l-11.55-6.7V94l10.9,6.3-.6,1.2-10.3-6V97l9.7,5.65a1.65,1.65,0,0,0-.2.4c-.17.3-.34.6-.5.9l-9.1-5.25v1.6l8.5,4.9a6.26,6.26,0,0,0-.35.8A.17.17,0,0,0,289.35,106.18Zm-20.2-38.7c-1-.54-1.45-.22-1.45,1V77a2.67,2.67,0,0,0,1.45,2.5l7.05,4q1.35.8,1.35-.9V74.08a2.65,2.65,0,0,0-1.35-2.45Zm12.2,10L313.1,95.88V94.33L281.35,75.88Zm-3.8,13a2.65,2.65,0,0,0-1.35-2.45l-7.05-4.15c-1-.54-1.45-.22-1.45.95v8.55a2.67,2.67,0,0,0,1.45,2.5l7.05,4q1.35.8,1.35-.9Zm3.8-10L313.1,99V97.43L281.35,79Zm24.5,26-9.15-5.25c.13-.4.26-.8.4-1.2a6.74,6.74,0,0,0,.25-.65,2.75,2.75,0,0,0-.55-1.9,1,1,0,0,1-.2-.15,1.5,1.5,0,0,1,.6-.4l.55-.2a6,6,0,0,0,.75.55l8.4,4.85a3.28,3.28,0,0,0,.7.3,1.49,1.49,0,0,0-.15.45,3.31,3.31,0,0,0-.2.9c0,.6,0,1.2-.05,1.8h-.75Zm-9.6-3.9,8.85,5.05-.5.75a3.68,3.68,0,0,1-.25.4l-8.55-5Q296,103.23,296.25,102.63Zm-1.55,3.85c.2-.47.38-.92.55-1.35l8.35,4.8q-.36.6-.75,1.2Zm7.35,5.85c-.17.26-.35.53-.55.8s-.34.6-.5.9a1.9,1.9,0,0,0-.2.35v.1c-.64.3-1.25.6-1.85.9a10.16,10.16,0,0,1-2.6,1.1,2.14,2.14,0,0,0-.35.1l-6.55-3.75c.3-.2.53-.37.7-.5a3.88,3.88,0,0,1,.85-.65l1-.7a5.37,5.37,0,0,0,1.2-1.5,15.22,15.22,0,0,0,.9-1.7Zm-72.7-71.4q.09-1.5,1.2-1l12.25,6.9A2.47,2.47,0,0,1,243.9,49v9.85l-.55-1.4q-1.9-4.86-3-4.3a11.16,11.16,0,0,0-1.4,1c-.67.53-1.1.88-1.3,1l-.9.55c-.3-.47-.54-.85-.7-1.15-.64-1.64-1-2.57-1.15-2.8s-.27-.3-.4-.3l-.75.35a12.73,12.73,0,0,0-2,1.75l-.75.7a4.15,4.15,0,0,0-.45.5c-.27.26-.52.53-.75.8l-.15.15-.2-.15ZM231,47.18a3.29,3.29,0,0,0,.5,1.7.8.8,0,0,0,.15.2,3.28,3.28,0,0,0,1,1.05,1.19,1.19,0,0,0,1.15.15,1.21,1.21,0,0,0,.55-1.15,2.83,2.83,0,0,0-.55-1.6,3,3,0,0,0-1.15-1.3,1.25,1.25,0,0,0-1-.2l-.15,0A1.16,1.16,0,0,0,231,47.18Zm37.6,80-.1,0-2.3-1.35Zm-31.25-9.1-1.5.85,8.25,4.8,1.55-.9Zm5.05,8.85-5.85,3.4,8.3,4.75,5.85-3.35Zm-1.5-1.35,1.55-.9-8.25-4.75-1.55.85Zm-3.05,1.8,1.5-.9-8.25-4.8-1.55.9Zm11.65-4.5-.05,0-5.8,3.4L251.9,131l5.85-3.35Zm-25.75,27.45a2.75,2.75,0,0,1,1.35-.3,3.1,3.1,0,0,1,1.4.3,1,1,0,0,1,.55.85v2.7h4.7a2.12,2.12,0,0,1,1.35.3c.4.23.6.5.6.8a.91.91,0,0,1-.55.8,2.48,2.48,0,0,1-1.4.3l-4.7,0v2.7a1,1,0,0,1-.55.8,3.1,3.1,0,0,1-1.4.3,2.46,2.46,0,0,1-1.4-.3,1,1,0,0,1-.55-.8v-2.7h-4.7a2.46,2.46,0,0,1-1.35-.35.9.9,0,0,1-.6-.8.89.89,0,0,1,.6-.8,2.09,2.09,0,0,1,1.35-.3h4.7v-2.75C223.15,150.83,223.35,150.56,223.75,150.33Zm-23.95-13.2a.74.74,0,0,1,.25.8L199,140.68l8.9-1.05a2.23,2.23,0,0,1,1.4.15,1.24,1.24,0,0,1,.8.65.78.78,0,0,1-.25.85,2.57,2.57,0,0,1-1.2.5l-11.85,1.4a2.59,2.59,0,0,1-1.2-.1,1.67,1.67,0,0,1-.85-.5.64.64,0,0,1-.15-.7l1.7-4.4a1.34,1.34,0,0,1,.9-.7,2.39,2.39,0,0,1,1.4-.1A1.91,1.91,0,0,1,199.8,137.13Zm94.6,36.15a4.16,4.16,0,0,1-4,1.65,39.69,39.69,0,0,0-5.65.2c.23-.07.5-.14.8-.2,2.63-.5,3.93-1.84,3.9-4a16.91,16.91,0,0,1,4.35,1.45Q294.59,173,294.4,173.28Zm-11.85-8.7-2.25,1.1a5.85,5.85,0,0,0,.65-1.05,3.68,3.68,0,0,0,.25-.4,7.32,7.32,0,0,0,.6-1.6l-.35-1.4.1.15H283Z" transform="translate(-0.38)"/><path class="cls-15" d="M281.35,77.53V75.88L313.1,94.33v1.55ZM292.9,99c-.17.33-.35.68-.55,1a1.24,1.24,0,0,0-.1.2L281.35,94V92.33Zm4.1-7.7a3.83,3.83,0,0,0-.45.1,1.2,1.2,0,0,0-.7.9l-14.6-8.45V82.33ZM281.35,80.58V79l31.75,18.4V99Zm9,23.4c-.17.36-.35.75-.55,1.15a.11.11,0,0,0-.05.1l-8.5-4.9v-1.6Zm18.55,5.9a9.44,9.44,0,0,1,.45-.9.53.53,0,0,1,.15-.3l3.6,2.1v1.55Zm-3-3.35c-.27.4-.52.78-.75,1.15l-8.85-5.05.1-.2c.13-.4.25-.79.35-1.15Zm-11.15,0,8.15,4.65a.11.11,0,0,0-.05.1c-.24.36-.49.73-.75,1.1l-7.95-4.55c.13-.27.25-.54.35-.8A4.66,4.66,0,0,0,294.7,106.48Zm-45.2,16.4,8.25,4.75L251.9,131l-8.25-4.75,5.8-3.4Zm-11.65,4.5-8.3-4.8,1.55-.9,8.25,4.8Zm3.05-1.8-8.25-4.8,1.55-.85,8.25,4.75Zm1.5,1.35,8.3,4.8-5.85,3.35-8.3-4.75Z" transform="translate(-0.38)"/><path class="cls-16" d="M277.55,90.53v8.55q0,1.69-1.35.9l-7.05-4a2.67,2.67,0,0,1-1.45-2.5V84.88c0-1.17.48-1.49,1.45-.95l7.05,4.15A2.65,2.65,0,0,1,277.55,90.53Zm-11.05,38.1-2.25,1.3h-.05l-29.35-17.05,2.25-1.3Z" transform="translate(-0.38)"/><path class="cls-17" d="M277.15,117.38a10.19,10.19,0,0,0,.3,3.1l-27.55-16,2.7-1.3.75.45c.5.3,1,.56,1.4.8q2.49,1.5,4.85,2.85Zm16.2,9.3,11.8,6.8-2.85,1.4-9.6-5.6.1-.1a1.49,1.49,0,0,1,.15-.4,4,4,0,0,0,.2-.9C293.21,127.48,293.28,127.08,293.35,126.68Z" transform="translate(-0.38)"/><path class="cls-18" d="M209.75,52.38v.95h-.05a2.09,2.09,0,0,0-.1-.6l-.9-1-.1,0,1.15.2Zm82.5,47.9a1.24,1.24,0,0,1,.1-.2c.2-.37.38-.72.55-1,.33-.64.66-1.27,1-1.9l.35-.1a3.15,3.15,0,0,1,2.35.35,1,1,0,0,0,.2.15c-.37.73-.75,1.53-1.15,2.4,0,.1-.1.3-.2.6s-.32.73-.55,1.3c-.17.33-.35.73-.55,1.2a12,12,0,0,0-.5,1.25,1.24,1.24,0,0,0-.1.2l-.5,1.15c-.2.5-.39.93-.55,1.3a16.41,16.41,0,0,1-.95,1.85c-.24.23-.7.65-1.4,1.25l-.85.65.05-.1a.47.47,0,0,1,.05-.25,7.4,7.4,0,0,0,.2-1v0a.65.65,0,0,1,.05-.25c0-.34,0-.65,0-1v-.35a2,2,0,0,0-.2-.9,2.43,2.43,0,0,0-.35-.6.17.17,0,0,1,0-.15,6.26,6.26,0,0,1,.35-.8.11.11,0,0,1,.05-.1c.2-.4.38-.79.55-1.15s.33-.6.5-.9a1.65,1.65,0,0,1,.2-.4l.6-1.2Zm-10.5,10.65v.1l.3,1.3a7.79,7.79,0,0,0,.35.8,9.08,9.08,0,0,0,.6,1l-.05.15a2.72,2.72,0,0,1-.35-.3l-1-.5a5.78,5.78,0,0,0-1.95-.4c-.07-.17-.14-.32-.2-.45a8.35,8.35,0,0,0,1.2-.8A10.82,10.82,0,0,1,281.75,110.93Zm22.6-2.1a3.68,3.68,0,0,0,.25-.4l.5-.75c.23-.37.48-.75.75-1.15l.6-.9h.75a2.67,2.67,0,0,1,2.05.75c-.24.43-.5.88-.8,1.35a1.48,1.48,0,0,0-.15.25,6.59,6.59,0,0,0-.4.65,5.13,5.13,0,0,1-.3.55c-.17.26-.39.65-.65,1.15-.17.33-.39.73-.65,1.2l-.8,1.45a42.55,42.55,0,0,1-2.45,4l-1.5,1.1-1.45.85-1.55.9a20.11,20.11,0,0,1-3.05,1.45,5.38,5.38,0,0,1-1.1.35,3.83,3.83,0,0,1-1.9-.2s0,0-.05,0a3.13,3.13,0,0,1-2-2c.26-.1.5-.2.7-.3a0,0,0,0,0,.05,0l.5-.3a15.41,15.41,0,0,1,1.65-1l.8-.4a16.92,16.92,0,0,1,1.85-.8,2.14,2.14,0,0,1,.35-.1,10.16,10.16,0,0,0,2.6-1.1c.6-.3,1.21-.6,1.85-.9v-.1a1.9,1.9,0,0,1,.2-.35c.16-.3.33-.6.5-.9s.38-.54.55-.8.51-.74.75-1.1a.11.11,0,0,1,.05-.1q.39-.6.75-1.2C303.86,109.56,304.11,109.19,304.35,108.83Zm-76.8-49.95a.58.58,0,0,1-.25-.05h-.4a8.75,8.75,0,0,0-1.1,0c-.6,0-1.32-.05-2.15-.05h-.05c-.27,0-.6-.07-1-.1s-.89,0-1.45-.05h-.25a16.86,16.86,0,0,1-2.65-.25c-.8-.14-1.57-.29-2.3-.45l-1.7-.4c-.8-.2-1.55-.42-2.25-.65l-.75-.3q-.81-.3-1.5-.6c-.4-.2-.79-.4-1.15-.6a13.79,13.79,0,0,1-1.3-.8,3.88,3.88,0,0,1,2.45-.9l1.6.5,1.7.5a3.29,3.29,0,0,1,.6.15l1.35.3c.63.1,1.26.21,1.9.35h.3l1,.15,3.15.4,3,.3,2.15.2h.2a4.1,4.1,0,0,1,.35.5c.1.16.2.35.3.55a.32.32,0,0,0,.05.15.68.68,0,0,0,0,.25l.1.2Zm-21.8,24.95.05-.4.95-.75.15,0,2.85,2,1.6.3a.75.75,0,0,0,.6.85,2.07,2.07,0,0,1,1.55,2l-.35.5a6.21,6.21,0,0,1-.6.35,1.48,1.48,0,0,1-1.3,0l-.4-.2a3.19,3.19,0,0,1-.45-.45,4.54,4.54,0,0,0-1.35-1.15,7.18,7.18,0,0,1-2.3-1.6A6,6,0,0,1,205.75,83.83ZM199.3,98.38l0-1.6a7.31,7.31,0,0,0,.8,0h.25a7,7,0,0,0,1.95-.55l.45-.3a5.67,5.67,0,0,0,.55-.55,1.35,1.35,0,0,0,.25-.75l2.3,1,.1.8c-.14.06-.3.13-.5.2a2.94,2.94,0,0,1-.95.25.53.53,0,0,1-.2,0,2.23,2.23,0,0,0-1,.6,3.53,3.53,0,0,1-.6.55,3,3,0,0,1-3.1.45Z" transform="translate(-0.38)"/><path class="cls-19" d="M296.8,123a.87.87,0,0,1-.25.15,5.77,5.77,0,0,1-.95.45,11.94,11.94,0,0,0-1.6.85,2,2,0,0,1-.65.35,5.28,5.28,0,0,1-1.4.3,4.45,4.45,0,0,1-2.5-.45,1.86,1.86,0,0,1-1.1-2.05,3.6,3.6,0,0,1,.55-2,2.34,2.34,0,0,1,.75-.8,3.05,3.05,0,0,1,.7-.35c.06,0,.1,0,.1,0a3.13,3.13,0,0,0,2,2s.05,0,.05,0a3.83,3.83,0,0,0,1.9.2,5.38,5.38,0,0,0,1.1-.35,20.11,20.11,0,0,0,3.05-1.45l1.55-.9,1.45-.85,1.5-1.1a42.55,42.55,0,0,0,2.45-4l.8-1.45c.26-.47.48-.87.65-1.2.26-.5.48-.89.65-1.15a5.13,5.13,0,0,0,.3-.55,6.59,6.59,0,0,1,.4-.65,1.48,1.48,0,0,1,.15-.25c.3-.47.56-.92.8-1.35a.14.14,0,0,1,.05.1,2.51,2.51,0,0,1,.35,1.85,1.85,1.85,0,0,0-.15.35.53.53,0,0,0-.15.3,9.44,9.44,0,0,0-.45.9,11.8,11.8,0,0,0-.55,1.25.11.11,0,0,0-.05.1l-.6,1.1c-.17.33-.35.66-.55,1-.37.76-.77,1.5-1.2,2.2a23.35,23.35,0,0,1-1.55,2.35,4.23,4.23,0,0,1-1.35,1.35l-1.1.6a1.24,1.24,0,0,0-.2.1,5,5,0,0,0-.7.4l-.8.5-.35.2c-.5.33-1,.66-1.45,1S297.36,122.73,296.8,123Zm-2.1-16.55a4.66,4.66,0,0,1-.25.5c-.1.26-.22.53-.35.8a15.22,15.22,0,0,1-.9,1.7A5.37,5.37,0,0,1,292,111l-1,.7a3.88,3.88,0,0,0-.85.65c-.17.13-.4.3-.7.5a3.63,3.63,0,0,1-.35.3,5.37,5.37,0,0,0-.55.5,2.63,2.63,0,0,0,.35-1.1l.6-1.85.85-.65c.7-.6,1.16-1,1.4-1.25a16.41,16.41,0,0,0,.95-1.85c.16-.37.35-.8.55-1.3l.5-1.15a1.24,1.24,0,0,1,.1-.2,12,12,0,0,1,.5-1.25c.2-.47.38-.87.55-1.2.23-.57.41-1,.55-1.3s.16-.5.2-.6c.4-.87.78-1.67,1.15-2.4a2.75,2.75,0,0,1,.55,1.9,6.74,6.74,0,0,1-.25.65c-.14.4-.27.8-.4,1.2s-.22.75-.35,1.15l-.1.2q-.25.6-.45,1.2c-.14.3-.25.58-.35.85a3.18,3.18,0,0,0-.2.45C295.08,105.56,294.9,106,294.7,106.48Zm-15,6.55a1.77,1.77,0,0,0-1.15.35,2.62,2.62,0,0,0-.65,1,1,1,0,0,1,.2-.4,2.48,2.48,0,0,1,.6-.9,5761954991248,5761954991248,0,0,0,.7-.4l.1,0C279.56,112.71,279.63,112.86,279.7,113Zm-69.1-54.4a2.93,2.93,0,0,1-.7-.2,4,4,0,0,1-2.85-2.25,1.51,1.51,0,0,1,.25-1.65,13.79,13.79,0,0,0,1.3.8c.36.2.75.4,1.15.6s1,.4,1.5.6l.75.3c.7.23,1.45.45,2.25.65l1.7.4c.73.16,1.5.31,2.3.45a16.86,16.86,0,0,0,2.65.25h.25c.56,0,1,.05,1.45.05s.73.06,1,.1h.05c.83,0,1.55,0,2.15.05a8.75,8.75,0,0,1,1.1,0h.4a.58.58,0,0,0,.25.05v.2a1.6,1.6,0,0,1-.15.35l-.45.1-1.4.15-1.65.15-.05.05-1.9.2L219.5,60a55.25,55.25,0,0,1-7.45-1.1l-1.1-.2A1,1,0,0,0,210.6,58.63Zm-.85-5.3v.2a.59.59,0,0,0-.05-.2Z" transform="translate(-0.38)"/><path class="cls-20" d="M199.05,44.23a9.63,9.63,0,0,0,3.2,1.6,9.5,9.5,0,0,0,3.1.35l-.1.15-.4.4a7,7,0,0,0-1-.15,14.68,14.68,0,0,1-1.8-.3,6.59,6.59,0,0,1-1.45-.6c-.8-.44-1.22-.65-1.25-.65a.32.32,0,0,0-.15-.05A3,3,0,0,1,199.05,44.23Zm9.8-1.45a5.06,5.06,0,0,0-.55.25,21.89,21.89,0,0,1-2.8,1.1,5,5,0,0,1-5.65-1.7c-.07-.17-.14-.32-.2-.45a3.39,3.39,0,0,1,1.35-1.5,4.8,4.8,0,0,1,2.6-.75,2,2,0,0,1,.7,0A6.65,6.65,0,0,1,207,40.78,5.45,5.45,0,0,1,208.85,42.78Zm81,65.25c-.17.3-.39.63-.65,1a6,6,0,0,1-4.6,2.45,4.57,4.57,0,0,1-2.65-.7,2,2,0,0,1-.25-.2,1.63,1.63,0,0,0-.05-.35,4.54,4.54,0,0,1,.4-1.65,7.33,7.33,0,0,1,3-3q2.64-1.56,4.2.65a2.43,2.43,0,0,1,.35.6,2,2,0,0,1,.2.9Zm-7.85,4.3a6.11,6.11,0,0,0,2.35.45c1.5,0,3.08-.94,4.75-2.8a5.14,5.14,0,0,0,.65-.7,7.4,7.4,0,0,1-.2,1l-.85,1a7.37,7.37,0,0,1-2.75,1.9l-.65.15a11.78,11.78,0,0,1-2.45-.1l-.5-.1A7.79,7.79,0,0,1,282.05,112.33Z" transform="translate(-0.38)"/><path class="cls-21" d="M203.35,47.93a1.27,1.27,0,0,0-1-1.2,1.35,1.35,0,0,0-.75.1l.4,1.1-1.45-.7-1-1.25v0h-.05v-.1l-.3-.6a.58.58,0,0,0,0-.25.32.32,0,0,1,.15.05s.45.21,1.25.65a6.59,6.59,0,0,0,1.45.6,14.68,14.68,0,0,0,1.8.3,7,7,0,0,1,1,.15.28.28,0,0,0-.15.15l-.1.1a7.59,7.59,0,0,0-.85,1Zm2-1.75a9.5,9.5,0,0,1-3.1-.35,9.63,9.63,0,0,1-3.2-1.6,3.92,3.92,0,0,1,.15-1,4.5,4.5,0,0,1,.25-.7c.06-.17.13-.34.2-.5.06.13.13.28.2.45a5,5,0,0,0,5.65,1.7,21.89,21.89,0,0,0,2.8-1.1,5.06,5.06,0,0,1,.55-.25l-.35.75a2.6,2.6,0,0,0-.25.5,9.93,9.93,0,0,0-2.1,1.45,1.89,1.89,0,0,0-.2.2l0,0a.11.11,0,0,0-.1.05v0A5.6,5.6,0,0,0,205.35,46.18Zm84.45,63.1a5.14,5.14,0,0,1-.65.7c-1.67,1.86-3.25,2.8-4.75,2.8a6.11,6.11,0,0,1-2.35-.45l-.3-1.3v-.45a2,2,0,0,0,.25.2,4.57,4.57,0,0,0,2.65.7,6,6,0,0,0,4.6-2.45c.26-.37.48-.7.65-1,0,.3,0,.61,0,1a.65.65,0,0,0-.05.25Zm-.3,1.4-.6,1.85-.3.2.15-1a2.72,2.72,0,0,0-.7,1.55,1.82,1.82,0,0,0-.05.45,3.77,3.77,0,0,1-3.5,1h-.1l0,0-.4-.1a.14.14,0,0,0-.1,0l-.4-.15-.45-.35a9.08,9.08,0,0,1-.6-1l.5.1a11.78,11.78,0,0,0,2.45.1l.65-.15a7.37,7.37,0,0,0,2.75-1.9l.85-1a.47.47,0,0,0-.05.25Z" transform="translate(-0.38)"/><path class="cls-22" d="M279.1,124.68a3.68,3.68,0,0,1-.35-.65,18.26,18.26,0,0,1-1.3-3.55,10.19,10.19,0,0,1-.3-3.1,1.9,1.9,0,0,0,.05-.4,13.77,13.77,0,0,1,.7-2.65,2.62,2.62,0,0,1,.65-1,1.77,1.77,0,0,1,1.15-.35,5.78,5.78,0,0,1,1.95.4l1,.5a2.72,2.72,0,0,0,.35.3l-.3.3-.2.25s.05,0,.05,0a.14.14,0,0,1,.05.1,5.27,5.27,0,0,0,1.85,1.7,5.57,5.57,0,0,0,2.25.55h.55c.3,0,.6,0,.9-.05l-.2-.85c.63.43,1.21.85,1.75,1.25s.76.66,1.1,1l.45.55a0,0,0,0,1-.05,0,.68.68,0,0,0-.4,0c-.2,0-.39.06-.55.1a3.58,3.58,0,0,0-1.65,1.55,6.26,6.26,0,0,0-.9,2.65c0,.4,0,.81,0,1.25,0,.06,0,.63,0,1.7,0,.36,0,.81.05,1.35v.15l1.05,11-1.25-.15a11.22,11.22,0,0,1-1.9-.45,15.88,15.88,0,0,1-3-1.15,10.82,10.82,0,0,1-2.2-1.6,10.29,10.29,0,0,1-1.5-1.9c.13-1,.28-2.07.45-3.1.1-.64.21-1.27.35-1.9a5.49,5.49,0,0,0,.1-1,4.08,4.08,0,0,0-.15-1.25,6.81,6.81,0,0,1-.4-1.3l-.05-.1A1.05,1.05,0,0,1,279.1,124.68Z" transform="translate(-0.38)"/><path class="cls-23" d="M282.65,114.53l.3-.3.05-.15.45.35.4.15a3,3,0,0,0-.75-.1h-.2A1,1,0,0,1,282.65,114.53Zm1.85.25a3.77,3.77,0,0,0,3.5-1l.2.25-.3,2.25.2.85c-.3,0-.6.05-.9.05a3.46,3.46,0,0,0-1.3-1.5,5.2,5.2,0,0,0-1.15-.75A.58.58,0,0,0,284.5,114.78Z" transform="translate(-0.38)"/><path class="cls-24" d="M283.85,114.58a.14.14,0,0,1,.1,0l.4.1,0,0h.1a.58.58,0,0,1,.25.15,5.2,5.2,0,0,1,1.15.75,3.46,3.46,0,0,1,1.3,1.5h-.55a5.57,5.57,0,0,1-2.25-.55,5.27,5.27,0,0,1-1.85-1.7.14.14,0,0,0-.05-.1s0,0-.05,0l.2-.25a1,1,0,0,0,.25,0h.2A3,3,0,0,1,283.85,114.58Z" transform="translate(-0.38)"/><path class="cls-25" d="M295.75,93.08a4.75,4.75,0,0,0,.8,2.3,7.82,7.82,0,0,0,1.2,1.4l-.55.2a1.5,1.5,0,0,0-.6.4,3.15,3.15,0,0,0-2.35-.35,6.24,6.24,0,0,0,.4-2A3,3,0,0,1,295.75,93.08Zm-7.5,20.9-.05,0-.2-.25a1.82,1.82,0,0,1,.05-.45,2.72,2.72,0,0,1,.7-1.55l-.15,1,.3-.2a2.63,2.63,0,0,1-.35,1.1l-.15.15A.55.55,0,0,0,288.25,114Zm21.05-7.5a.14.14,0,0,0-.05-.1,2.67,2.67,0,0,0-2.05-.75c0-.6.05-1.2.05-1.8a3.31,3.31,0,0,1,.2-.9,1.49,1.49,0,0,1,.15-.45,1.89,1.89,0,0,0,1.2,0,1.47,1.47,0,0,0,.85-1.5,3.58,3.58,0,0,0-.1-.8.48.48,0,0,1,.25.1,11,11,0,0,1,.8,2.15c.06.3.11.61.15.95a2.67,2.67,0,0,1-.45,1.55,8,8,0,0,0-.65.95C309.55,106,309.43,106.24,309.3,106.48Z" transform="translate(-0.38)"/><path class="cls-26" d="M293.35,124.83c0,.6,0,1.21,0,1.85-.07.4-.14.8-.2,1.2a4,4,0,0,1-.2.9,1.49,1.49,0,0,0-.15.4l-.1.1a1.63,1.63,0,0,0-.25.45,2.53,2.53,0,0,0-.2.7,13.83,13.83,0,0,0-.2,1.7,12.26,12.26,0,0,0,.15,1.9c.2,1,.48,2.13.85,3.4a3.42,3.42,0,0,1-.65.5,6.46,6.46,0,0,1-3.65.9l-1.05-11v-.15c0-.54-.05-1-.05-1.35,0-1.07,0-1.64,0-1.7,0-.44,0-.85,0-1.25a6.26,6.26,0,0,1,.9-2.65,3.58,3.58,0,0,1,1.65-1.55c.16,0,.35-.07.55-.1a.68.68,0,0,1,.4,0c-.2.1-.44.2-.7.3,0,0,0,0-.1,0a3.05,3.05,0,0,0-.7.35,2.34,2.34,0,0,0-.75.8,3.6,3.6,0,0,0-.55,2,1.86,1.86,0,0,0,1.1,2.05,4.45,4.45,0,0,0,2.5.45A5.28,5.28,0,0,0,293.35,124.83Z" transform="translate(-0.38)"/><path class="cls-27" d="M307.1,81.78a2,2,0,0,1,.35,1,.59.59,0,0,1-.35.6.62.62,0,0,1-.65-.1,1.48,1.48,0,0,1-.65-.75,1.64,1.64,0,0,1-.35-1,.68.68,0,0,1,.35-.65c.16-.14.38-.12.65,0A1.83,1.83,0,0,1,307.1,81.78ZM248.05,28.23l-7.4-4.3v-1.8l7.4,4.3Zm0,3.65-7.4-4.25v-1.8l7.4,4.25Zm-7.4-2.45,7.4,4.25v1.8l-7.4-4.25Z" transform="translate(-0.38)"/><polygon class="cls-28" points="236.77 22.73 236.72 22.77 236.72 22.73 236.77 22.73"/><path class="cls-29" d="M228.85,38.28l1.45-.85.45-.25,1.95-1.1.3-.1a2.7,2.7,0,0,1,1,.3l.25.2L247,43.83a3.12,3.12,0,0,1,1.65,2.9v14.9c0,.76-.19,1.2-.55,1.3l-1.7,1a.41.41,0,0,1-.2.15l-1.75,1a1.5,1.5,0,0,0,.35-1.15V49a3.11,3.11,0,0,0-1.7-2.9l-6.7-3.85v0l-6.3-3.65a.14.14,0,0,0-.1-.05C229.5,38.21,229.11,38.14,228.85,38.28Zm1.9-1.1h.05a.14.14,0,0,1,.1,0A.3.3,0,0,0,230.75,37.18Z" transform="translate(-0.38)"/><path class="cls-30" d="M244.45,65a.22.22,0,0,1-.2.1,1.44,1.44,0,0,1-1.15-.3l-3.75-2.2v0l-7.25-4.2-.1,0-1.9-1.1a3.64,3.64,0,0,1-1.3-1.25,4.33,4.33,0,0,1-.35-1.25,1.41,1.41,0,0,1,0-.4V39.53a2.58,2.58,0,0,1,0-.6.88.88,0,0,1,.3-.55l.1-.1c.26-.14.65-.07,1.15.2a.14.14,0,0,1,.1.05l6.3,3.65v0l6.7,3.85a3.11,3.11,0,0,1,1.7,2.9v14.9A1.5,1.5,0,0,1,244.45,65Zm-15.1-24.1v14.7l.2.15.15-.15c.23-.27.48-.54.75-.8a4.15,4.15,0,0,1,.45-.5l.75-.7a12.73,12.73,0,0,1,2-1.75l.75-.35c.13,0,.26.1.4.3s.51,1.16,1.15,2.8c.16.3.4.68.7,1.15l.9-.55c.2-.17.63-.52,1.3-1a11.16,11.16,0,0,1,1.4-1q1.14-.55,3,4.3l.55,1.4V49a2.47,2.47,0,0,0-1.1-2.25l-12.25-6.9Q229.44,39.43,229.35,40.93Z" transform="translate(-0.38)"/><path class="cls-31" d="M199.35,96.78l-.1-.75-.75-5.55-.25-2.1a22.57,22.57,0,0,1,.4-7,3.82,3.82,0,0,0,0-1.35,34.27,34.27,0,0,0-1.25-7q3.45,4.8,3.7,5.8a14,14,0,0,1,.35,2.2c.16,1.23.33,2.91.5,5v.15a25.72,25.72,0,0,0,.55,2.9,3,3,0,0,0,.95,1.7l.1,3.85a1.35,1.35,0,0,1-.25.75,5.67,5.67,0,0,1-.55.55l-.45.3a7,7,0,0,1-1.95.55h-.25A7.31,7.31,0,0,1,199.35,96.78ZM231,47.18a1.16,1.16,0,0,1,.5-1.1l.15,0a1.25,1.25,0,0,1,1,.2,3,3,0,0,1,1.15,1.3,2.83,2.83,0,0,1,.55,1.6,1.21,1.21,0,0,1-.55,1.15,1.19,1.19,0,0,1-1.15-.15,3.28,3.28,0,0,1-1-1.05.8.8,0,0,1-.15-.2A3.29,3.29,0,0,1,231,47.18Zm-18.75,18.2,1.05-.15,1.25-.25a6.24,6.24,0,0,1,3.3.85,2.27,2.27,0,0,1,1.3,1.9c0,.26,0,.55-.05.85a5.62,5.62,0,0,1,0,.7,11,11,0,0,1-.6,2c-.2.43-.44.86-.7,1.3a17,17,0,0,0-1.05,1.9c-.2.43-.44.9-.7,1.4l-.35.6-.7,1.65,0,.15-.25.45-.9,1.8-2.4,4.5-1.6-.3-2.85-2c1.3-1.54,2.46-2.94,3.5-4.2.43-.54.85-1,1.25-1.5.16-.2.31-.39.45-.55,2.86-3.5,4.3-5.39,4.3-5.65,0-.44-.09-.67-.25-.7a2.19,2.19,0,0,0-.55-.2,49.91,49.91,0,0,0-5.15,3.55l-2.1.8-.85.35-1.35.5-1.1.15c-.57-.14-1.1-.29-1.6-.45a10,10,0,0,1-2.55-1.45,1.76,1.76,0,0,1-.7-.95,3.74,3.74,0,0,1-.35-1,10.75,10.75,0,0,0,4.4.8,12.86,12.86,0,0,0,1.55-.2l.7-.3h.05l.8-.6v0l.2,0,.45-.5a.28.28,0,0,1,.15-.15,3,3,0,0,0,.35-.45.34.34,0,0,0,.1-.2l.45-1.35a3.93,3.93,0,0,0-.15-1.85,2.34,2.34,0,0,1-.15-.55l.45-.1Z" transform="translate(-0.38)"/><path class="cls-32" d="M203.75,48a7.59,7.59,0,0,1,.85-1,1,1,0,0,0,.65.6,19.5,19.5,0,0,0,1.85-1c.46-.3.83-.55,1.1-.75a.14.14,0,0,1,.05.1q.24.49.45,1l-.75.35a1.86,1.86,0,0,1,0,.7,1.76,1.76,0,0,1-.8,1,1.64,1.64,0,0,1-1.3.2h-.05a4,4,0,0,1-.85,0,2.86,2.86,0,0,1-1.45-.75s0,0,0,0,0-.05-.05-.05v-.15ZM232,58.43l-.55.55-1,.35a2.57,2.57,0,0,1-1.75,0,7.26,7.26,0,0,0-1.15-.45v-.75l-.1-.2a.68.68,0,0,1,0-.25.32.32,0,0,1-.05-.15c-.1-.2-.2-.39-.3-.55.33-.07.6-.14.8-.2a1.3,1.3,0,0,0,.4-.25l.55-.45a3.64,3.64,0,0,0,1.3,1.25Zm-19.35-6.25,1.5,0h.1c.76.36,1.53.76,2.3,1.2a1.4,1.4,0,0,1,.85,1.4,6.37,6.37,0,0,0-.8-.55,4.5,4.5,0,0,0-2.25-.85,1.93,1.93,0,0,0-.65.1.76.76,0,0,0-.6.45.74.74,0,0,0,0,.6v.05l-1.7-.5.1-1.65v-.25l1-.1ZM202,47.93l-.4-1.1a1.35,1.35,0,0,1,.75-.1,1.27,1.27,0,0,1,1,1.2Z" transform="translate(-0.38)"/><path class="cls-33" d="M208.2,45.78c-.27.2-.64.45-1.1.75a19.5,19.5,0,0,1-1.85,1,1,1,0,0,1-.65-.6l.1-.1a.28.28,0,0,1,.15-.15l.4-.4.1-.15a5.6,5.6,0,0,1,.45-.35v0a.11.11,0,0,1,.1-.05l0,0a1.89,1.89,0,0,1,.2-.2,9.93,9.93,0,0,1,2.1-1.45c0,.53-.05,1.08-.05,1.65Zm2.3,6.55.95-.1v.25l-.1,1.65-1.6-.5V52.38ZM214,54.48l-.25.15,0,.15a3.29,3.29,0,0,0-.6-.15v-.05a.74.74,0,0,1,0-.6.76.76,0,0,1,.6-.45,1.93,1.93,0,0,1,.65-.1,4.5,4.5,0,0,1,2.25.85,6.37,6.37,0,0,1,.8.55,1.1,1.1,0,0,1-.2.6h-.3l-2.35-1.3Z" transform="translate(-0.38)"/><path class="cls-34" d="M203.35,86.43l.15,4.3a3,3,0,0,1-.95-1.7,25.72,25.72,0,0,1-.55-2.9V86c-.17-2.14-.34-3.82-.5-5a14,14,0,0,0-.35-2.2q-.26-1-3.7-5.8v-.05a2,2,0,0,1-.2-.65l-.4-1.2a2.9,2.9,0,0,1-.1-1.85l1.2,1.1,1.9,1.15a3.74,3.74,0,0,0,.35,1,1.76,1.76,0,0,0,.7.95,10,10,0,0,0,2.55,1.45c.5.16,1,.31,1.6.45l-.3,2-.7,5.1-.35,1.25-.1.65-.3,1.35Zm3.55-3.7-.15,0,2.05-5.05.7-1.85.3-.65.65-1.65a49.91,49.91,0,0,1,5.15-3.55,2.19,2.19,0,0,1,.55.2c.16,0,.25.26.25.7,0,.26-1.44,2.15-4.3,5.65-.14.16-.29.35-.45.55-.4.46-.82,1-1.25,1.5C209.36,79.79,208.2,81.19,206.9,82.73Z" transform="translate(-0.38)"/><path class="cls-35" d="M226.55,60.88l-.05,0v0ZM223.3,71v0h0Z" transform="translate(-0.38)"/><path class="cls-36" d="M248.65,48.93a8.09,8.09,0,0,1,2.95,6.55V66.93c0,3.33-1.49,4.16-4.45,2.5L236,63a8.68,8.68,0,0,1-3.9-4.55l7.25,4.2v0l3.75,2.2a1.44,1.44,0,0,0,1.15.3.22.22,0,0,0,.2-.1l1.75-1a.41.41,0,0,0,.2-.15l1.7-1c.36-.1.55-.54.55-1.3Z" transform="translate(-0.38)"/><path class="cls-37" d="M205.8,72a12.86,12.86,0,0,1-1.55.2,10.75,10.75,0,0,1-4.4-.8L198,70.28l-1.2-1.1a1.11,1.11,0,0,1-.2-.65,29.27,29.27,0,0,1,.35-5.2l0-3.7a28.76,28.76,0,0,0-.35-3.7v-.2c-.14-.57-.27-1.15-.4-1.75s-.29-1.2-.45-1.8v-.3A4.12,4.12,0,0,1,197.4,48a1.94,1.94,0,0,1,.55-.4l1.25-.65a11,11,0,0,1,1.4.4c.33.7.7,1.38,1.1,2.05a1,1,0,0,0,.4.5,3.32,3.32,0,0,0,1.5.8,1.56,1.56,0,0,0,1.7-.6,2.45,2.45,0,0,0,.3-.5,22.58,22.58,0,0,1,3,2.1l.1,0a3.11,3.11,0,0,1-.25.2l-.9.6c-.27.3-.52.56-.75.8a4.37,4.37,0,0,0-.65,1.15,2.39,2.39,0,0,0-.35.9,2.21,2.21,0,0,0-.15.55.5.5,0,0,1-.05.15v.15a5.46,5.46,0,0,0-.25,1.35,1.18,1.18,0,0,0,0,.35v.15c0,.43-.05,1.3-.05,2.6v.55c0,1.16,0,2.11.05,2.85v1c0,1.2.08,2.33.15,3.4a6.25,6.25,0,0,0,.05.9Q205.65,70.83,205.8,72Z" transform="translate(-0.38)"/><path class="cls-38" d="M209.75,53.53v.1a3.88,3.88,0,0,0-2.45.9,1.51,1.51,0,0,0-.25,1.65,3.61,3.61,0,0,0,2.3,2.1.53.53,0,0,1,0,.2,4,4,0,0,1-.15.55l-.65,3.8.2,2.8.05.35a2.34,2.34,0,0,0,.15.55,3.93,3.93,0,0,1,.15,1.85l-.45,1.35a.34.34,0,0,1-.1.2,3,3,0,0,1-.35.45.28.28,0,0,0-.15.15l-.5.5-.15,0v0l-.8.6h-.05l-.7.3q-.15-1.2-.3-2.7a6.25,6.25,0,0,1-.05-.9c-.07-1.07-.12-2.2-.15-3.4v-1c0-.74-.05-1.69-.05-2.85v-.55c0-1.3,0-2.17.05-2.6v-.15a1.18,1.18,0,0,1,0-.35,5.46,5.46,0,0,1,.25-1.35v-.15a.5.5,0,0,0,.05-.15,2.21,2.21,0,0,1,.15-.55,2.39,2.39,0,0,1,.35-.9,4.37,4.37,0,0,1,.65-1.15c.23-.24.48-.5.75-.8l.9-.6a3.11,3.11,0,0,0,.25-.2l.9,1a2.09,2.09,0,0,1,.1.6A.59.59,0,0,1,209.75,53.53Z" transform="translate(-0.38)"/><path class="cls-39" d="M205.6,49.58a2.45,2.45,0,0,1-.3.5,1.56,1.56,0,0,1-1.7.6,3.32,3.32,0,0,1-1.5-.8,1,1,0,0,1-.4-.5c-.4-.67-.77-1.35-1.1-2.05a.14.14,0,0,0,0-.1l1.45.7h1.35l.4,0-.4.2v.15s.05,0,.05.05,0,0,0,0a2.86,2.86,0,0,0,1.45.75,4,4,0,0,0,.85,0A4,4,0,0,1,205.6,49.58Z" transform="translate(-0.38)"/><path class="cls-40" d="M213.15,88.38l-.25.55a1.23,1.23,0,0,1-.7.35,1,1,0,0,1-.25,0,1.18,1.18,0,0,1-1-.3q-1.41-1-2.7-2l-.55.35h-.1a4.93,4.93,0,0,1-2.6-2.3,2.74,2.74,0,0,0-.15-.4l.25-.35h0l.65-.55a6,6,0,0,0,1,1.5,7.18,7.18,0,0,0,2.3,1.6,4.54,4.54,0,0,1,1.35,1.15,3.19,3.19,0,0,0,.45.45l.4.2a1.48,1.48,0,0,0,1.3,0A6.21,6.21,0,0,0,213.15,88.38Zm-10,9.9v.1a1.55,1.55,0,0,1-.4.7,2.65,2.65,0,0,1-3.45.5v-1.2l.3.1a3,3,0,0,0,3.1-.45,3.53,3.53,0,0,0,.6-.55,2.23,2.23,0,0,1,1-.6.53.53,0,0,0,.2,0,2.94,2.94,0,0,0,.95-.25c.2-.07.36-.14.5-.2l-.15.4-.1.25-.55.2-1.95.7A.94.94,0,0,1,203.15,98.28Z" transform="translate(-0.38)"/><path class="cls-41" d="M292.75,147.48l.3-1.3a29,29,0,0,0,.15-7.8l6.15,3.55,10.4-5.8,3.6,2.1,5.35,3.15,5.6,3.2a34,34,0,0,0,3.1,1.65,2.27,2.27,0,0,0,2.2,0c.63-.4,1.28-.79,1.95-1.15s1.06-.7,1.6-1.1l.3-.2,5.6,3.25-23.6,13.6ZM282.45,175a3.16,3.16,0,0,0,1.95,1.55,4.6,4.6,0,0,0,2.35-.25l.25-.7a4.79,4.79,0,0,1,1.55.25q4.54,1.14,5.85-2.55.19-.3-.6-.9a16.91,16.91,0,0,0-4.35-1.45l-.5-.35a17.12,17.12,0,0,1-.3-2.1v-.25l6.8,3.9q2.15,1.25-1,3.05l-4.75,2.75q-3.15,1.8-5.25.55L271.55,171q-2.1-1.2,1.05-3l2.85-1.65c.06.33.13.65.2,1a1.24,1.24,0,0,0,.75,1,1.94,1.94,0,0,0,1.2.1,2.34,2.34,0,0,0,.55-.4,15.38,15.38,0,0,1,4.35-2.8q-.45,3.84-.75,8.1A2.09,2.09,0,0,0,282.45,175Zm-3.5-41.4c-.14,1.26-.27,2.53-.4,3.8a8.27,8.27,0,0,0-.05,1c0,.26,0,.55-.05.85l-11.35-6.55-18,10.35L219,125.73l2.1-1.25L249.9,141l18.75-11.5,0-2.1.15-.1-.15,0v-.1l-2.4-1.3-26.9-15.6-.1,0-.2-.1-5.2,3.2-20.1-11.55L215.55,96l12.3-7.1q3.35,1.8,6.65,3.75l5.85,3.45q3.15,1.74,6.3,3.6l5.95,3.5-2.7,1.3-3.25,1.55v5.65l32.75,18.75C279.23,131.51,279.08,132.54,279,133.58Zm-81.85-26.8,9.7,5.55-1.65,5.5,1.8,1,1.5-.1,4.8-15.35,10.8,6.2q2.14,1.24-3.3,4l-8.3,4.2q-5.5,2.7-7.65,1.45l-13.1-7.55q-1.6-.9,1-2.7l-.5,1.7,1.85,1,1.5-.1Zm13.65-7.15-.7-.4,1-.6Zm-3.1,10L200,105.18l3.35-1.65a15,15,0,0,1,5.7-1.9l.9.5Z" transform="translate(-0.38)"/><path class="cls-42" d="M279.1,124.68l-32.45-18.6,3.25-1.55,27.55,16a18.26,18.26,0,0,0,1.3,3.55A3.68,3.68,0,0,0,279.1,124.68Zm13.6,4.6,9.6,5.6-2.95,1.4-7.3-4.15a13.83,13.83,0,0,1,.2-1.7,2.53,2.53,0,0,1,.2-.7A1.63,1.63,0,0,1,292.7,129.28Z" transform="translate(-0.38)"/><polygon class="cls-43" points="265.82 125.88 268.12 127.23 268.22 127.28 268.37 127.33 268.22 127.43 266.12 128.63 236.72 111.58 238.82 110.33 238.92 110.28 265.82 125.88"/><path class="cls-44" d="M293.2,138.38a7,7,0,0,1-.15-.95c-.37-1.27-.65-2.4-.85-3.4a12.26,12.26,0,0,1-.15-1.9l7.3,4.15,2.95-1.4,2.85-1.4.3.2c.5.26,1.43.81,2.8,1.65l1.5.8-10.4,5.8Zm-46.55-32.3,32.45,18.6a1.05,1.05,0,0,0,.15.3l.05.1a6.81,6.81,0,0,0,.4,1.3,4.08,4.08,0,0,1,.15,1.25,5.49,5.49,0,0,1-.1,1c-.14.63-.25,1.26-.35,1.9l-32.75-18.75Z" transform="translate(-0.38)"/><path class="cls-45" d="M268.5,127.23l.1,0v.1ZM249.9,141l-.15-2.15,14.5-8.95,2.25-1.3,2.1-1.2,0,2.1Z" transform="translate(-0.38)"/><polygon class="cls-46" points="249.37 138.88 249.52 141.03 220.67 124.48 219.92 124.08 219.82 121.93 248.82 138.63 249.37 138.88"/><path class="cls-47" d="M275.65,167.33c-.07-.3-.14-.62-.2-1a26.72,26.72,0,0,1-.05-9.1,94.45,94.45,0,0,1,2.4-10.35,6,6,0,0,0,.35-2.05c.06-1.4.15-2.79.25-4.15,0-.5,0-1,.05-1.5,0-.3.05-.59.05-.85a8.27,8.27,0,0,1,.05-1c.13-1.27.26-2.54.4-3.8a10.29,10.29,0,0,0,1.5,1.9,10.82,10.82,0,0,0,2.2,1.6,15.88,15.88,0,0,0,3,1.15c.2,1.6.51,3.5.95,5.7a7.1,7.1,0,0,1,.15.75,35.92,35.92,0,0,1,.8,7,44,44,0,0,1-.55,6l-1.2,7a12.35,12.35,0,0,0-.3,1.7,80.21,80.21,0,0,0-1,8.75l-2-.15a2.09,2.09,0,0,1-.7-1.6q.3-4.26.75-8.1l.05-.7.4-3.2a2.21,2.21,0,0,1,.15-.55,29.91,29.91,0,0,0,1.3-9.3c0-1.14-.07-2.27-.1-3.4.06-.9.1-1.37.1-1.4a9.43,9.43,0,0,0-.15-1.5c-.17-.84-.25-1.27-.25-1.3s-.07-.27-.1-.4a.37.37,0,0,0,0-.15,2.47,2.47,0,0,1-.1-.35,3.78,3.78,0,0,0-.75-1.2,9.79,9.79,0,0,0-1.05-.9,17,17,0,0,1-1.55-1.3c0,.23.06.5.1.8a.21.21,0,0,1,.05.15,22.6,22.6,0,0,1-.25,2.95q-.36,3.19-1.35,8.25a64.53,64.53,0,0,0-1.6,12.15v1.35c0,1.16,0,1.85,0,2.05v.25a8.81,8.81,0,0,1-1.2-.1A.88.88,0,0,1,275.65,167.33Z" transform="translate(-0.38)"/><path class="cls-48" d="M284.3,148.13v-.4c-.5,1.76-1,3.58-1.6,5.45a.35.35,0,0,0-.05.2c-.14.4-.25.8-.35,1.2-.17.7-.32,1.41-.45,2.15,0,.1-.07.2-.1.3a32.84,32.84,0,0,0-.2-3.3c-.17-2.07-.29-3.59-.35-4.55s-.14-1.79-.2-2.25c-.1-.87-.22-1.65-.35-2.35-.1-.34-.22-.69-.35-1.05a22.6,22.6,0,0,0,.25-2.95.21.21,0,0,0-.05-.15c0-.3-.07-.57-.1-.8a17,17,0,0,0,1.55,1.3,9.79,9.79,0,0,1,1.05.9,3.78,3.78,0,0,1,.75,1.2,2.47,2.47,0,0,0,.1.35.37.37,0,0,1,0,.15c0,.13.06.26.1.4s.08.46.25,1.3a9.43,9.43,0,0,1,.15,1.5S284.36,147.23,284.3,148.13Z" transform="translate(-0.38)"/><path class="cls-49" d="M293.05,137.43a7,7,0,0,0,.15.95,29,29,0,0,1-.15,7.8l-.3,1.3c-.7,3.13-1.44,6.26-2.2,9.4a70.72,70.72,0,0,0-1.8,10.7,1.93,1.93,0,0,0-.1.65v.25a17.12,17.12,0,0,0,.3,2.1l.5.35c0,2.16-1.27,3.5-3.9,4-.3.06-.57.13-.8.2h-.3a80.21,80.21,0,0,1,1-8.75,12.35,12.35,0,0,1,.3-1.7l1.2-7a44,44,0,0,0,.55-6,35.92,35.92,0,0,0-.8-7,7.1,7.1,0,0,0-.15-.75c-.44-2.2-.75-4.1-.95-5.7a11.22,11.22,0,0,0,1.9.45l1.25.15a6.46,6.46,0,0,0,3.65-.9A3.42,3.42,0,0,0,293.05,137.43ZM280.3,165.68a4.15,4.15,0,0,1-2.9,1.9v-.25c0-.2,0-.89,0-2.05v-1.35a64.53,64.53,0,0,1,1.6-12.15q1-5.06,1.35-8.25c.13.36.25.71.35,1.05.13.7.25,1.48.35,2.35.06.46.13,1.21.2,2.25s.18,2.48.35,4.55a32.84,32.84,0,0,1,.2,3.3c0-.1.06-.2.1-.3,0,.13-.07.26-.1.4v.4a1.93,1.93,0,0,0-.1.65.26.26,0,0,0,0,.15.35.35,0,0,0-.05.2c0,.53-.07,1.06-.1,1.6v1.1l.35,1.4a7.32,7.32,0,0,1-.6,1.6,3.68,3.68,0,0,1-.25.4A5.85,5.85,0,0,1,280.3,165.68Z" transform="translate(-0.38)"/><path class="cls-50" d="M284.75,175.13a39.69,39.69,0,0,1,5.65-.2,4.16,4.16,0,0,0,4-1.65q-1.31,3.69-5.85,2.55a4.79,4.79,0,0,0-1.55-.25l-.25.7a4.6,4.6,0,0,1-2.35.25,3.16,3.16,0,0,1-1.95-1.55l2,.15Zm-2.25-9.85a15.38,15.38,0,0,0-4.35,2.8,2.34,2.34,0,0,1-.55.4,1.94,1.94,0,0,1-1.2-.1,1.24,1.24,0,0,1-.75-1,.88.88,0,0,0,.55.15,8.81,8.81,0,0,0,1.2.1,4.15,4.15,0,0,0,2.9-1.9l2.25-1.1Z" transform="translate(-0.38)"/><path class="cls-51" d="M197,15.48l9.5,5.5a2.3,2.3,0,0,1,1.25,2.15V34a1.12,1.12,0,0,1-.25.85l-.15.1a1.18,1.18,0,0,1-.85-.2l-2.8-1.65v0L197,29.23a2.3,2.3,0,0,1-1.25-2.15V16.18q0-.7.3-.9C196.25,15.18,196.56,15.24,197,15.48ZM324.5,37a2.3,2.3,0,0,1,1.25,2.15V50a1.12,1.12,0,0,1-.25.85l-.15.1a1.18,1.18,0,0,1-.85-.2l-2.8-1.65v0l-6.7-4a2.3,2.3,0,0,1-1.25-2.15V32.18q0-.7.3-.9c.2-.1.51,0,.95.2Zm-47.6-25.8L283.5,15a1.59,1.59,0,0,1,.85,1.45v7.6a.79.79,0,0,1-.15.55.19.19,0,0,1-.1.05q-.21.09-.6-.15l-6.6-3.8a1.64,1.64,0,0,1-.85-1.5V11.68c0-.34.06-.55.2-.65A1,1,0,0,1,276.9,11.18Z" transform="translate(-0.38)"/><path class="cls-52" d="M187.25,140.08q-.06-.45.75-.9l12.05-7a3,3,0,0,1,3.15,0l8.65,4.95,0,.05,3.55,2c.46.26.71.55.75.85a.46.46,0,0,1,.05.2,1.53,1.53,0,0,1-.73.7l-.07,0-12,7a3.07,3.07,0,0,1-3.15,0l-6.2-3.6h0l-1.1-.65h0l-4.8-2.75a3.13,3.13,0,0,1-.38-.25A.88.88,0,0,1,187.25,140.08Zm12.55-3a1.91,1.91,0,0,0-1.2-.45,2.39,2.39,0,0,0-1.4.1,1.34,1.34,0,0,0-.9.7l-1.7,4.4a.64.64,0,0,0,.15.7,1.67,1.67,0,0,0,.85.5,2.59,2.59,0,0,0,1.2.1l11.85-1.4a2.57,2.57,0,0,0,1.2-.5.78.78,0,0,0,.25-.85,1.24,1.24,0,0,0-.8-.65,2.23,2.23,0,0,0-1.4-.15l-8.9,1.05,1.05-2.75A.74.74,0,0,0,199.8,137.13Z" transform="translate(-0.38)"/><path class="cls-53" d="M216.15,140.23v1.85a.36.36,0,0,1,0,.25v1.8c.06.36-.2.71-.8,1.05l-12,6.95a2.89,2.89,0,0,1-3.1,0L188,145.18c-.47-.34-.7-.64-.7-.9l-.05-.05v-2h-.05l0-1.18,0-.92a.88.88,0,0,0,.42.65,3.13,3.13,0,0,0,.38.25l4.8,2.75h0l1.1.65h0l6.2,3.6a3.07,3.07,0,0,0,3.15,0l12-7,.07,0A1.53,1.53,0,0,0,216.15,140.23Z" transform="translate(-0.38)"/><path class="cls-54" d="M216.15,141.35l2.65,1.53c.6.33.93.68,1,1.05v.25a2.09,2.09,0,0,1-1,1L203.5,154a3.79,3.79,0,0,1-4,0l-7.95-4.6v0l-7.5-4.3c-.64-.4-1-.79-1-1.15s.33-.8,1-1.2l3.17-1.83,0,1.18h.05v2l.05.05c0,.26.23.56.7.9l12.2,6.95a2.89,2.89,0,0,0,3.1,0l12-6.95c.6-.34.86-.69.8-1.05v-1.8a.36.36,0,0,0,0-.25ZM211,155v1.6H211l-.05,2.05H211c0,.3.25.61.75.95l12.2,7a2.83,2.83,0,0,0,3.1,0l12-7q.9-.51.75-1v-1.85a.23.23,0,0,0,0-.2v-.93L242.3,157c.6.33.93.68,1,1.05v.25a2.09,2.09,0,0,1-1,1L227,168.18a3.79,3.79,0,0,1-4,0l-7.95-4.6v0l-7.5-4.3c-.64-.4-1-.79-1-1.15s.33-.8,1-1.2Z" transform="translate(-0.38)"/><path class="cls-55" d="M239.85,154.68v1.85a.23.23,0,0,1,0,.2v1.85q.15.54-.75,1l-12,7a2.83,2.83,0,0,1-3.1,0l-12.2-7c-.5-.34-.75-.65-.75-.95H211l.05-2.05H211v-2.1a.81.81,0,0,0,.17.4,2.55,2.55,0,0,0,.63.5l12.15,7a3,3,0,0,0,3.15,0l12-7,.22-.13A1.19,1.19,0,0,0,239.85,154.68Z" transform="translate(-0.38)"/></g><g id="Layer_8" data-name="Layer 8"><path d="M.68,51.79,6,38.59H7.14l5.28,13.2H11.36L7,41l-.48-1.4h0l-.48,1.36L1.74,51.79ZM3,47.65v-.92h7v.92Z" transform="translate(-0.38)"/><path d="M19.66,50.77a3.85,3.85,0,0,1,2.32.62,2,2,0,0,1,.84,1.66,2.29,2.29,0,0,1-.61,1.6,3.91,3.91,0,0,1-1.67,1.06,7,7,0,0,1-2.42.38,6.45,6.45,0,0,1-3.46-.77,2.24,2.24,0,0,1-1.2-1.93,2,2,0,0,1,.61-1.46,2.84,2.84,0,0,1,1.79-.74l-.08.18a2.93,2.93,0,0,1-1.13-.6,1.48,1.48,0,0,1-.49-1.2,1.72,1.72,0,0,1,.63-1.37,2.94,2.94,0,0,1,1.67-.61l1.06.36H17.1a2.84,2.84,0,0,0-1.47.45,1.18,1.18,0,0,0-.55,1,1.12,1.12,0,0,0,.53,1,2.41,2.41,0,0,0,1.35.34ZM18,41.59a5.09,5.09,0,0,1,2.09.41,3.36,3.36,0,0,1,1.41,1.14,3,3,0,0,1,.5,1.71,3,3,0,0,1-.5,1.71,3.19,3.19,0,0,1-1.41,1.16,4.94,4.94,0,0,1-2.09.41,4.41,4.41,0,0,1-3-.91,3,3,0,0,1-1.07-2.37,2.92,2.92,0,0,1,.51-1.71A3.46,3.46,0,0,1,15.87,42,5.16,5.16,0,0,1,18,41.59Zm.14,13.66a6.31,6.31,0,0,0,2-.28,3,3,0,0,0,1.29-.75,1.47,1.47,0,0,0,.45-1,1.3,1.3,0,0,0-.61-1.12,3.29,3.29,0,0,0-1.85-.42H16.58a2.64,2.64,0,0,0-1.56.44,1.4,1.4,0,0,0-.62,1.18,1.64,1.64,0,0,0,1,1.45A5.62,5.62,0,0,0,18.12,55.25ZM18,42.41a3.4,3.4,0,0,0-2.16.67,2.3,2.3,0,0,0,0,3.55,3.29,3.29,0,0,0,2.16.68,3.24,3.24,0,0,0,2.15-.68,2.31,2.31,0,0,0,0-3.55A3.35,3.35,0,0,0,18,42.41ZM22.82,40l.24.88H23a2.09,2.09,0,0,0-1.51.51,1.91,1.91,0,0,0-.53,1.43l-.64-.32a2.69,2.69,0,0,1,.32-1.32,2.3,2.3,0,0,1,.88-.87A2.61,2.61,0,0,1,22.74,40h.08Z" transform="translate(-0.38)"/><path d="M25.34,39.85a.8.8,0,0,1-.61-.23A.82.82,0,0,1,24.5,39a.85.85,0,0,1,.23-.61.92.92,0,0,1,1.22,0,.85.85,0,0,1,.23.61.82.82,0,0,1-.23.61A.8.8,0,0,1,25.34,39.85Zm.5,1.94v10h-1v-10Z" transform="translate(-0.38)"/><path d="M30.32,37.19V49.43a2,2,0,0,0,.32,1.3,1.21,1.21,0,0,0,1,.38,3,3,0,0,0,.67-.06,3.42,3.42,0,0,0,.59-.2l-.14.88a2.4,2.4,0,0,1-.59.19,3.29,3.29,0,0,1-.73.07,2,2,0,0,1-1.59-.61,2.87,2.87,0,0,1-.53-1.91V37.19Z" transform="translate(-0.38)"/><path d="M38.88,52a4.79,4.79,0,0,1-2.46-.62,4.3,4.3,0,0,1-1.69-1.79,6.69,6.69,0,0,1,0-5.58,4.47,4.47,0,0,1,1.65-1.79,4.59,4.59,0,0,1,2.38-.62,4.28,4.28,0,0,1,2.32.6,4,4,0,0,1,1.48,1.67,5.57,5.57,0,0,1,.52,2.47c0,.12,0,.24,0,.35s0,.22,0,.31h-8.3v-.9H42.6l-.5.14a4.11,4.11,0,0,0-.91-2.74,3.08,3.08,0,0,0-2.45-1,3.53,3.53,0,0,0-1.9.51,3.45,3.45,0,0,0-1.28,1.48,6,6,0,0,0,0,4.65,3.32,3.32,0,0,0,1.32,1.49,4.13,4.13,0,0,0,4,0,3.44,3.44,0,0,0,1.29-1.38l.8.46a3.86,3.86,0,0,1-1,1.23,4.28,4.28,0,0,1-1.38.79A5,5,0,0,1,38.88,52Z" transform="translate(-0.38)"/><path d="M56.1,52a4.4,4.4,0,0,1-2.34-.62,4.23,4.23,0,0,1-1.63-1.79,6.17,6.17,0,0,1-.59-2.79A6,6,0,0,1,52.16,44a4.35,4.35,0,0,1,1.68-1.77,4.69,4.69,0,0,1,2.34-.61,3.91,3.91,0,0,1,2.39.74,3.64,3.64,0,0,1,1.33,2.06l-.12.08V37.19h1v14.6h-.9L59.82,49l.12,0a3.57,3.57,0,0,1-.73,1.64,3.45,3.45,0,0,1-1.36,1A4.24,4.24,0,0,1,56.1,52Zm.12-.88a3.22,3.22,0,0,0,1.86-.53,3.49,3.49,0,0,0,1.25-1.53,5.61,5.61,0,0,0,.45-2.34,5.28,5.28,0,0,0-.45-2.27A3.43,3.43,0,0,0,58.09,43a3.31,3.31,0,0,0-1.83-.51,3.42,3.42,0,0,0-2.72,1.16,4.68,4.68,0,0,0-1,3.16,4.69,4.69,0,0,0,1,3.16A3.34,3.34,0,0,0,56.22,51.11Z" transform="translate(-0.38)"/><path d="M68.42,52A4.79,4.79,0,0,1,66,51.37a4.24,4.24,0,0,1-1.69-1.79,6.69,6.69,0,0,1,0-5.58,4.4,4.4,0,0,1,1.65-1.79,4.59,4.59,0,0,1,2.38-.62,4.28,4.28,0,0,1,2.32.6,4,4,0,0,1,1.48,1.67,5.57,5.57,0,0,1,.52,2.47c0,.12,0,.24,0,.35s0,.22,0,.31h-8.3v-.9h7.86l-.5.14a4.11,4.11,0,0,0-.91-2.74,3.09,3.09,0,0,0-2.45-1,3.51,3.51,0,0,0-1.9.51,3.45,3.45,0,0,0-1.28,1.48,5.38,5.38,0,0,0-.46,2.33,5.19,5.19,0,0,0,.47,2.32,3.32,3.32,0,0,0,1.32,1.49,4.13,4.13,0,0,0,4,0,3.44,3.44,0,0,0,1.29-1.38l.8.46a3.86,3.86,0,0,1-1,1.23,4.28,4.28,0,0,1-1.38.79A5,5,0,0,1,68.42,52Z" transform="translate(-0.38)"/><path d="M82.06,41.79h1.06l-4.18,10h-1l-4.18-10h1.12l3.58,9Z" transform="translate(-0.38)"/><path d="M89.18,52a4.79,4.79,0,0,1-2.46-.62A4.3,4.3,0,0,1,85,49.58,6.69,6.69,0,0,1,85,44a4.47,4.47,0,0,1,1.65-1.79,4.59,4.59,0,0,1,2.38-.62,4.28,4.28,0,0,1,2.32.6,4,4,0,0,1,1.48,1.67,5.57,5.57,0,0,1,.52,2.47c0,.12,0,.24,0,.35s0,.22,0,.31H85v-.9H92.9l-.5.14a4.11,4.11,0,0,0-.91-2.74,3.08,3.08,0,0,0-2.45-1,3.53,3.53,0,0,0-1.9.51,3.45,3.45,0,0,0-1.28,1.48,6,6,0,0,0,0,4.65,3.32,3.32,0,0,0,1.32,1.49,4.13,4.13,0,0,0,4,0,3.44,3.44,0,0,0,1.29-1.38l.8.46a3.86,3.86,0,0,1-1,1.23,4.28,4.28,0,0,1-1.38.79A5,5,0,0,1,89.18,52Z" transform="translate(-0.38)"/><path d="M97.16,37.19V49.43a2,2,0,0,0,.32,1.3,1.21,1.21,0,0,0,1,.38,3,3,0,0,0,.67-.06,3.42,3.42,0,0,0,.59-.2l-.14.88a2.4,2.4,0,0,1-.59.19,3.29,3.29,0,0,1-.73.07,2,2,0,0,1-1.59-.61,2.87,2.87,0,0,1-.53-1.91V37.19Z" transform="translate(-0.38)"/><path d="M105.72,41.59a4.9,4.9,0,0,1,2.47.62A4.4,4.4,0,0,1,109.87,44a6.69,6.69,0,0,1,0,5.58,4.34,4.34,0,0,1-1.68,1.79,5.23,5.23,0,0,1-4.94,0,4.28,4.28,0,0,1-1.68-1.79,6.69,6.69,0,0,1,0-5.58,4.34,4.34,0,0,1,1.68-1.79A4.87,4.87,0,0,1,105.72,41.59Zm0,.86a3.75,3.75,0,0,0-2,.52,3.53,3.53,0,0,0-1.31,1.49,6,6,0,0,0,0,4.65,3.39,3.39,0,0,0,1.31,1.5,4,4,0,0,0,4,0,3.39,3.39,0,0,0,1.31-1.5,6,6,0,0,0,0-4.65A3.53,3.53,0,0,0,107.7,43,3.75,3.75,0,0,0,105.72,42.45Z" transform="translate(-0.38)"/><path d="M113.34,56V41.79h.9l.08,2.78-.14-.16a4,4,0,0,1,.81-1.5,3.7,3.7,0,0,1,1.35-1,4.5,4.5,0,0,1,1.74-.34,4.38,4.38,0,0,1,2.3.62A4.44,4.44,0,0,1,122,44a6.81,6.81,0,0,1,0,5.59A4.28,4.28,0,0,1,118,52a4,4,0,0,1-2.4-.73,3.76,3.76,0,0,1-1.42-2l.12-.18V56Zm4.58-4.88A3.34,3.34,0,0,0,120.61,50a4.69,4.69,0,0,0,1-3.16,4.78,4.78,0,0,0-1-3.16A3.32,3.32,0,0,0,118,42.47a3.36,3.36,0,0,0-1.87.53,3.7,3.7,0,0,0-1.28,1.5,5.85,5.85,0,0,0,0,4.57,3.52,3.52,0,0,0,1.27,1.51A3.26,3.26,0,0,0,117.92,51.11Z" transform="translate(-0.38)"/><path d="M125.48,51.79v-10h.9l.06,2.08a3.41,3.41,0,0,1,1.43-1.68,4.16,4.16,0,0,1,2.21-.6,4.08,4.08,0,0,1,2.25.62A3.21,3.21,0,0,1,133.64,44a3.21,3.21,0,0,1,.84-1.31,4.23,4.23,0,0,1,1.36-.85,4.47,4.47,0,0,1,1.62-.3,4.36,4.36,0,0,1,1.89.41,3.25,3.25,0,0,1,1.36,1.24,3.92,3.92,0,0,1,.51,2.07v6.48h-1V45.39a2.87,2.87,0,0,0-.79-2.21,3,3,0,0,0-2.09-.73,3.47,3.47,0,0,0-1.74.45,3.27,3.27,0,0,0-1.27,1.26,3.61,3.61,0,0,0-.47,1.87v5.76h-1V45.41a2.87,2.87,0,0,0-.8-2.21,3,3,0,0,0-2.08-.73,3.5,3.5,0,0,0-1.7.44,3.57,3.57,0,0,0-1.3,1.26,3.64,3.64,0,0,0-.5,2v5.66Z" transform="translate(-0.38)"/><path d="M148.76,52a4.79,4.79,0,0,1-2.46-.62,4.24,4.24,0,0,1-1.69-1.79,6.69,6.69,0,0,1,0-5.58,4.4,4.4,0,0,1,1.65-1.79,4.59,4.59,0,0,1,2.38-.62,4.31,4.31,0,0,1,2.32.6,4,4,0,0,1,1.48,1.67,5.57,5.57,0,0,1,.52,2.47c0,.12,0,.24,0,.35s0,.22,0,.31h-8.3v-.9h7.86l-.5.14a4.16,4.16,0,0,0-.91-2.74,3.09,3.09,0,0,0-2.45-1,3.51,3.51,0,0,0-1.9.51,3.45,3.45,0,0,0-1.28,1.48,5.38,5.38,0,0,0-.46,2.33,5.19,5.19,0,0,0,.47,2.32,3.32,3.32,0,0,0,1.32,1.49,4.13,4.13,0,0,0,4,0A3.44,3.44,0,0,0,152,49.23l.8.46a3.86,3.86,0,0,1-1,1.23,4.28,4.28,0,0,1-1.38.79A5,5,0,0,1,148.76,52Z" transform="translate(-0.38)"/><path d="M155.82,51.79v-10h.9l.08,2.5-.16-.14a3.51,3.51,0,0,1,.84-1.39,3.7,3.7,0,0,1,1.34-.87,4.64,4.64,0,0,1,1.68-.3,4.47,4.47,0,0,1,2,.42,3.23,3.23,0,0,1,1.35,1.24,4.05,4.05,0,0,1,.49,2.06v6.48h-1V45.63a3.16,3.16,0,0,0-.81-2.4,3,3,0,0,0-2.11-.76,3.74,3.74,0,0,0-1.75.43,3.51,3.51,0,0,0-1.32,1.25,3.74,3.74,0,0,0-.51,2v5.64Z" transform="translate(-0.38)"/><path d="M172.92,41.79v.86h-6.74v-.86ZM169.18,39V49.15a2,2,0,0,0,.45,1.43,1.68,1.68,0,0,0,1.31.49,2.29,2.29,0,0,0,1.76-.74l.38.82a2.68,2.68,0,0,1-1,.61,3.38,3.38,0,0,1-1.3.23,3,3,0,0,1-1.38-.29,2.05,2.05,0,0,1-.93-.89,3.11,3.11,0,0,1-.33-1.52v-10Z" transform="translate(-0.38)"/><path d="M2.08,75.79v-10H3L3,67.87a3.41,3.41,0,0,1,1.43-1.68,4.19,4.19,0,0,1,2.21-.6,4,4,0,0,1,2.25.62A3.21,3.21,0,0,1,10.24,68a3.21,3.21,0,0,1,.84-1.31,4.23,4.23,0,0,1,1.36-.85,4.47,4.47,0,0,1,1.62-.3A4.36,4.36,0,0,1,16,66a3.25,3.25,0,0,1,1.36,1.24,3.92,3.92,0,0,1,.51,2.07v6.48h-1V69.39A2.87,2.87,0,0,0,16,67.18a3,3,0,0,0-2.09-.73,3.47,3.47,0,0,0-1.74.45,3.34,3.34,0,0,0-1.27,1.26A3.71,3.71,0,0,0,10.46,70v5.76h-1V69.41a2.87,2.87,0,0,0-.8-2.21,3,3,0,0,0-2.08-.73,3.5,3.5,0,0,0-1.7.44,3.57,3.57,0,0,0-1.3,1.26,3.73,3.73,0,0,0-.5,2v5.66Z" transform="translate(-0.38)"/><path d="M25.36,76a4.79,4.79,0,0,1-2.46-.62,4.3,4.3,0,0,1-1.69-1.79,6.69,6.69,0,0,1,0-5.58,4.47,4.47,0,0,1,1.65-1.79,4.59,4.59,0,0,1,2.38-.62,4.28,4.28,0,0,1,2.32.6A4,4,0,0,1,29,67.86a5.57,5.57,0,0,1,.52,2.47c0,.12,0,.24,0,.35s0,.22,0,.31h-8.3v-.9h7.86l-.5.14a4.11,4.11,0,0,0-.91-2.74,3.08,3.08,0,0,0-2.45-1,3.53,3.53,0,0,0-1.9.51A3.45,3.45,0,0,0,22,68.46a6,6,0,0,0,0,4.65,3.32,3.32,0,0,0,1.32,1.49,4.13,4.13,0,0,0,4,0,3.44,3.44,0,0,0,1.29-1.38l.8.46a3.86,3.86,0,0,1-1,1.23,4.28,4.28,0,0,1-1.38.79A5,5,0,0,1,25.36,76Z" transform="translate(-0.38)"/><path d="M37.6,65.79v.86H30.86v-.86ZM33.86,63V73.15a2,2,0,0,0,.45,1.43,1.68,1.68,0,0,0,1.31.49,2.4,2.4,0,0,0,1-.19,2.28,2.28,0,0,0,.77-.55l.38.82a2.6,2.6,0,0,1-1,.61,3.38,3.38,0,0,1-1.3.23,3,3,0,0,1-1.38-.29,2.05,2.05,0,0,1-.93-.89,3.11,3.11,0,0,1-.33-1.52v-10Z" transform="translate(-0.38)"/><path d="M39.74,75.79V61.19h1v6.64a3.46,3.46,0,0,1,1.42-1.65,4.33,4.33,0,0,1,2.26-.59,4.58,4.58,0,0,1,2,.41,3.17,3.17,0,0,1,1.35,1.24,4,4,0,0,1,.49,2.05v6.5h-1V69.61a3.17,3.17,0,0,0-.81-2.39,3,3,0,0,0-2.11-.77,3.56,3.56,0,0,0-3.07,1.7,3.74,3.74,0,0,0-.51,2v5.64Z" transform="translate(-0.38)"/><path d="M55.78,65.59a4.87,4.87,0,0,1,2.47.62A4.4,4.4,0,0,1,59.93,68a6.69,6.69,0,0,1,0,5.58,4.34,4.34,0,0,1-1.68,1.79,5.23,5.23,0,0,1-4.94,0,4.34,4.34,0,0,1-1.68-1.79,6.69,6.69,0,0,1,0-5.58,4.4,4.4,0,0,1,1.68-1.79A4.87,4.87,0,0,1,55.78,65.59Zm0,.86a3.75,3.75,0,0,0-2,.52,3.53,3.53,0,0,0-1.31,1.49,6,6,0,0,0,0,4.65,3.39,3.39,0,0,0,1.31,1.5,4,4,0,0,0,4,0,3.39,3.39,0,0,0,1.31-1.5,6,6,0,0,0,0-4.65A3.53,3.53,0,0,0,57.76,67,3.75,3.75,0,0,0,55.78,66.45Z" transform="translate(-0.38)"/><path d="M67.3,76A4.4,4.4,0,0,1,65,75.37a4.23,4.23,0,0,1-1.63-1.79,6.17,6.17,0,0,1-.59-2.79A6,6,0,0,1,63.36,68,4.35,4.35,0,0,1,65,66.2a4.69,4.69,0,0,1,2.34-.61,3.91,3.91,0,0,1,2.39.74,3.64,3.64,0,0,1,1.33,2.06l-.12.08V61.19h1v14.6h-.9L71,73l.12,0a3.57,3.57,0,0,1-.73,1.64,3.45,3.45,0,0,1-1.36,1A4.24,4.24,0,0,1,67.3,76Zm.12-.88a3.22,3.22,0,0,0,1.86-.53,3.49,3.49,0,0,0,1.25-1.53A5.61,5.61,0,0,0,71,70.71a5.28,5.28,0,0,0-.45-2.27A3.43,3.43,0,0,0,69.29,67a3.31,3.31,0,0,0-1.83-.51,3.42,3.42,0,0,0-2.72,1.16,5.52,5.52,0,0,0,0,6.32A3.34,3.34,0,0,0,67.42,75.11Z" transform="translate(-0.38)"/><path d="M78.92,76a5.59,5.59,0,0,1-2.69-.62,3.44,3.44,0,0,1-1.65-1.78l.86-.58a2.86,2.86,0,0,0,1.29,1.55,4.36,4.36,0,0,0,2.27.55,3.56,3.56,0,0,0,2.07-.52,1.59,1.59,0,0,0,.75-1.38,1.5,1.5,0,0,0-.37-1,2.61,2.61,0,0,0-1.39-.65l-2.34-.5a3.74,3.74,0,0,1-2-1,2.31,2.31,0,0,1-.61-1.63A2.35,2.35,0,0,1,75.54,67a3.42,3.42,0,0,1,1.33-1,5.4,5.4,0,0,1,4.47.2A3.25,3.25,0,0,1,82.72,68l-.84.54A2.5,2.5,0,0,0,80.77,67a3.69,3.69,0,0,0-1.91-.48,4.11,4.11,0,0,0-1.47.25,2.42,2.42,0,0,0-1,.68,1.58,1.58,0,0,0,0,2,2.46,2.46,0,0,0,1.42.69l2.4.52a3.73,3.73,0,0,1,2,.91,2.17,2.17,0,0,1,.56,1.51,2.58,2.58,0,0,1-.48,1.56,3,3,0,0,1-1.36,1A5.42,5.42,0,0,1,78.92,76Z" transform="translate(-0.38)"/><path d="M86,74.15a1,1,0,0,1,.61.19,1.22,1.22,0,0,1,.38.51,2,2,0,0,1,.13.76,2.9,2.9,0,0,1-.19,1,3.1,3.1,0,0,1-.56,1,2.94,2.94,0,0,1-1,.74l-.56-.5a2.31,2.31,0,0,0,.84-.53,2.63,2.63,0,0,0,.55-.76,1.64,1.64,0,0,0,.17-.79l-.06,0a.33.33,0,0,1-.16.15.74.74,0,0,1-.66-.06.86.86,0,0,1-.3-.3.84.84,0,0,1-.12-.47.87.87,0,0,1,.13-.46,1.07,1.07,0,0,1,.33-.34A.83.83,0,0,1,86,74.15Z" transform="translate(-0.38)"/><path d="M100.32,65.59a4.92,4.92,0,0,1,1.82.32,3.81,3.81,0,0,1,1.36.92,4.15,4.15,0,0,1,.86,1.46l-.94.44a3.1,3.1,0,0,0-1.11-1.67,3.3,3.3,0,0,0-2-.59,3.67,3.67,0,0,0-1.94.51,3.42,3.42,0,0,0-1.3,1.48,6.11,6.11,0,0,0,0,4.65,3.36,3.36,0,0,0,1.28,1.49,3.6,3.6,0,0,0,1.94.51,4,4,0,0,0,1.53-.28A2.79,2.79,0,0,0,103,74a2.7,2.7,0,0,0,.59-1.28l.92.32a3.9,3.9,0,0,1-.85,1.58,3.84,3.84,0,0,1-1.43,1,4.74,4.74,0,0,1-1.88.35,4.68,4.68,0,0,1-2.43-.62,4.26,4.26,0,0,1-1.67-1.79,6,6,0,0,1-.6-2.79A5.92,5.92,0,0,1,96.21,68a4.4,4.4,0,0,1,1.68-1.79A4.77,4.77,0,0,1,100.32,65.59Z" transform="translate(-0.38)"/><path d="M110.66,76a4.24,4.24,0,0,1-1.86-.38,2.8,2.8,0,0,1-1.29-1.19,4,4,0,0,1-.47-2v-6.6h1v6.36a2.57,2.57,0,0,0,2.86,3,3.57,3.57,0,0,0,1.45-.28,3.11,3.11,0,0,0,1.11-.78,3.71,3.71,0,0,0,.71-1.14,3.85,3.85,0,0,0,.25-1.38V65.79h1v10h-.9l0-2.06A3.43,3.43,0,0,1,113,75.39,4.55,4.55,0,0,1,110.66,76Z" transform="translate(-0.38)"/><path d="M119.9,61.19V73.43a2,2,0,0,0,.32,1.3,1.2,1.2,0,0,0,1,.38,3,3,0,0,0,.67-.06,3.73,3.73,0,0,0,.59-.2l-.14.88a2.4,2.4,0,0,1-.59.19A3.29,3.29,0,0,1,121,76a2,2,0,0,1-1.59-.61,2.87,2.87,0,0,1-.53-1.91V61.19Z" transform="translate(-0.38)"/><path d="M129.58,65.79v.86h-6.74v-.86ZM125.84,63V73.15a2,2,0,0,0,.45,1.43,1.68,1.68,0,0,0,1.31.49,2.4,2.4,0,0,0,1-.19,2.28,2.28,0,0,0,.77-.55l.38.82a2.6,2.6,0,0,1-1,.61,3.38,3.38,0,0,1-1.3.23,3,3,0,0,1-1.38-.29,2.05,2.05,0,0,1-.93-.89,3.11,3.11,0,0,1-.33-1.52v-10Z" transform="translate(-0.38)"/><path d="M135.24,76a4.24,4.24,0,0,1-1.86-.38,2.8,2.8,0,0,1-1.29-1.19,4,4,0,0,1-.47-2v-6.6h1v6.36a2.57,2.57,0,0,0,2.86,3,3.57,3.57,0,0,0,1.45-.28,3.11,3.11,0,0,0,1.11-.78,3.71,3.71,0,0,0,.71-1.14,3.64,3.64,0,0,0,.25-1.38V65.79h1v10h-.9l0-2.06a3.43,3.43,0,0,1-1.44,1.66A4.55,4.55,0,0,1,135.24,76Z" transform="translate(-0.38)"/><path d="M143.56,75.79v-10h.84l.12,2.1a3.54,3.54,0,0,1,1.22-1.68,3.32,3.32,0,0,1,2-.62,3.24,3.24,0,0,1,.72.08,1.27,1.27,0,0,1,.52.26l-.22.88a2.62,2.62,0,0,0-.48-.22,2.94,2.94,0,0,0-.78-.08,2.5,2.5,0,0,0-1.44.47,3.52,3.52,0,0,0-1.1,1.3,4.19,4.19,0,0,0-.42,1.91v5.6Z" transform="translate(-0.38)"/><path d="M154.72,76a4.79,4.79,0,0,1-2.46-.62,4.24,4.24,0,0,1-1.69-1.79,6.69,6.69,0,0,1,0-5.58,4.4,4.4,0,0,1,1.65-1.79,4.59,4.59,0,0,1,2.38-.62,4.31,4.31,0,0,1,2.32.6,4,4,0,0,1,1.48,1.67,5.57,5.57,0,0,1,.52,2.47c0,.12,0,.24,0,.35s0,.22,0,.31h-8.3v-.9h7.86l-.5.14a4.16,4.16,0,0,0-.91-2.74,3.09,3.09,0,0,0-2.45-1,3.51,3.51,0,0,0-1.9.51,3.45,3.45,0,0,0-1.28,1.48,5.38,5.38,0,0,0-.46,2.33,5.19,5.19,0,0,0,.47,2.32,3.32,3.32,0,0,0,1.32,1.49,4.13,4.13,0,0,0,4,0A3.44,3.44,0,0,0,158,73.23l.8.46a3.86,3.86,0,0,1-1,1.23,4.28,4.28,0,0,1-1.38.79A5,5,0,0,1,154.72,76Z" transform="translate(-0.38)"/><path d="M165.16,76a5.56,5.56,0,0,1-2.69-.62,3.44,3.44,0,0,1-1.65-1.78l.86-.58A2.86,2.86,0,0,0,163,74.56a4.34,4.34,0,0,0,2.27.55,3.56,3.56,0,0,0,2.07-.52,1.59,1.59,0,0,0,.75-1.38,1.55,1.55,0,0,0-.37-1,2.61,2.61,0,0,0-1.39-.65l-2.34-.5a3.71,3.71,0,0,1-2.05-1,2.31,2.31,0,0,1-.61-1.63,2.35,2.35,0,0,1,.48-1.44,3.42,3.42,0,0,1,1.33-1,4.71,4.71,0,0,1,2-.39,4.79,4.79,0,0,1,2.48.59A3.25,3.25,0,0,1,169,68l-.84.54A2.5,2.5,0,0,0,167,67a3.69,3.69,0,0,0-1.91-.48,4.11,4.11,0,0,0-1.47.25,2.42,2.42,0,0,0-1,.68,1.58,1.58,0,0,0,0,2,2.42,2.42,0,0,0,1.42.69l2.4.52a3.77,3.77,0,0,1,2,.91,2.17,2.17,0,0,1,.56,1.51,2.58,2.58,0,0,1-.48,1.56,3,3,0,0,1-1.36,1A5.46,5.46,0,0,1,165.16,76Z" transform="translate(-0.38)"/><path d="M172.28,74.15a1,1,0,0,1,.61.19,1.32,1.32,0,0,1,.38.51,2.2,2.2,0,0,1,.13.76,3.13,3.13,0,0,1-.19,1,3.31,3.31,0,0,1-.56,1,2.94,2.94,0,0,1-1,.74l-.56-.5a2.31,2.31,0,0,0,.84-.53,2.63,2.63,0,0,0,.55-.76,1.76,1.76,0,0,0,.17-.79l-.06,0a.38.38,0,0,1-.16.15.74.74,0,0,1-.66-.06.86.86,0,0,1-.3-.3.84.84,0,0,1-.12-.47.87.87,0,0,1,.13-.46,1,1,0,0,1,.33-.34A.83.83,0,0,1,172.28,74.15Z" transform="translate(-0.38)"/><path d="M8.2,93.21a2.77,2.77,0,0,0-.7-2,2.66,2.66,0,0,0-2-.72,3.82,3.82,0,0,0-2,.49,3,3,0,0,0-1.22,1.63l-.82-.52A3.6,3.6,0,0,1,3,90.24a4.73,4.73,0,0,1,2.55-.65A4.49,4.49,0,0,1,7.45,90a3,3,0,0,1,1.29,1.15A3.59,3.59,0,0,1,9.2,93v5c0,.71.32,1.06,1,1.06a1.6,1.6,0,0,0,.72-.14l-.06.8a1.89,1.89,0,0,1-.88.18,2.07,2.07,0,0,1-.86-.18,1.44,1.44,0,0,1-.65-.6A2.19,2.19,0,0,1,8.18,98v-.54l.28,0a2.6,2.6,0,0,1-.79,1.43,3.89,3.89,0,0,1-1.41.84,5,5,0,0,1-1.6.27A4.42,4.42,0,0,1,3,99.69a2.64,2.64,0,0,1-1.16-.87,2.31,2.31,0,0,1-.42-1.41,2.35,2.35,0,0,1,.75-1.81,4.26,4.26,0,0,1,2.11-.95l4.14-.82v.84l-3.64.72a4.29,4.29,0,0,0-1.76.7,1.66,1.66,0,0,0,0,2.55,2.81,2.81,0,0,0,1.76.47A4.41,4.41,0,0,0,6,99a3.3,3.3,0,0,0,1.11-.51,2.53,2.53,0,0,0,.81-.88,2.56,2.56,0,0,0,.3-1.29Z" transform="translate(-0.38)"/><path d="M12.94,99.79v-10h.9l.08,2.5-.16-.14a3.76,3.76,0,0,1,.84-1.39,3.7,3.7,0,0,1,1.34-.87,4.64,4.64,0,0,1,1.68-.3,4.44,4.44,0,0,1,2,.42A3.23,3.23,0,0,1,21,91.25a4,4,0,0,1,.49,2.06v6.48h-1V93.63a3.16,3.16,0,0,0-.81-2.4,3,3,0,0,0-2.11-.76,3.74,3.74,0,0,0-1.75.43,3.51,3.51,0,0,0-1.32,1.25,3.74,3.74,0,0,0-.51,2v5.64Z" transform="translate(-0.38)"/><path d="M28.8,100a4.4,4.4,0,0,1-2.34-.62,4.23,4.23,0,0,1-1.63-1.79,6.17,6.17,0,0,1-.59-2.79A6,6,0,0,1,24.86,92a4.35,4.35,0,0,1,1.68-1.77,4.69,4.69,0,0,1,2.34-.61,3.91,3.91,0,0,1,2.39.74,3.64,3.64,0,0,1,1.33,2.06l-.12.08V85.19h1v14.6h-.9L32.52,97l.12,0a3.57,3.57,0,0,1-.73,1.64,3.45,3.45,0,0,1-1.36,1A4.24,4.24,0,0,1,28.8,100Zm.12-.88a3.22,3.22,0,0,0,1.86-.53A3.49,3.49,0,0,0,32,97.05a5.61,5.61,0,0,0,.45-2.34A5.28,5.28,0,0,0,32,92.44,3.43,3.43,0,0,0,30.79,91,3.31,3.31,0,0,0,29,90.47a3.42,3.42,0,0,0-2.72,1.16,5.52,5.52,0,0,0,0,6.32A3.34,3.34,0,0,0,28.92,99.11Z" transform="translate(-0.38)"/><path d="M48.3,89.79v.86H41.56v-.86ZM44.56,87V97.15A2,2,0,0,0,45,98.58a1.68,1.68,0,0,0,1.31.49,2.4,2.4,0,0,0,1-.19,2.28,2.28,0,0,0,.77-.55l.38.82a2.6,2.6,0,0,1-1,.61,3.38,3.38,0,0,1-1.3.23,3,3,0,0,1-1.38-.29,2.05,2.05,0,0,1-.93-.89,3.11,3.11,0,0,1-.33-1.52v-10Z" transform="translate(-0.38)"/><path d="M54.52,89.59a4.87,4.87,0,0,1,2.47.62A4.4,4.4,0,0,1,58.67,92a6.69,6.69,0,0,1,0,5.58A4.34,4.34,0,0,1,57,99.37a5.23,5.23,0,0,1-4.94,0,4.34,4.34,0,0,1-1.68-1.79,6.69,6.69,0,0,1,0-5.58,4.4,4.4,0,0,1,1.68-1.79A4.87,4.87,0,0,1,54.52,89.59Zm0,.86a3.75,3.75,0,0,0-2,.52,3.53,3.53,0,0,0-1.31,1.49,6,6,0,0,0,0,4.65,3.39,3.39,0,0,0,1.31,1.5,4,4,0,0,0,4,0,3.39,3.39,0,0,0,1.31-1.5,6,6,0,0,0,0-4.65A3.53,3.53,0,0,0,56.5,91,3.75,3.75,0,0,0,54.52,90.45Z" transform="translate(-0.38)"/><path d="M66.22,89.59a4.87,4.87,0,0,1,2.47.62A4.4,4.4,0,0,1,70.37,92a6.69,6.69,0,0,1,0,5.58,4.34,4.34,0,0,1-1.68,1.79,5.23,5.23,0,0,1-4.94,0,4.34,4.34,0,0,1-1.68-1.79,6.69,6.69,0,0,1,0-5.58,4.4,4.4,0,0,1,1.68-1.79A4.87,4.87,0,0,1,66.22,89.59Zm0,.86a3.75,3.75,0,0,0-2,.52,3.53,3.53,0,0,0-1.31,1.49,6,6,0,0,0,0,4.65,3.39,3.39,0,0,0,1.31,1.5,4,4,0,0,0,4,0,3.39,3.39,0,0,0,1.31-1.5,6,6,0,0,0,0-4.65A3.53,3.53,0,0,0,68.2,91,3.75,3.75,0,0,0,66.22,90.45Z" transform="translate(-0.38)"/><path d="M74.76,85.19V97.43a2,2,0,0,0,.32,1.3,1.21,1.21,0,0,0,1,.38,3,3,0,0,0,.67-.06,3.42,3.42,0,0,0,.59-.2l-.14.88a2.4,2.4,0,0,1-.59.19,3.29,3.29,0,0,1-.73.07,2,2,0,0,1-1.59-.61,2.87,2.87,0,0,1-.53-1.91V85.19Z" transform="translate(-0.38)"/><path d="M82.7,100A5.59,5.59,0,0,1,80,99.37a3.44,3.44,0,0,1-1.65-1.78l.86-.58a2.86,2.86,0,0,0,1.29,1.55,4.36,4.36,0,0,0,2.27.55,3.56,3.56,0,0,0,2.07-.52,1.59,1.59,0,0,0,.75-1.38,1.5,1.5,0,0,0-.37-1,2.61,2.61,0,0,0-1.39-.65l-2.34-.5a3.74,3.74,0,0,1-2-1,2.31,2.31,0,0,1-.61-1.63A2.35,2.35,0,0,1,79.32,91a3.42,3.42,0,0,1,1.33-1,5.4,5.4,0,0,1,4.47.2A3.25,3.25,0,0,1,86.5,92l-.84.54A2.5,2.5,0,0,0,84.55,91a3.69,3.69,0,0,0-1.91-.48,4.11,4.11,0,0,0-1.47.25,2.42,2.42,0,0,0-1,.68,1.58,1.58,0,0,0,0,2,2.46,2.46,0,0,0,1.42.69l2.4.52a3.73,3.73,0,0,1,2,.91,2.17,2.17,0,0,1,.56,1.51,2.58,2.58,0,0,1-.48,1.56,3,3,0,0,1-1.36,1A5.42,5.42,0,0,1,82.7,100Z" transform="translate(-0.38)"/><path class="cls-56" d="M.38,51.29l5.28-13.2H6.84l5.28,13.2H11.06L6.74,40.47l-.48-1.4h0l-.48,1.36L1.44,51.29Zm2.34-4.14v-.92h7v.92Z" transform="translate(-0.38)"/><path class="cls-56" d="M19.36,50.27a3.85,3.85,0,0,1,2.32.62,2,2,0,0,1,.84,1.66,2.29,2.29,0,0,1-.61,1.6,3.91,3.91,0,0,1-1.67,1.06,7,7,0,0,1-2.42.38,6.45,6.45,0,0,1-3.46-.77,2.24,2.24,0,0,1-1.2-1.93,2,2,0,0,1,.61-1.46,2.84,2.84,0,0,1,1.79-.74l-.08.18a2.93,2.93,0,0,1-1.13-.6,1.48,1.48,0,0,1-.49-1.2,1.72,1.72,0,0,1,.63-1.37,2.94,2.94,0,0,1,1.67-.61l1.06.36H16.8a2.84,2.84,0,0,0-1.47.45,1.18,1.18,0,0,0-.55,1,1.12,1.12,0,0,0,.53,1,2.41,2.41,0,0,0,1.35.34Zm-1.68-9.18a5.09,5.09,0,0,1,2.09.41,3.36,3.36,0,0,1,1.41,1.14,3,3,0,0,1,.5,1.71,3,3,0,0,1-.5,1.71,3.19,3.19,0,0,1-1.41,1.16,4.94,4.94,0,0,1-2.09.41,4.41,4.41,0,0,1-3-.91,3,3,0,0,1-1.07-2.37,2.92,2.92,0,0,1,.51-1.71,3.46,3.46,0,0,1,1.42-1.14A5.16,5.16,0,0,1,17.68,41.09Zm.14,13.66a6.31,6.31,0,0,0,2-.28,3,3,0,0,0,1.29-.75,1.47,1.47,0,0,0,.45-1A1.3,1.3,0,0,0,21,51.55a3.29,3.29,0,0,0-1.85-.42H16.28a2.64,2.64,0,0,0-1.56.44,1.4,1.4,0,0,0-.62,1.18,1.64,1.64,0,0,0,1,1.45A5.62,5.62,0,0,0,17.82,54.75Zm-.14-12.84a3.4,3.4,0,0,0-2.16.67,2.3,2.3,0,0,0,0,3.55,3.29,3.29,0,0,0,2.16.68,3.24,3.24,0,0,0,2.15-.68,2.31,2.31,0,0,0,0-3.55A3.35,3.35,0,0,0,17.68,41.91Zm4.84-2.46.24.88h-.1a2.09,2.09,0,0,0-1.51.51,1.91,1.91,0,0,0-.53,1.43L20,42a2.69,2.69,0,0,1,.32-1.32,2.3,2.3,0,0,1,.88-.87,2.61,2.61,0,0,1,1.26-.31h.08Z" transform="translate(-0.38)"/><path class="cls-56" d="M25,39.35a.8.8,0,0,1-.61-.23.82.82,0,0,1-.23-.61.85.85,0,0,1,.23-.61.92.92,0,0,1,1.22,0,.85.85,0,0,1,.23.61.82.82,0,0,1-.23.61A.8.8,0,0,1,25,39.35Zm.5,1.94v10h-1v-10Z" transform="translate(-0.38)"/><path class="cls-56" d="M30,36.69V48.93a2,2,0,0,0,.32,1.3,1.21,1.21,0,0,0,1,.38,3,3,0,0,0,.67-.06,3.42,3.42,0,0,0,.59-.2l-.14.88a2.4,2.4,0,0,1-.59.19,3.29,3.29,0,0,1-.73.07,2,2,0,0,1-1.59-.61A2.87,2.87,0,0,1,29,49V36.69Z" transform="translate(-0.38)"/><path class="cls-56" d="M38.58,51.49a4.79,4.79,0,0,1-2.46-.62,4.3,4.3,0,0,1-1.69-1.79,6.69,6.69,0,0,1,0-5.58,4.47,4.47,0,0,1,1.65-1.79,4.59,4.59,0,0,1,2.38-.62,4.28,4.28,0,0,1,2.32.6,4,4,0,0,1,1.48,1.67,5.57,5.57,0,0,1,.52,2.47c0,.12,0,.24,0,.35s0,.22,0,.31h-8.3v-.9H42.3l-.5.14A4.11,4.11,0,0,0,40.89,43a3.08,3.08,0,0,0-2.45-1,3.53,3.53,0,0,0-1.9.51A3.45,3.45,0,0,0,35.26,44a6,6,0,0,0,0,4.65,3.32,3.32,0,0,0,1.32,1.49,4.13,4.13,0,0,0,4,0,3.44,3.44,0,0,0,1.29-1.38l.8.46a3.86,3.86,0,0,1-1,1.23,4.28,4.28,0,0,1-1.38.79A5,5,0,0,1,38.58,51.49Z" transform="translate(-0.38)"/><path class="cls-56" d="M55.8,51.49a4.4,4.4,0,0,1-2.34-.62,4.23,4.23,0,0,1-1.63-1.79,6.17,6.17,0,0,1-.59-2.79,6,6,0,0,1,.62-2.82,4.35,4.35,0,0,1,1.68-1.77,4.69,4.69,0,0,1,2.34-.61,3.91,3.91,0,0,1,2.39.74,3.64,3.64,0,0,1,1.33,2.06l-.12.08V36.69h1v14.6h-.9l-.06-2.78.12,0a3.57,3.57,0,0,1-.73,1.64,3.45,3.45,0,0,1-1.36,1A4.24,4.24,0,0,1,55.8,51.49Zm.12-.88a3.22,3.22,0,0,0,1.86-.53A3.49,3.49,0,0,0,59,48.55a5.61,5.61,0,0,0,.45-2.34A5.28,5.28,0,0,0,59,43.94a3.43,3.43,0,0,0-1.24-1.46A3.31,3.31,0,0,0,56,42a3.42,3.42,0,0,0-2.72,1.16,4.68,4.68,0,0,0-1,3.16,4.69,4.69,0,0,0,1,3.16A3.34,3.34,0,0,0,55.92,50.61Z" transform="translate(-0.38)"/><path class="cls-56" d="M68.12,51.49a4.79,4.79,0,0,1-2.46-.62A4.3,4.3,0,0,1,64,49.08a6.69,6.69,0,0,1,0-5.58,4.47,4.47,0,0,1,1.65-1.79A4.59,4.59,0,0,1,68,41.09a4.28,4.28,0,0,1,2.32.6,4,4,0,0,1,1.48,1.67,5.57,5.57,0,0,1,.52,2.47c0,.12,0,.24,0,.35s0,.22,0,.31H64v-.9h7.86l-.5.14A4.11,4.11,0,0,0,70.43,43,3.09,3.09,0,0,0,68,42a3.53,3.53,0,0,0-1.9.51A3.45,3.45,0,0,0,64.8,44a6,6,0,0,0,0,4.65,3.32,3.32,0,0,0,1.32,1.49,4.13,4.13,0,0,0,4,0,3.44,3.44,0,0,0,1.29-1.38l.8.46a3.86,3.86,0,0,1-1,1.23,4.28,4.28,0,0,1-1.38.79A5,5,0,0,1,68.12,51.49Z" transform="translate(-0.38)"/><path class="cls-56" d="M81.76,41.29h1.06l-4.18,10h-1l-4.18-10h1.12l3.58,9Z" transform="translate(-0.38)"/><path class="cls-56" d="M88.88,51.49a4.79,4.79,0,0,1-2.46-.62,4.3,4.3,0,0,1-1.69-1.79,6.69,6.69,0,0,1,0-5.58,4.47,4.47,0,0,1,1.65-1.79,4.59,4.59,0,0,1,2.38-.62,4.28,4.28,0,0,1,2.32.6,4,4,0,0,1,1.48,1.67,5.57,5.57,0,0,1,.52,2.47c0,.12,0,.24,0,.35s0,.22,0,.31h-8.3v-.9H92.6l-.5.14A4.11,4.11,0,0,0,91.19,43a3.08,3.08,0,0,0-2.45-1,3.53,3.53,0,0,0-1.9.51A3.45,3.45,0,0,0,85.56,44a6,6,0,0,0,0,4.65,3.32,3.32,0,0,0,1.32,1.49,4.13,4.13,0,0,0,4,0,3.44,3.44,0,0,0,1.29-1.38l.8.46a3.86,3.86,0,0,1-1,1.23,4.28,4.28,0,0,1-1.38.79A5,5,0,0,1,88.88,51.49Z" transform="translate(-0.38)"/><path class="cls-56" d="M96.86,36.69V48.93a2,2,0,0,0,.32,1.3,1.21,1.21,0,0,0,1,.38,3,3,0,0,0,.67-.06,3.42,3.42,0,0,0,.59-.2l-.14.88a2.4,2.4,0,0,1-.59.19,3.29,3.29,0,0,1-.73.07,2,2,0,0,1-1.59-.61A2.87,2.87,0,0,1,95.86,49V36.69Z" transform="translate(-0.38)"/><path class="cls-56" d="M105.42,41.09a4.9,4.9,0,0,1,2.47.62,4.4,4.4,0,0,1,1.68,1.79,6.69,6.69,0,0,1,0,5.58,4.34,4.34,0,0,1-1.68,1.79,5.23,5.23,0,0,1-4.94,0,4.28,4.28,0,0,1-1.68-1.79,6.69,6.69,0,0,1,0-5.58A4.34,4.34,0,0,1,103,41.71,4.87,4.87,0,0,1,105.42,41.09Zm0,.86a3.75,3.75,0,0,0-2,.52A3.53,3.53,0,0,0,102.13,44a6,6,0,0,0,0,4.65,3.39,3.39,0,0,0,1.31,1.5,4,4,0,0,0,4,0,3.39,3.39,0,0,0,1.31-1.5,6,6,0,0,0,0-4.65,3.53,3.53,0,0,0-1.31-1.49A3.75,3.75,0,0,0,105.42,42Z" transform="translate(-0.38)"/><path class="cls-56" d="M113,55.49V41.29h.9l.08,2.78-.14-.16a4,4,0,0,1,.81-1.5,3.7,3.7,0,0,1,1.35-1,4.5,4.5,0,0,1,1.74-.34,4.38,4.38,0,0,1,2.3.62,4.44,4.44,0,0,1,1.62,1.78,6.81,6.81,0,0,1,0,5.59,4.28,4.28,0,0,1-4,2.41,4,4,0,0,1-2.4-.73,3.76,3.76,0,0,1-1.42-2l.12-.18v6.88Zm4.58-4.88a3.34,3.34,0,0,0,2.69-1.16,4.69,4.69,0,0,0,1-3.16,4.78,4.78,0,0,0-1-3.16A3.31,3.31,0,0,0,117.66,42a3.36,3.36,0,0,0-1.87.53,3.7,3.7,0,0,0-1.28,1.5,5.85,5.85,0,0,0,0,4.57,3.52,3.52,0,0,0,1.27,1.51A3.26,3.26,0,0,0,117.62,50.61Z" transform="translate(-0.38)"/><path class="cls-56" d="M125.18,51.29v-10h.9l.06,2.08a3.41,3.41,0,0,1,1.43-1.68,4.16,4.16,0,0,1,2.21-.6,4.08,4.08,0,0,1,2.25.62,3.21,3.21,0,0,1,1.31,1.82,3.21,3.21,0,0,1,.84-1.31,4.23,4.23,0,0,1,1.36-.85,4.47,4.47,0,0,1,1.62-.3,4.36,4.36,0,0,1,1.89.41,3.25,3.25,0,0,1,1.36,1.24,3.92,3.92,0,0,1,.51,2.07v6.48h-1V44.89a2.87,2.87,0,0,0-.79-2.21A3,3,0,0,0,137,42a3.47,3.47,0,0,0-1.74.45A3.27,3.27,0,0,0,134,43.66a3.61,3.61,0,0,0-.47,1.87v5.76h-1V44.91a2.87,2.87,0,0,0-.8-2.21,3,3,0,0,0-2.08-.73,3.5,3.5,0,0,0-1.7.44,3.57,3.57,0,0,0-1.3,1.26,3.64,3.64,0,0,0-.5,2v5.66Z" transform="translate(-0.38)"/><path class="cls-56" d="M148.46,51.49a4.79,4.79,0,0,1-2.46-.62,4.24,4.24,0,0,1-1.69-1.79,6.69,6.69,0,0,1,0-5.58A4.4,4.4,0,0,1,146,41.71a4.59,4.59,0,0,1,2.38-.62,4.28,4.28,0,0,1,2.32.6,4,4,0,0,1,1.48,1.67,5.57,5.57,0,0,1,.52,2.47c0,.12,0,.24,0,.35s0,.22,0,.31h-8.3v-.9h7.86l-.5.14a4.11,4.11,0,0,0-.91-2.74,3.09,3.09,0,0,0-2.45-1,3.51,3.51,0,0,0-1.9.51A3.45,3.45,0,0,0,145.14,44a5.38,5.38,0,0,0-.46,2.33,5.19,5.19,0,0,0,.47,2.32,3.32,3.32,0,0,0,1.32,1.49,4.13,4.13,0,0,0,4,0,3.44,3.44,0,0,0,1.29-1.38l.8.46a3.86,3.86,0,0,1-1,1.23,4.28,4.28,0,0,1-1.38.79A5,5,0,0,1,148.46,51.49Z" transform="translate(-0.38)"/><path class="cls-56" d="M155.52,51.29v-10h.9l.08,2.5-.16-.14a3.51,3.51,0,0,1,.84-1.39,3.7,3.7,0,0,1,1.34-.87,4.64,4.64,0,0,1,1.68-.3,4.47,4.47,0,0,1,2,.42,3.23,3.23,0,0,1,1.35,1.24,4.05,4.05,0,0,1,.49,2.06v6.48h-1V45.13a3.16,3.16,0,0,0-.81-2.4A3,3,0,0,0,160.1,42a3.74,3.74,0,0,0-1.75.43A3.51,3.51,0,0,0,157,43.65a3.74,3.74,0,0,0-.51,2v5.64Z" transform="translate(-0.38)"/><path class="cls-56" d="M172.62,41.29v.86h-6.74v-.86Zm-3.74-2.78V48.65a2,2,0,0,0,.45,1.43,1.68,1.68,0,0,0,1.31.49,2.4,2.4,0,0,0,1-.19,2.28,2.28,0,0,0,.77-.55l.38.82a2.6,2.6,0,0,1-1,.61,3.38,3.38,0,0,1-1.3.23,3,3,0,0,1-1.38-.29,2.05,2.05,0,0,1-.93-.89,3.11,3.11,0,0,1-.33-1.52v-10Z" transform="translate(-0.38)"/><path class="cls-56" d="M1.78,75.29v-10h.9l.06,2.08a3.41,3.41,0,0,1,1.43-1.68,4.19,4.19,0,0,1,2.21-.6,4,4,0,0,1,2.25.62,3.21,3.21,0,0,1,1.31,1.82,3.21,3.21,0,0,1,.84-1.31,4.23,4.23,0,0,1,1.36-.85,4.47,4.47,0,0,1,1.62-.3,4.36,4.36,0,0,1,1.89.41A3.25,3.25,0,0,1,17,66.72a3.92,3.92,0,0,1,.51,2.07v6.48h-1V68.89a2.87,2.87,0,0,0-.79-2.21A3,3,0,0,0,13.64,66a3.47,3.47,0,0,0-1.74.45,3.34,3.34,0,0,0-1.27,1.26,3.71,3.71,0,0,0-.47,1.87v5.76h-1V68.91a2.87,2.87,0,0,0-.8-2.21A3,3,0,0,0,6.28,66a3.5,3.5,0,0,0-1.7.44,3.57,3.57,0,0,0-1.3,1.26,3.73,3.73,0,0,0-.5,2v5.66Z" transform="translate(-0.38)"/><path class="cls-56" d="M25.06,75.49a4.79,4.79,0,0,1-2.46-.62,4.3,4.3,0,0,1-1.69-1.79,6.69,6.69,0,0,1,0-5.58,4.47,4.47,0,0,1,1.65-1.79,4.59,4.59,0,0,1,2.38-.62,4.28,4.28,0,0,1,2.32.6,4,4,0,0,1,1.48,1.67,5.57,5.57,0,0,1,.52,2.47c0,.12,0,.24,0,.35s0,.22,0,.31h-8.3v-.9h7.86l-.5.14A4.11,4.11,0,0,0,27.37,67a3.08,3.08,0,0,0-2.45-1,3.53,3.53,0,0,0-1.9.51A3.45,3.45,0,0,0,21.74,68a6,6,0,0,0,0,4.65,3.32,3.32,0,0,0,1.32,1.49,4.13,4.13,0,0,0,4,0,3.44,3.44,0,0,0,1.29-1.38l.8.46a3.86,3.86,0,0,1-1,1.23,4.28,4.28,0,0,1-1.38.79A5,5,0,0,1,25.06,75.49Z" transform="translate(-0.38)"/><path class="cls-56" d="M37.3,65.29v.86H30.56v-.86Zm-3.74-2.78V72.65A2,2,0,0,0,34,74.08a1.68,1.68,0,0,0,1.31.49,2.4,2.4,0,0,0,1-.19,2.28,2.28,0,0,0,.77-.55l.38.82a2.6,2.6,0,0,1-1,.61,3.38,3.38,0,0,1-1.3.23,3,3,0,0,1-1.38-.29,2.05,2.05,0,0,1-.93-.89,3.11,3.11,0,0,1-.33-1.52v-10Z" transform="translate(-0.38)"/><path class="cls-56" d="M39.44,75.29V60.69h1v6.64a3.46,3.46,0,0,1,1.42-1.65,4.33,4.33,0,0,1,2.26-.59,4.58,4.58,0,0,1,2,.41,3.17,3.17,0,0,1,1.35,1.24,4,4,0,0,1,.49,2.05v6.5h-1V69.11a3.17,3.17,0,0,0-.81-2.39A3,3,0,0,0,44,66,3.56,3.56,0,0,0,41,67.65a3.74,3.74,0,0,0-.51,2v5.64Z" transform="translate(-0.38)"/><path class="cls-56" d="M55.48,65.09a4.87,4.87,0,0,1,2.47.62,4.4,4.4,0,0,1,1.68,1.79,6.69,6.69,0,0,1,0,5.58A4.34,4.34,0,0,1,58,74.87a5.23,5.23,0,0,1-4.94,0,4.34,4.34,0,0,1-1.68-1.79,6.69,6.69,0,0,1,0-5.58A4.4,4.4,0,0,1,53,65.71,4.87,4.87,0,0,1,55.48,65.09Zm0,.86a3.75,3.75,0,0,0-2,.52A3.53,3.53,0,0,0,52.19,68a6,6,0,0,0,0,4.65,3.39,3.39,0,0,0,1.31,1.5,4,4,0,0,0,4,0,3.39,3.39,0,0,0,1.31-1.5,6,6,0,0,0,0-4.65,3.53,3.53,0,0,0-1.31-1.49A3.75,3.75,0,0,0,55.48,66Z" transform="translate(-0.38)"/><path class="cls-56" d="M67,75.49a4.4,4.4,0,0,1-2.34-.62A4.23,4.23,0,0,1,63,73.08a6.17,6.17,0,0,1-.59-2.79,6,6,0,0,1,.62-2.82,4.35,4.35,0,0,1,1.68-1.77,4.69,4.69,0,0,1,2.34-.61,3.91,3.91,0,0,1,2.39.74,3.64,3.64,0,0,1,1.33,2.06l-.12.08V60.69h1v14.6h-.9l-.06-2.78.12,0a3.57,3.57,0,0,1-.73,1.64,3.45,3.45,0,0,1-1.36,1A4.24,4.24,0,0,1,67,75.49Zm.12-.88A3.22,3.22,0,0,0,69,74.08a3.49,3.49,0,0,0,1.25-1.53,5.61,5.61,0,0,0,.45-2.34,5.28,5.28,0,0,0-.45-2.27A3.43,3.43,0,0,0,69,66.48,3.31,3.31,0,0,0,67.16,66a3.42,3.42,0,0,0-2.72,1.16,5.52,5.52,0,0,0,0,6.32A3.34,3.34,0,0,0,67.12,74.61Z" transform="translate(-0.38)"/><path class="cls-56" d="M78.62,75.49a5.59,5.59,0,0,1-2.69-.62,3.44,3.44,0,0,1-1.65-1.78l.86-.58a2.86,2.86,0,0,0,1.29,1.55,4.36,4.36,0,0,0,2.27.55,3.56,3.56,0,0,0,2.07-.52,1.59,1.59,0,0,0,.75-1.38,1.5,1.5,0,0,0-.37-1,2.61,2.61,0,0,0-1.39-.65l-2.34-.5a3.74,3.74,0,0,1-2-1A2.31,2.31,0,0,1,74.76,68a2.35,2.35,0,0,1,.48-1.44,3.42,3.42,0,0,1,1.33-1,5.4,5.4,0,0,1,4.47.2,3.25,3.25,0,0,1,1.38,1.77l-.84.54a2.5,2.5,0,0,0-1.11-1.54A3.69,3.69,0,0,0,78.56,66a4.11,4.11,0,0,0-1.47.25,2.42,2.42,0,0,0-1,.68,1.58,1.58,0,0,0,0,2,2.46,2.46,0,0,0,1.42.69l2.4.52a3.73,3.73,0,0,1,2,.91,2.17,2.17,0,0,1,.56,1.51A2.58,2.58,0,0,1,82,74.13a3,3,0,0,1-1.36,1A5.42,5.42,0,0,1,78.62,75.49Z" transform="translate(-0.38)"/><path class="cls-56" d="M85.74,73.65a1,1,0,0,1,.61.19,1.22,1.22,0,0,1,.38.51,2,2,0,0,1,.13.76,2.9,2.9,0,0,1-.19,1,3.1,3.1,0,0,1-.56,1,2.94,2.94,0,0,1-1,.74l-.56-.5a2.31,2.31,0,0,0,.84-.53,2.63,2.63,0,0,0,.55-.76,1.64,1.64,0,0,0,.17-.79l-.06,0a.33.33,0,0,1-.16.15.74.74,0,0,1-.66-.06A.86.86,0,0,1,85,75a.84.84,0,0,1-.12-.47.87.87,0,0,1,.13-.46,1.07,1.07,0,0,1,.33-.34A.83.83,0,0,1,85.74,73.65Z" transform="translate(-0.38)"/><path class="cls-56" d="M100,65.09a4.92,4.92,0,0,1,1.82.32,3.81,3.81,0,0,1,1.36.92,4.15,4.15,0,0,1,.86,1.46l-.94.44A3.1,3.1,0,0,0,102,66.56a3.3,3.3,0,0,0-2-.59,3.67,3.67,0,0,0-1.94.51A3.42,3.42,0,0,0,96.76,68a6.11,6.11,0,0,0,0,4.65A3.36,3.36,0,0,0,98,74.1a3.6,3.6,0,0,0,1.94.51,4,4,0,0,0,1.53-.28,2.79,2.79,0,0,0,1.14-.82,2.7,2.7,0,0,0,.59-1.28l.92.32a3.9,3.9,0,0,1-.85,1.58,3.84,3.84,0,0,1-1.43,1,4.74,4.74,0,0,1-1.88.35,4.68,4.68,0,0,1-2.43-.62,4.26,4.26,0,0,1-1.67-1.79,6,6,0,0,1-.6-2.79,5.92,5.92,0,0,1,.61-2.79,4.4,4.4,0,0,1,1.68-1.79A4.77,4.77,0,0,1,100,65.09Z" transform="translate(-0.38)"/><path class="cls-56" d="M110.36,75.49a4.27,4.27,0,0,1-1.86-.38,2.8,2.8,0,0,1-1.29-1.19,4,4,0,0,1-.47-2v-6.6h1v6.36a2.57,2.57,0,0,0,2.86,3,3.57,3.57,0,0,0,1.45-.28,3.11,3.11,0,0,0,1.11-.78,3.71,3.71,0,0,0,.71-1.14,3.64,3.64,0,0,0,.25-1.38V65.29h1v10h-.9l0-2.06a3.43,3.43,0,0,1-1.44,1.66A4.55,4.55,0,0,1,110.36,75.49Z" transform="translate(-0.38)"/><path class="cls-56" d="M119.6,60.69V72.93a2,2,0,0,0,.32,1.3,1.2,1.2,0,0,0,1,.38,3,3,0,0,0,.67-.06,3.73,3.73,0,0,0,.59-.2l-.14.88a2.4,2.4,0,0,1-.59.19,3.29,3.29,0,0,1-.73.07,2,2,0,0,1-1.59-.61A2.87,2.87,0,0,1,118.6,73V60.69Z" transform="translate(-0.38)"/><path class="cls-56" d="M129.28,65.29v.86h-6.74v-.86Zm-3.74-2.78V72.65a2,2,0,0,0,.45,1.43,1.68,1.68,0,0,0,1.31.49,2.4,2.4,0,0,0,1-.19,2.28,2.28,0,0,0,.77-.55l.38.82a2.6,2.6,0,0,1-1,.61,3.38,3.38,0,0,1-1.3.23,3,3,0,0,1-1.38-.29,2.05,2.05,0,0,1-.93-.89,3.11,3.11,0,0,1-.33-1.52v-10Z" transform="translate(-0.38)"/><path class="cls-56" d="M134.94,75.49a4.3,4.3,0,0,1-1.86-.38,2.8,2.8,0,0,1-1.29-1.19,4,4,0,0,1-.47-2v-6.6h1v6.36a2.57,2.57,0,0,0,2.86,3,3.57,3.57,0,0,0,1.45-.28,3.11,3.11,0,0,0,1.11-.78,3.71,3.71,0,0,0,.71-1.14A3.64,3.64,0,0,0,138.7,71V65.29h1v10h-.9l0-2.06a3.43,3.43,0,0,1-1.44,1.66A4.55,4.55,0,0,1,134.94,75.49Z" transform="translate(-0.38)"/><path class="cls-56" d="M143.26,75.29v-10h.84l.12,2.1a3.54,3.54,0,0,1,1.22-1.68,3.32,3.32,0,0,1,2-.62,3.24,3.24,0,0,1,.72.08,1.27,1.27,0,0,1,.52.26l-.22.88a2.62,2.62,0,0,0-.48-.22,2.94,2.94,0,0,0-.78-.08,2.5,2.5,0,0,0-1.44.47,3.52,3.52,0,0,0-1.1,1.3,4.19,4.19,0,0,0-.42,1.91v5.6Z" transform="translate(-0.38)"/><path class="cls-56" d="M154.42,75.49a4.79,4.79,0,0,1-2.46-.62,4.24,4.24,0,0,1-1.69-1.79,6.69,6.69,0,0,1,0-5.58,4.4,4.4,0,0,1,1.65-1.79,4.59,4.59,0,0,1,2.38-.62,4.28,4.28,0,0,1,2.32.6,4,4,0,0,1,1.48,1.67,5.57,5.57,0,0,1,.52,2.47c0,.12,0,.24,0,.35s0,.22,0,.31h-8.3v-.9h7.86l-.5.14a4.11,4.11,0,0,0-.91-2.74,3.09,3.09,0,0,0-2.45-1,3.51,3.51,0,0,0-1.9.51A3.45,3.45,0,0,0,151.1,68a5.38,5.38,0,0,0-.46,2.33,5.19,5.19,0,0,0,.47,2.32,3.32,3.32,0,0,0,1.32,1.49,4.13,4.13,0,0,0,4,0,3.44,3.44,0,0,0,1.29-1.38l.8.46a3.86,3.86,0,0,1-1,1.23,4.28,4.28,0,0,1-1.38.79A5,5,0,0,1,154.42,75.49Z" transform="translate(-0.38)"/><path class="cls-56" d="M164.86,75.49a5.56,5.56,0,0,1-2.69-.62,3.44,3.44,0,0,1-1.65-1.78l.86-.58a2.86,2.86,0,0,0,1.29,1.55,4.34,4.34,0,0,0,2.27.55,3.56,3.56,0,0,0,2.07-.52,1.59,1.59,0,0,0,.75-1.38,1.55,1.55,0,0,0-.37-1,2.61,2.61,0,0,0-1.39-.65l-2.34-.5a3.71,3.71,0,0,1-2-1A2.31,2.31,0,0,1,161,68a2.35,2.35,0,0,1,.48-1.44,3.42,3.42,0,0,1,1.33-1,5.4,5.4,0,0,1,4.47.2,3.25,3.25,0,0,1,1.38,1.77l-.84.54a2.5,2.5,0,0,0-1.11-1.54A3.69,3.69,0,0,0,164.8,66a4.11,4.11,0,0,0-1.47.25,2.42,2.42,0,0,0-1,.68,1.58,1.58,0,0,0,.05,2,2.46,2.46,0,0,0,1.42.69l2.4.52a3.73,3.73,0,0,1,2,.91,2.17,2.17,0,0,1,.56,1.51,2.58,2.58,0,0,1-.48,1.56,3,3,0,0,1-1.36,1A5.46,5.46,0,0,1,164.86,75.49Z" transform="translate(-0.38)"/><path class="cls-56" d="M172,73.65a1,1,0,0,1,.61.19,1.32,1.32,0,0,1,.38.51,2.2,2.2,0,0,1,.13.76,2.9,2.9,0,0,1-.19,1,3.31,3.31,0,0,1-.56,1,2.94,2.94,0,0,1-1,.74l-.56-.5a2.31,2.31,0,0,0,.84-.53,2.63,2.63,0,0,0,.55-.76,1.76,1.76,0,0,0,.17-.79l-.06,0a.38.38,0,0,1-.16.15.74.74,0,0,1-.66-.06.86.86,0,0,1-.3-.3.84.84,0,0,1-.12-.47.87.87,0,0,1,.13-.46,1,1,0,0,1,.33-.34A.83.83,0,0,1,172,73.65Z" transform="translate(-0.38)"/><path class="cls-56" d="M7.9,92.71a2.77,2.77,0,0,0-.7-2,2.66,2.66,0,0,0-2-.72,3.82,3.82,0,0,0-2,.49A3,3,0,0,0,2,92.09l-.82-.52a3.6,3.6,0,0,1,1.47-1.83,4.73,4.73,0,0,1,2.55-.65,4.49,4.49,0,0,1,1.93.39,3,3,0,0,1,1.29,1.15,3.59,3.59,0,0,1,.46,1.9v5c0,.71.32,1.06,1,1.06a1.6,1.6,0,0,0,.72-.14l-.06.8a1.89,1.89,0,0,1-.88.18,2.07,2.07,0,0,1-.86-.18,1.44,1.44,0,0,1-.65-.6,2.19,2.19,0,0,1-.25-1.14V97l.28,0a2.6,2.6,0,0,1-.79,1.43A3.89,3.89,0,0,1,6,99.22a5,5,0,0,1-1.6.27,4.42,4.42,0,0,1-1.68-.3,2.64,2.64,0,0,1-1.16-.87,2.31,2.31,0,0,1-.42-1.41,2.35,2.35,0,0,1,.75-1.81A4.26,4.26,0,0,1,4,94.15l4.14-.82v.84l-3.64.72a4.29,4.29,0,0,0-1.76.7,1.66,1.66,0,0,0,0,2.55,2.81,2.81,0,0,0,1.76.47,4.41,4.41,0,0,0,1.18-.16,3.3,3.3,0,0,0,1.11-.51,2.53,2.53,0,0,0,.81-.88,2.56,2.56,0,0,0,.3-1.29Z" transform="translate(-0.38)"/><path class="cls-56" d="M12.64,99.29v-10h.9l.08,2.5-.16-.14a3.76,3.76,0,0,1,.84-1.39,3.7,3.7,0,0,1,1.34-.87,4.64,4.64,0,0,1,1.68-.3,4.44,4.44,0,0,1,2,.42,3.23,3.23,0,0,1,1.35,1.24,4,4,0,0,1,.49,2.06v6.48h-1V93.13a3.16,3.16,0,0,0-.81-2.4A3,3,0,0,0,17.22,90a3.74,3.74,0,0,0-1.75.43,3.51,3.51,0,0,0-1.32,1.25,3.74,3.74,0,0,0-.51,2v5.64Z" transform="translate(-0.38)"/><path class="cls-56" d="M28.5,99.49a4.4,4.4,0,0,1-2.34-.62,4.23,4.23,0,0,1-1.63-1.79,6.17,6.17,0,0,1-.59-2.79,6,6,0,0,1,.62-2.82,4.35,4.35,0,0,1,1.68-1.77,4.69,4.69,0,0,1,2.34-.61,3.91,3.91,0,0,1,2.39.74,3.64,3.64,0,0,1,1.33,2.06l-.12.08V84.69h1v14.6h-.9l-.06-2.78.12,0a3.57,3.57,0,0,1-.73,1.64,3.45,3.45,0,0,1-1.36,1A4.24,4.24,0,0,1,28.5,99.49Zm.12-.88a3.22,3.22,0,0,0,1.86-.53,3.49,3.49,0,0,0,1.25-1.53,5.61,5.61,0,0,0,.45-2.34,5.28,5.28,0,0,0-.45-2.27,3.43,3.43,0,0,0-1.24-1.46A3.31,3.31,0,0,0,28.66,90a3.42,3.42,0,0,0-2.72,1.16,5.52,5.52,0,0,0,0,6.32A3.34,3.34,0,0,0,28.62,98.61Z" transform="translate(-0.38)"/><path class="cls-56" d="M48,89.29v.86H41.26v-.86Zm-3.74-2.78V96.65a2,2,0,0,0,.45,1.43,1.68,1.68,0,0,0,1.31.49,2.4,2.4,0,0,0,1-.19,2.28,2.28,0,0,0,.77-.55l.38.82a2.6,2.6,0,0,1-1,.61,3.38,3.38,0,0,1-1.3.23,3,3,0,0,1-1.38-.29,2.05,2.05,0,0,1-.93-.89,3.11,3.11,0,0,1-.33-1.52v-10Z" transform="translate(-0.38)"/><path class="cls-56" d="M54.22,89.09a4.87,4.87,0,0,1,2.47.62,4.4,4.4,0,0,1,1.68,1.79,6.69,6.69,0,0,1,0,5.58,4.34,4.34,0,0,1-1.68,1.79,5.23,5.23,0,0,1-4.94,0,4.34,4.34,0,0,1-1.68-1.79,6.69,6.69,0,0,1,0-5.58,4.4,4.4,0,0,1,1.68-1.79A4.87,4.87,0,0,1,54.22,89.09Zm0,.86a3.75,3.75,0,0,0-2,.52A3.53,3.53,0,0,0,50.93,92a6,6,0,0,0,0,4.65,3.39,3.39,0,0,0,1.31,1.5,4,4,0,0,0,4,0,3.39,3.39,0,0,0,1.31-1.5,6,6,0,0,0,0-4.65,3.53,3.53,0,0,0-1.31-1.49A3.75,3.75,0,0,0,54.22,90Z" transform="translate(-0.38)"/><path class="cls-56" d="M65.92,89.09a4.87,4.87,0,0,1,2.47.62,4.4,4.4,0,0,1,1.68,1.79,6.69,6.69,0,0,1,0,5.58,4.34,4.34,0,0,1-1.68,1.79,5.23,5.23,0,0,1-4.94,0,4.34,4.34,0,0,1-1.68-1.79,6.69,6.69,0,0,1,0-5.58,4.4,4.4,0,0,1,1.68-1.79A4.87,4.87,0,0,1,65.92,89.09Zm0,.86a3.75,3.75,0,0,0-2,.52A3.53,3.53,0,0,0,62.63,92a6,6,0,0,0,0,4.65,3.39,3.39,0,0,0,1.31,1.5,4,4,0,0,0,4,0,3.39,3.39,0,0,0,1.31-1.5,6,6,0,0,0,0-4.65,3.53,3.53,0,0,0-1.31-1.49A3.75,3.75,0,0,0,65.92,90Z" transform="translate(-0.38)"/><path class="cls-56" d="M74.46,84.69V96.93a2,2,0,0,0,.32,1.3,1.21,1.21,0,0,0,1,.38,3,3,0,0,0,.67-.06,3.42,3.42,0,0,0,.59-.2l-.14.88a2.4,2.4,0,0,1-.59.19,3.29,3.29,0,0,1-.73.07A2,2,0,0,1,74,98.88,2.87,2.87,0,0,1,73.46,97V84.69Z" transform="translate(-0.38)"/><path class="cls-56" d="M82.4,99.49a5.59,5.59,0,0,1-2.69-.62,3.44,3.44,0,0,1-1.65-1.78l.86-.58a2.86,2.86,0,0,0,1.29,1.55,4.36,4.36,0,0,0,2.27.55,3.56,3.56,0,0,0,2.07-.52,1.59,1.59,0,0,0,.75-1.38,1.5,1.5,0,0,0-.37-1,2.61,2.61,0,0,0-1.39-.65l-2.34-.5a3.74,3.74,0,0,1-2-1A2.31,2.31,0,0,1,78.54,92,2.35,2.35,0,0,1,79,90.51a3.42,3.42,0,0,1,1.33-1,5.4,5.4,0,0,1,4.47.2,3.25,3.25,0,0,1,1.38,1.77l-.84.54a2.5,2.5,0,0,0-1.11-1.54A3.69,3.69,0,0,0,82.34,90a4.11,4.11,0,0,0-1.47.25,2.42,2.42,0,0,0-1,.68,1.58,1.58,0,0,0,0,2,2.46,2.46,0,0,0,1.42.69l2.4.52a3.73,3.73,0,0,1,2,.91,2.17,2.17,0,0,1,.56,1.51,2.58,2.58,0,0,1-.48,1.56,3,3,0,0,1-1.36,1A5.42,5.42,0,0,1,82.4,99.49Z" transform="translate(-0.38)"/></g></g></svg>