<svg xmlns="http://www.w3.org/2000/svg" xmlns:xlink="http://www.w3.org/1999/xlink" viewBox="0 0 156 178.99"><defs><style>.cls-1{fill:#8ec2ff;}.cls-1,.cls-10,.cls-11,.cls-12,.cls-13,.cls-14,.cls-15,.cls-16,.cls-17,.cls-18,.cls-19,.cls-2,.cls-20,.cls-21,.cls-22,.cls-23,.cls-24,.cls-25,.cls-26,.cls-27,.cls-28,.cls-29,.cls-3,.cls-30,.cls-31,.cls-32,.cls-33,.cls-34,.cls-35,.cls-36,.cls-37,.cls-38,.cls-39,.cls-4,.cls-40,.cls-41,.cls-42,.cls-43,.cls-44,.cls-45,.cls-46,.cls-47,.cls-48,.cls-49,.cls-5,.cls-50,.cls-51,.cls-52,.cls-53,.cls-54,.cls-55,.cls-6,.cls-7,.cls-8,.cls-9{fill-rule:evenodd;}.cls-2{fill:#031f6c;}.cls-3{fill:#4367c7;}.cls-4{fill:#373059;}.cls-5{fill:#62598e;}.cls-6{fill:#9188bc;}.cls-7{fill:#85c2f7;}.cls-8{fill:#003;}.cls-9{fill:#92d7ff;}.cls-10{fill:#ff65a7;}.cls-11{fill:#fabd00;}.cls-12{fill:#d2e9f6;}.cls-13{fill:#fffbf0;}.cls-14{fill:#fff;}.cls-15{fill:#bfd8df;}.cls-16{fill:#566cd2;}.cls-17{fill:#0b498e;}.cls-18{fill:#d1e7f4;}.cls-19{fill:#a7c4e4;}.cls-20{fill:#713d22;}.cls-21{fill:#452312;}.cls-22{fill:#52517b;}.cls-23{fill:#b58866;}.cls-24{fill:#dda274;}.cls-25{fill:#e8b588;}.cls-26{fill:#343354;}.cls-27{fill:#60bfff;}.cls-29{fill:#f60;}.cls-30{fill:#f90;}.cls-31{fill:#ffd22e;}.cls-32{fill:#ffaa83;}.cls-33{fill:#ed9870;}.cls-34{fill:#ffa92e;}.cls-35{fill:#8c6e54;}.cls-36{fill:#3a90db;}.cls-37{fill:#27e0c0;}.cls-38{fill:#0aa98e;}.cls-39{fill:#ce7c56;}.cls-40{fill:#3b3635;}.cls-41{fill:#d7f0ff;}.cls-42{fill:#2a78cd;}.cls-43{fill:#039;}.cls-44{fill:#00195f;}.cls-45{fill:#a9cbf3;}.cls-46{fill:#d8eaff;}.cls-47{fill:#a48263;}.cls-48{fill:#826448;}.cls-49{fill:#ceab8b;}.cls-50{fill:#333;}.cls-51{fill:#e1f8fe;}.cls-52{fill:#03f4d0;}.cls-53{fill:url(#linear-gradient);}.cls-54{fill:#cbdfff;}.cls-55{fill:url(#linear-gradient-2);}</style><linearGradient id="linear-gradient" x1="33.13" y1="146.33" x2="4.15" y2="146.33" gradientUnits="userSpaceOnUse"><stop offset="0.34" stop-color="#00ab8e"/><stop offset="0.57" stop-color="#00e1c0"/></linearGradient><linearGradient id="linear-gradient-2" x1="-1373.97" y1="-910.74" x2="-1344.93" y2="-910.74" gradientTransform="translate(-1317 -749.95) rotate(180)" gradientUnits="userSpaceOnUse"><stop offset="0.34" stop-color="#f11f79"/><stop offset="0.57" stop-color="#ff4494"/></linearGradient></defs><g id="Layer_2" data-name="Layer 2"><g id="Layer_4" data-name="Layer 4"><path class="cls-1" d="M122.1,133.48l-11.8-6.8c0-.64,0-1.25,0-1.85a2,2,0,0,0,.65-.35,12.58,12.58,0,0,1,1.6-.85,5.77,5.77,0,0,0,1-.45.87.87,0,0,0,.25-.15l32.8,18.85V66.28a3.09,3.09,0,0,0-1.15-2.15L41.5,3.28a5,5,0,0,0-2-.7L43.65.38a1.87,1.87,0,0,1,2.25,0L150.5,61.43a1.77,1.77,0,0,1,1.35,1.9v2.45c0,1.53,0,3.06,0,4.6V83.53c0,1.33,0,2.68-.05,4v11.3c0,1.2,0,2.38-.05,3.55v10.95c0,1.4,0,2.8,0,4.2v20.75a34.42,34.42,0,0,1-.2,3.7,2.11,2.11,0,0,1-.85,1.55,1.3,1.3,0,0,1-.2.15l-.3.2c-.53.4-1.07.76-1.6,1.1s-1.32.75-1.95,1.15a2.27,2.27,0,0,1-2.2,0,34,34,0,0,1-3.1-1.65l-5.6-3.2-5.35-3.15-3.6-2.1-1.5-.8c-1.37-.84-2.3-1.39-2.8-1.65ZM69.55,103.23l-5.95-3.5q-3.15-1.86-6.3-3.6l-5.85-3.45q-3.3-2-6.65-3.75a.5.5,0,0,1-.15-.05,47,47,0,0,1-4.95-3.2,2.77,2.77,0,0,1-.7-.8,5,5,0,0,1-.7-2.1c-.07-.87-.1-1.94-.1-3.2L96,112.83a2.3,2.3,0,0,0-.35.2,2.48,2.48,0,0,0-.6.9,1,1,0,0,0-.2.4,13.77,13.77,0,0,0-.7,2.65,1.9,1.9,0,0,1-.05.4l-17.55-10c-1.57-.9-3.18-1.85-4.85-2.85-.43-.24-.9-.5-1.4-.8Z"/><path class="cls-2" d="M39.5,2.58a5,5,0,0,1,2,.7L145.4,64.13a3.09,3.09,0,0,1,1.15,2.15v75.6L113.75,123a17.24,17.24,0,0,0,1.65-1c.47-.34.95-.67,1.45-1l.35-.2,25.15,14.4V66.58l-1.9-1.1v-.55L43.05,9v2.9h0V9L38.35,6.33V9.18H38.3V5.23C38.4,3.73,38.8,2.84,39.5,2.58Zm-1.3,75.3,5-16v16.6l55.45,31.75a1.63,1.63,0,0,1,0,.35v.35a10.82,10.82,0,0,0-1,.85,8.35,8.35,0,0,1-1.2.8l-.1,0a2.3,2.3,0,0,0-.35.2L38.2,79.58v-1.7Zm72.9,39.5-.8.4a15.41,15.41,0,0,0-1.65,1l-.5.3c-.13-.17-.28-.35-.45-.55a13.52,13.52,0,0,0-1.1-1c-.53-.4-1.12-.82-1.75-1.25l.3-2.25,0,0ZM39.4,25.83,43.2,28v8.9l-4.9-2.8V29.33ZM43.2,40v8.85L38.3,46V37.13ZM38.3,56v-6.9l4.5,2.6-1.5,4.6Zm0,9.85V61l1.3.75Z"/><path class="cls-3" d="M39.4,14.13,36.65,23,32.2,20.48V5.68l6.1,3.5h.05L43,11.88h0L137.7,66.23V81l-62-35.65L73.1,43.93l-1-.55L52.55,32.13l2.1-6.75,1.15-3.65L54,20.63l-1.7,1L50,28.88l-9.7-5.65,1.1-3.5H41.3l1.7-5.5-1.85-1.1Zm77,43.4a1.8,1.8,0,0,0-1.85-.15,1.74,1.74,0,0,0-.75,1.7,5.1,5.1,0,0,0,.75,2.55,4.79,4.79,0,0,0,1.85,1.95,1.76,1.76,0,0,0,1.85.2,1.82,1.82,0,0,0,.75-1.7,5.33,5.33,0,0,0-.75-2.6A5.21,5.21,0,0,0,116.4,57.53Zm7.8,4.7a1.6,1.6,0,0,0-2.65,1.5,5.59,5.59,0,0,0,2.65,4.5,1.67,1.67,0,0,0,1.8.2,1.82,1.82,0,0,0,.75-1.7,5.33,5.33,0,0,0-.75-2.6A5,5,0,0,0,124.2,62.23Zm5.15,4.45a1.78,1.78,0,0,0-.8,1.7,4.9,4.9,0,0,0,.8,2.55,4.79,4.79,0,0,0,1.85,1.95,1.67,1.67,0,0,0,1.8.2,1.79,1.79,0,0,0,.8-1.7,4.85,4.85,0,0,0-.8-2.55,4.9,4.9,0,0,0-1.8-2A1.74,1.74,0,0,0,129.35,66.68Zm3,23.25L82.6,61.18V55.53l2.9,1.7,46.85,27.05Zm-8.3-8.15a1.83,1.83,0,0,0-.65-.75c-.27-.17-.48-.19-.65,0a.69.69,0,0,0-.35.65,1.72,1.72,0,0,0,.35,1,1.53,1.53,0,0,0,.65.75.62.62,0,0,0,.65.1.59.59,0,0,0,.35-.6A2,2,0,0,0,124.05,81.78Zm1.7.65a.77.77,0,0,0-.65-.1.69.69,0,0,0-.35.65,2.2,2.2,0,0,0,.35,1,1.56,1.56,0,0,0,.65.65.69.69,0,0,0,.7.1c.2-.07.3-.25.3-.55a2.25,2.25,0,0,0-.3-1.1A3.3,3.3,0,0,0,125.75,82.43Zm3.6,3.25a2,2,0,0,0-.35-1.05,1.75,1.75,0,0,0-.7-.7.69.69,0,0,0-.65-.15.92.92,0,0,0-.25.7,2.41,2.41,0,0,0,.25,1,2,2,0,0,0,.65.75.67.67,0,0,0,.7,0A.5.5,0,0,0,129.35,85.68ZM65,31.88v-1.8l-7.4-4.25v1.8Zm0-3.65v-1.8l-7.4-4.3v1.8Zm-7.4,1.2v1.8L65,35.48v-1.8Z"/><path class="cls-4" d="M43.2,61.88l-5,16-4.5,14.5h-.05L32.5,96l-1.85,5.85-.45,1.5-4.8,15.35-1.5.1L29,102.68l.45-1.5,1.3-4.1,1.25-4,6.25-20L42.5,59.68l1.4-.15-.4,1.35Zm-2-46.65,1.75-1-1.7,5.5h.05l-1.1,3.5L50,28.88h0l-.2.65h0l-11-6.35,1.1-3.45h0Zm14.55,6.5-1.15,3.65-2.1,6.75L52,34v.1l-.75,2.35-.25-.2a2.65,2.65,0,0,0-1-.3l.6-1.95.5-1.55.3-1,1.9-6.05.8-2.6.05-.05ZM43.2,36.88l2.5,1.5a1,1,0,0,0-.3.55l-9.8-5.65,2.55-8.2,1.25.75-1.1,3.5-1.25,4,1.25.75ZM38.3,46l4.9,2.85.4.25-.2.65-11-6.35L35,35.23l1.25.7-.3,1H35.9l-2,6.5Zm7.1,8.85-.6,2c-.2.06-.47.13-.8.2a4.1,4.1,0,0,0-.35-.5h-.2l1.15-3.6.75-2.4v4A1.9,1.9,0,0,0,45.4,54.83ZM32,55.08l-1.05-.6.6-.35,2.35,1.3C33.22,55.29,32.58,55.18,32,55.08Zm-.85-2.85-1.5,0,2.2-6.85,1.25.7-1.6,5.15H31.4ZM36,69.28a5.62,5.62,0,0,0,0-.7l1.15.65v0l-.2.6Zm-4.4,9.45.25-.45,0-.15,2.15,1.25-.2.65Zm-1.75,10.2,1,.55,0,0h0l-.25.65-1.5-.9A1.2,1.2,0,0,0,29.85,88.93Zm-6.4-12.65L21.1,83.83l.95.55H22l-.25.35a1.49,1.49,0,0,1,.15.4l-1.35-.8.1-.65L21,82.43l.7-5.1.55-1.75Zm-1.3,21,.55-.2.1-.25L27,99.23l.7.4-.2.7Zm-5.9,2.35L14.9,104l2,1.2,7.65,4.45-.25.8-11-6.35,2.6-8.2.3.15.1.75-.05,1.6Zm10.2-23.8-2-1.15.85-.35,1.45.85ZM43.5,60.88h0v0ZM25,70.53l-.45.5-.2,0,.15,0Zm1.2-4.65-.45.1-.05-.35Zm4.1-.65-1.05.15L26,63.58,27.4,59h.05l.1-.4a1,1,0,0,1,.35,0l1.1.2-1.5,4.7Zm-16.2,41.55-1.55,4.8-1.5.1,1.25-4.15.5-1.5ZM40.25,71l0,0h0Z"/><path class="cls-5" d="M23.9,118.83l-1.8-1,1.65-5.5-9.7-5.55-1.3-.75-.5,1.5L11,111.68l-1.85-1,.5-1.7,5.8-18.5L16.2,96l-.3-.15-2.6,8.2,11.05,6.35.25-.8,2.3-7.5-.9-.5-5.9-3.35a.78.78,0,0,0,.1-.35l1.95-.7,5.35,3.1.2-.7.3-1L30.1,92l-9.8-5.6-.05-.75.3-1.35,1.35.8a4.93,4.93,0,0,0,2.6,2.3h.1l.55-.35q1.3,1,2.7,2a1.19,1.19,0,0,0,1,.3.92.92,0,0,0,.25,0l1.5.9.25-.65h0l0,0L33.2,82l-2.5-1.45.9-1.8L33.85,80l.2-.65,2.35-7.55-1-.55a9.63,9.63,0,0,0,.6-2l1,.6.2-.6,1.1-3.45,1.3-4L38.3,61,36.45,60l2.45.1,1.9-.2.05-.05,1.65-.15L38.25,73.13,32,93.08l-1.25,4-1.3,4.1-.45,1.5ZM36.65,23l2.75-8.9,1.85,1.1-1.4,4.5h0l-1.1,3.45,11,6.35h0l.2-.65h0l2.3-7.25,1.8,1.1v.05l-.8,2.6-1.9,6.05-.3,1L50.55,34,50,36l-.3.1-1.95,1.1-.45.25.15-.4,1.3-4.25h0l.4-1.35-1.75-1L43.2,28l-3.8-2.15-1.25-.75-2.55,8.2,9.8,5.65a3.28,3.28,0,0,0,0,.6v1.7L43.2,40l-4.9-2.85-2-1.2L35,35.23l-2.6,8.15,11,6.35.2-.65,1.75-5.75v7.15l-.75,2.4-1.15,3.6-2.15-.2,1.5-4.6-4.5-2.6-5.25-3-1.25-.7-2.2,6.85-.2,0-1,.1-.95.1ZM47.7,37.18a.37.37,0,0,1,.15,0,.14.14,0,0,0-.1,0ZM30.9,54.48l1.05.6-1.35-.3,0-.15ZM24.45,74.63l2,1.15-.7,1.85-2.3-1.35-1.2-.7-.55,1.75.3-2,1.1-.15Zm4.75-9.25-3.05.5-.5-.25-.2-2.8L26.1,59a2.34,2.34,0,0,0,.15-.55.53.53,0,0,0,.05-.2,4,4,0,0,0,.55.15,3.07,3.07,0,0,0,.7.2l-.1.4H27.4L26,63.58Z"/><path class="cls-6" d="M41.25,15.23l-1.85-1.1,1.75-1L43,14.23Zm12.8,7.5-1.8-1.1,1.7-1,1.85,1.1-1.7,1Z"/><path class="cls-7" d="M137.7,76.63V66.23L43.05,11.88V9l97.4,56v13.3ZM52.55,32.13,72.1,43.38v43l1.05.6L73.1,43.93l2.55,1.45V91.53L47.4,75.23V59.33l1-.35.55-.55.1,0A8.77,8.77,0,0,0,53,63l11.15,6.4q4.45,2.49,4.45-2.5V55.48a8.06,8.06,0,0,0-3-6.55v-2.2A3.12,3.12,0,0,0,64,43.83L51.2,36.48,52,34.13V34Zm79.8,92.55V84.28L85.5,57.23V54.08l49.75,28.75v43.55ZM55.3,36l10.5,6v-1.2L55.3,34.83Zm-7.9,1v-6.6l1.75,1-.4,1.35h0Zm6,31a.77.77,0,0,0-.3.7,2.13,2.13,0,0,0,.3,1,2.53,2.53,0,0,0,.75.8.59.59,0,0,0,.75,0,.64.64,0,0,0,.35-.65,2.23,2.23,0,0,0-.35-1.1,1.89,1.89,0,0,0-.75-.8A.72.72,0,0,0,53.4,68Zm13.7,8.15-9.85-5.7v1.25l9.85,5.65Zm-14-1.55a2,2,0,0,0,.3,1,3.17,3.17,0,0,0,.75.85.71.71,0,0,0,.75,0,.64.64,0,0,0,.35-.65,2.23,2.23,0,0,0-.35-1.1,1.89,1.89,0,0,0-.75-.8.67.67,0,0,0-.75,0A.85.85,0,0,0,53.1,74.63Zm4.15,3,9.85,5.7v-1.2l-9.85-5.7Z"/><polygon class="cls-8" points="43 11.88 38.35 9.18 38.35 6.33 43 8.98 43 11.88"/><path class="cls-9" d="M116.4,57.53a5.21,5.21,0,0,1,1.85,1.95,5.33,5.33,0,0,1,.75,2.6,1.82,1.82,0,0,1-.75,1.7,1.76,1.76,0,0,1-1.85-.2,4.79,4.79,0,0,1-1.85-1.95,5.1,5.1,0,0,1-.75-2.55,1.74,1.74,0,0,1,.75-1.7A1.8,1.8,0,0,1,116.4,57.53Z"/><path class="cls-10" d="M124.2,62.23a5,5,0,0,1,1.8,1.9,5.33,5.33,0,0,1,.75,2.6,1.82,1.82,0,0,1-.75,1.7,1.67,1.67,0,0,1-1.8-.2,5.59,5.59,0,0,1-2.65-4.5,1.6,1.6,0,0,1,2.65-1.5ZM86.1,67.48l7.05,4.15a2.65,2.65,0,0,1,1.35,2.45v8.55q0,1.7-1.35.9l-7.05-4A2.67,2.67,0,0,1,84.65,77V68.43C84.65,67.26,85.13,66.94,86.1,67.48Zm28.6,29.3a8.73,8.73,0,0,1-1.2-1.4,4.75,4.75,0,0,1-.8-2.3v-.15a1.51,1.51,0,0,1,.1-.6,1.2,1.2,0,0,1,.7-.9,3.83,3.83,0,0,1,.45-.1,2.27,2.27,0,0,1,1.5.4l8.4,4.85a5,5,0,0,1,1.9,2,5.24,5.24,0,0,1,.75,1.65,3.08,3.08,0,0,1,.1.8,1.45,1.45,0,0,1-.85,1.5,1.88,1.88,0,0,1-1.2,0,3.51,3.51,0,0,1-.7-.3l-8.4-4.85A6,6,0,0,1,114.7,96.78Zm-6.1,4.7-.6,1.2L98.3,97V95.48Zm17.15-19a3.3,3.3,0,0,1,.7.7,2.25,2.25,0,0,1,.3,1.1c0,.3-.1.48-.3.55a.69.69,0,0,1-.7-.1,1.56,1.56,0,0,1-.65-.65,2.2,2.2,0,0,1-.35-1,.69.69,0,0,1,.35-.65A.77.77,0,0,1,125.75,82.43Zm-1.1,29.9.6-1.1a.14.14,0,0,1,0-.1l4.75,2.75v1.55Zm-11.9-8.5,8.55,5c-.23.36-.48.73-.75,1.1l-8.35-4.8c.07-.17.13-.32.2-.45S112.62,104.13,112.75,103.83ZM54.3,118.08l8.3,4.75-1.55.9-8.25-4.8Zm2.5,36.6a1.16,1.16,0,0,1-.52.62l-.23.13-12,7a3,3,0,0,1-3.15,0l-12.15-7a2.67,2.67,0,0,1-.62-.5.75.75,0,0,1-.18-.4c0-.3.27-.6.8-.9l12.05-6.95a3,3,0,0,1,3.15-.05l3.5,2.05v-.05l5.15,3h0l3.5,2a1.45,1.45,0,0,1,.8.85A.23.23,0,0,1,56.8,154.68Zm-16.1-4.35c-.4.23-.6.5-.6.8v2.75H35.4a2.12,2.12,0,0,0-1.35.3.89.89,0,0,0-.6.8.9.9,0,0,0,.6.8,2.51,2.51,0,0,0,1.35.35h4.7v2.7a1,1,0,0,0,.55.8,2.48,2.48,0,0,0,1.4.3,3.1,3.1,0,0,0,1.4-.3,1,1,0,0,0,.55-.8v-2.7l4.7,0a2.48,2.48,0,0,0,1.4-.3.9.9,0,0,0,.55-.8c0-.3-.2-.57-.6-.8a2.12,2.12,0,0,0-1.35-.3H44v-2.7a1,1,0,0,0-.55-.85,3.1,3.1,0,0,0-1.4-.3A2.81,2.81,0,0,0,40.7,150.33Z"/><path class="cls-11" d="M129.35,66.68a1.74,1.74,0,0,1,1.85.2,4.9,4.9,0,0,1,1.8,2,4.85,4.85,0,0,1,.8,2.55,1.79,1.79,0,0,1-.8,1.7,1.67,1.67,0,0,1-1.8-.2,4.79,4.79,0,0,1-1.85-1.95,4.9,4.9,0,0,1-.8-2.55A1.78,1.78,0,0,1,129.35,66.68Zm0,19a.5.5,0,0,1-.35.55.67.67,0,0,1-.7,0,2,2,0,0,1-.65-.75,2.41,2.41,0,0,1-.25-1,.92.92,0,0,1,.25-.7.69.69,0,0,1,.65.15,1.75,1.75,0,0,1,.7.7A2,2,0,0,1,129.35,85.68Z"/><path class="cls-12" d="M98.65,110.23,43.2,78.48V61.88l.3-1,.4-1.35.45-.1a1,1,0,0,0,.15-.35v-.2a6.9,6.9,0,0,1,1.15.45,2.57,2.57,0,0,0,1.75,0v15.9l28.25,16.3V45.38L137.7,81v-4.4l2.75,1.6V65.48l1.9,1.1v68.65l-25.15-14.4.8-.5a5,5,0,0,1,.7-.4l13.65,7.85v-3.1l2.9,1.7V82.83L85.5,54.08v3.15l-2.9-1.7V99.08l16.45,9.5A4.75,4.75,0,0,0,98.65,110.23Zm7.75,2.6,6.55,3.75a17.8,17.8,0,0,0-1.85.8l-5.9-3.4a.55.55,0,0,1,.15-.2,1,1,0,0,1,.15-.15,6.68,6.68,0,0,1,.55-.5A3.63,3.63,0,0,0,106.4,112.83Zm-59-82.4V37l-.15.4-1.45.85-.1.1-2.5-1.5V28Zm-2,12.9L43.6,49.08l-.4-.25V40l2.15,1.25ZM44.8,56.78l.6-2a4.68,4.68,0,0,0,.35,1.25l-.55.45A1.19,1.19,0,0,1,44.8,56.78Z"/><path class="cls-13" d="M73.1,43.93,73.15,87l-1.05-.6v-43ZM55.3,36v-1.2l10.5,6.05v1.2ZM53.4,68a.72.72,0,0,1,.75,0,1.89,1.89,0,0,1,.75.8,2.23,2.23,0,0,1,.35,1.1.64.64,0,0,1-.35.65.59.59,0,0,1-.75,0,2.53,2.53,0,0,1-.75-.8,2.13,2.13,0,0,1-.3-1A.77.77,0,0,1,53.4,68Zm13.7,8.15v1.2l-9.85-5.65V70.48Zm-14-1.55a.85.85,0,0,1,.3-.7.67.67,0,0,1,.75,0,1.89,1.89,0,0,1,.75.8,2.23,2.23,0,0,1,.35,1.1.64.64,0,0,1-.35.65.71.71,0,0,1-.75,0,3.17,3.17,0,0,1-.75-.85A2,2,0,0,1,53.1,74.63Zm4.15,3v-1.2l9.85,5.7v1.2Z"/><path class="cls-14" d="M81.2,129.93l-14.5,8.95-.55-.25-29-16.7.15-.1-.55-.3,14-8.1,5.2-3.2.2.1-2.1,1.25-2.25,1.3,29.35,17.05Zm25.1-23.75q-1.55-2.21-4.2-.65a7.39,7.39,0,0,0-3,3L82.6,99.08V61.18l49.75,28.75v37.85l-13.65-7.85.2-.1,1.1-.6a4.23,4.23,0,0,0,1.35-1.35,23.35,23.35,0,0,0,1.55-2.35c.43-.7.83-1.44,1.2-2.2.2-.34.38-.67.55-1l5.4,3.1v-1.55l-4.75-2.75c.17-.44.35-.85.55-1.25l4.2,2.45v-1.55l-3.6-2.1c.07-.17.12-.29.15-.35a2.46,2.46,0,0,0-.35-1.85c.13-.24.25-.44.35-.6a9.34,9.34,0,0,1,.65-.95,2.67,2.67,0,0,0,.45-1.55,6.74,6.74,0,0,0-.15-.95,11,11,0,0,0-.8-2.15.45.45,0,0,0-.25-.1,5.24,5.24,0,0,0-.75-1.65,5,5,0,0,0-1.9-2l-8.4-4.85a2.27,2.27,0,0,0-1.5-.4l-15.75-9v1.55l14.6,8.45a1.51,1.51,0,0,0-.1.6v.15a3,3,0,0,0-1.1,1.9,6,6,0,0,1-.4,2l-.35.1c-.33.63-.67,1.26-1,1.9L98.3,92.33V94l10.9,6.3-.6,1.2-10.3-6V97l9.7,5.65a2.11,2.11,0,0,0-.2.4l-.5.9-9.1-5.25v1.6l8.5,4.9a8.08,8.08,0,0,0-.35.8A.21.21,0,0,0,106.3,106.18ZM86.1,67.48c-1-.54-1.45-.22-1.45,1V77a2.67,2.67,0,0,0,1.45,2.5l7.05,4q1.35.8,1.35-.9V74.08a2.65,2.65,0,0,0-1.35-2.45Zm12.2,10,31.75,18.35V94.33L98.3,75.88Zm-3.8,13a2.65,2.65,0,0,0-1.35-2.45L86.1,83.93c-1-.54-1.45-.22-1.45.95v8.55a2.67,2.67,0,0,0,1.45,2.5l7.05,4q1.35.8,1.35-.9Zm3.8-10L130.05,99V97.43L98.3,79Zm24.5,26-9.15-5.25c.13-.4.27-.8.4-1.2a4.79,4.79,0,0,0,.25-.65,2.7,2.7,0,0,0-.55-1.9,1.3,1.3,0,0,1-.2-.15,1.5,1.5,0,0,1,.6-.4l.55-.2a6,6,0,0,0,.75.55l8.4,4.85a3.51,3.51,0,0,0,.7.3,1.49,1.49,0,0,0-.15.45,3.31,3.31,0,0,0-.2.9c0,.6,0,1.2,0,1.8h-.75Zm-9.6-3.9,8.85,5.05c-.17.26-.33.51-.5.75a3.68,3.68,0,0,1-.25.4l-8.55-5Q112.95,103.23,113.2,102.63Zm-1.55,3.85c.2-.47.38-.92.55-1.35l8.35,4.8q-.35.6-.75,1.2Zm7.35,5.85c-.17.26-.35.53-.55.8l-.5.9a2.72,2.72,0,0,0-.2.35v.1l-1.85.9a10,10,0,0,1-2.6,1.1,2.47,2.47,0,0,0-.35.1l-6.55-3.75c.3-.2.53-.37.7-.5a4.14,4.14,0,0,1,.85-.65l1-.7a5,5,0,0,0,1.2-1.5,15.22,15.22,0,0,0,.9-1.7ZM46.3,40.93q.11-1.5,1.2-1l12.25,6.9A2.45,2.45,0,0,1,60.85,49v9.85l-.55-1.4c-1.27-3.24-2.28-4.67-3-4.3a11.16,11.16,0,0,0-1.4,1c-.67.53-1.1.88-1.3,1l-.9.55c-.3-.47-.53-.85-.7-1.15-.63-1.64-1-2.57-1.15-2.8s-.27-.3-.4-.3l-.75.35a12.73,12.73,0,0,0-2,1.75c-.23.23-.48.46-.75.7a4.15,4.15,0,0,0-.45.5c-.27.26-.52.53-.75.8l-.15.15-.2-.15ZM48,47.18a3.39,3.39,0,0,0,.5,1.7.8.8,0,0,0,.15.2,3.28,3.28,0,0,0,1,1.05,1,1,0,0,0,1.7-1,2.76,2.76,0,0,0-.55-1.6,2.9,2.9,0,0,0-1.15-1.3,1.25,1.25,0,0,0-1-.2l-.15,0A1.18,1.18,0,0,0,48,47.18Zm37.6,80-.1,0-2.3-1.35Zm-31.25-9.1-1.5.85,8.25,4.8,1.55-.9Zm5.05,8.85-5.85,3.4,8.3,4.75,5.85-3.35Zm-1.5-1.35,1.55-.9-8.25-4.75-1.55.85Zm-3.05,1.8,1.5-.9-8.25-4.8-1.55.9Zm11.65-4.5,0,0-5.8,3.4L68.85,131l5.85-3.35ZM40.7,150.33a2.81,2.81,0,0,1,1.35-.3,3.1,3.1,0,0,1,1.4.3,1,1,0,0,1,.55.85v2.7h4.7a2.12,2.12,0,0,1,1.35.3c.4.23.6.5.6.8a.9.9,0,0,1-.55.8,2.48,2.48,0,0,1-1.4.3l-4.7,0v2.7a1,1,0,0,1-.55.8,3.1,3.1,0,0,1-1.4.3,2.48,2.48,0,0,1-1.4-.3,1,1,0,0,1-.55-.8v-2.7H35.4a2.51,2.51,0,0,1-1.35-.35.9.9,0,0,1-.6-.8.89.89,0,0,1,.6-.8,2.12,2.12,0,0,1,1.35-.3h4.7v-2.75C40.1,150.83,40.3,150.56,40.7,150.33Zm-24-13.2a.72.72,0,0,1,.25.8L16,140.68l8.9-1.05a2.22,2.22,0,0,1,1.4.15,1.24,1.24,0,0,1,.8.65.76.76,0,0,1-.25.85,2.57,2.57,0,0,1-1.2.5l-11.85,1.4a2.59,2.59,0,0,1-1.2-.1,1.67,1.67,0,0,1-.85-.5.64.64,0,0,1-.15-.7l1.7-4.4a1.39,1.39,0,0,1,.9-.7,2.4,2.4,0,0,1,1.4-.1A1.91,1.91,0,0,1,16.75,137.13Zm94.6,36.15a4.15,4.15,0,0,1-4,1.65,39.69,39.69,0,0,0-5.65.2c.23-.07.5-.14.8-.2,2.63-.5,3.93-1.84,3.9-4a16.91,16.91,0,0,1,4.35,1.45Q111.55,173,111.35,173.28Zm-11.85-8.7-2.25,1.1a5.34,5.34,0,0,0,.65-1.05,3.68,3.68,0,0,0,.25-.4,6.43,6.43,0,0,0,.6-1.6l-.35-1.4.1.15h1.4Z"/><path class="cls-15" d="M98.3,77.53V75.88l31.75,18.45v1.55ZM109.85,99c-.17.33-.35.68-.55,1,0,.06-.07.13-.1.2L98.3,94V92.33Zm4.1-7.7a3.83,3.83,0,0,0-.45.1,1.2,1.2,0,0,0-.7.9L98.2,83.88V82.33ZM98.3,80.58V79l31.75,18.4V99Zm9,23.4c-.17.36-.35.75-.55,1.15a.14.14,0,0,0,0,.1l-8.5-4.9v-1.6Zm18.55,5.9a9.44,9.44,0,0,1,.45-.9.53.53,0,0,1,.15-.3l3.6,2.1v1.55Zm-3-3.35c-.27.4-.52.78-.75,1.15l-8.85-5.05.1-.2c.13-.4.25-.79.35-1.15Zm-11.15,0,8.15,4.65a.14.14,0,0,0,0,.1c-.23.36-.48.73-.75,1.1l-8-4.55c.13-.27.25-.54.35-.8A4.66,4.66,0,0,0,111.65,106.48Zm-45.2,16.4,8.25,4.75L68.85,131l-8.25-4.75,5.8-3.4Zm-11.65,4.5-8.3-4.8,1.55-.9,8.25,4.8Zm3.05-1.8-8.25-4.8,1.55-.85,8.25,4.75Zm1.5,1.35,8.3,4.8-5.85,3.35-8.3-4.75Z"/><path class="cls-16" d="M94.5,90.53v8.55q0,1.69-1.35.9l-7.05-4a2.67,2.67,0,0,1-1.45-2.5V84.88c0-1.17.48-1.49,1.45-.95l7.05,4.15A2.65,2.65,0,0,1,94.5,90.53Zm-11,38.1-2.25,1.3h0L51.8,112.88l2.25-1.3Z"/><path class="cls-17" d="M94.1,117.38a10.19,10.19,0,0,0,.3,3.1l-27.55-16,2.7-1.3.75.45c.5.3,1,.56,1.4.8,1.67,1,3.28,2,4.85,2.85Zm16.2,9.3,11.8,6.8-2.85,1.4-9.6-5.6.1-.1a1.49,1.49,0,0,1,.15-.4,3.49,3.49,0,0,0,.2-.9C110.17,127.48,110.23,127.08,110.3,126.68Z"/><path class="cls-18" d="M26.7,52.38v.95h-.05a1.8,1.8,0,0,0-.1-.6l-.9-1-.1,0,1.15.2Zm82.5,47.9c0-.07.07-.14.1-.2.2-.37.38-.72.55-1,.33-.64.67-1.27,1-1.9l.35-.1a3.14,3.14,0,0,1,2.35.35,1.3,1.3,0,0,0,.2.15c-.37.73-.75,1.53-1.15,2.4l-.2.6c-.13.3-.32.73-.55,1.3-.17.33-.35.73-.55,1.2s-.33.78-.5,1.25c0,.06-.07.13-.1.2-.17.4-.33.78-.5,1.15s-.38.93-.55,1.3a16.41,16.41,0,0,1-1,1.85c-.23.23-.7.65-1.4,1.25l-.85.65,0-.1a.58.58,0,0,1,0-.25,6.22,6.22,0,0,0,.2-1v0a.92.92,0,0,1,0-.25c0-.34,0-.65,0-1v-.35a2,2,0,0,0-.2-.9,2.43,2.43,0,0,0-.35-.6.21.21,0,0,1,0-.15,8.08,8.08,0,0,1,.35-.8.14.14,0,0,1,0-.1c.2-.4.38-.79.55-1.15l.5-.9a2.11,2.11,0,0,1,.2-.4l.6-1.2ZM98.7,110.93v.1l.3,1.3c.1.26.22.53.35.8s.37.61.6,1l0,.15a3.63,3.63,0,0,1-.35-.3l-1-.5a5.69,5.69,0,0,0-1.95-.4c-.07-.17-.13-.32-.2-.45a8.35,8.35,0,0,0,1.2-.8A10.82,10.82,0,0,1,98.7,110.93Zm22.6-2.1a3.68,3.68,0,0,0,.25-.4c.17-.24.33-.49.5-.75s.48-.75.75-1.15l.6-.9h.75a2.67,2.67,0,0,1,2,.75c-.23.43-.5.88-.8,1.35a1.48,1.48,0,0,0-.15.25c-.13.2-.27.41-.4.65a3,3,0,0,1-.3.55c-.17.26-.38.65-.65,1.15-.17.33-.38.73-.65,1.2s-.5.91-.8,1.45a42.55,42.55,0,0,1-2.45,4l-1.5,1.1-1.45.85-1.55.9a19.66,19.66,0,0,1-3,1.45,5.19,5.19,0,0,1-1.1.35,3.85,3.85,0,0,1-1.9-.2s0,0,0,0a3.16,3.16,0,0,1-2-2,7,7,0,0,0,.7-.3,0,0,0,0,0,.05,0l.5-.3a15.41,15.41,0,0,1,1.65-1l.8-.4a17.8,17.8,0,0,1,1.85-.8,2.47,2.47,0,0,1,.35-.1,10,10,0,0,0,2.6-1.1l1.85-.9v-.1a2.72,2.72,0,0,1,.2-.35l.5-.9c.2-.27.38-.54.55-.8s.52-.74.75-1.1a.14.14,0,0,1,0-.1q.4-.6.75-1.2C120.82,109.56,121.07,109.19,121.3,108.83ZM44.5,58.88a.62.62,0,0,1-.25-.05h-.4a8.75,8.75,0,0,0-1.1,0c-.6,0-1.32-.05-2.15-.05h-.05c-.27,0-.6-.07-1-.1s-.88,0-1.45-.05h-.25a17,17,0,0,1-2.65-.25c-.8-.14-1.57-.29-2.3-.45l-1.7-.4c-.8-.2-1.55-.42-2.25-.65l-.75-.3q-.79-.3-1.5-.6l-1.15-.6a15.21,15.21,0,0,1-1.3-.8,3.88,3.88,0,0,1,2.45-.9l1.6.5,1.7.5a3.29,3.29,0,0,1,.6.15l1.35.3c.63.1,1.27.21,1.9.35h.3l1,.15,3.15.4,3,.3,2.15.2h.2A4.1,4.1,0,0,1,44,57c.1.16.2.35.3.55a.5.5,0,0,0,.05.15,1,1,0,0,0,0,.25l.1.2ZM22.7,83.83l.05-.4.95-.75.15,0,2.85,2,1.6.3a.77.77,0,0,0,.6.85,2.07,2.07,0,0,1,1.55,2l-.35.5a6.21,6.21,0,0,1-.6.35,1.48,1.48,0,0,1-1.3,0l-.4-.2a3.19,3.19,0,0,1-.45-.45A4.54,4.54,0,0,0,26,86.93a7.18,7.18,0,0,1-2.3-1.6A6.23,6.23,0,0,1,22.7,83.83ZM16.25,98.38l.05-1.6a7.16,7.16,0,0,0,.8,0h.25a7,7,0,0,0,1.95-.55,4.39,4.39,0,0,0,.45-.3,4.72,4.72,0,0,0,.55-.55,1.27,1.27,0,0,0,.25-.75l2.3,1,.1.8c-.13.06-.3.13-.5.2a2.87,2.87,0,0,1-.95.25.49.49,0,0,1-.2,0,2.23,2.23,0,0,0-1.05.6,3.53,3.53,0,0,1-.6.55,3,3,0,0,1-3.1.45Z"/><path class="cls-19" d="M113.75,123a.87.87,0,0,1-.25.15,5.77,5.77,0,0,1-1,.45,12.58,12.58,0,0,0-1.6.85,2,2,0,0,1-.65.35,5.2,5.2,0,0,1-1.4.3,4.46,4.46,0,0,1-2.5-.45,1.87,1.87,0,0,1-1.1-2.05,3.68,3.68,0,0,1,.55-2,2.55,2.55,0,0,1,.75-.8,3.05,3.05,0,0,1,.7-.35c.07,0,.1,0,.1,0a3.16,3.16,0,0,0,2,2s0,0,0,0a3.85,3.85,0,0,0,1.9.2,5.19,5.19,0,0,0,1.1-.35,19.66,19.66,0,0,0,3-1.45l1.55-.9,1.45-.85L120,117a42.55,42.55,0,0,0,2.45-4c.3-.54.57-1,.8-1.45s.48-.87.65-1.2c.27-.5.48-.89.65-1.15a3,3,0,0,0,.3-.55c.13-.24.27-.45.4-.65a1.48,1.48,0,0,1,.15-.25c.3-.47.57-.92.8-1.35a.14.14,0,0,1,0,.1,2.46,2.46,0,0,1,.35,1.85c0,.06-.08.18-.15.35a.53.53,0,0,0-.15.3,9.44,9.44,0,0,0-.45.9c-.2.4-.38.81-.55,1.25a.14.14,0,0,0,0,.1l-.6,1.1c-.17.33-.35.66-.55,1-.37.76-.77,1.5-1.2,2.2a23.35,23.35,0,0,1-1.55,2.35,4.23,4.23,0,0,1-1.35,1.35l-1.1.6-.2.1a5,5,0,0,0-.7.4l-.8.5-.35.2c-.5.33-1,.66-1.45,1A17.24,17.24,0,0,1,113.75,123Zm-2.1-16.55a4.66,4.66,0,0,1-.25.5c-.1.26-.22.53-.35.8a15.22,15.22,0,0,1-.9,1.7A5,5,0,0,1,109,111l-1,.7a4.14,4.14,0,0,0-.85.65c-.17.13-.4.3-.7.5a3.63,3.63,0,0,1-.35.3,6.68,6.68,0,0,0-.55.5,2.5,2.5,0,0,0,.35-1.1l.6-1.85.85-.65c.7-.6,1.17-1,1.4-1.25a16.41,16.41,0,0,0,1-1.85c.17-.37.35-.8.55-1.3s.33-.75.5-1.15c0-.07.07-.14.1-.2.17-.47.33-.89.5-1.25s.38-.87.55-1.2c.23-.57.42-1,.55-1.3l.2-.6c.4-.87.78-1.67,1.15-2.4a2.7,2.7,0,0,1,.55,1.9,4.79,4.79,0,0,1-.25.65c-.13.4-.27.8-.4,1.2s-.22.75-.35,1.15l-.1.2q-.26.6-.45,1.2c-.13.3-.25.58-.35.85s-.13.28-.2.45C112,105.56,111.85,106,111.65,106.48Zm-15,6.55a1.77,1.77,0,0,0-1.15.35,2.75,2.75,0,0,0-.65,1,1,1,0,0,1,.2-.4,2.48,2.48,0,0,1,.6-.9,2.3,2.3,0,0,1,.35-.2,2.3,2.3,0,0,1,.35-.2l.1,0C96.52,112.71,96.58,112.86,96.65,113Zm-69.1-54.4a3.07,3.07,0,0,1-.7-.2,4,4,0,0,1-.55-.15,3.63,3.63,0,0,1-2.3-2.1,1.53,1.53,0,0,1,.25-1.65,15.21,15.21,0,0,0,1.3.8l1.15.6q.71.3,1.5.6l.75.3c.7.23,1.45.45,2.25.65l1.7.4c.73.16,1.5.31,2.3.45a17,17,0,0,0,2.65.25h.25c.57,0,1,.05,1.45.05s.73.06,1,.1h.05c.83,0,1.55,0,2.15.05a8.75,8.75,0,0,1,1.1,0h.4a.62.62,0,0,0,.25.05v.2a1,1,0,0,1-.15.35l-.45.1-1.4.15-1.65.15-.05.05-1.9.2L36.45,60A55.49,55.49,0,0,1,29,58.88l-1.1-.2A1,1,0,0,0,27.55,58.63Zm-.85-5.3v.2a.42.42,0,0,0-.05-.2Z"/><path class="cls-20" d="M16,44.23a9.73,9.73,0,0,0,3.2,1.6,9.5,9.5,0,0,0,3.1.35,1,1,0,0,1-.1.15l-.4.4a7,7,0,0,0-1.05-.15,15.56,15.56,0,0,1-1.8-.3,6.79,6.79,0,0,1-1.45-.6c-.8-.44-1.22-.65-1.25-.65A.32.32,0,0,0,16.1,45,3,3,0,0,1,16,44.23Zm9.8-1.45a5.06,5.06,0,0,0-.55.25,21.89,21.89,0,0,1-2.8,1.1,5,5,0,0,1-5.65-1.7c-.07-.17-.13-.32-.2-.45A3.39,3.39,0,0,1,18,40.48a4.82,4.82,0,0,1,2.6-.75,2,2,0,0,1,.7,0,6.59,6.59,0,0,1,2.65,1.05A5.45,5.45,0,0,1,25.8,42.78ZM106.85,108a10.33,10.33,0,0,1-.65,1,6,6,0,0,1-4.6,2.45,4.59,4.59,0,0,1-2.65-.7,3.11,3.11,0,0,1-.25-.2,1.63,1.63,0,0,0,0-.35,4.75,4.75,0,0,1,.4-1.65,7.39,7.39,0,0,1,3-3q2.66-1.56,4.2.65a2.43,2.43,0,0,1,.35.6,2,2,0,0,1,.2.9ZM99,112.33a6.15,6.15,0,0,0,2.35.45c1.5,0,3.08-.94,4.75-2.8a4.57,4.57,0,0,0,.65-.7,6.22,6.22,0,0,1-.2,1l-.85,1a7.37,7.37,0,0,1-2.75,1.9l-.65.15a11.78,11.78,0,0,1-2.45-.1l-.5-.1C99.22,112.86,99.1,112.59,99,112.33Z"/><path class="cls-21" d="M20.3,47.93a1.27,1.27,0,0,0-1-1.2,1.35,1.35,0,0,0-.75.1l.4,1.1-1.45-.7L16.5,46v0h-.05v-.1l-.3-.6a.58.58,0,0,0,0-.25.32.32,0,0,1,.15.05s.45.21,1.25.65a6.79,6.79,0,0,0,1.45.6,15.56,15.56,0,0,0,1.8.3,7,7,0,0,1,1.05.15.28.28,0,0,0-.15.15l-.1.1a8.43,8.43,0,0,0-.85,1Zm2-1.75a9.5,9.5,0,0,1-3.1-.35,9.73,9.73,0,0,1-3.2-1.6,3.92,3.92,0,0,1,.15-1,5.83,5.83,0,0,1,.25-.7c.07-.17.13-.34.2-.5.07.13.13.28.2.45a5,5,0,0,0,5.65,1.7,21.89,21.89,0,0,0,2.8-1.1,5.06,5.06,0,0,1,.55-.25l-.35.75a3.33,3.33,0,0,0-.25.5,9.93,9.93,0,0,0-2.1,1.45l-.2.2,0,0a.12.12,0,0,0-.1.05v0Zm84.45,63.1a4.57,4.57,0,0,1-.65.7c-1.67,1.86-3.25,2.8-4.75,2.8a6.15,6.15,0,0,1-2.35-.45l-.3-1.3v-.45a3.11,3.11,0,0,0,.25.2,4.59,4.59,0,0,0,2.65.7,6,6,0,0,0,4.6-2.45,10.33,10.33,0,0,0,.65-1c0,.3,0,.61,0,1a.92.92,0,0,0,0,.25Zm-.3,1.4-.6,1.85-.3.2.15-1a2.78,2.78,0,0,0-.7,1.55,2.48,2.48,0,0,0,0,.45,3.77,3.77,0,0,1-3.5,1h-.1l0,0-.4-.1a.12.12,0,0,0-.1,0l-.4-.15-.45-.35c-.23-.34-.43-.65-.6-1l.5.1a11.78,11.78,0,0,0,2.45.1l.65-.15a7.37,7.37,0,0,0,2.75-1.9l.85-1a.58.58,0,0,0,0,.25Z"/><path class="cls-22" d="M96.05,124.68a4.48,4.48,0,0,1-.35-.65,18.94,18.94,0,0,1-1.3-3.55,10.19,10.19,0,0,1-.3-3.1,1.9,1.9,0,0,0,.05-.4,13.77,13.77,0,0,1,.7-2.65,2.75,2.75,0,0,1,.65-1,1.77,1.77,0,0,1,1.15-.35,5.69,5.69,0,0,1,1.95.4l1,.5a3.63,3.63,0,0,0,.35.3l-.3.3-.2.25s0,0,0,0a.14.14,0,0,1,0,.1,5.35,5.35,0,0,0,1.85,1.7,5.65,5.65,0,0,0,2.25.55h.55c.3,0,.6,0,.9-.05l-.2-.85c.63.43,1.22.85,1.75,1.25a13.52,13.52,0,0,1,1.1,1c.17.2.32.38.45.55a0,0,0,0,1-.05,0,.68.68,0,0,0-.4,0l-.55.1a3.58,3.58,0,0,0-1.65,1.55,6.26,6.26,0,0,0-.9,2.65c0,.4,0,.81,0,1.25,0,.06,0,.63,0,1.7,0,.36,0,.81.05,1.35v.15l1,11-1.25-.15a11.22,11.22,0,0,1-1.9-.45,15.88,15.88,0,0,1-3-1.15,11.11,11.11,0,0,1-2.2-1.6,10.29,10.29,0,0,1-1.5-1.9c.13-1,.28-2.07.45-3.1.1-.64.22-1.27.35-1.9a4.65,4.65,0,0,0,.1-1,4.08,4.08,0,0,0-.15-1.25,6.81,6.81,0,0,1-.4-1.3l0-.1A1.05,1.05,0,0,1,96.05,124.68Z"/><path class="cls-23" d="M99.6,114.53l.3-.3,0-.15.45.35.4.15a3,3,0,0,0-.75-.1h-.2A.92.92,0,0,1,99.6,114.53Zm1.85.25a3.77,3.77,0,0,0,3.5-1l.2.25-.3,2.25.2.85c-.3,0-.6.05-.9.05a3.4,3.4,0,0,0-1.3-1.5,5,5,0,0,0-1.15-.75A.58.58,0,0,0,101.45,114.78Z"/><path class="cls-24" d="M100.8,114.58a.12.12,0,0,1,.1,0l.4.1,0,0h.1a.58.58,0,0,1,.25.15,5,5,0,0,1,1.15.75,3.4,3.4,0,0,1,1.3,1.5h-.55a5.65,5.65,0,0,1-2.25-.55,5.35,5.35,0,0,1-1.85-1.7.14.14,0,0,0,0-.1s0,0,0,0l.2-.25a.92.92,0,0,0,.25,0h.2A3,3,0,0,1,100.8,114.58Z"/><path class="cls-25" d="M112.7,93.08a4.75,4.75,0,0,0,.8,2.3,8.73,8.73,0,0,0,1.2,1.4l-.55.2a1.5,1.5,0,0,0-.6.4A3.14,3.14,0,0,0,111.2,97a6,6,0,0,0,.4-2A3,3,0,0,1,112.7,93.08ZM105.2,114l0,0-.2-.25a2.48,2.48,0,0,1,0-.45,2.78,2.78,0,0,1,.7-1.55l-.15,1,.3-.2a2.5,2.5,0,0,1-.35,1.1,1,1,0,0,0-.15.15A.55.55,0,0,0,105.2,114Zm21-7.5a.14.14,0,0,0,0-.1,2.67,2.67,0,0,0-2-.75c0-.6,0-1.2,0-1.8a3.31,3.31,0,0,1,.2-.9,1.49,1.49,0,0,1,.15-.45,1.88,1.88,0,0,0,1.2,0,1.45,1.45,0,0,0,.85-1.5,3.08,3.08,0,0,0-.1-.8.45.45,0,0,1,.25.1,11,11,0,0,1,.8,2.15,6.74,6.74,0,0,1,.15.95,2.67,2.67,0,0,1-.45,1.55,9.34,9.34,0,0,0-.65.95C126.5,106,126.38,106.24,126.25,106.48Z"/><path class="cls-26" d="M110.3,124.83c0,.6,0,1.21,0,1.85-.07.4-.13.8-.2,1.2a3.49,3.49,0,0,1-.2.9,1.49,1.49,0,0,0-.15.4l-.1.1a1.94,1.94,0,0,0-.25.45,2.53,2.53,0,0,0-.2.7,13.83,13.83,0,0,0-.2,1.7,12.26,12.26,0,0,0,.15,1.9c.2,1,.48,2.13.85,3.4a3.42,3.42,0,0,1-.65.5,6.46,6.46,0,0,1-3.65.9l-1-11v-.15c0-.54-.05-1-.05-1.35,0-1.07,0-1.64,0-1.7,0-.44,0-.85,0-1.25a6.26,6.26,0,0,1,.9-2.65,3.58,3.58,0,0,1,1.65-1.55l.55-.1a.68.68,0,0,1,.4,0,7,7,0,0,1-.7.3s0,0-.1,0a3.05,3.05,0,0,0-.7.35,2.55,2.55,0,0,0-.75.8,3.68,3.68,0,0,0-.55,2,1.87,1.87,0,0,0,1.1,2.05,4.46,4.46,0,0,0,2.5.45A5.2,5.2,0,0,0,110.3,124.83Z"/><path class="cls-27" d="M124.05,81.78a2,2,0,0,1,.35,1,.59.59,0,0,1-.35.6.62.62,0,0,1-.65-.1,1.53,1.53,0,0,1-.65-.75,1.72,1.72,0,0,1-.35-1,.69.69,0,0,1,.35-.65c.17-.14.38-.12.65,0A1.83,1.83,0,0,1,124.05,81.78ZM65,28.23l-7.4-4.3v-1.8l7.4,4.3Zm0,3.65-7.4-4.25v-1.8L65,30.08Zm-7.4-2.45L65,33.68v1.8l-7.4-4.25Z"/><polygon class="cls-28" points="54.1 22.73 54.05 22.77 54.05 22.73 54.1 22.73"/><path class="cls-29" d="M45.8,38.28l1.45-.85.45-.25,1.95-1.1L50,36a2.65,2.65,0,0,1,1,.3l.25.2L64,43.83a3.12,3.12,0,0,1,1.65,2.9v14.9c0,.76-.18,1.2-.55,1.3l-1.7,1a.36.36,0,0,1-.2.15L61.4,65a1.5,1.5,0,0,0,.35-1.15V49a3.11,3.11,0,0,0-1.7-2.9l-6.7-3.85v0l-6.3-3.65a.12.12,0,0,0-.1-.05C46.45,38.21,46.07,38.14,45.8,38.28Zm1.9-1.1h0a.14.14,0,0,1,.1,0A.37.37,0,0,0,47.7,37.18Z"/><path class="cls-30" d="M61.4,65a.21.21,0,0,1-.2.1,1.44,1.44,0,0,1-1.15-.3l-3.75-2.2v0l-7.25-4.2-.1,0-1.9-1.1a3.64,3.64,0,0,1-1.3-1.25,4.68,4.68,0,0,1-.35-1.25,1.9,1.9,0,0,1,0-.4V39.53a3.28,3.28,0,0,1,0-.6,1,1,0,0,1,.3-.55l.1-.1c.27-.14.65-.07,1.15.2a.12.12,0,0,1,.1.05l6.3,3.65v0l6.7,3.85a3.11,3.11,0,0,1,1.7,2.9v14.9A1.5,1.5,0,0,1,61.4,65ZM46.3,40.93v14.7l.2.15.15-.15c.23-.27.48-.54.75-.8a4.15,4.15,0,0,1,.45-.5c.27-.24.52-.47.75-.7a12.73,12.73,0,0,1,2-1.75l.75-.35c.13,0,.27.1.4.3S52.32,53,53,54.63c.17.3.4.68.7,1.15l.9-.55c.2-.17.63-.52,1.3-1a11.16,11.16,0,0,1,1.4-1c.77-.37,1.78,1.06,3,4.3l.55,1.4V49a2.45,2.45,0,0,0-1.1-2.25L47.5,39.88Q46.41,39.43,46.3,40.93Z"/><path class="cls-31" d="M16.3,96.78,16.2,96l-.75-5.55-.25-2.1a22.87,22.87,0,0,1,.4-7A3.6,3.6,0,0,0,15.65,80a33.62,33.62,0,0,0-1.25-7q3.45,4.8,3.7,5.8a14,14,0,0,1,.35,2.2c.17,1.23.33,2.91.5,5v.15A28.19,28.19,0,0,0,19.5,89a3,3,0,0,0,.95,1.7l.1,3.85a1.27,1.27,0,0,1-.25.75,4.72,4.72,0,0,1-.55.55,4.39,4.39,0,0,1-.45.3,7,7,0,0,1-1.95.55H17.1A7.16,7.16,0,0,1,16.3,96.78ZM48,47.18a1.18,1.18,0,0,1,.5-1.1l.15,0a1.25,1.25,0,0,1,1,.2,2.9,2.9,0,0,1,1.15,1.3,2.76,2.76,0,0,1,.55,1.6,1,1,0,0,1-1.7,1,3.28,3.28,0,0,1-1-1.05.8.8,0,0,1-.15-.2A3.39,3.39,0,0,1,48,47.18ZM29.2,65.38l1.05-.15L31.5,65a6.19,6.19,0,0,1,3.3.85,2.25,2.25,0,0,1,1.3,1.9c0,.26,0,.55-.05.85a5.62,5.62,0,0,1,0,.7,9.63,9.63,0,0,1-.6,2,12.78,12.78,0,0,1-.7,1.3,17,17,0,0,0-1.05,1.9c-.2.43-.43.9-.7,1.4l-.35.6-.7,1.65,0,.15-.25.45-.9,1.8L28.3,85l-1.6-.3-2.85-2q1.95-2.31,3.5-4.2c.43-.54.85-1,1.25-1.5l.45-.55c2.87-3.5,4.3-5.39,4.3-5.65,0-.44-.08-.67-.25-.7a2.06,2.06,0,0,0-.55-.2,51,51,0,0,0-5.15,3.55l-2.1.8-.85.35-1.35.5-1.1.15c-.57-.14-1.1-.29-1.6-.45a10.33,10.33,0,0,1-2.55-1.45,1.76,1.76,0,0,1-.7-.95,4.12,4.12,0,0,1-.35-1,10.75,10.75,0,0,0,4.4.8,12.86,12.86,0,0,0,1.55-.2l.7-.3h.05l.8-.6v0l.2,0,.45-.5a.28.28,0,0,1,.15-.15,3,3,0,0,0,.35-.45.29.29,0,0,0,.1-.2L26,68.38a3.93,3.93,0,0,0-.15-1.85A2.34,2.34,0,0,1,25.7,66l.45-.1Z"/><path class="cls-32" d="M20.7,48a8.43,8.43,0,0,1,.85-1,1,1,0,0,0,.65.6,18.11,18.11,0,0,0,1.85-1c.47-.3.83-.55,1.1-.75a.14.14,0,0,1,.05.1,8.29,8.29,0,0,1,.45,1l-.75.35a1.68,1.68,0,0,1,0,.7,1.72,1.72,0,0,1-.8,1,2.1,2.1,0,0,1-.3.15,2.07,2.07,0,0,1-1,0H22.7a4,4,0,0,1-.85,0,2.9,2.9,0,0,1-1.45-.75s0,0,0,0,0-.05-.05-.05v-.15ZM49,58.43,48.4,59l-1,.35a2.57,2.57,0,0,1-1.75,0,6.9,6.9,0,0,0-1.15-.45v-.75l-.1-.2a1,1,0,0,1,0-.25.5.5,0,0,1-.05-.15c-.1-.2-.2-.39-.3-.55.33-.07.6-.14.8-.2a1.19,1.19,0,0,0,.4-.25l.55-.45a3.64,3.64,0,0,0,1.3,1.25ZM29.6,52.18l1.5,0h.1c.77.36,1.53.76,2.3,1.2a1.39,1.39,0,0,1,.85,1.4,6.37,6.37,0,0,0-.8-.55,4.5,4.5,0,0,0-2.25-.85,2,2,0,0,0-.65.1.76.76,0,0,0-.6.45.74.74,0,0,0-.05.6v.05l-1.7-.5.1-1.65v-.25l1-.1ZM19,47.93l-.4-1.1a1.35,1.35,0,0,1,.75-.1,1.27,1.27,0,0,1,1,1.2Z"/><path class="cls-33" d="M25.15,45.78c-.27.2-.63.45-1.1.75a18.11,18.11,0,0,1-1.85,1,1,1,0,0,1-.65-.6l.1-.1a.28.28,0,0,1,.15-.15l.4-.4a1,1,0,0,0,.1-.15l.45-.35v0a.12.12,0,0,1,.1-.05l0,0,.2-.2A9.93,9.93,0,0,1,25.2,44c0,.53-.05,1.08-.05,1.65Zm2.3,6.55.95-.1v.25l-.1,1.65-1.6-.5V52.38Zm3.45,2.15-.25.15,0,.15a3.29,3.29,0,0,0-.6-.15v-.05a.74.74,0,0,1,.05-.6.76.76,0,0,1,.6-.45,2,2,0,0,1,.65-.1,4.5,4.5,0,0,1,2.25.85,6.37,6.37,0,0,1,.8.55,1.1,1.1,0,0,1-.2.6h-.3l-2.35-1.3Z"/><path class="cls-34" d="M20.3,86.43l.15,4.3A3,3,0,0,1,19.5,89a28.19,28.19,0,0,1-.55-2.9V86c-.17-2.14-.33-3.82-.5-5a14,14,0,0,0-.35-2.2q-.26-1-3.7-5.8v-.05a2,2,0,0,1-.2-.65L13.8,71a3,3,0,0,1-.1-1.85l1.2,1.1,1.9,1.15a4.12,4.12,0,0,0,.35,1,1.76,1.76,0,0,0,.7.95,10.33,10.33,0,0,0,2.55,1.45c.5.16,1,.31,1.6.45l-.3,2-.7,5.1-.35,1.25-.1.65-.3,1.35Zm3.55-3.7-.15,0,2.05-5.05.7-1.85.3-.65.65-1.65a51,51,0,0,1,5.15-3.55,2.06,2.06,0,0,1,.55.2c.17,0,.25.26.25.7,0,.26-1.43,2.15-4.3,5.65L28.6,77c-.4.46-.82,1-1.25,1.5Q25.81,80.42,23.85,82.73Z"/><path class="cls-35" d="M43.5,60.88l0,0v0ZM40.25,71v0h0Z"/><path class="cls-36" d="M65.6,48.93a8.06,8.06,0,0,1,3,6.55V66.93q0,5-4.45,2.5L53,63a8.77,8.77,0,0,1-3.9-4.55l7.25,4.2v0l3.75,2.2a1.44,1.44,0,0,0,1.15.3.21.21,0,0,0,.2-.1l1.75-1a.36.36,0,0,0,.2-.15l1.7-1c.37-.1.55-.54.55-1.3Z"/><path class="cls-37" d="M22.75,72a12.86,12.86,0,0,1-1.55.2,10.75,10.75,0,0,1-4.4-.8l-1.9-1.15-1.2-1.1a1.18,1.18,0,0,1-.2-.65,30.24,30.24,0,0,1,.35-5.2l.05-3.7a27.09,27.09,0,0,0-.35-3.7v-.2c-.13-.57-.27-1.15-.4-1.75s-.28-1.2-.45-1.8v-.3A4.17,4.17,0,0,1,14.35,48a2.09,2.09,0,0,1,.55-.4l1.25-.65a10.51,10.51,0,0,1,1.4.4c.33.7.7,1.38,1.1,2.05a1,1,0,0,0,.4.5,3.32,3.32,0,0,0,1.5.8,1.55,1.55,0,0,0,1.7-.6,2.45,2.45,0,0,0,.3-.5,22.58,22.58,0,0,1,3,2.1l.1,0a3.11,3.11,0,0,1-.25.2l-.9.6c-.27.3-.52.56-.75.8a4.37,4.37,0,0,0-.65,1.15,2.56,2.56,0,0,0-.35.9,2.21,2.21,0,0,0-.15.55.5.5,0,0,1-.05.15v.15a6,6,0,0,0-.25,1.35,1.63,1.63,0,0,0-.05.35v.15c0,.43-.05,1.3-.05,2.6v.55c0,1.16,0,2.11.05,2.85v1c0,1.2.08,2.33.15,3.4a8.12,8.12,0,0,0,.05.9Q22.6,70.83,22.75,72Z"/><path class="cls-38" d="M26.7,53.53v.1a3.88,3.88,0,0,0-2.45.9A1.53,1.53,0,0,0,24,56.18a3.63,3.63,0,0,0,2.3,2.1.53.53,0,0,1-.05.2,2.34,2.34,0,0,1-.15.55l-.65,3.8.2,2.8.05.35a2.34,2.34,0,0,0,.15.55A3.93,3.93,0,0,1,26,68.38l-.45,1.35a.29.29,0,0,1-.1.2,3,3,0,0,1-.35.45.28.28,0,0,0-.15.15l-.5.5-.15,0v0l-.8.6h-.05l-.7.3q-.15-1.2-.3-2.7a8.12,8.12,0,0,1-.05-.9c-.07-1.07-.12-2.2-.15-3.4v-1c0-.74-.05-1.69-.05-2.85v-.55c0-1.3,0-2.17.05-2.6v-.15a1.63,1.63,0,0,1,.05-.35,6,6,0,0,1,.25-1.35v-.15a.5.5,0,0,0,.05-.15,2.21,2.21,0,0,1,.15-.55,2.56,2.56,0,0,1,.35-.9,4.37,4.37,0,0,1,.65-1.15c.23-.24.48-.5.75-.8l.9-.6a3.11,3.11,0,0,0,.25-.2l.9,1a1.8,1.8,0,0,1,.1.6A.42.42,0,0,1,26.7,53.53Z"/><path class="cls-39" d="M22.55,49.58a2.45,2.45,0,0,1-.3.5,1.55,1.55,0,0,1-1.7.6,3.32,3.32,0,0,1-1.5-.8,1,1,0,0,1-.4-.5c-.4-.67-.77-1.35-1.1-2.05a.14.14,0,0,0-.05-.1l1.45.7H20.3l.4,0-.4.2v.15s.05,0,.05.05,0,0,0,0a2.9,2.9,0,0,0,1.45.75,4,4,0,0,0,.85,0A1.8,1.8,0,0,1,22.55,49.58Z"/><path class="cls-40" d="M30.1,88.38l-.25.55a1.2,1.2,0,0,1-.7.35.92.92,0,0,1-.25,0,1.19,1.19,0,0,1-1-.3q-1.39-1-2.7-2l-.55.35h-.1a4.93,4.93,0,0,1-2.6-2.3,1.49,1.49,0,0,0-.15-.4l.25-.35h.05l.65-.55a6.23,6.23,0,0,0,1,1.5,7.18,7.18,0,0,0,2.3,1.6,4.54,4.54,0,0,1,1.35,1.15,3.19,3.19,0,0,0,.45.45l.4.2a1.48,1.48,0,0,0,1.3,0A6.21,6.21,0,0,0,30.1,88.38Zm-10,9.9v.1a1.55,1.55,0,0,1-.4.7,2.65,2.65,0,0,1-3.45.5v-1.2l.3.1a3,3,0,0,0,3.1-.45,3.53,3.53,0,0,0,.6-.55,2.23,2.23,0,0,1,1.05-.6.49.49,0,0,0,.2,0,2.87,2.87,0,0,0,.95-.25c.2-.07.37-.14.5-.2l-.15.4-.1.25-.55.2-1.95.7A.78.78,0,0,1,20.1,98.28Z"/><path class="cls-41" d="M109.7,147.48l.3-1.3a29,29,0,0,0,.15-7.8l6.15,3.55,10.4-5.8,3.6,2.1,5.35,3.15,5.6,3.2a34,34,0,0,0,3.1,1.65,2.27,2.27,0,0,0,2.2,0c.63-.4,1.28-.79,1.95-1.15s1.07-.7,1.6-1.1l.3-.2L156,147l-23.6,13.6ZM99.4,175a3.16,3.16,0,0,0,1.95,1.55,4.6,4.6,0,0,0,2.35-.25l.25-.7a4.79,4.79,0,0,1,1.55.25q4.55,1.14,5.85-2.55.2-.3-.6-.9a16.91,16.91,0,0,0-4.35-1.45l-.5-.35q-.2-1-.3-2.1v-.25l6.8,3.9q2.14,1.25-1,3.05l-4.75,2.75q-3.15,1.8-5.25.55L88.5,171q-2.1-1.2,1-3l2.85-1.65c.07.33.13.65.2,1a1.27,1.27,0,0,0,.75,1,1.94,1.94,0,0,0,1.2.1,2.34,2.34,0,0,0,.55-.4,15.38,15.38,0,0,1,4.35-2.8q-.45,3.84-.75,8.1A2.13,2.13,0,0,0,99.4,175Zm-3.5-41.4c-.13,1.26-.27,2.53-.4,3.8,0,.33,0,.66,0,1s0,.55,0,.85l-11.35-6.55L66.1,143l-30.2-17.3,2.1-1.25L66.85,141l18.75-11.5,0-2.1.15-.1-.15,0v-.1l-2.4-1.3-26.9-15.6-.1,0-.2-.1-5.2,3.2-20.1-11.55L32.5,96l12.3-7.1q3.35,1.8,6.65,3.75l5.85,3.45q3.15,1.74,6.3,3.6l5.95,3.5-2.7,1.3-3.25,1.55v5.65l32.75,18.75C96.18,131.51,96,132.54,95.9,133.58Zm-81.85-26.8,9.7,5.55-1.65,5.5,1.8,1,1.5-.1,4.8-15.35,10.8,6.2q2.14,1.24-3.3,4l-8.3,4.2q-5.5,2.7-7.65,1.45l-13.1-7.55c-1.07-.6-.73-1.5,1-2.7l-.5,1.7,1.85,1,1.5-.1ZM27.7,99.63l-.7-.4,1-.6Zm-3.1,10L17,105.18l3.35-1.65a15.12,15.12,0,0,1,5.7-1.9l.9.5Z"/><path class="cls-42" d="M96.05,124.68,63.6,106.08l3.25-1.55,27.55,16A18.94,18.94,0,0,0,95.7,124,4.48,4.48,0,0,0,96.05,124.68Zm13.6,4.6,9.6,5.6-3,1.4-7.3-4.15a13.83,13.83,0,0,1,.2-1.7,2.53,2.53,0,0,1,.2-.7A1.94,1.94,0,0,1,109.65,129.28Z"/><polygon class="cls-43" points="83.15 125.88 85.45 127.23 85.55 127.28 85.7 127.33 85.55 127.43 83.45 128.63 54.05 111.58 56.15 110.33 56.25 110.28 83.15 125.88"/><path class="cls-44" d="M110.15,138.38a7,7,0,0,1-.15-.95c-.37-1.27-.65-2.4-.85-3.4a12.26,12.26,0,0,1-.15-1.9l7.3,4.15,3-1.4,2.85-1.4.3.2c.5.26,1.43.81,2.8,1.65l1.5.8-10.4,5.8ZM63.6,106.08l32.45,18.6a1.05,1.05,0,0,0,.15.3l0,.1a6.81,6.81,0,0,0,.4,1.3,4.08,4.08,0,0,1,.15,1.25,4.65,4.65,0,0,1-.1,1c-.13.63-.25,1.26-.35,1.9L63.6,111.73Z"/><path class="cls-45" d="M85.45,127.23l.1,0v.1ZM66.85,141l-.15-2.15,14.5-8.95,2.25-1.3,2.1-1.2,0,2.1Z"/><polygon class="cls-46" points="66.7 138.88 66.85 141.03 38 124.48 37.25 124.08 37.15 121.93 66.15 138.63 66.7 138.88"/><path class="cls-47" d="M92.6,167.33c-.07-.3-.13-.62-.2-1a27,27,0,0,1-.05-9.1,94.45,94.45,0,0,1,2.4-10.35,6,6,0,0,0,.35-2.05c.07-1.4.15-2.79.25-4.15,0-.5,0-1,.05-1.5,0-.3,0-.59,0-.85s0-.67,0-1c.13-1.27.27-2.54.4-3.8a10.29,10.29,0,0,0,1.5,1.9,11.11,11.11,0,0,0,2.2,1.6,15.88,15.88,0,0,0,3,1.15q.3,2.4,1,5.7a4.15,4.15,0,0,1,.15.75,35.92,35.92,0,0,1,.8,7,42.48,42.48,0,0,1-.55,6q0,.35-1.2,7a16.34,16.34,0,0,0-.3,1.7,82.77,82.77,0,0,0-1,8.75l-2-.15a2.13,2.13,0,0,1-.7-1.6q.3-4.26.75-8.1l0-.7.4-3.2a2.21,2.21,0,0,1,.15-.55,29.62,29.62,0,0,0,1.3-9.3c0-1.14-.07-2.27-.1-3.4.07-.9.1-1.37.1-1.4a9.43,9.43,0,0,0-.15-1.5c-.17-.84-.25-1.27-.25-1.3s-.07-.27-.1-.4a.37.37,0,0,0,0-.15c0-.1-.07-.22-.1-.35a3.78,3.78,0,0,0-.75-1.2,9.79,9.79,0,0,0-1-.9,17,17,0,0,1-1.55-1.3c0,.23.07.5.1.8a.21.21,0,0,1,0,.15,21,21,0,0,1-.25,2.95q-.34,3.19-1.35,8.25a64.53,64.53,0,0,0-1.6,12.15v1.35c0,1.16,0,1.85,0,2.05v.25a8.81,8.81,0,0,1-1.2-.1A.9.9,0,0,1,92.6,167.33Z"/><path class="cls-48" d="M101.25,148.13v-.4q-.75,2.64-1.6,5.45a.46.46,0,0,0-.05.2c-.13.4-.25.8-.35,1.2-.17.7-.32,1.41-.45,2.15,0,.1-.07.2-.1.3a32.84,32.84,0,0,0-.2-3.3c-.17-2.07-.28-3.59-.35-4.55s-.13-1.79-.2-2.25c-.1-.87-.22-1.65-.35-2.35-.1-.34-.22-.69-.35-1.05a21,21,0,0,0,.25-2.95.21.21,0,0,0,0-.15c0-.3-.07-.57-.1-.8a17,17,0,0,0,1.55,1.3,9.79,9.79,0,0,1,1,.9,3.78,3.78,0,0,1,.75,1.2c0,.13.07.25.1.35a.37.37,0,0,1,0,.15c0,.13.07.26.1.4s.08.46.25,1.3a9.43,9.43,0,0,1,.15,1.5S101.32,147.23,101.25,148.13Z"/><path class="cls-49" d="M110,137.43a7,7,0,0,0,.15.95,29,29,0,0,1-.15,7.8l-.3,1.3q-1,4.7-2.2,9.4a70.72,70.72,0,0,0-1.8,10.7,1.93,1.93,0,0,0-.1.65v.25q.11,1.1.3,2.1l.5.35c0,2.16-1.27,3.5-3.9,4-.3.06-.57.13-.8.2h-.3a82.77,82.77,0,0,1,1-8.75,16.34,16.34,0,0,1,.3-1.7q1.15-6.6,1.2-7a42.48,42.48,0,0,0,.55-6,35.92,35.92,0,0,0-.8-7,4.15,4.15,0,0,0-.15-.75q-.65-3.3-1-5.7a11.22,11.22,0,0,0,1.9.45l1.25.15a6.46,6.46,0,0,0,3.65-.9A3.42,3.42,0,0,0,110,137.43ZM97.25,165.68a4.15,4.15,0,0,1-2.9,1.9v-.25c0-.2,0-.89,0-2.05v-1.35a64.53,64.53,0,0,1,1.6-12.15q1-5.06,1.35-8.25c.13.36.25.71.35,1.05.13.7.25,1.48.35,2.35.07.46.13,1.21.2,2.25s.18,2.48.35,4.55a32.84,32.84,0,0,1,.2,3.3c0-.1.07-.2.1-.3,0,.13-.07.26-.1.4v.4a1.93,1.93,0,0,0-.1.65.37.37,0,0,0,0,.15.46.46,0,0,0,0,.2c0,.53-.07,1.06-.1,1.6v1.1l.35,1.4a6.43,6.43,0,0,1-.6,1.6,3.68,3.68,0,0,1-.25.4A5.34,5.34,0,0,1,97.25,165.68Z"/><path class="cls-50" d="M101.7,175.13a39.69,39.69,0,0,1,5.65-.2,4.15,4.15,0,0,0,4-1.65q-1.3,3.69-5.85,2.55a4.79,4.79,0,0,0-1.55-.25l-.25.7a4.6,4.6,0,0,1-2.35.25A3.16,3.16,0,0,1,99.4,175l2,.15Zm-2.25-9.85a15.38,15.38,0,0,0-4.35,2.8,2.34,2.34,0,0,1-.55.4,1.94,1.94,0,0,1-1.2-.1,1.27,1.27,0,0,1-.75-1,.9.9,0,0,0,.55.15,8.81,8.81,0,0,0,1.2.1,4.15,4.15,0,0,0,2.9-1.9l2.25-1.1Z"/><path class="cls-51" d="M14,15.48l9.5,5.5a2.3,2.3,0,0,1,1.25,2.15V34a1.08,1.08,0,0,1-.25.85l-.15.1a1.19,1.19,0,0,1-.85-.2l-2.8-1.65v0L14,29.23a2.32,2.32,0,0,1-1.25-2.15V16.18q0-.7.3-.9C13.2,15.18,13.52,15.24,14,15.48ZM141.45,37a2.3,2.3,0,0,1,1.25,2.15V50a1.08,1.08,0,0,1-.25.85l-.15.1a1.19,1.19,0,0,1-.85-.2l-2.8-1.65v0l-6.7-4a2.32,2.32,0,0,1-1.25-2.15V32.18q0-.7.3-.9c.2-.1.52,0,.95.2Zm-47.6-25.8,6.6,3.85a1.57,1.57,0,0,1,.85,1.45v7.6a.79.79,0,0,1-.15.55.16.16,0,0,1-.1.05q-.19.09-.6-.15l-6.6-3.8a1.64,1.64,0,0,1-.85-1.5V11.68a.8.8,0,0,1,.2-.65A1,1,0,0,1,93.85,11.18Z"/><path class="cls-52" d="M4.2,140.08q0-.45.75-.9l12.05-7a3,3,0,0,1,3.15,0l8.65,4.95-.05.05,3.55,2c.47.26.72.55.75.85a.46.46,0,0,1,.05.2c-.06.22-.3.45-.72.7l-.08,0-12,7a3.07,3.07,0,0,1-3.15,0l-6.2-3.6h-.05l-1.1-.65H9.8L5,141a3,3,0,0,1-.37-.25A.86.86,0,0,1,4.2,140.08Zm12.55-3a1.91,1.91,0,0,0-1.2-.45,2.4,2.4,0,0,0-1.4.1,1.39,1.39,0,0,0-.9.7l-1.7,4.4a.64.64,0,0,0,.15.7,1.67,1.67,0,0,0,.85.5,2.59,2.59,0,0,0,1.2.1l11.85-1.4a2.57,2.57,0,0,0,1.2-.5.76.76,0,0,0,.25-.85,1.24,1.24,0,0,0-.8-.65,2.22,2.22,0,0,0-1.4-.15L16,140.68,17,137.93A.72.72,0,0,0,16.75,137.13Z"/><path class="cls-53" d="M33.1,140.23v1.85a.36.36,0,0,1,0,.25v1.8c.07.36-.2.71-.8,1.05l-12,6.95a2.89,2.89,0,0,1-3.1,0L5,145.18c-.47-.34-.7-.64-.7-.9l0-.05v-2h0l0-1.18,0-.92a.86.86,0,0,0,.43.65A3,3,0,0,0,5,141l4.8,2.75H9.75l1.1.65h.05l6.2,3.6a3.07,3.07,0,0,0,3.15,0l12-7,.08,0C32.8,140.68,33,140.45,33.1,140.23Z"/><path class="cls-54" d="M33.1,141.35l2.65,1.53c.6.33.93.68,1,1.05v.25a2,2,0,0,1-1,1L20.45,154a3.79,3.79,0,0,1-4,0l-7.95-4.6v0L1,145.18c-.63-.4-1-.79-1-1.15s.33-.8,1-1.2L4.17,141l0,1.18h0v2l0,.05c0,.26.23.56.7.9l12.2,6.95a2.89,2.89,0,0,0,3.1,0l12-6.95c.6-.34.87-.69.8-1.05v-1.8a.36.36,0,0,0,0-.25ZM27.9,155v1.6H28l-.05,2.05H28c0,.3.25.61.75.95l12.2,7a2.83,2.83,0,0,0,3.1,0l12-7q.9-.51.75-1v-1.85a.23.23,0,0,0,0-.2v-.93L59.25,157c.6.33.93.68,1,1.05v.25a2,2,0,0,1-1,1L44,168.18a3.79,3.79,0,0,1-4,0l-8-4.6v0l-7.5-4.3c-.63-.4-1-.79-1-1.15s.33-.8,1-1.2Z"/><path class="cls-55" d="M56.8,154.68v1.85a.23.23,0,0,1,0,.2v1.85q.15.54-.75,1l-12,7a2.83,2.83,0,0,1-3.1,0l-12.2-7c-.5-.34-.75-.65-.75-.95H27.9l.05-2.05H27.9v-2.1a.75.75,0,0,0,.18.4,2.67,2.67,0,0,0,.62.5l12.15,7a3,3,0,0,0,3.15,0l12-7,.23-.13A1.16,1.16,0,0,0,56.8,154.68Z"/></g></g></svg>