<svg xmlns="http://www.w3.org/2000/svg" xmlns:xlink="http://www.w3.org/1999/xlink" viewBox="0 0 209.5 192.6"><defs><style>.cls-1{fill:#f1fcff;}.cls-1,.cls-10,.cls-11,.cls-12,.cls-13,.cls-14,.cls-15,.cls-16,.cls-17,.cls-18,.cls-19,.cls-2,.cls-20,.cls-21,.cls-22,.cls-23,.cls-24,.cls-25,.cls-26,.cls-27,.cls-28,.cls-29,.cls-3,.cls-30,.cls-31,.cls-32,.cls-33,.cls-34,.cls-35,.cls-36,.cls-37,.cls-38,.cls-39,.cls-4,.cls-40,.cls-41,.cls-42,.cls-43,.cls-5,.cls-6,.cls-7,.cls-8,.cls-9{fill-rule:evenodd;}.cls-2{fill:#e3e2e2;}.cls-3{fill:#838383;}.cls-4{fill:#b7b7b7;}.cls-5{fill:#868082;}.cls-6{fill:#d7f0ff;}.cls-7{fill:#fff;}.cls-8{fill:#ffd22e;}.cls-9{fill:#27e0c0;}.cls-10{fill:#85c2f7;}.cls-11{fill:#fffbf0;}.cls-12{fill:#4367c7;}.cls-13{fill:#fabd00;}.cls-14{fill:#ff65a7;}.cls-15{fill:#60bfff;}.cls-16{fill:#e1f8fe;}.cls-17{fill:#566cd2;}.cls-18{fill:#92d7ff;}.cls-19{fill:#f60;}.cls-20{fill:#3a90db;}.cls-21{fill:#f90;}.cls-22{fill:#a9cbf3;}.cls-23{fill:#d8eaff;}.cls-24{fill:#bfd8df;}.cls-25{fill:#039;}.cls-26{fill:#eef6ff;}.cls-27{fill:#c5dffe;}.cls-28{fill:#837c6e;}.cls-29{fill:#713d22;}.cls-30{fill:#bc4074;}.cls-31{fill:#452312;}.cls-32{fill:#ed9870;}.cls-33{fill:#ce7c56;}.cls-34{fill:#d1e7f4;}.cls-35{fill:#ffaa83;}.cls-36{fill:#a7c4e4;}.cls-37{fill:#333;}.cls-38{fill:#87264f;}.cls-39{fill:#62598e;}.cls-40{fill:#cbdfff;}.cls-41{fill:#03f4d0;}.cls-42{fill:url(#linear-gradient);}.cls-43{fill:url(#linear-gradient-2);}</style><linearGradient id="linear-gradient" x1="33.12" y1="165.6" x2="4.15" y2="165.6" gradientUnits="userSpaceOnUse"><stop offset="0.34" stop-color="#00ab8e"/><stop offset="0.57" stop-color="#00e1c0"/></linearGradient><linearGradient id="linear-gradient-2" x1="-431.88" y1="-330.44" x2="-402.83" y2="-330.44" gradientTransform="translate(-374.9 -150.37) rotate(180)" gradientUnits="userSpaceOnUse"><stop offset="0.34" stop-color="#f11f79"/><stop offset="0.57" stop-color="#ff4494"/></linearGradient></defs><g id="Layer_2" data-name="Layer 2"><g id="Layer_4" data-name="Layer 4"><path class="cls-1" d="M75.55,24.88l7.9,4.54v9.23l-1.7,1c-.33.2-.5.67-.5,1.4v16.8a3.56,3.56,0,0,0,1.9,3.3l.3.17V81.4L115.3,99.75v-52l70,40.18V82.85l3.15,1.8V73.13l2.05,1.17v89.45L75.55,97.7ZM126.5,61l-3.35-1.92v49.1l56.1,32.35V137L182.6,139v-49L126.5,57.5ZM162.4,173.4a1.62,1.62,0,0,0,.7,1.2,2.85,2.85,0,0,0,1.75.55,2.65,2.65,0,0,0,1.7-.55,1.6,1.6,0,0,0,.7-1.15v-.2a1.6,1.6,0,0,0-.7-1.15,2.65,2.65,0,0,0-1.7-.55,2.85,2.85,0,0,0-1.75.55,1.62,1.62,0,0,0-.7,1.2Zm-22.25-9.35,11.3-5.5,23,15.7-18.8,9,0,0-.28-.17q.45-1.2,1.05-3a26.92,26.92,0,0,0,1.5-5.85,5.32,5.32,0,0,0-.1-1.35.75.75,0,0,0-.7-.4c-.5,0-2.17.05-5,.25a10.62,10.62,0,0,1-2-.25v-1.7a13.16,13.16,0,0,0,.6-2.55,20.75,20.75,0,0,0,.35-2.85q0-2.06-8.5-1.5C141.67,163.88,140.88,164,140.15,164.05Zm-84.6-40.4a17.1,17.1,0,0,1,2.4,1.1.48.48,0,0,0,.15.1,0,0,0,0,1,0,.05c.43.2.8.38,1.1.55l.65.4.08,0,.57.3a27.33,27.33,0,0,1,2.65,1.42l-19,10.88L16.05,121l25.5-14.63a5,5,0,0,0,.1,1.28A9.44,9.44,0,0,0,42.8,109c.49.53.83.92,1,1.15L43.6,110l-1,.55,1.27.8A12,12,0,0,0,44,113l-2.75-1.7-1,.55,4,2.47c.08.3.16.59.25.88.15.49.32,1,.5,1.43l-6.25-3.88-.9.5,8.1,5.1.25.35a.16.16,0,0,1,0,.1l0,0a.16.16,0,0,1,.05.1l0,0a.16.16,0,0,1,.05.1,4.66,4.66,0,0,1,.4.45c.62.64,1.21,1.21,1.78,1.7l-.38.2,9.25,5.75,1-.5-4-2.53A2.63,2.63,0,0,0,55.55,123.65ZM71,109.8q-.56-.35-1.35-.75a12.41,12.41,0,0,1-1.85-1.1l-.6-1.43.7.43,1-.5-2.25-1.4c-.8-1.91-1.23-3-1.3-3.15q-1.14-2.49-2.15-4.5l14.1,8.77-4.7,2.73-1.15-.7-.9.55,1.13.7Zm8.28-2.38,9.12,5.68-13.3,7.62a5.23,5.23,0,0,0-1.15-1.87,6.09,6.09,0,0,1-1-.85,7.92,7.92,0,0,1-.9-1l-.3-.4,1-.6,2.1,1.3.9-.55-2.1-1.28.2-.12a8,8,0,0,0,1.23-.83l2.22,1.38,1-.55-2.47-1.55a2.2,2.2,0,0,0,.17-.25l.55-1,3.2,2,1-.5L77,111.65ZM67.3,123.1h.5a4.64,4.64,0,0,1,1.1.25.86.86,0,0,1,.6.55l-1.1.62A9.57,9.57,0,0,0,67.3,123.1ZM46.8,105.15l-.7.5a5.78,5.78,0,0,1,.2-1.7c0-.15.07-.3.1-.43l.48-.27c0,.14,0,.29,0,.45C46.87,104,46.83,104.52,46.8,105.15Zm15.6-.85c.54.69,1,1.28,1.3,1.77l-4.62-2.87c0-.36,0-.91,0-1.65l2.28,1.4.82,1.1.15.2A0,0,0,0,0,62.4,104.3Zm-3.25-4.75a10.24,10.24,0,0,0,.75,1.35l-.25-.15-.55.32C59.11,100.44,59.12,99.93,59.15,99.55Zm.93,5.42,4.55,2.85c.12.3.22.59.32.88a5.82,5.82,0,0,1-1.1-.4l-1.05-.45a5.26,5.26,0,0,0-1.8-.45l-.5-.33a15.19,15.19,0,0,0-.35-1.82C60.13,105.17,60.1,105.07,60.08,105Zm41,34.08,30,17.37,0,0-.93.55-14.4,8.3h0L93,152.2l-6.75-4-.55-.32,14-8.05Zm-.65,7.2-1.55.9,8.4,4.85,1.6-.9Zm3.25-1.9-1.55.9,8.4,4.9.1-.05,1.5-.9Zm12.35,4.9-6,3.45,8.5,4.9,6-3.45Zm1.25,9.1-8.5-4.9-6,3.4,8.5,4.9ZM105.7,152.9l-.15-.1-8.3-4.75-1.55.9,8.4,4.9ZM40.6,122.6l-9.15-5.7-.9.55,9.15,5.7Zm4,1,9.3,5.75,1-.55-9.3-5.7Zm-1.6-2.3-9.2-5.7-.9.55,9.15,5.7Zm3.35,12.35,1-.55L38,127.35l-1,.55Zm-6.6-7.25,9.3,5.75,1-.55-9.3-5.75Zm12.75,3.8-9.3-5.8-1,.55,9.25,5.75Zm-14.4-6.1L29,118.35l-.9.55,9.1,5.7Zm-14.4-5,11.1,6.85,1-.5-11.1-6.9Z"/><path class="cls-2" d="M156.8,192.55l-.1,0v-2.4l17.45-10v2.35Zm0-3.15-.1,0v-2.4L174.15,177v2.35l-.7.45Zm-1.45-3.85,0,.1.3-2.4,0,0,0,0,18.8-9-.3,2.25-.5.25Z"/><path class="cls-3" d="M156.7,190.2l-25-14.5.65-.4,24.35,14.15h.15v0l16.65-9.6.7.35Zm0-3.15-25-14.5,2.4-1.35,21.2,14.45h.1v-.1l18.3-8.8.5.25Z"/><path class="cls-4" d="M156.7,192.55l-25-14.45v-2.4l25,14.5ZM132.3,175.3l-.65-.35v-2.4l25,14.5v2.4h0Zm1.75-4.1L132.3,170l.4-2.35,21.57,14.75,1.33.9-.3,2.4h-.05Z"/><path class="cls-5" d="M156.8,192.55v0h-.1Zm-.1-3.1.1,0v0Zm-1.4-3.8,0-.1v.1Z"/><path class="cls-6" d="M131.65,175.7v2.4l25,14.45v0l-3.85,0v0h-.1l-25-14.5v-2.4l3.9-2.25V175l.65.35ZM86.23,117.35l1.87-1,.15-1.9,99.4,57.4-3.55,2Zm-11.68,24.4a26.72,26.72,0,0,1,0-3.75.77.77,0,0,1,0-.15l12-6.9v-.7l0-3v-1l7.5,4.33Zm-60.4-7.58v3l31,17.6,20.67-11.9c.19.55.35,1.08.48,1.6a5.68,5.68,0,0,0-1.55,1.55,2.15,2.15,0,0,0-.35,2,16.46,16.46,0,0,1,.9,3.1,12.26,12.26,0,0,1,.2,3.15,1.41,1.41,0,0,0,1,.35,2,2,0,0,0,.9-.35v-.9a13,13,0,0,0,.45,1.85,2.92,2.92,0,0,0,1,1.5,8.28,8.28,0,0,0,2.5.85,11.3,11.3,0,0,0,2.6,0,2.13,2.13,0,0,0,1.1-.45,1,1,0,0,0,.5-1A2.87,2.87,0,0,0,74.4,154l-.57-.48a2.55,2.55,0,0,0,.52.33,10.52,10.52,0,0,0,1.75.7,3.29,3.29,0,0,0,1.5.15,1.7,1.7,0,0,0,1.15-.85,4.51,4.51,0,0,0-.15-2.4,6.12,6.12,0,0,0-1.2-2.05,9.52,9.52,0,0,1-1.15-1.45c-.43-.67-.77-1.17-1-1.5,0-.33-.12-.9-.25-1.7,0-.22-.07-.42-.1-.6a15.76,15.76,0,0,1,2.35,1.1q4.2,2.45,4.2,5.85t-4.2,5.85a20.25,20.25,0,0,1-10.2,2.4,19.65,19.65,0,0,1-10.2-2.4,9.18,9.18,0,0,1-3.35-3l-7.75,4.48L9,137.15ZM87,150.85l29.5,17L135.6,156v-.6l2.5,1.45-22.45,13L84.8,152.1ZM72.5,152.2l-.3-.4a6,6,0,0,1-.7-2.1,1.1,1.1,0,0,0,.4-.4,1,1,0,0,0,.25-.7,14.56,14.56,0,0,1,.4,2A9.47,9.47,0,0,0,73,152.5a2.31,2.31,0,0,0,.6.75.29.29,0,0,1-.2-.15A3.78,3.78,0,0,1,72.5,152.2Zm-3.25-11.3,1.6-.93a9.71,9.71,0,0,1,0,1.08,3.75,3.75,0,0,0-1.15.4,1,1,0,0,0-.25.25,3.53,3.53,0,0,1-.15-.55C69.29,141.07,69.27,141,69.25,140.9Z"/><path class="cls-7" d="M155.35,183.05l.28.17,0,0-1.33-.9ZM88.05,48.3c0,.07,0,.1,0,.1v2.15s0,0,0,0l-3.4.6,3.4,4.4a.16.16,0,0,0,0,.1V57.8l0,.05H88l-4.6-6.4V51.4a.16.16,0,0,1,0-.1V49.4l0,0V49.3l4.6-.95A.16.16,0,0,1,88.05,48.3Zm4.25.4L89.4,60.35l-.05,0h0L88.55,60s0,0,0-.1l0-.05v-.1l2.9-11.6v-.05a0,0,0,0,1,.05,0l.8.45a.16.16,0,0,1,0,.1l0,.1Zm.45,2.4,4.6,6.3a.16.16,0,0,1,.05.1l0,0v1.9a.16.16,0,0,1,0,.1s0,0-.05,0L92.8,60.6h0a.5.5,0,0,1,0-.15,0,0,0,0,1,0-.05v-2a.16.16,0,0,1,0-.1v0l3.4-.5-3.4-4.5,0,0V51.05a0,0,0,0,0,0,0A.16.16,0,0,1,92.75,51.1Zm10.6,86.6-2.3,1.35-1.38.8,5.68-3.55.23.12Zm30.32,14.87,1.88,1.08-.05,0ZM93,152.2l-6.9-3.9.15-.08Zm37.17,4.8-13.87,8.6-.53-.3Zm-113.42-.6a.72.72,0,0,1,.25.8L16,160l8.9-1a2.22,2.22,0,0,1,1.4.15,1.27,1.27,0,0,1,.8.65.75.75,0,0,1-.25.85,2.57,2.57,0,0,1-1.2.5l-11.85,1.4a2.46,2.46,0,0,1-1.2-.1,1.67,1.67,0,0,1-.85-.5.64.64,0,0,1-.15-.7l1.7-4.4a1.42,1.42,0,0,1,.9-.7,2.4,2.4,0,0,1,1.4-.1A1.91,1.91,0,0,1,16.75,156.4Zm32,16.75a2.26,2.26,0,0,1,1.35.3c.4.23.6.5.6.8a.9.9,0,0,1-.55.8,2.48,2.48,0,0,1-1.4.3l-4.7.05v2.7a1,1,0,0,1-.55.8,3.1,3.1,0,0,1-1.4.3,2.48,2.48,0,0,1-1.4-.3,1,1,0,0,1-.55-.8v-2.7H35.4a2.51,2.51,0,0,1-1.35-.35.83.83,0,0,1,0-1.6,2.26,2.26,0,0,1,1.35-.3h4.7V170.4c0-.3.2-.57.6-.8a2.81,2.81,0,0,1,1.35-.3,3.1,3.1,0,0,1,1.4.3,1,1,0,0,1,.55.85v2.7Z"/><path class="cls-8" d="M162.4,173.4v-.1a1.62,1.62,0,0,1,.7-1.2,2.85,2.85,0,0,1,1.75-.55,2.65,2.65,0,0,1,1.7.55,1.6,1.6,0,0,1,.7,1.15v.2a1.6,1.6,0,0,1-.7,1.15,2.65,2.65,0,0,1-1.7.55,2.85,2.85,0,0,1-1.75-.55A1.62,1.62,0,0,1,162.4,173.4Z"/><path class="cls-9" d="M155.35,183.05l-1.08-.7L132.7,167.6l7.45-3.55c.73-.1,1.52-.17,2.35-.2q8.5-.56,8.5,1.5a20.75,20.75,0,0,1-.35,2.85,13.16,13.16,0,0,1-.6,2.55v1.7a10.62,10.62,0,0,0,2,.25c2.83-.2,4.5-.28,5-.25a.75.75,0,0,1,.7.4,5.32,5.32,0,0,1,.1,1.35,26.92,26.92,0,0,1-1.5,5.85Q155.8,181.85,155.35,183.05Z"/><path class="cls-10" d="M140.85,109.65v-1.8L165.3,121.9v1.9Zm0-18.55V89.3l24.45,14v1.9ZM141,84V82.1l35.75,20.75v1.75Zm0,18.55v-1.85L176.7,121.4v1.75Zm35.75,3.85v1.8L141,87.4V85.65ZM126.5,61V57.5l56.1,32.4v49L179.25,137V91.5Zm58.8,21.83V71.15L78.6,9.88V6.6L188.45,69.65v15ZM83.45,29.42l27.9,16V94l1.2.65,0-48.47,2.8,1.59v52L83.45,81.4V61.32l1.9,1.1a9.46,9.46,0,0,0,4.4,5.13l12.6,7.25q5,2.85,5-2.8V59.1a9.11,9.11,0,0,0-3.25-7.38V49.2a3.46,3.46,0,0,0-1.9-3.25L87.5,37.45c-.63-.37-1.12-.47-1.45-.3l-2.6,1.5Zm20.8,13.23L92.4,35.8v1.35L104.25,44ZM92,74.15a3.22,3.22,0,0,0-.85-.9.87.87,0,0,0-.85,0A.92.92,0,0,0,90,74a2.31,2.31,0,0,0,.35,1.15,2.41,2.41,0,0,0,.85.95.73.73,0,0,0,.85.05c.23-.1.35-.35.35-.75A2.67,2.67,0,0,0,92,74.15Zm2.65,3.25,11.1,6.4V82.45L94.65,76ZM90.3,79.9a.92.92,0,0,0-.35.8,2.31,2.31,0,0,0,.35,1.15,2.91,2.91,0,0,0,.85,1,.87.87,0,0,0,.85,0,.79.79,0,0,0,.35-.75A2.67,2.67,0,0,0,92,80.85a3.22,3.22,0,0,0-.85-.9A.87.87,0,0,0,90.3,79.9Zm4.35,4.2,11.1,6.4V89.15L94.65,82.7Z"/><path class="cls-11" d="M112.5,46.13l0,48.47-1.2-.65V45.45Zm-8.25-3.48V44L92.4,37.15V35.8ZM92,74.15a2.67,2.67,0,0,1,.35,1.25c0,.4-.12.65-.35.75a.73.73,0,0,1-.85-.05,2.41,2.41,0,0,1-.85-.95A2.31,2.31,0,0,1,90,74a.92.92,0,0,1,.35-.8.87.87,0,0,1,.85,0A3.22,3.22,0,0,1,92,74.15Zm2.65,3.25V76l11.1,6.45V83.8ZM90.3,79.9a.87.87,0,0,1,.85,0,3.22,3.22,0,0,1,.85.9,2.67,2.67,0,0,1,.35,1.25.79.79,0,0,1-.35.75.87.87,0,0,1-.85,0,2.91,2.91,0,0,1-.85-1A2.31,2.31,0,0,1,90,80.7.92.92,0,0,1,90.3,79.9Zm4.35,4.2V82.7l11.1,6.45V90.5Z"/><path class="cls-12" d="M161.35,61.4a1.78,1.78,0,0,0-2.95,1.7,5.85,5.85,0,0,0,.85,2.9,5.66,5.66,0,0,0,2.1,2.2,1.82,1.82,0,0,0,2.05.2,2,2,0,0,0,.9-1.9,5.9,5.9,0,0,0-.9-3A6.43,6.43,0,0,0,161.35,61.4Zm10.8,7.4a6.43,6.43,0,0,0-2.05-2.15,1.78,1.78,0,0,0-2.95,1.7,5.85,5.85,0,0,0,.85,2.9,5.66,5.66,0,0,0,2.1,2.2,1.82,1.82,0,0,0,2.05.2,2,2,0,0,0,.9-1.9A5.9,5.9,0,0,0,172.15,68.8Zm3.75,2.85a2.14,2.14,0,0,0-.85,1.95,5.85,5.85,0,0,0,.85,2.9,6,6,0,0,0,1.52,1.82,5.25,5.25,0,0,0,.58.38,3.35,3.35,0,0,0,.6.3,1.56,1.56,0,0,0,1.45-.1A2,2,0,0,0,181,77a5.9,5.9,0,0,0-.9-3A6.43,6.43,0,0,0,178,71.9,2.14,2.14,0,0,0,175.9,71.65Zm0,21.45a2.13,2.13,0,0,0-.4-1.2,2,2,0,0,0-.75-.8.61.61,0,0,0-1.05.6,2.56,2.56,0,0,0,.3,1.15,1.91,1.91,0,0,0,.75.9.75.75,0,0,0,.75,0A.62.62,0,0,0,175.9,93.1Zm-3.3-2.85a2.26,2.26,0,0,0-.8-.8c-.27-.2-.48-.23-.65-.1a.71.71,0,0,0-.4.7,2.52,2.52,0,0,0,.4,1.2,2.35,2.35,0,0,0,.65.75.78.78,0,0,0,.8,0c.27-.07.4-.28.4-.65A1.91,1.91,0,0,0,172.6,90.25Zm-2.3-.4a2.05,2.05,0,0,0-.4-1.15,1.92,1.92,0,0,0-.75-.85.61.61,0,0,0-.7,0,.79.79,0,0,0-.35.75,2,2,0,0,0,.35,1,2,2,0,0,0,.7.85.79.79,0,0,0,.75.1A.65.65,0,0,0,170.3,89.85Zm15-7V87.9l-70-40.18-2.8-1.59-1.15-.68-27.9-16-7.9-4.54-9.2-5.28V2.85l12.25,7L185.3,71.15ZM126.5,61,179.25,91.5v6.35l-56.1-32.4V59.1ZM103.35,36.5v-2L95,29.65V31.7Zm0-4v-2L95,25.6v2Zm0-4.15V26.25L95,21.45v2Z"/><path class="cls-13" d="M175.9,71.65a2.14,2.14,0,0,1,2.1.25,6.43,6.43,0,0,1,2.05,2.15,5.9,5.9,0,0,1,.9,3,2,2,0,0,1-.9,1.9,1.56,1.56,0,0,1-1.45.1,3.35,3.35,0,0,1-.6-.3,5.25,5.25,0,0,1-.58-.38,6,6,0,0,1-1.52-1.82,5.85,5.85,0,0,1-.85-2.9A2.14,2.14,0,0,1,175.9,71.65Zm0,21.45a.62.62,0,0,1-.4.65.75.75,0,0,1-.75,0,1.91,1.91,0,0,1-.75-.9,2.56,2.56,0,0,1-.3-1.15.61.61,0,0,1,1.05-.6,2,2,0,0,1,.75.8A2.13,2.13,0,0,1,175.9,93.1Z"/><path class="cls-14" d="M172.15,68.8a5.9,5.9,0,0,1,.9,3,2,2,0,0,1-.9,1.9,1.82,1.82,0,0,1-2.05-.2,5.66,5.66,0,0,1-2.1-2.2,5.85,5.85,0,0,1-.85-2.9,1.78,1.78,0,0,1,2.95-1.7A6.43,6.43,0,0,1,172.15,68.8ZM141,106V104.2l35.75,20.7v1.8Zm31.65-15.7a1.91,1.91,0,0,1,.4,1.15c0,.37-.13.58-.4.65a.78.78,0,0,1-.8,0,2.35,2.35,0,0,1-.65-.75,2.52,2.52,0,0,1-.4-1.2.71.71,0,0,1,.4-.7c.17-.13.38-.1.65.1A2.26,2.26,0,0,1,172.6,90.25ZM77.2,106.17l2.35-1.37c1-.6,1.38-.58,1,0l-1.37,2.57L77,111.65l-.43.82-.55,1a2.2,2.2,0,0,1-.17.25,3.63,3.63,0,0,1-.7.72,8,8,0,0,1-1.23.83l-.2.12-.9.53-1,.6-7.1,4.1-.05,0a3.25,3.25,0,0,1-.72.32l-.08,0c-.28.11-.38,0-.28-.25a1,1,0,0,0,.08-.15L68.25,112v0a1.48,1.48,0,0,1,.25-.35,3.35,3.35,0,0,1,.77-.72l0,0a8.55,8.55,0,0,1,.85-.63l.15-.07.65-.35.63-.35.92-.55Zm59.45-26.12V89.7c0,1.27-.52,1.6-1.55,1l-7.95-4.55a3,3,0,0,1-1.6-2.85V73.65c0-1.3.53-1.65,1.6-1.05l7.95,4.7A2.91,2.91,0,0,1,136.65,80.05Zm-33,64.3,8.45,4.85-1.5.9-.1.05-8.4-4.9ZM56.8,174a1.09,1.09,0,0,1-.55.62,1,1,0,0,1-.2.13l-12,7a3,3,0,0,1-3.15,0l-12.15-7a2.24,2.24,0,0,1-.62-.5.72.72,0,0,1-.18-.4c0-.3.27-.6.8-.9l12.05-7a3,3,0,0,1,3.15,0l3.5,2v0l5.15,3h0l3.5,2a1.48,1.48,0,0,1,.8.85A.23.23,0,0,1,56.8,174Zm-8.1-.8H44v-2.7a1,1,0,0,0-.55-.85,3.1,3.1,0,0,0-1.4-.3,2.81,2.81,0,0,0-1.35.3c-.4.23-.6.5-.6.8v2.75H35.4a2.26,2.26,0,0,0-1.35.3.83.83,0,0,0,0,1.6,2.51,2.51,0,0,0,1.35.35h4.7v2.7a1,1,0,0,0,.55.8,2.48,2.48,0,0,0,1.4.3,3.1,3.1,0,0,0,1.4-.3,1,1,0,0,0,.55-.8v-2.7l4.7-.05a2.48,2.48,0,0,0,1.4-.3.9.9,0,0,0,.55-.8c0-.3-.2-.57-.6-.8A2.26,2.26,0,0,0,48.7,173.15Z"/><path class="cls-15" d="M170.3,89.85a.65.65,0,0,1-.4.7.79.79,0,0,1-.75-.1,2,2,0,0,1-.7-.85,2,2,0,0,1-.35-1,.79.79,0,0,1,.35-.75.61.61,0,0,1,.7,0,1.92,1.92,0,0,1,.75.85A2.05,2.05,0,0,1,170.3,89.85Zm-67-61.55L95,23.45v-2l8.35,4.8Zm0,4.15L95,27.65v-2l8.35,4.85Zm0,4L95,31.7V29.65l8.35,4.85Z"/><path class="cls-16" d="M141,84,176.7,104.6v-1.75L141,82.1Zm-.1,7.15,24.45,14.15v-1.9l-24.45-14Zm0,18.55L165.3,123.8v-1.9l-24.45-14.05Zm.1-3.7L176.7,126.7v-1.8L141,104.2Zm0-3.45,35.75,20.65V121.4L141,100.65Zm35.75,3.85L141,85.65V87.4l35.75,20.75Zm-53.55-40.9,56.1,32.4v42.7l-56.1-32.35Zm84.25,9L103.2,14.65V0L207.4,59.75Zm-9.9,57.85q0-.7.3-.9c.2-.1.52,0,.95.2l9.5,5.5a2.31,2.31,0,0,1,1.25,2.15v10.9a1.06,1.06,0,0,1-.25.85.48.48,0,0,1-.15.1,1.14,1.14,0,0,1-.85-.2l-2.8-1.65v.05l-6.7-3.95a2.31,2.31,0,0,1-1.25-2.15ZM53.4,23.75q0-.7.3-.9c.2-.1.52,0,.95.2l9.5,5.5A2.31,2.31,0,0,1,65.4,30.7V41.6a1.06,1.06,0,0,1-.25.85.48.48,0,0,1-.15.1,1.14,1.14,0,0,1-.85-.2l-2.8-1.65v0l-6.7-4a2.31,2.31,0,0,1-1.25-2.15Zm83.25,56.3a2.91,2.91,0,0,0-1.55-2.75l-7.95-4.7c-1.07-.6-1.6-.25-1.6,1.05V83.3a3,3,0,0,0,1.6,2.85l7.95,4.55c1,.6,1.55.27,1.55-1Zm0,18.55a2.91,2.91,0,0,0-1.55-2.75l-7.95-4.7c-1.07-.6-1.6-.25-1.6,1v9.65a3,3,0,0,0,1.6,2.85l7.95,4.55c1,.6,1.55.27,1.55-1Z"/><path class="cls-17" d="M136.65,98.6v9.65c0,1.27-.52,1.6-1.55,1l-7.95-4.55a3,3,0,0,1-1.6-2.85V92.2c0-1.3.53-1.65,1.6-1l7.95,4.7A2.91,2.91,0,0,1,136.65,98.6Zm-3.25,56.55-2.3,1.3,0,0-30-17.37,2.3-1.35Z"/><path class="cls-18" d="M161.35,61.4a6.43,6.43,0,0,1,2.05,2.15,5.9,5.9,0,0,1,.9,3,2,2,0,0,1-.9,1.9,1.82,1.82,0,0,1-2.05-.2,5.66,5.66,0,0,1-2.1-2.2,5.85,5.85,0,0,1-.85-2.9,1.78,1.78,0,0,1,2.95-1.7Z"/><path class="cls-19" d="M99.35,69.85a1.86,1.86,0,0,0,.35-1.3V51.75a3.56,3.56,0,0,0-1.9-3.3L90.25,44.1v-.05L83.15,40a1.79,1.79,0,0,0-1.4-.3l1.7-1,2.6-1.5c.33-.17.82-.07,1.45.3L102.15,46a3.46,3.46,0,0,1,1.9,3.25V66c0,.87-.22,1.35-.65,1.45l-1.9,1.1a.34.34,0,0,1-.25.15Z"/><path class="cls-20" d="M85.35,62.42,93.5,67.2v0l4.3,2.5c.57.33,1,.43,1.3.3a2.16,2.16,0,0,0,.25-.1l1.9-1.15a.34.34,0,0,0,.25-.15l1.9-1.1c.43-.1.65-.58.65-1.45V51.72a9.11,9.11,0,0,1,3.25,7.38V72q0,5.66-5,2.8l-12.6-7.25A9.46,9.46,0,0,1,85.35,62.42Z"/><path class="cls-21" d="M85.35,62.42l-1.9-1.1-.3-.17a3.56,3.56,0,0,1-1.9-3.3V41.05c0-.73.17-1.2.5-1.4a1.79,1.79,0,0,1,1.4.3l7.1,4.1v.05l7.55,4.35a3.56,3.56,0,0,1,1.9,3.3v16.8a1.86,1.86,0,0,1-.35,1.3,2.16,2.16,0,0,1-.25.1c-.3.13-.73,0-1.3-.3l-4.3-2.5v0Zm7-13.72v-.05l0-.1a.16.16,0,0,0,0-.1L91.4,48a0,0,0,0,0-.05,0v.05l-2.9,11.6v.1l0,.05c0,.07,0,.1,0,.1l.75.45h0l.05,0Zm-4.25-.4a.16.16,0,0,0-.1.05l-4.6.95v.05l0,0v1.9a.16.16,0,0,0,0,.1v.05l4.6,6.4h.1l0-.05V55.65a.16.16,0,0,1,0-.1l-3.4-4.4,3.4-.6s0,0,0,0V48.4S88.05,48.37,88.05,48.3Zm4.7,2.8a.16.16,0,0,0,0-.1,0,0,0,0,1,0,0V53.2l0,0,3.4,4.5-3.4.5v0a.16.16,0,0,0,0,.1v2a0,0,0,0,0,0,.05.5.5,0,0,0,0,.15h0l4.55-1.05s.05,0,.05,0a.16.16,0,0,0,0-.1v-1.9l0,0a.16.16,0,0,0-.05-.1Z"/><path class="cls-22" d="M45.1,154l-.2.1L14.15,136.35v-3l30.75,17.7.15-.05ZM14.2,127.25,44.9,145H45l0,3-.1.05L14.2,130.3Zm1.85-6.3L44.2,138.4,44,141.6l-5.6-3.45L16,124.4l0-1.25Zm48.58-13.13L60.08,105a.89.89,0,0,1-.08-.17,2.58,2.58,0,0,0-1-1.35c0-.07,0-.15,0-.25l4.62,2.87c0,.07.07.12.1.18A17.13,17.13,0,0,1,64.63,107.82ZM61.38,103l-2.28-1.4v-.48l.55-.32.25.15c.19.31.41.63.65.95S61,102.44,61.38,103ZM43.92,111.3l-1.27-.8,1-.55.23.15.17.2v0C44,110.67,43.94,111,43.92,111.3ZM44,113c0,.24.06.47.1.7v.15l0,.05c0,.14.07.29.1.42l-4-2.47,1-.55Zm16.55-5.6c0-.11,0-.22,0-.33l.5.33A1.69,1.69,0,0,0,60.55,107.4Zm6-2.35,2.25,1.4-1,.5-.7-.43Zm6,3.85-.92.55-1.13-.7.9-.55Zm2.63,5.57a3.63,3.63,0,0,0,.7-.72l2.47,1.55-1,.55Zm-1.43,1,2.1,1.28-.9.55L72.8,116ZM77,111.65,80.7,114l-1,.5-3.2-2Zm39.47,56.15-.15-2.2,13.87-8.6.93-.55,2.3-1.3,2.15-1.27,0,1.52v.6Zm19-14.13.05,0v0ZM59.25,125.45c.27.14.52.25.73.35l-.08,0Zm-10.62-4.2a13.8,13.8,0,0,0,1.12.9,10.4,10.4,0,0,0,3.4,1.8,1.78,1.78,0,0,0,1.25.25l.08,0,4,2.53-1,.5-9.25-5.75Zm-24.93-2.2.95-.55,11.1,6.9-1,.5Zm14.4,5-1,.55-9.1-5.7.9-.55Zm14.4,6.1-1,.5-9.25-5.75,1-.55Zm-12.75-3.8,1-.55,9.3,5.75-1,.55Zm6.6,7.25-9.3-5.7,1-.55,9.35,5.7ZM43,121.25l-1,.55-9.15-5.7.9-.55Zm1.6,2.3.95-.5,9.3,5.7-1,.55Zm-4-1-.9.55-9.15-5.7.9-.55ZM46,118.35l-8.1-5.1.9-.5L45,116.63v0A11.24,11.24,0,0,0,46,118.35Z"/><path class="cls-23" d="M75.05,120.72l13.3-7.62-.1,1.3-.15,1.9-1.87,1-.38.22-10.45,6a9.44,9.44,0,0,0-.05-1.42A6.36,6.36,0,0,0,75.05,120.72Zm11.4.43-11.6,6.65a13.12,13.12,0,0,1,.25-2c.1-.43.17-.86.23-1.28l11.12-6.37ZM74.8,130.88l11.65-6.68v3l-11.72,6.72c0-.35,0-.67,0-1S74.79,131.91,74.8,130.88Zm41.5,34.72.15,2.2-29.5-17-.7-.4-.15-2.15,6.9,3.9,22.75,13.1h0ZM86.5,130.25v.7l-12,6.9q0-.39.06-.72l11.87-6.83Zm-16.33,6.3-1.5.85c-.06-.46-.14-1-.22-1.5s0-1,0-1.35l1.1-.63c0,.16.06.31.1.48C69.73,134.86,69.92,135.58,70.17,136.55Zm.63,2.95c0,.16,0,.32,0,.47l-1.6.93c0-.19-.08-.41-.12-.65l1.64-.95Zm-2.4-15,1.1-.62a.65.65,0,0,1,0,.2,4.25,4.25,0,0,0-.7,1.25,5.6,5.6,0,0,0-.4-.75Zm.45,6.73-.47.27c0-.67.06-1.28.12-1.82l.1-.2.25,1.7ZM44.2,138.4l19-10.88.5.33a2.66,2.66,0,0,1-.5,1,2.25,2.25,0,0,0-.5,1c-.07.36-.13.73-.18,1.1L44.13,141.5l-.18.1Zm18.5-3.63L45,145l-.05-3,17.55-10q0,.53,0,1A11.91,11.91,0,0,0,62.7,134.77ZM45,148,63.58,137.3c.42.95.77,1.76,1,2.45L45.05,151Zm20.77-5L45.1,154.8V154l20.48-11.73C65.64,142.48,65.71,142.69,65.77,142.9Z"/><path class="cls-24" d="M100.4,146.25l8.45,4.85-1.6.9-8.4-4.85Zm5.3,6.65-1.6.95L95.7,149l1.55-.9,8.3,4.75Zm11.55,5.45-6,3.4-8.5-4.9,6-3.4Zm-1.25-9.1,8.5,4.9-6,3.45-8.5-4.9Z"/><polygon class="cls-25" points="133.68 152.57 135.5 153.68 135.55 153.7 135.7 153.8 135.55 153.88 133.4 155.15 103.35 137.7 105.58 136.43 105.65 136.4 133.68 152.57"/><path class="cls-26" d="M86.45,118.15l-11.12,6.37c0-.32.06-.64.07-1l10.45-6,.55.33a.21.21,0,0,1,0,.15v0l0-.15Zm-72.25,6,.15-.1,1.63-.95,0,1.25,22.4,13.75L14.2,124.25Zm48.25,7.7L44.9,142l-.77-.45L62.52,131C62.49,131.26,62.47,131.58,62.45,131.9Z"/><path class="cls-27" d="M74.85,127.8l11.6-6.65v3L74.8,130.88V129.4C74.8,128.83,74.82,128.29,74.85,127.8Zm-60.7,5.55,0-3L44.9,148,45,148l0-3H44.9l-30.7-17.7v-3l24.15,13.9L44,141.6l.18-.1.77.45.05,3L62.7,134.77A12.26,12.26,0,0,0,63,136c.21.46.4.89.58,1.3L45,148l0,3.05-.15.05ZM45.1,154l-.05-3,19.58-11.25c.06.16.11.31.17.45q.44,1.08.78,2.07L45.1,154v.8L14.15,137.2v-.85L44.9,154.1Zm29.48-16.87c0-.68.07-1.23.07-1.63,0-.57.06-1.1.08-1.58l11.72-6.72,0,3,0,.05Zm-5.08-3.21-1.1.63c0-1-.05-1.61-.05-1.75,0-.45,0-.87,0-1.28l.47-.27a1.18,1.18,0,0,1,.07.2c.08.22.16.46.23.7C69.23,132.66,69.35,133.25,69.5,133.92Zm-.83,3.48,1.5-.85s0,0,0,0q.38,1.52.57,2.7l-1.64.95C69,139.54,68.86,138.59,68.67,137.4Z"/><path class="cls-28" d="M14.35,124.1l-.15.1a.21.21,0,0,1,.05-.15A.16.16,0,0,1,14.35,124.1Z"/><path class="cls-29" d="M51.3,83.7A2,2,0,0,1,50,83.15a4.25,4.25,0,0,1-.8-1.15c-.07-.13-.15-.3-.25-.5a1,1,0,0,0,.15-.5,6.76,6.76,0,0,1,.1-1.8,8,8,0,0,1,1.15-2.15l.1-.1.05,0a.62.62,0,0,0,.25,0h.15s0,0,.07,0a4.92,4.92,0,0,0-.47,1.83s.27,1.2.8,3.5a7.2,7.2,0,0,0,.35.85,1,1,0,0,1-.3,0ZM52,74a.49.49,0,0,0-.2,0c-.1-.33-.37-.48-.8-.45a3.59,3.59,0,0,0-2,1,8.17,8.17,0,0,0-2.85,6.6v.6h-.4a4.53,4.53,0,0,0-.25-1.35c-.17-.6-.3-1.05-.4-1.35A3.26,3.26,0,0,1,45,77.7a2,2,0,0,1,.55-1.2c0-.07.13-.38.3-1a2.68,2.68,0,0,1,.45-.85,4.07,4.07,0,0,1,2.25-1.3,13.48,13.48,0,0,1,2.6-.2.7.7,0,0,1,.6.25c.07.1.18.27.35.5Zm9.2,7v0a8.51,8.51,0,0,1-4.1,1.3A6.45,6.45,0,0,1,54,81.1c-.4-.3-.73-.53-1-.7A4.66,4.66,0,0,1,52.2,78a8,8,0,0,1,.35-1.3c.23-.7.35-1.07.35-1.1v-.4a.49.49,0,0,1,.2,0l.2-.1a4.26,4.26,0,0,1,3.55.15,7.21,7.21,0,0,1,2.8,2.25,10.06,10.06,0,0,1,1.15,1.6,3.28,3.28,0,0,1,.4,1.9Z"/><path class="cls-30" d="M47.15,85.4a1,1,0,0,0-.2.45,2.16,2.16,0,0,0,.2,2,3.38,3.38,0,0,0,.9,1,4.09,4.09,0,0,0,1.15.6,14,14,0,0,0,2.7.4,4,4,0,0,0,.6,0A5.87,5.87,0,0,0,55.1,89l.4-.3.55.3a5.47,5.47,0,0,1-2.4,1.5,9.24,9.24,0,0,1-3,.3,4.18,4.18,0,0,1-1.27-.28l-.06,0h0a4,4,0,0,1-.7-.15,4.4,4.4,0,0,1-1.9-1.6A6,6,0,0,1,46,87a1.49,1.49,0,0,1-.15-.45ZM51.8,74.05a.49.49,0,0,1,.2,0h0a1,1,0,0,1,.7.4,2.75,2.75,0,0,1,.55.65l-.2.1a.49.49,0,0,0-.2,0,3.63,3.63,0,0,0-.35.2l0,0a2.21,2.21,0,0,0-.3.25l-.45.45-.4.55a.66.66,0,0,1-.22.22A.48.48,0,0,1,51,77l0,0s0,0-.07,0H50.7a.62.62,0,0,1-.25,0l-.05,0a.51.51,0,0,1-.2-.35A2.68,2.68,0,0,1,50.65,75h.05v0a2.77,2.77,0,0,1,1-.8A.16.16,0,0,0,51.8,74.05Zm.6,44.55v0a5.86,5.86,0,0,0-.6-.45c-.51-.36-1-.71-1.42-1.08l-.18-.14a11.28,11.28,0,0,1-2.72-3.38,2,2,0,0,1-.13-.25,5.44,5.44,0,0,0,.95.65l2.35,1.55.8.65a.65.65,0,0,1,.2.15.28.28,0,0,1,.15.15l.35.3c.23.23.43.45.6.65v.05a.48.48,0,0,1-.1.15,3.53,3.53,0,0,0-.15.55C52.46,118.26,52.43,118.43,52.4,118.6Zm6.75-3.75-1.2.7a4.11,4.11,0,0,0-1.65-.35l-.6-.1h-.6a1.74,1.74,0,0,1-1.15-.4l-.25-.25-.15-.1-.15-.15-.2-.2-.2-.2c-.6-.63-1.27-1.4-2-2.3l-1.65-2-.43-.53-.52-.62a9.33,9.33,0,0,0,3.05.45h.2a13.83,13.83,0,0,0,1.6-.12,12,12,0,0,0,2-.5,9.07,9.07,0,0,0,1.07-.46,10.21,10.21,0,0,0,1.7-1l.2-.15q.33-.24.6-.48a5.61,5.61,0,0,0,1.12-1.12l.08-.1a.89.89,0,0,0,.08.17c0,.1.05.2.07.28a15.19,15.19,0,0,1,.35,1.82c0,.11,0,.22,0,.33a5.3,5.3,0,0,0-.9.27,3.48,3.48,0,0,0-1.5,1.15,4,4,0,0,0-.45.85,5.32,5.32,0,0,0-.32,1.5c0,.22,0,.45,0,.68a2.9,2.9,0,0,0,.38.78c.2.34.49.8.87,1.37Z"/><path class="cls-31" d="M50.4,77l-.1.1a8,8,0,0,0-1.15,2.15,6.76,6.76,0,0,0-.1,1.8,1,1,0,0,1-.15.5v0l-.25-.6a0,0,0,0,0,0,0v-.15a4.67,4.67,0,0,0-1.35,1.1,1.69,1.69,0,0,1-.75,0l-.25,0h-.1v-.6A8.17,8.17,0,0,1,49,74.55a3.59,3.59,0,0,1,2-1c.43,0,.7.12.8.45h0l0,0a2.77,2.77,0,0,0-1,.8v0h-.05a2.68,2.68,0,0,0-.45,1.65A.51.51,0,0,0,50.4,77Zm4,8.1a.49.49,0,0,1-.2,0h-.05L54,85a2.18,2.18,0,0,1-1-1l-.2-.15a1.77,1.77,0,0,0-.6-.55,1.44,1.44,0,0,0-.65-.15,7.2,7.2,0,0,1-.35-.85c-.53-2.3-.8-3.47-.8-3.5A4.92,4.92,0,0,1,50.92,77l0,0a.48.48,0,0,0,.18-.08.66.66,0,0,0,.22-.22l.4-.55.45-.45a2.21,2.21,0,0,1,.3-.25l0,0a3.63,3.63,0,0,1,.35-.2v.4s-.12.4-.35,1.1A8,8,0,0,0,52.2,78,4.66,4.66,0,0,0,53,80.4c.27.17.6.4,1,.7a6.45,6.45,0,0,0,3.15,1.25,8.51,8.51,0,0,0,4.1-1.3A2.61,2.61,0,0,1,61,82l-1.2,1.1a9.14,9.14,0,0,1-2.6.75l0,.1a2.18,2.18,0,0,1-1.25.85A9.44,9.44,0,0,1,54.4,85.05Z"/><path class="cls-32" d="M74.52,137.85a.77.77,0,0,0,0,.15,26.72,26.72,0,0,0,0,3.75c0,.45.12.86.2,1.25a9.73,9.73,0,0,0,.15,1.1c0,.18.06.38.1.6.13.8.22,1.37.25,1.7a4.17,4.17,0,0,0,.65,1.4.16.16,0,0,0,0,.1,5.15,5.15,0,0,1-1.35,1.35l-1.8-3a15.63,15.63,0,0,1-1.25-2.9,4.76,4.76,0,0,1-.25-1.45c-.07-1-.1-1.47-.1-1.5-.07-.2-.13-.37-.2-.52a1.91,1.91,0,0,0-.2-.38l0-.2q-.19-1.19-.57-2.7s0,0,0,0c-.25-1-.44-1.69-.57-2.15,0-.17-.07-.32-.1-.48-.15-.67-.27-1.26-.35-1.77-.07-.24-.15-.48-.23-.7a1.09,1.09,0,0,1,.08.15,4.65,4.65,0,0,0,.58-.78,10.09,10.09,0,0,0,1-2.72c0-.33.08-.63.13-.93s.08-.69.12-1q.3-2.44.3-2.52A2.46,2.46,0,0,0,71,123a2.34,2.34,0,0,0-.07-.32,4.46,4.46,0,0,1-.2-1,3.5,3.5,0,0,1,1.3-3,2.23,2.23,0,0,1,.3-.2,4.71,4.71,0,0,0,.53-.43L73,118a6.09,6.09,0,0,0,1,.85,5.23,5.23,0,0,1,1.15,1.87,6.36,6.36,0,0,1,.3,1.43,9.44,9.44,0,0,1,.05,1.42c0,.31,0,.63-.07,1s-.13.85-.23,1.28a13.12,13.12,0,0,0-.25,2c0,.49,0,1,0,1.6v1.48c0,1,0,1.72,0,2.07s0,.62,0,1,0,1-.08,1.58c0,.4,0,.95-.07,1.63Q74.55,137.46,74.52,137.85ZM61.2,83.1a6.06,6.06,0,0,1-.7.5,9.54,9.54,0,0,1-5.45,1.55,2,2,0,0,1-.65-.1,9.44,9.44,0,0,0,1.45-.3,2.18,2.18,0,0,0,1.25-.85l0-.1a9.14,9.14,0,0,0,2.6-.75L61,82a2.61,2.61,0,0,0,.25-.9v0a.62.62,0,0,1,0,.25A6.54,6.54,0,0,1,61.2,83.1Zm-1.05,8.1a5.09,5.09,0,0,1-.9-3.3.64.64,0,0,0,.45-.45,3.56,3.56,0,0,0,0-.7,3,3,0,0,1,0-.75,1,1,0,0,1,.35-.7c.2,2.1.32,3.33.35,3.7a20.52,20.52,0,0,0,.65,3,.5.5,0,0,0,0,.15,3,3,0,0,0,.15.45l-.1-.1-.1-.1-.1-.1a3.87,3.87,0,0,1-.35-.45l-.3-.4A1.82,1.82,0,0,0,60.15,91.2Zm-.25,9.7a10.24,10.24,0,0,1-.75-1.35,6.36,6.36,0,0,1,.8-.85c.2-.2.5-.47.9-.8a4.17,4.17,0,0,1,.4-.35,4.57,4.57,0,0,0,.65-.8l.45-.7.45.9a1.82,1.82,0,0,0,.2.25l0,.1c-.08.21-.17.43-.25.65a12.66,12.66,0,0,0-.8,3.85,2.38,2.38,0,0,0,.05.37c0,.3.12.73.25,1.28.06.26.13.54.2.85a0,0,0,0,1,0,0l-.15-.2-.82-1.1c-.39-.51-.67-.87-.83-1.1S60.09,101.21,59.9,100.9Zm-8-11.1a14,14,0,0,1-2.7-.4,4.09,4.09,0,0,1-1.15-.6,3.38,3.38,0,0,1-.9-1,2.16,2.16,0,0,1-.2-2h0a4.37,4.37,0,0,1,1.9-.4,2.82,2.82,0,0,1,2.7,1.75,4.41,4.41,0,0,1,.45,1.9,2.08,2.08,0,0,1-.1.6A.16.16,0,0,0,51.9,89.8Zm-5.2,12.5c0,.14-.13.55-.3,1.22,0,.13-.06.28-.1.43a5.78,5.78,0,0,0-.2,1.7,4.09,4.09,0,0,0,.95,1.35l.1.1v.05l.2.1v0a2.88,2.88,0,0,1-2.1-1.65c-.18-.54-.31-1-.4-1.23s-.15-.45-.15-.47a12,12,0,0,1,3.35-9,5.61,5.61,0,0,1,1.45-1.1c.07.13.13.28.2.45l0,.1.1.3v.1a1.34,1.34,0,0,1-.6,1.55,3,3,0,0,1-1.7.5Q47.1,99,46.7,102.3Zm8.85,21.35-1.2-.6a6.81,6.81,0,0,1-1.15-.7,4.42,4.42,0,0,1-.55-1,5.5,5.5,0,0,1-.3-1.33v-.45s0,0,0,0a2,2,0,0,1,0-.6,1.63,1.63,0,0,1,0-.35c0-.17.06-.34.1-.5a3.53,3.53,0,0,1,.15-.55,1.83,1.83,0,0,1,.4,0,7.14,7.14,0,0,0,.8.67,1.71,1.71,0,0,0,.2.18q1.05.8,1.35,1c.23.2.58.48,1.05.85a2.17,2.17,0,0,0,1.2.55,2.14,2.14,0,0,0-.8-1.25s0,0-.05-.05a6.24,6.24,0,0,0-.65-.5,6,6,0,0,1-.5-.65,3.69,3.69,0,0,1,1.65,1.1,4.3,4.3,0,0,0,1.65,1.1l-.05-.3v-.15a2.17,2.17,0,0,0-.65-1l-.1-.1a3.85,3.85,0,0,1-.5-.5l-.1-.15a.75.75,0,0,1-.2-.3l.7.45c.1.13.25.35.45.65a3.28,3.28,0,0,0,.6.7,1.3,1.3,0,0,0,.85.2,3.53,3.53,0,0,0-.15-.55l2.6,1.55a1.66,1.66,0,0,0,1.4-.15l.08,0a3.25,3.25,0,0,0,.72-.32l1.15.9-.48.3-.52.25a3,3,0,0,1-.52.2l-.13.05-.8.25-1.17.23-1.23.22-.2.05c-.68.15-1.06.3-1.15.45a2.91,2.91,0,0,0-.17.8c0,.27-.08.62-.13,1-.3-.17-.67-.35-1.1-.55a0,0,0,0,0,0-.05.48.48,0,0,1-.15-.1A17.1,17.1,0,0,0,55.55,123.65ZM72.2,151.8l.3.4a.91.91,0,0,1-.3,1.25,5.56,5.56,0,0,1-1.35.75,1.68,1.68,0,0,1-1.45-.3,2.62,2.62,0,0,1-1-1.2c-.27-.6-.62-1.48-1-2.65s-.88-2.07-1.15-2.6A3.42,3.42,0,0,1,66,146a5.6,5.6,0,0,1,.3-1.45c.3.7.67,1.73,1.1,3.1.1.3.38,1.27.85,2.9.6,1.47,1.47,2.2,2.6,2.2A4.49,4.49,0,0,0,72.2,151.8Z"/><path class="cls-33" d="M47,85.85a1,1,0,0,1,.2-.45A31.13,31.13,0,0,0,50,83.15a2,2,0,0,0,1.35.55,9.56,9.56,0,0,0,1.6,2.9,7.78,7.78,0,0,0,2.6,2.1l-.4.3a5.87,5.87,0,0,1-2.6.75,4,4,0,0,1-.6,0,.16.16,0,0,1,.05-.1,2.08,2.08,0,0,0,.1-.6,4.41,4.41,0,0,0-.45-1.9,2.82,2.82,0,0,0-2.7-1.75,4.37,4.37,0,0,0-1.9.4Zm18.7,25.25-3.1,1.8a.5.5,0,0,0,.05-.15,6.48,6.48,0,0,1,2.7-2.8A2.84,2.84,0,0,0,65.65,111.1Zm1.65,12a12.22,12.22,0,0,0-1.5-1.45l0-.05-1.15-.9.05,0,7.1-4.1.3.4a7.92,7.92,0,0,0,.9,1l-.07.07a4.71,4.71,0,0,1-.53.43,2.23,2.23,0,0,0-.3.2,3.5,3.5,0,0,0-1.3,3,4.46,4.46,0,0,0,.2,1A2.34,2.34,0,0,1,71,123a2.46,2.46,0,0,1,.13.63s-.1.89-.3,2.52c0,.31-.08.64-.12,1s-.09.6-.13.93a10.09,10.09,0,0,1-1,2.72,4.65,4.65,0,0,1-.58.78,1.09,1.09,0,0,0-.08-.15,1.18,1.18,0,0,0-.07-.2v-.05l-.25-1.7a11.9,11.9,0,0,0,.38-1.33,9.36,9.36,0,0,0,.12-1v0a6.26,6.26,0,0,0-.25-1.8,4.25,4.25,0,0,1,.7-1.25.65.65,0,0,0,0-.2.86.86,0,0,0-.6-.55,4.64,4.64,0,0,0-1.1-.25ZM70.85,140c0-.15,0-.31,0-.47a1.91,1.91,0,0,1,.2.38c.07.15.13.32.2.52,0,0,0,.53.1,1.5a4.76,4.76,0,0,0,.25,1.45,15.63,15.63,0,0,0,1.25,2.9l1.8,3A5.15,5.15,0,0,0,76,147.9a4.64,4.64,0,0,1,.6,1.25,2.15,2.15,0,0,1-1,1.3,1.93,1.93,0,0,1-1.55.4,1.33,1.33,0,0,1-.85-.8,7.7,7.7,0,0,1-.45-1.05c-.17-.47-.4-1.05-.7-1.75s-.63-1.23-.8-1.6a11,11,0,0,1-1-3.55.67.67,0,0,1,.2-.55,2.32,2.32,0,0,0,.4-.5A9.71,9.71,0,0,0,70.85,140Z"/><path class="cls-34" d="M46.65,88.75a5.72,5.72,0,0,0-1.5-.4l-.7-.1,1-1.3a4.17,4.17,0,0,1,.35-.4A1.49,1.49,0,0,0,46,87,6,6,0,0,0,46.65,88.75Zm15.7,7.3-.45.7a4.57,4.57,0,0,1-.65.8A23,23,0,0,0,57,99.15a13.35,13.35,0,0,1-4.75,1.55,1.78,1.78,0,0,1-.67-.15,4,4,0,0,1-.78-.45c-.57-.43-.85-.8-.85-1.1a8.35,8.35,0,0,1,.6-2.2,8.73,8.73,0,0,0,.55-2.25,5.39,5.39,0,0,0-1.77-4,4.18,4.18,0,0,0,1.27.28,9.24,9.24,0,0,0,3-.3,10.56,10.56,0,0,0,5.15,1,4,4,0,0,0,1.35-.25,1.82,1.82,0,0,1,.2.25l.3.4a3.87,3.87,0,0,0,.35.45l.1.1.1.1.1.1a10.35,10.35,0,0,1,1,1.65A2.26,2.26,0,0,1,62.35,96.05Z"/><path class="cls-35" d="M47.35,107.3a2.21,2.21,0,0,1,.3.25l.4.35a1.82,1.82,0,0,1,.2.25l.15.15.52.62.43.53,1.65,2c.73.9,1.4,1.67,2,2.3l.2.2.2.2.15.15.15.1.25.25a1.74,1.74,0,0,0,1.15.4h.6l.6.1a4.11,4.11,0,0,1,1.65.35l.4.15.25.1a7.32,7.32,0,0,1,1.8,1.35l.1.1-.6.4a6.77,6.77,0,0,1,.4.8,1.39,1.39,0,0,1,.12.43,1.49,1.49,0,0,1,0,.47,2.2,2.2,0,0,1-1.1-.9L59,118a2.09,2.09,0,0,0-.7-.6l.17.28c.21.29.48.65.83,1.07a4.89,4.89,0,0,1,.52.93l0,0a3.53,3.53,0,0,1,.15.55,1.3,1.3,0,0,1-.85-.2,3.28,3.28,0,0,1-.6-.7c-.2-.3-.35-.52-.45-.65s-.07-.1-.1-.1l-.12-.15a1.29,1.29,0,0,0-.63-.4l0,0a.41.41,0,0,0,.12.18.75.75,0,0,0,.2.3l.1.15a3.85,3.85,0,0,0,.5.5l.1.1a2.17,2.17,0,0,1,.65,1v.15l.05.3a4.3,4.3,0,0,1-1.65-1.1,3.69,3.69,0,0,0-1.65-1.1,6,6,0,0,0,.5.65,6.24,6.24,0,0,1,.65.5s0,0,.05.05a2.14,2.14,0,0,1,.8,1.25,2.17,2.17,0,0,1-1.2-.55c-.47-.37-.82-.65-1.05-.85s-.65-.52-1.35-1a1.71,1.71,0,0,1-.2-.18,7.14,7.14,0,0,1-.8-.67,1.83,1.83,0,0,0-.4,0,.48.48,0,0,0,.1-.15v-.05c-.17-.2-.37-.42-.6-.65l-.35-.3a.28.28,0,0,0-.15-.15.65.65,0,0,0-.2-.15l-.8-.65L48.3,113.9a5.44,5.44,0,0,1-.95-.65,7.94,7.94,0,0,1-1.35-1,9.46,9.46,0,0,1-2-2l-.17-.2c-.2-.23-.54-.62-1-1.15a9.44,9.44,0,0,1-1.15-1.35,5,5,0,0,1-.1-1.28,10.48,10.48,0,0,1,.2-1.62l.3-1.45a8.58,8.58,0,0,0,.15-1.45,18,18,0,0,0,.3-2.5c.1-1.2.18-2,.25-2.5a6.67,6.67,0,0,0,.15-1.5V93.75a7.7,7.7,0,0,1,.45-3,10.33,10.33,0,0,1,.65-1c.33-.43.57-.75.7-1a13.69,13.69,0,0,1,3.15,2.55l.1.1a0,0,0,0,0,0,0l.1.1a8.35,8.35,0,0,1,1.4,2.25A5.61,5.61,0,0,0,48.05,95a12,12,0,0,0-3.35,9s0,.18.15.47.22.69.4,1.23A2.88,2.88,0,0,0,47.35,107.3Zm12.75-22a1,1,0,0,0-.35.7,3,3,0,0,0,0,.75,3.56,3.56,0,0,1,0,.7.64.64,0,0,1-.45.45,2.8,2.8,0,0,0-1.1.65,2.79,2.79,0,0,1-1,.7,1.78,1.78,0,0,1-.85-.15,5.92,5.92,0,0,0-.75-.4,7.78,7.78,0,0,1-2.6-2.1,9.56,9.56,0,0,1-1.6-2.9v-.45a1,1,0,0,0,.3,0,1.44,1.44,0,0,1,.65.15,1.77,1.77,0,0,1,.6.55l.2.15a2.18,2.18,0,0,0,1,1l.15.1h.05a.49.49,0,0,0,.2,0,2,2,0,0,0,.65.1A9.54,9.54,0,0,0,60.5,83.6a6.06,6.06,0,0,0,.7-.5.49.49,0,0,1-.05.2A3.69,3.69,0,0,1,60.1,85.3Zm3.6,20.77c-.33-.49-.76-1.08-1.3-1.77-.07-.31-.14-.59-.2-.85-.13-.55-.21-1-.25-1.28a2.38,2.38,0,0,1-.05-.37A12.66,12.66,0,0,1,62.7,98c.08-.22.17-.44.25-.65l0-.1.1.2q1,2,2.15,4.5c.07.19.5,1.24,1.3,3.15l.6,1.47.6,1.43a12.41,12.41,0,0,0,1.85,1.1q.8.4,1.35.75l-.65.35-.15.07a8.55,8.55,0,0,0-.85.63l-1-.55c-.43-.27-1.18-.1-2.25.5l-.45.3A2.84,2.84,0,0,1,65.3,110a4.93,4.93,0,0,0-.15-.5v-.1l-.05,0a3.34,3.34,0,0,1-.15-.6c-.1-.29-.2-.58-.32-.88a17.13,17.13,0,0,0-.83-1.57C63.77,106.19,63.73,106.14,63.7,106.07Zm3.6,17a9.57,9.57,0,0,1,1.1,1.42l0,.08a5.6,5.6,0,0,1,.4.75,6.26,6.26,0,0,1,.25,1.8v0a9.36,9.36,0,0,1-.12,1,11.9,11.9,0,0,1-.38,1.33l-.1.2c-.06.54-.1,1.15-.12,1.82,0,.41,0,.83,0,1.28,0,.14,0,.73.05,1.75,0,.39,0,.84,0,1.35s.16,1,.22,1.5c.19,1.19.34,2.14.46,2.85,0,.24.08.46.12.65s0,.17,0,.25a3.53,3.53,0,0,0,.15.55,24,24,0,0,0,1.3,4.55,6.72,6.72,0,0,1,.4,1.5c.07.37.15.88.25,1.55l.1.4a6,6,0,0,0,.7,2.1,4.49,4.49,0,0,1-1.4.95c-1.13,0-2-.73-2.6-2.2-.47-1.63-.75-2.6-.85-2.9-.43-1.37-.8-2.4-1.1-3.1v-.05c-.13-.52-.29-1.05-.48-1.6-.06-.21-.13-.42-.19-.63q-.35-1-.78-2.07c-.06-.14-.11-.29-.17-.45-.28-.69-.63-1.5-1-2.45-.18-.41-.37-.84-.58-1.3a12.26,12.26,0,0,1-.3-1.23,11.91,11.91,0,0,1-.25-1.82q0-.52,0-1c0-.32,0-.64.07-1s.11-.74.18-1.1a2.25,2.25,0,0,1,.5-1,2.66,2.66,0,0,0,.5-1l-.5-.33a27.33,27.33,0,0,0-2.65-1.42l-.57-.3c-.21-.1-.46-.21-.73-.35,0-.43.09-.78.13-1a2.91,2.91,0,0,1,.17-.8c.09-.15.47-.3,1.15-.45l.2-.05,1.23-.22,1.17-.23.8-.25.13-.05a3,3,0,0,0,.52-.2l.52-.25.48-.3,0,.05A12.22,12.22,0,0,1,67.3,123.1Z"/><path class="cls-36" d="M44.45,88.25l.7.1a5.72,5.72,0,0,1,1.5.4,4.4,4.4,0,0,0,1.9,1.6,4,4,0,0,0,.7.15h0l.06,0a5.39,5.39,0,0,1,1.77,4,8.73,8.73,0,0,1-.55,2.25A8.35,8.35,0,0,0,50,99c0,.3.28.67.85,1.1a4,4,0,0,0,.78.45,1.78,1.78,0,0,0,.67.15A13.35,13.35,0,0,0,57,99.15a23,23,0,0,1,4.25-1.6,4.17,4.17,0,0,0-.4.35c-.4.33-.7.6-.9.8a6.36,6.36,0,0,0-.8.85c0,.38,0,.89,0,1.52v.48c0,.74,0,1.29,0,1.65,0,.1,0,.18,0,.25a6.4,6.4,0,0,1-.3.7,5,5,0,0,1-1,1.25,6.47,6.47,0,0,1-.8.65,8.27,8.27,0,0,1-1.15.6,7,7,0,0,1-.77.27,9.24,9.24,0,0,1-1.28.33,12.68,12.68,0,0,1-2.42.2h-.13a8.79,8.79,0,0,1-2-.2,5.11,5.11,0,0,1-.75-.2,2.56,2.56,0,0,1-1.75-1.9c0-.63.07-1.12.1-1.45,0-.16,0-.31,0-.45a3.49,3.49,0,0,0-.18-1q.4-3.3.85-5.4a3,3,0,0,0,1.7-.5,1.34,1.34,0,0,0,.6-1.55v-.1l-.1-.3,0-.1c-.07-.17-.13-.32-.2-.45a8.35,8.35,0,0,0-1.4-2.25l-.1-.1a0,0,0,0,1,0,0l-.1-.1a13.69,13.69,0,0,0-3.15-2.55c-.13.2-.37.52-.7,1a10.33,10.33,0,0,0-.65,1,3.43,3.43,0,0,1,.2-1.15,2.41,2.41,0,0,1,.5-1C44.15,88.6,44.28,88.45,44.45,88.25Zm15.7,3a4,4,0,0,1-1.35.25,10.56,10.56,0,0,1-5.15-1,5.47,5.47,0,0,0,2.4-1.5l.2.1a1.78,1.78,0,0,0,.85.15,2.79,2.79,0,0,0,1-.7,2.8,2.8,0,0,1,1.1-.65A5.09,5.09,0,0,0,60.15,91.2Z"/><path class="cls-37" d="M59.05,103.45a2.58,2.58,0,0,1,1,1.35l-.08.1A5.61,5.61,0,0,1,58.8,106q-.27.24-.6.48l-.2.15a10.21,10.21,0,0,1-1.7,1,9.07,9.07,0,0,1-1.07.46,12,12,0,0,1-2,.5,13.83,13.83,0,0,1-1.6.12h-.2a9.33,9.33,0,0,1-3.05-.45l-.15-.15a1.82,1.82,0,0,0-.2-.25l-.4-.35a2.21,2.21,0,0,0-.3-.25v0l-.2-.1v-.05l-.1-.1a4.09,4.09,0,0,1-.95-1.35l.7-.5a2.56,2.56,0,0,0,1.75,1.9,5.11,5.11,0,0,0,.75.2,8.79,8.79,0,0,0,2,.2h.13a12.68,12.68,0,0,0,2.42-.2,9.24,9.24,0,0,0,1.28-.33,7,7,0,0,0,.77-.27,8.27,8.27,0,0,0,1.15-.6,6.47,6.47,0,0,0,.8-.65,5,5,0,0,0,1-1.25A6.4,6.4,0,0,0,59.05,103.45Zm-1,15.2-.7-.45a.41.41,0,0,1-.12-.18l0,0a1.29,1.29,0,0,1,.63.4l.12.15S58,118.58,58.05,118.65Zm1.1-3.8,3.4-1.95,3.1-1.8.45-.3c1.07-.6,1.82-.77,2.25-.5l1,.55,0,0a3.35,3.35,0,0,0-.77.72,1.48,1.48,0,0,0-.25.35v0l-4.65,8.65a1,1,0,0,1-.08.15c-.1.28,0,.36.28.25a1.66,1.66,0,0,1-1.4.15l-2.6-1.55,0,0a4.89,4.89,0,0,0-.52-.93c-.35-.42-.62-.78-.83-1.07l-.17-.28a2.09,2.09,0,0,1,.7.6l.35.5a2.2,2.2,0,0,0,1.1.9,1.49,1.49,0,0,0,0-.47,1.39,1.39,0,0,0-.12-.43,6.77,6.77,0,0,0-.4-.8l.6-.4-.1-.1a7.32,7.32,0,0,0-1.8-1.35l-.25-.1-.4-.15Z"/><path class="cls-38" d="M44.25,114.32c0-.13-.07-.28-.1-.42l0-.05v-.15c0-.23-.08-.46-.1-.7a12,12,0,0,1-.08-1.7c0-.32,0-.63.08-1v0a9.46,9.46,0,0,0,2,2,7.94,7.94,0,0,0,1.35,1,2,2,0,0,0,.13.25,11.28,11.28,0,0,0,2.72,3.38l.18.14c.43.37.91.72,1.42,1.08a5.86,5.86,0,0,1,.6.45v0a1.63,1.63,0,0,0,0,.35,2,2,0,0,0,0,.6s0,0,0,0v.45a5.5,5.5,0,0,0,.3,1.33,4.42,4.42,0,0,0,.55,1,6.81,6.81,0,0,0,1.15.7l1.2.6a2.63,2.63,0,0,1-1.07.52l-.08,0a1.78,1.78,0,0,1-1.25-.25,10.4,10.4,0,0,1-3.4-1.8,13.8,13.8,0,0,1-1.12-.9c-.57-.49-1.16-1.06-1.78-1.7a4.66,4.66,0,0,0-.4-.45.16.16,0,0,0-.05-.1l0,0a.16.16,0,0,0-.05-.1l0,0a.16.16,0,0,0,0-.1l-.25-.35a11.24,11.24,0,0,1-1-1.7v0c-.18-.47-.35-.94-.5-1.43C44.41,114.91,44.33,114.62,44.25,114.32Zm18.3-1.42-3.4,1.95L58.6,114c-.38-.57-.67-1-.87-1.37a2.9,2.9,0,0,1-.38-.78c0-.23,0-.46,0-.68a5.32,5.32,0,0,1,.32-1.5,4,4,0,0,1,.45-.85,3.48,3.48,0,0,1,1.5-1.15,5.3,5.3,0,0,1,.9-.27,1.69,1.69,0,0,1,.45,0,5.26,5.26,0,0,1,1.8.45l1.05.45a5.82,5.82,0,0,0,1.1.4,3.34,3.34,0,0,0,.15.6l.05,0v.1a4.93,4.93,0,0,1,.15.5,6.48,6.48,0,0,0-2.7,2.8A.5.5,0,0,1,62.55,112.9Z"/><path class="cls-39" d="M72.5,152.2a3.78,3.78,0,0,0,.9.9.29.29,0,0,0,.2.15,2.31,2.31,0,0,1-.6-.75,9.47,9.47,0,0,1-.45-1.95,14.56,14.56,0,0,0-.4-2,1,1,0,0,1-.25.7,1.1,1.1,0,0,1-.4.4l-.1-.4c-.1-.67-.18-1.18-.25-1.55a6.72,6.72,0,0,0-.4-1.5,24,24,0,0,1-1.3-4.55,1,1,0,0,1,.25-.25,3.75,3.75,0,0,1,1.15-.4,2.32,2.32,0,0,1-.4.5.67.67,0,0,0-.2.55,11,11,0,0,0,1,3.55c.17.37.43.9.8,1.6s.53,1.28.7,1.75a7.7,7.7,0,0,0,.45,1.05,1.33,1.33,0,0,0,.85.8,1.93,1.93,0,0,0,1.55-.4,2.15,2.15,0,0,0,1-1.3,4.64,4.64,0,0,0-.6-1.25.16.16,0,0,1,0-.1,4.17,4.17,0,0,1-.65-1.4c.23.33.57.83,1,1.5a9.52,9.52,0,0,0,1.15,1.45,6.12,6.12,0,0,1,1.2,2.05,4.51,4.51,0,0,1,.15,2.4,1.7,1.7,0,0,1-1.15.85,3.29,3.29,0,0,1-1.5-.15,10.52,10.52,0,0,1-1.75-.7,2.55,2.55,0,0,1-.52-.33l.57.48a2.87,2.87,0,0,1,1.1,2.25,1,1,0,0,1-.5,1,2.13,2.13,0,0,1-1.1.45,11.3,11.3,0,0,1-2.6,0,8.28,8.28,0,0,1-2.5-.85,2.92,2.92,0,0,1-1-1.5,13,13,0,0,1-.45-1.85v.9a2,2,0,0,1-.9.35,1.41,1.41,0,0,1-1-.35,12.26,12.26,0,0,0-.2-3.15,16.46,16.46,0,0,0-.9-3.1,2.15,2.15,0,0,1,.35-2,5.68,5.68,0,0,1,1.55-1.55v.05A5.6,5.6,0,0,0,66,146a3.42,3.42,0,0,0,.3,1.45c.27.53.65,1.4,1.15,2.6s.78,2,1,2.65a2.62,2.62,0,0,0,1,1.2,1.68,1.68,0,0,0,1.45.3,5.56,5.56,0,0,0,1.35-.75A.91.91,0,0,0,72.5,152.2Z"/><path class="cls-40" d="M27.9,174.3v1.6H28l-.05,2H28c0,.3.25.62.75,1l12.2,6.95a2.83,2.83,0,0,0,3.1.05l12-7q.9-.5.75-1.05V176a.23.23,0,0,0,0-.2v-.9l2.45,1.4c.6.33.93.68,1,1v.25a2,2,0,0,1-1,1L44,187.45a3.75,3.75,0,0,1-4,0l-8-4.6v.05l-7.5-4.3c-.63-.4-1-.78-1-1.15s.33-.8,1-1.2Zm5.2-13.67,2.65,1.52c.6.33.93.68,1,1v.25a2,2,0,0,1-1,1l-15.3,8.85a3.75,3.75,0,0,1-4,0L8.5,168.7v.05L1,164.45c-.63-.4-1-.78-1-1.15s.33-.8,1-1.2l3.17-1.85,0,1.2h0v2.05l0,.05c0,.27.23.57.7.9l12.2,7a2.89,2.89,0,0,0,3.1,0l12-7c.6-.33.87-.68.8-1v-1.8a.36.36,0,0,0,0-.25Z"/><path class="cls-41" d="M16.75,156.4a1.91,1.91,0,0,0-1.2-.45,2.4,2.4,0,0,0-1.4.1,1.42,1.42,0,0,0-.9.7l-1.7,4.4a.64.64,0,0,0,.15.7,1.67,1.67,0,0,0,.85.5,2.46,2.46,0,0,0,1.2.1l11.85-1.4a2.57,2.57,0,0,0,1.2-.5.75.75,0,0,0,.25-.85,1.27,1.27,0,0,0-.8-.65,2.22,2.22,0,0,0-1.4-.15L16,160,17,157.2A.72.72,0,0,0,16.75,156.4Zm16.35,3.1c-.06.22-.3.45-.72.7l-.08.05-12,6.95a3,3,0,0,1-3.15.05l-6.2-3.6h-.05L9.75,163H9.8L5,160.25a2.17,2.17,0,0,1-.37-.25.85.85,0,0,1-.43-.65q0-.45.75-.9L17,151.5a3,3,0,0,1,3.15-.05l8.65,5-.05,0,3.55,2c.47.27.72.55.75.85A.49.49,0,0,1,33.1,159.5Z"/><path class="cls-42" d="M4.17,160.25l0-.9a.85.85,0,0,0,.43.65,2.17,2.17,0,0,0,.37.25L9.8,163H9.75l1.1.65h.05l6.2,3.6a3,3,0,0,0,3.15-.05l12-6.95.08-.05c.42-.25.66-.48.72-.7v1.85a.36.36,0,0,1,0,.25v1.8c.07.37-.2.72-.8,1l-12,7a2.89,2.89,0,0,1-3.1,0l-12.2-7c-.47-.33-.7-.63-.7-.9l0-.05v-2.05h0Z"/><path class="cls-43" d="M56.8,174.9v.9a.23.23,0,0,1,0,.2v1.85q.15.56-.75,1.05l-12,7a2.83,2.83,0,0,1-3.1-.05L28.7,178.9c-.5-.33-.75-.65-.75-1H27.9l.05-2H27.9v-2.1a.72.72,0,0,0,.18.4,2.24,2.24,0,0,0,.62.5l12.15,7a3,3,0,0,0,3.15,0l12-7a1,1,0,0,0,.2-.13,1.09,1.09,0,0,0,.55-.62Z"/></g></g></svg>