<?xml version="1.0" encoding="utf-8"?>
<!-- Generator: Adobe Illustrator 23.1.1, SVG Export Plug-In . SVG Version: 6.00 Build 0)  -->
<svg version="1.1" id="Layer_1" xmlns="http://www.w3.org/2000/svg" xmlns:xlink="http://www.w3.org/1999/xlink" x="0px" y="0px"
	 viewBox="0 0 143 36" style="enable-background:new 0 0 143 36;" xml:space="preserve">
<style type="text/css">
	.st0{fill:none;stroke:#000000;stroke-width:0.6995;stroke-miterlimit:10;}
	.st1{fill:none;stroke:#52BD95;stroke-width:2;stroke-linecap:round;stroke-miterlimit:10;}
	.st2{fill:#12424A;}
	.st3{fill:#FFFFFF;stroke:#12424A;stroke-width:2;stroke-linecap:round;stroke-miterlimit:10;}
</style>
<g>
	<g>
		<path class="st0" d="M26.25,18"/>
		<path class="st1" d="M26.25,18c0,6.63-5.37,12-12,12s-12-5.37-12-12s5.37-12,12-12c2.84,0,5.44,0.98,7.5,2.63"/>
		<g>
			<circle class="st2" cx="14.25" cy="18" r="7"/>
		</g>
		<circle class="st3" cx="26.26" cy="16.29" r="1.62"/>
	</g>
</g>
<g>
	<path class="st2" d="M42.17,11.92c0.44,0.16,0.84,0.39,1.2,0.69c0.1,0.09,0.2,0.13,0.29,0.13c0.1,0,0.17-0.07,0.23-0.21
		c0.06-0.14,0.1-0.35,0.13-0.65h0.33c-0.04,0.68-0.06,1.87-0.06,3.57h-0.33c-0.07-0.75-0.19-1.35-0.37-1.79
		c-0.18-0.44-0.5-0.81-0.94-1.12c-0.2-0.13-0.43-0.24-0.69-0.31c-0.26-0.08-0.52-0.11-0.78-0.11c-0.69,0-1.24,0.24-1.67,0.72
		c-0.42,0.48-0.72,1.09-0.9,1.82c-0.18,0.73-0.26,1.5-0.26,2.3c0,1.66,0.2,2.9,0.61,3.72c0.4,0.82,0.97,1.23,1.69,1.23
		c0.3,0,0.53-0.06,0.7-0.17c0.2-0.14,0.3-0.38,0.3-0.71V19.6c0-0.48-0.04-0.83-0.11-1.05c-0.08-0.22-0.21-0.38-0.41-0.46
		c-0.2-0.08-0.5-0.13-0.92-0.15v-0.29c0.65,0.03,1.56,0.04,2.73,0.04c0.98,0,1.72-0.01,2.2-0.04v0.29c-0.17,0.02-0.3,0.06-0.38,0.11
		c-0.08,0.06-0.14,0.17-0.16,0.33c-0.03,0.16-0.04,0.42-0.04,0.79V22h-0.29c-0.01-0.2-0.05-0.39-0.13-0.56
		c-0.08-0.17-0.18-0.26-0.31-0.26c-0.2,0-0.52,0.11-0.97,0.33c-0.95,0.46-1.76,0.69-2.42,0.69c-1.77,0-3.11-0.45-4.02-1.34
		c-0.91-0.9-1.36-2.17-1.36-3.83c0-1.05,0.24-1.98,0.71-2.79c0.47-0.81,1.13-1.44,1.97-1.89c0.84-0.45,1.8-0.67,2.87-0.67
		C41.21,11.68,41.73,11.76,42.17,11.92z"/>
	<path class="st2" d="M46.13,21.6c-0.31-0.33-0.46-0.74-0.46-1.24c0-0.43,0.11-0.78,0.34-1.07c0.22-0.28,0.49-0.5,0.79-0.65
		c0.3-0.15,0.7-0.31,1.19-0.47c0.51-0.17,0.89-0.33,1.13-0.47c0.24-0.14,0.36-0.34,0.36-0.6v-1.27c0-0.3-0.08-0.58-0.23-0.81
		c-0.15-0.24-0.41-0.36-0.79-0.36c-0.3,0-0.56,0.08-0.8,0.24c0.32,0.11,0.56,0.28,0.72,0.51c0.16,0.22,0.24,0.47,0.24,0.75
		c0,0.37-0.13,0.67-0.39,0.89c-0.26,0.22-0.58,0.34-0.95,0.34c-0.37,0-0.66-0.12-0.88-0.35c-0.21-0.23-0.32-0.53-0.32-0.89
		c0-0.29,0.07-0.53,0.21-0.74c0.14-0.21,0.37-0.4,0.67-0.57c0.53-0.3,1.3-0.46,2.29-0.46c0.52,0,0.98,0.05,1.36,0.15
		c0.38,0.1,0.71,0.29,0.97,0.56c0.19,0.2,0.32,0.45,0.38,0.75c0.06,0.3,0.09,0.72,0.09,1.25v3.83c0,0.24,0.02,0.4,0.05,0.49
		c0.03,0.09,0.09,0.13,0.18,0.13c0.07,0,0.14-0.02,0.21-0.06c0.08-0.04,0.15-0.09,0.21-0.15l0.14,0.24c-0.41,0.35-1,0.53-1.76,0.53
		c-0.57,0-0.97-0.1-1.2-0.29s-0.35-0.46-0.37-0.79c-0.45,0.72-1.12,1.09-2,1.09C46.89,22.1,46.43,21.93,46.13,21.6z M49.46,20.71
		v-3.02c-0.09,0.14-0.24,0.33-0.47,0.56c-0.26,0.25-0.45,0.49-0.59,0.72c-0.13,0.23-0.2,0.55-0.2,0.95c0,0.69,0.24,1.03,0.73,1.03
		C49.13,20.95,49.31,20.87,49.46,20.71z"/>
	<path class="st2" d="M56.57,20.67c0,0.39,0.06,0.66,0.18,0.81c0.12,0.15,0.33,0.22,0.62,0.22V22c-1.03-0.04-1.71-0.06-2.03-0.06
		c-0.32,0-1.04,0.02-2.14,0.06v-0.3c0.3,0,0.5-0.07,0.62-0.22c0.12-0.15,0.18-0.42,0.18-0.81v-8.13c0-0.44-0.06-0.76-0.18-0.96
		c-0.12-0.2-0.33-0.3-0.62-0.3v-0.3c0.3,0.03,0.59,0.04,0.89,0.04c0.99,0,1.82-0.07,2.49-0.2V20.67z"/>
	<path class="st2" d="M61.3,20.67c0,0.39,0.06,0.66,0.18,0.81c0.12,0.15,0.33,0.22,0.62,0.22V22c-1.03-0.04-1.71-0.06-2.03-0.06
		c-0.32,0-1.04,0.02-2.14,0.06v-0.3c0.3,0,0.5-0.07,0.62-0.22c0.12-0.15,0.18-0.42,0.18-0.81v-4.53c0-0.44-0.06-0.76-0.18-0.96
		c-0.12-0.2-0.33-0.3-0.62-0.3v-0.3c0.31,0.03,0.6,0.04,0.89,0.04c0.99,0,1.82-0.07,2.49-0.2V20.67z M61.08,11.13
		c0.27,0.21,0.41,0.51,0.41,0.92c0,0.4-0.14,0.71-0.41,0.91c-0.27,0.21-0.66,0.31-1.15,0.31c-0.51,0-0.89-0.1-1.16-0.31
		c-0.27-0.21-0.4-0.51-0.4-0.91c0-0.4,0.13-0.71,0.4-0.92c0.27-0.21,0.65-0.31,1.16-0.31C60.42,10.82,60.81,10.92,61.08,11.13z"/>
	<path class="st2" d="M65.98,20.67c0,0.39,0.06,0.66,0.18,0.81c0.12,0.15,0.33,0.22,0.62,0.22V22c-1.03-0.04-1.71-0.06-2.03-0.06
		c-0.32,0-1.04,0.02-2.14,0.06v-0.3c0.3,0,0.5-0.07,0.62-0.22c0.12-0.15,0.18-0.42,0.18-0.81v-8.13c0-0.44-0.06-0.76-0.18-0.96
		c-0.12-0.2-0.33-0.3-0.62-0.3v-0.3c0.3,0.03,0.59,0.04,0.89,0.04c0.99,0,1.82-0.07,2.49-0.2V20.67z"/>
	<path class="st2" d="M73.38,19.68l0.24,0.09c-0.21,0.67-0.56,1.24-1.07,1.72c-0.5,0.48-1.14,0.71-1.92,0.71c-1,0-1.8-0.31-2.4-0.93
		c-0.6-0.62-0.9-1.61-0.9-2.97c0-1.31,0.34-2.28,1.01-2.94c0.67-0.65,1.56-0.98,2.67-0.98c1.8,0,2.7,1.07,2.7,3.2h-3.69
		c-0.01,0.11-0.01,0.29-0.01,0.51c0,0.91,0.16,1.57,0.48,1.96c0.32,0.39,0.71,0.59,1.17,0.59C72.35,20.64,72.92,20.32,73.38,19.68z
		 M69.96,17.31h1.66c0.01-0.76-0.05-1.39-0.16-1.87c-0.12-0.49-0.3-0.73-0.55-0.73C70.37,14.71,70.06,15.57,69.96,17.31z"/>
	<path class="st2" d="M80.91,15.3c0.64,0.61,0.96,1.61,0.96,3c0,1.38-0.32,2.38-0.96,2.99c-0.64,0.61-1.54,0.91-2.72,0.91
		s-2.08-0.3-2.72-0.91c-0.64-0.61-0.96-1.61-0.96-2.99c0-1.38,0.32-2.38,0.96-3c0.64-0.61,1.54-0.92,2.72-0.92
		S80.28,14.68,80.91,15.3z M77.47,15.56c-0.18,0.6-0.27,1.51-0.27,2.73c0,1.22,0.09,2.13,0.27,2.72c0.18,0.6,0.42,0.89,0.73,0.89
		c0.3,0,0.55-0.3,0.73-0.89c0.18-0.6,0.27-1.5,0.27-2.72c0-1.22-0.09-2.13-0.27-2.73c-0.18-0.6-0.42-0.9-0.73-0.9
		C77.89,14.66,77.65,14.96,77.47,15.56z"/>
	<path class="st2" d="M90.84,12.16c-0.31,0.02-0.53,0.06-0.66,0.11c-0.14,0.06-0.23,0.17-0.28,0.33c-0.05,0.16-0.07,0.42-0.07,0.79
		v7.09c0,0.36,0.03,0.62,0.08,0.79c0.05,0.16,0.15,0.27,0.28,0.33c0.13,0.06,0.35,0.1,0.66,0.11V22c-0.55-0.03-1.35-0.04-2.39-0.04
		c-1.15,0-2,0.01-2.54,0.04v-0.29c0.31-0.02,0.53-0.06,0.66-0.11c0.14-0.06,0.23-0.17,0.28-0.33c0.05-0.16,0.07-0.42,0.07-0.79
		v-7.09c0-0.36-0.03-0.62-0.08-0.79c-0.05-0.16-0.15-0.27-0.28-0.33c-0.13-0.06-0.35-0.1-0.66-0.11v-0.29
		c0.54,0.03,1.39,0.04,2.54,0.04c1.03,0,1.82-0.01,2.39-0.04V12.16z"/>
	<path class="st2" d="M98.8,14.95c0.14,0.17,0.25,0.4,0.31,0.69c0.07,0.29,0.1,0.67,0.1,1.15v3.87c0,0.39,0.06,0.66,0.18,0.81
		c0.12,0.15,0.33,0.22,0.62,0.22V22c-1.03-0.04-1.7-0.06-2-0.06c-0.32,0-1,0.02-2.03,0.06v-0.3c0.25,0,0.42-0.07,0.51-0.22
		c0.1-0.15,0.14-0.42,0.14-0.81v-4.65c0-0.3-0.05-0.53-0.16-0.68c-0.11-0.15-0.29-0.22-0.54-0.22c-0.28,0-0.52,0.1-0.72,0.29
		c-0.2,0.2-0.31,0.44-0.31,0.74v4.52c0,0.39,0.05,0.66,0.14,0.81c0.1,0.15,0.27,0.22,0.51,0.22V22c-0.95-0.04-1.58-0.06-1.89-0.06
		c-0.32,0-1.04,0.02-2.14,0.06v-0.3c0.3,0,0.5-0.07,0.62-0.22c0.12-0.15,0.18-0.42,0.18-0.81v-4.53c0-0.44-0.06-0.76-0.18-0.96
		c-0.12-0.2-0.33-0.3-0.62-0.3v-0.3c0.31,0.03,0.6,0.04,0.89,0.04c0.99,0,1.82-0.07,2.49-0.2v1.03c0.43-0.71,1.19-1.07,2.27-1.07
		C97.95,14.38,98.48,14.57,98.8,14.95z"/>
	<path class="st2" d="M104.52,14.5c0.33,0.08,0.58,0.17,0.75,0.26c0.1,0.06,0.19,0.09,0.26,0.09c0.2,0,0.32-0.15,0.36-0.46h0.29
		c-0.04,0.5-0.06,1.35-0.06,2.57h-0.29c-0.08-0.63-0.26-1.16-0.54-1.59c-0.28-0.43-0.69-0.65-1.22-0.65c-0.24,0-0.44,0.07-0.6,0.21
		c-0.16,0.14-0.24,0.34-0.24,0.59c0,0.31,0.1,0.59,0.31,0.84c0.21,0.24,0.54,0.54,0.99,0.89c0.02,0.01,0.16,0.12,0.41,0.33
		c0.53,0.44,0.92,0.83,1.17,1.17c0.25,0.34,0.37,0.76,0.37,1.25c0,0.42-0.13,0.8-0.39,1.14c-0.26,0.34-0.61,0.6-1.05,0.79
		c-0.44,0.19-0.93,0.28-1.45,0.28c-0.6,0-1.09-0.12-1.47-0.36c-0.16-0.09-0.3-0.15-0.4-0.19c-0.1-0.04-0.21-0.06-0.31-0.06
		c-0.18,0-0.31,0.17-0.4,0.5h-0.29c0.04-0.54,0.06-1.5,0.06-2.86h0.29c0.09,0.78,0.3,1.41,0.63,1.89c0.33,0.48,0.75,0.71,1.26,0.71
		c0.24,0,0.44-0.07,0.59-0.2c0.16-0.13,0.24-0.33,0.24-0.59c0-0.27-0.05-0.51-0.16-0.71c-0.11-0.21-0.24-0.4-0.4-0.56
		c-0.16-0.17-0.41-0.41-0.76-0.72c-0.4-0.37-0.71-0.67-0.91-0.89c-0.21-0.22-0.39-0.47-0.54-0.76c-0.15-0.29-0.22-0.61-0.22-0.96
		c0-0.41,0.12-0.77,0.37-1.09c0.25-0.31,0.58-0.56,0.99-0.72c0.41-0.17,0.85-0.25,1.33-0.25C103.85,14.38,104.2,14.42,104.52,14.5z"
		/>
	<path class="st2" d="M110.59,20.67c0,0.39,0.06,0.66,0.18,0.81c0.12,0.15,0.33,0.22,0.62,0.22V22c-1.03-0.04-1.71-0.06-2.03-0.06
		c-0.32,0-1.04,0.02-2.14,0.06v-0.3c0.3,0,0.5-0.07,0.62-0.22c0.12-0.15,0.18-0.42,0.18-0.81v-4.53c0-0.44-0.06-0.76-0.18-0.96
		c-0.12-0.2-0.33-0.3-0.62-0.3v-0.3c0.31,0.03,0.6,0.04,0.89,0.04c0.99,0,1.82-0.07,2.49-0.2V20.67z M110.37,11.13
		c0.27,0.21,0.41,0.51,0.41,0.92c0,0.4-0.14,0.71-0.41,0.91c-0.27,0.21-0.66,0.31-1.15,0.31c-0.51,0-0.89-0.1-1.16-0.31
		c-0.27-0.21-0.4-0.51-0.4-0.91c0-0.4,0.13-0.71,0.4-0.92c0.27-0.21,0.65-0.31,1.16-0.31C109.72,10.82,110.1,10.92,110.37,11.13z"/>
	<path class="st2" d="M118.49,15.81c-0.15-0.14-0.22-0.33-0.22-0.58c0-0.23,0.07-0.48,0.2-0.74c-0.42,0.17-0.73,0.41-0.93,0.73
		c0.35,0.37,0.53,0.85,0.53,1.44c0,0.75-0.28,1.32-0.84,1.71s-1.3,0.58-2.24,0.58c-0.18,0-0.31,0-0.4-0.01
		c-0.25,0.17-0.37,0.37-0.37,0.6c0,0.31,0.17,0.46,0.51,0.46h1.39c0.97,0,1.73,0.16,2.28,0.49c0.55,0.33,0.82,0.84,0.82,1.54
		c0,0.5-0.16,0.94-0.48,1.34c-0.32,0.4-0.81,0.72-1.47,0.96c-0.66,0.24-1.49,0.36-2.48,0.36c-0.98,0-1.75-0.11-2.32-0.33
		c-0.56-0.22-0.84-0.53-0.84-0.93c0-0.28,0.14-0.53,0.41-0.76c0.28-0.23,0.7-0.41,1.26-0.54l0.14,0.23
		c-0.26,0.31-0.39,0.62-0.39,0.91c0,0.37,0.17,0.66,0.51,0.86c0.34,0.2,0.81,0.31,1.42,0.31c0.63,0,1.11-0.13,1.45-0.38
		c0.34-0.25,0.51-0.59,0.51-1.01c0-0.3-0.11-0.53-0.34-0.71c-0.22-0.18-0.62-0.26-1.18-0.26h-0.77c-0.65,0-1.14-0.12-1.49-0.37
		c-0.34-0.25-0.51-0.58-0.51-1c0-0.38,0.14-0.71,0.41-1c0.27-0.29,0.66-0.55,1.18-0.8c-0.72-0.1-1.29-0.33-1.71-0.71
		c-0.41-0.38-0.62-0.89-0.62-1.54c0-0.75,0.28-1.32,0.84-1.71c0.56-0.39,1.3-0.58,2.24-0.58c1,0,1.77,0.21,2.32,0.63
		c0.18-0.25,0.4-0.44,0.66-0.59c0.26-0.14,0.53-0.21,0.81-0.21c0.31,0,0.56,0.09,0.73,0.26c0.17,0.18,0.26,0.4,0.26,0.68
		c0,0.27-0.07,0.48-0.21,0.64c-0.14,0.16-0.32,0.24-0.54,0.24C118.81,16.02,118.64,15.95,118.49,15.81z M115.43,18.23
		c0.1-0.31,0.15-0.83,0.15-1.57c0-0.73-0.05-1.26-0.15-1.57c-0.1-0.31-0.25-0.46-0.44-0.46c-0.19,0-0.34,0.15-0.44,0.46
		c-0.1,0.31-0.15,0.83-0.15,1.57c0,0.73,0.05,1.26,0.15,1.57c0.1,0.31,0.25,0.46,0.44,0.46C115.19,18.7,115.33,18.54,115.43,18.23z"
		/>
	<path class="st2" d="M123.42,15.45c0.43-0.71,1.19-1.07,2.27-1.07c0.76,0,1.3,0.19,1.62,0.57c0.14,0.17,0.25,0.4,0.31,0.69
		c0.07,0.29,0.1,0.67,0.1,1.15v3.87c0,0.39,0.06,0.66,0.18,0.81c0.12,0.15,0.33,0.22,0.62,0.22V22c-1.03-0.04-1.7-0.06-2-0.06
		c-0.32,0-1,0.02-2.03,0.06v-0.3c0.25,0,0.42-0.07,0.51-0.22c0.1-0.15,0.14-0.42,0.14-0.81v-4.65c0-0.3-0.05-0.53-0.16-0.68
		c-0.11-0.15-0.29-0.22-0.54-0.22c-0.28,0-0.52,0.1-0.72,0.29c-0.21,0.2-0.31,0.44-0.31,0.74v4.52c0,0.39,0.05,0.66,0.14,0.81
		c0.1,0.15,0.27,0.22,0.51,0.22V22c-0.95-0.04-1.58-0.06-1.89-0.06c-0.32,0-1.04,0.02-2.14,0.06v-0.3c0.3,0,0.5-0.07,0.62-0.22
		c0.12-0.15,0.18-0.42,0.18-0.81v-8.13c0-0.44-0.06-0.76-0.18-0.96c-0.12-0.2-0.33-0.3-0.62-0.3v-0.3c0.3,0.03,0.59,0.04,0.89,0.04
		c0.99,0,1.82-0.07,2.49-0.2V15.45z"/>
	<path class="st2" d="M132.28,14.58h1.4v0.29h-1.4v5.93c0,0.19,0.03,0.32,0.1,0.4c0.07,0.08,0.18,0.11,0.33,0.11
		c0.11,0,0.24-0.03,0.39-0.1c0.14-0.07,0.27-0.17,0.39-0.31l0.21,0.17c-0.44,0.75-1.12,1.13-2.03,1.13c-0.66,0-1.15-0.16-1.47-0.49
		c-0.2-0.2-0.33-0.45-0.39-0.74c-0.06-0.3-0.09-0.71-0.09-1.24v-4.86h-1.09v-0.29h1.09v-1.69c0.51,0,0.98-0.05,1.39-0.15
		c0.41-0.1,0.81-0.26,1.18-0.48V14.58z"/>
	<path class="st2" d="M138.03,14.5c0.33,0.08,0.58,0.17,0.75,0.26c0.1,0.06,0.19,0.09,0.26,0.09c0.2,0,0.32-0.15,0.36-0.46h0.29
		c-0.04,0.5-0.06,1.35-0.06,2.57h-0.29c-0.08-0.63-0.26-1.16-0.54-1.59c-0.28-0.43-0.69-0.65-1.22-0.65c-0.24,0-0.44,0.07-0.6,0.21
		c-0.16,0.14-0.24,0.34-0.24,0.59c0,0.31,0.1,0.59,0.31,0.84c0.21,0.24,0.54,0.54,0.99,0.89c0.02,0.01,0.16,0.12,0.41,0.33
		c0.53,0.44,0.92,0.83,1.17,1.17C139.88,19.08,140,19.5,140,20c0,0.42-0.13,0.8-0.39,1.14c-0.26,0.34-0.61,0.6-1.05,0.79
		c-0.44,0.19-0.93,0.28-1.45,0.28c-0.6,0-1.09-0.12-1.47-0.36c-0.16-0.09-0.3-0.15-0.4-0.19c-0.1-0.04-0.21-0.06-0.31-0.06
		c-0.18,0-0.31,0.17-0.4,0.5h-0.29c0.04-0.54,0.06-1.5,0.06-2.86h0.29c0.09,0.78,0.3,1.41,0.63,1.89c0.33,0.48,0.75,0.71,1.26,0.71
		c0.24,0,0.44-0.07,0.59-0.2c0.16-0.13,0.24-0.33,0.24-0.59c0-0.27-0.05-0.51-0.16-0.71c-0.11-0.21-0.24-0.4-0.4-0.56
		c-0.16-0.17-0.41-0.41-0.76-0.72c-0.4-0.37-0.71-0.67-0.91-0.89c-0.21-0.22-0.39-0.47-0.54-0.76c-0.15-0.29-0.22-0.61-0.22-0.96
		c0-0.41,0.12-0.77,0.37-1.09c0.25-0.31,0.58-0.56,0.99-0.72c0.41-0.17,0.85-0.25,1.33-0.25C137.36,14.38,137.71,14.42,138.03,14.5z
		"/>
</g>
</svg>
