<svg xmlns="http://www.w3.org/2000/svg" viewBox="0 0 139.36 196.31"><defs><style>.cls-1{isolation:isolate;}.cls-2{fill:#dbefff;}.cls-3{fill:#dcefff;}.cls-4{fill:#1737a2;}.cls-5{fill:#102670;}.cls-6{fill:#d7e8f7;}.cls-7{fill:#63d0f7;}.cls-8{fill:#fdffff;}.cls-9{fill:#18bdf7;}.cls-10{fill:#97cbff;}.cls-11{fill:#ff579c;}.cls-12{fill:#6271f0;}.cls-13{fill:#283d75;opacity:0.34;mix-blend-mode:multiply;}.cls-14,.cls-22,.cls-26{fill:#fff;}.cls-15{fill:#7cd7f7;}.cls-16{fill:#a8c4e5;}.cls-17{fill:#ffc2b0;}.cls-18{fill:#008ce3;}.cls-19{fill:#3c5bc2;}.cls-20{fill:#c9457b;}.cls-21{fill:#a7d1e8;}.cls-22{opacity:0.46;}.cls-23{fill:#513554;}.cls-24{fill:#2c4482;}.cls-25{fill:#fcfeff;}.cls-26{stroke:#b3ddff;stroke-miterlimit:10;stroke-width:1.07px;}.cls-27{fill:#d84177;}.cls-28{fill:#cad8eb;opacity:0.36;}</style></defs><g class="cls-1"><g id="Layer_2" data-name="Layer 2"><g id="Layer_4" data-name="Layer 4"><path class="cls-2" d="M105.68,68,87.52,57.54a6.74,6.74,0,0,1-2.82-5.38V32.36c0-2.08,1.26-3,2.82-2.13l18.16,10.49a6.74,6.74,0,0,1,2.82,5.38V65.9C108.5,68,107.24,68.93,105.68,68Z"/><path class="cls-2" d="M136.54,89.24,118.37,78.75a6.75,6.75,0,0,1-2.82-5.39V53.57c0-2.08,1.26-3,2.82-2.14l18.17,10.49a6.77,6.77,0,0,1,2.82,5.39v19.8C139.36,89.18,138.09,90.14,136.54,89.24Z"/><path class="cls-2" d="M135.76,129.73l-18.17-10.49a6.75,6.75,0,0,1-2.82-5.38V94.06c0-2.07,1.27-3,2.82-2.13l18.17,10.49a6.74,6.74,0,0,1,2.82,5.38v19.8C138.58,129.68,137.32,130.63,135.76,129.73Z"/><path class="cls-3" d="M88.88,181.54,15,137.78l2-.48,42.48-25L129.91,153a2.47,2.47,0,0,1,0,4.27Z"/><rect class="cls-4" x="126.87" y="121.24" width="2.32" height="34.87" rx="1" transform="translate(272.71 259.88) rotate(172.67)"/><polygon class="cls-5" points="128.14 130.45 128.94 136.71 126.76 137.93 125.96 131.7 128.14 130.45"/><path class="cls-4" d="M88.82,181.08h0a1.14,1.14,0,0,1-1-1.24l4.51-52.4a1.16,1.16,0,0,1,1.24-1h0a1.15,1.15,0,0,1,1,1.25L90.07,180A1.15,1.15,0,0,1,88.82,181.08Z"/><polygon class="cls-5" points="92.3 153.74 90.11 152.24 90.74 145.95 93.07 146.31 92.3 153.74"/><rect class="cls-4" x="19.68" y="103.1" width="1.9" height="35.84" rx="0.82" transform="translate(20.83 -1.75) rotate(9.77)"/><rect class="cls-6" x="17.58" y="100.22" width="6.09" height="3.54"/><rect class="cls-6" x="128.35" y="122.84" width="6.09" height="3.54"/><path class="cls-7" d="M93.61,148.4,18.36,105c-1.18-.68-1-1.87.33-2.65L53.8,82a5.13,5.13,0,0,1,4.6-.19l75.25,43.45c1.18.68,1,1.87-.33,2.65L98.21,148.21A5.13,5.13,0,0,1,93.61,148.4Z"/><path class="cls-8" d="M93.61,145,18.36,101.56c-1.18-.68-1-1.87.33-2.66L53.8,78.63a5.1,5.1,0,0,1,4.6-.19l75.25,43.44c1.18.68,1,1.87-.33,2.66L98.21,144.81A5.1,5.1,0,0,1,93.61,145Z"/><path class="cls-9" d="M104.52,90.16a2.77,2.77,0,0,0-.45-1.4,1153970879536.2,1153970879536.2,0,0,1-.1-.16,3,3,0,0,0-1-1.11L76,72.09,49.42,56.84h0l-.26-.15a1.06,1.06,0,0,0-1-.09l-.06,0,0,0a.89.89,0,0,0-.47.87v.29h0l-.18,26.94a3.7,3.7,0,0,0,1.6,3l53.77,30.8c.89.51,1.61,0,1.62-1.11l.15-23.93h0Z"/><polygon class="cls-3" points="8.5 178.34 35.4 162.47 63.17 178.91 35.42 194.21 8.5 178.34"/><path class="cls-4" d="M68,169.34l-7.08,1.45-1,2.46c-.23,1.76-.21,2.7,1,3.63,1,.78,3,.18,4-.31l4.55-2.74c3.38-1.86,3.12-3.23,2.76-4.37h0C71.74,168.18,70.18,168.48,68,169.34Z"/><path class="cls-4" d="M54.57,163.21l-6.45,1.31-.87,2.23c-.21,1.61-.2,2.46.87,3.31.89.71,2.72.16,3.67-.28l4.15-2.49c3.07-1.69,2.84-2.94,2.51-4h0C58,162.15,56.54,162.42,54.57,163.21Z"/><path class="cls-9" d="M102.73,113.84,49,83a3.7,3.7,0,0,1-1.6-3l.18-26.95c0-1.12.73-1.62,1.62-1.11l53.77,30.8a3.69,3.69,0,0,1,1.59,3l-.17,27C104.34,113.85,103.62,114.35,102.73,113.84Z"/><path class="cls-4" d="M104.5,88.79l0-3.29a3.71,3.71,0,0,0-1.85-2.82L49.42,52.18c-1-.59-1.88-.29-1.88.68l0,3.29Z"/><path class="cls-10" d="M51.81,56.36c0,.43-.38.57-.85.3a1.66,1.66,0,0,1-.84-1.27c0-.44.38-.57.85-.31A1.69,1.69,0,0,1,51.81,56.36Z"/><path class="cls-11" d="M55.22,58.31c0,.44-.38.58-.85.31a1.69,1.69,0,0,1-.84-1.28c0-.43.39-.57.85-.3A1.66,1.66,0,0,1,55.22,58.31Z"/><path class="cls-12" d="M58.63,60.27c0,.43-.38.57-.85.3a1.7,1.7,0,0,1-.84-1.27c0-.44.39-.58.85-.31A1.69,1.69,0,0,1,58.63,60.27Z"/><path class="cls-13" d="M64,67.76,52.82,61.33c-.58-.32-1,0-1,.72l-.12,19a2.39,2.39,0,0,0,1,1.9l11.21,6.43c.57.32,1,0,1-.72l.13-19A2.39,2.39,0,0,0,64,67.76Z"/><path class="cls-14" d="M61.57,90.34,50.35,83.92a2.36,2.36,0,0,1-1-1.9l.12-19c0-.73.47-1,1-.72l11.22,6.42a2.36,2.36,0,0,1,1,1.9l-.12,19C62.61,90.35,62.14,90.67,61.57,90.34Z"/><path class="cls-11" d="M60.42,72.91l-8.71-5A1.76,1.76,0,0,1,51,66.53h0c0-.52.35-.75.76-.52l8.72,5a1.69,1.69,0,0,1,.74,1.38h0C61.18,72.91,60.84,73.14,60.42,72.91Z"/><polygon class="cls-15" points="61.16 76.64 51.23 70.95 51.23 69.44 61.16 75.13 61.16 76.64"/><polygon class="cls-15" points="61.13 80.08 51.2 74.39 51.21 72.89 61.14 78.58 61.13 80.08"/><polygon class="cls-15" points="61.11 83.53 51.18 77.84 51.19 76.34 61.12 82.02 61.11 83.53"/><polygon class="cls-15" points="55.98 83.86 51.16 81.1 51.17 79.59 55.99 82.36 55.98 83.86"/><path class="cls-14" d="M98.79,108.93,68.53,91.6a2.39,2.39,0,0,1-1-1.9l.12-19c0-.72.47-1,1-.72L98.93,87.28a2.33,2.33,0,0,1,1,1.9l-.12,19C99.83,108.94,99.36,109.26,98.79,108.93Z"/><path class="cls-11" d="M97.24,91.26,70.29,75.83a1.71,1.71,0,0,1-.74-1.38h0c0-.52.34-.76.76-.52L97.25,89.36A1.72,1.72,0,0,1,98,90.74h0C98,91.27,97.65,91.5,97.24,91.26Z"/><path class="cls-15" d="M97,94.45l-10.5-6a1.32,1.32,0,0,1-.59-1.09h0c0-.41.27-.6.6-.41L97,93A1.37,1.37,0,0,1,97.62,94h0C97.62,94.46,97.35,94.64,97,94.45Z"/><path class="cls-10" d="M81,85.3l-10.5-6A1.34,1.34,0,0,1,70,78.19h0c0-.42.27-.6.59-.41l10.51,6a1.34,1.34,0,0,1,.59,1.09h0C81.64,85.3,81.37,85.49,81,85.3Z"/><polygon class="cls-15" points="97.59 98.24 85.9 91.54 85.91 90.04 97.6 96.73 97.59 98.24"/><polygon class="cls-15" points="81.61 89.08 69.92 82.39 69.93 80.88 81.62 87.58 81.61 89.08"/><polygon class="cls-15" points="97.57 101.68 85.88 94.99 85.89 93.48 97.58 100.18 97.57 101.68"/><polygon class="cls-15" points="81.59 92.53 69.9 85.83 69.91 84.33 81.6 91.03 81.59 92.53"/><polygon class="cls-15" points="74.7 91.85 69.88 89.09 69.89 87.59 74.71 90.35 74.7 91.85"/><polygon class="cls-15" points="90.68 101 85.86 98.24 85.87 96.74 90.69 99.5 90.68 101"/><path class="cls-9" d="M53.57,157.78c-1.55,1.21-4.89,4.68-6,3-.07.9-.12,1.8-.15,2.71-.11,3.68,5.61,4,5.72.31C53.21,163.05,53.52,158.51,53.57,157.78Z"/><path class="cls-9" d="M43.78,150.2a22.56,22.56,0,0,1,6.1-3.35,8.49,8.49,0,0,1,2.37-.49,10.28,10.28,0,0,1,1.11,0c.83.06-.26-.1.44.09.15,0,1.34.49.72.19.29.14.56.31.84.47.8.5-.39-.41.31.23l.68.68c.26.32.28.33.07.06.13.18.25.36.37.55s.35.58.51.88c0,0,.44,1,.22.43.15.39.28.79.4,1.19A53.37,53.37,0,0,1,59.21,159,56.54,56.54,0,0,1,60,169.73a3.55,3.55,0,0,0,3.51,3.5c2,0,2.84-1.58,3-3.48a66.3,66.3,0,0,0-.53-13.21l-.39-2.66c0-.3-.08-.61-.14-.91-.11-.68.15.86.06.37a27.2,27.2,0,0,0-1.7-6.56c-.89-2-13.11-3.07-10.15-4.46,4.17-2-.14-4.49-1.85-4.81-5.39-1-11,2.75-15.33,5.8-1.54,1.09,1.58,3.9,2.6,5.63a3.52,3.52,0,0,0,4.79,1.26Z"/><path class="cls-7" d="M80.29,118,54.43,103.1a.44.44,0,0,0-.47,0l-7.85,4.63a.47.47,0,0,0,0,.82l25.77,14.88a.49.49,0,0,0,.47,0l7.94-4.58A.49.49,0,0,0,80.29,118Z"/><path class="cls-14" d="M71.94,122.28,46.18,107.4a.47.47,0,0,1,0-.81L54,102a.51.51,0,0,1,.48,0l25.85,14.93a.47.47,0,0,1,0,.82l-7.93,4.58A.46.46,0,0,1,71.94,122.28Z"/><path class="cls-7" d="M55.3,104.27a.26.26,0,0,1-.19,0l-1.74-1c-.06,0-.08-.08,0-.11l1.15-.66a.26.26,0,0,1,.19,0l1.74,1c.07,0,.08.09,0,.11Z"/><path class="cls-7" d="M57.32,107.26a.19.19,0,0,1-.19,0l-1.74-1c-.06,0-.08-.09,0-.11l1.15-.67a.23.23,0,0,1,.19,0l1.74,1c.06,0,.08.09,0,.11Z"/><path class="cls-7" d="M56.3,108.51a.26.26,0,0,1-.19,0l-1.74-1c-.06,0-.08-.08,0-.11l1.15-.66a.19.19,0,0,1,.19,0l1.74,1c.06,0,.08.09,0,.11Z"/><path class="cls-7" d="M53.54,108.75a.26.26,0,0,1-.19,0l-1.74-1c-.06,0-.08-.08,0-.11l1.16-.66a.17.17,0,0,1,.18,0l1.74,1c.06,0,.08.09,0,.11Z"/><path class="cls-7" d="M51.75,109.78a.32.32,0,0,1-.22,0l-2.28-1.32c-.08,0-.12-.1-.07-.13l1.35-.78a.32.32,0,0,1,.22,0L53,108.87c.08,0,.11.1.07.13Z"/><path class="cls-7" d="M66.71,118.43s-.11,0-.17,0l-1.74-1c-.06,0-.09-.08,0-.1l.5-.29s.11,0,.18,0l1.73,1c.06,0,.09.08,0,.1Z"/><path class="cls-7" d="M69,119.8a.21.21,0,0,1-.18,0l-1.74-1c-.06,0-.08-.08-.05-.1l.5-.29a.21.21,0,0,1,.18,0l1.73,1c.07,0,.09.08.06.1Z"/><path class="cls-7" d="M71.5,121.19a.21.21,0,0,1-.18,0l-1.73-1c-.07,0-.09-.09-.06-.1l.48-.28a.21.21,0,0,1,.18,0l1.74,1c.06,0,.08.08,0,.1Z"/><path class="cls-7" d="M70,119.27a.19.19,0,0,1-.17,0l-1.74-1c-.06,0-.09-.08,0-.1l.48-.28a.19.19,0,0,1,.17,0l1.74,1c.06,0,.09.08.06.1Z"/><path class="cls-7" d="M63.71,116.68a.26.26,0,0,1-.19,0l-11.31-6.53c-.06,0-.08-.09,0-.11l1.35-.78a.19.19,0,0,1,.19,0L65,115.79c.06,0,.08.08,0,.11Z"/><path class="cls-7" d="M62.55,115.69l-.1,0-9-5.2c-.05,0-.09,0-.08,0l.08,0,.09,0,9,5.2c.05,0,.09,0,.08,0Z"/><path class="cls-7" d="M55.92,110.12a.19.19,0,0,1-.19,0l-1.74-1c-.06,0-.08-.09,0-.11l1.15-.67a.27.27,0,0,1,.19,0l1.73,1c.07,0,.08.08,0,.11Z"/><path class="cls-7" d="M58.31,111.5a.17.17,0,0,1-.18,0l-1.74-1c-.06,0-.08-.09,0-.11l1.15-.67a.23.23,0,0,1,.19,0l1.74,1c.06,0,.08.08,0,.11Z"/><path class="cls-7" d="M60.71,112.88a.19.19,0,0,1-.19,0l-1.74-1c-.06,0-.08-.09,0-.11l1.16-.66a.17.17,0,0,1,.18,0l1.74,1c.06,0,.08.08,0,.11Z"/><path class="cls-7" d="M63.1,114.27a.23.23,0,0,1-.19,0l-1.74-1c-.06,0-.08-.08,0-.11l1.15-.66a.19.19,0,0,1,.19,0l1.74,1c.06,0,.07.09,0,.11Z"/><path class="cls-7" d="M65.5,115.65a.22.22,0,0,1-.19,0l-1.74-1c-.06,0-.08-.08,0-.11l1.15-.66a.19.19,0,0,1,.19,0l1.74,1c.06,0,.08.09,0,.11Z"/><path class="cls-7" d="M67.89,117a.26.26,0,0,1-.19,0L66,116c-.06,0-.08-.08,0-.11l1.16-.66a.17.17,0,0,1,.18,0l1.74,1c.07,0,.08.09,0,.11Z"/><path class="cls-7" d="M73.28,120.14a.26.26,0,0,1-.19,0l-4.73-2.74c-.07,0-.08-.08,0-.11l1.15-.66a.22.22,0,0,1,.19,0l4.73,2.73c.07,0,.08.09,0,.11Z"/><path class="cls-7" d="M58.68,109.88a.19.19,0,0,1-.19,0l-1.74-1c-.06,0-.08-.09,0-.11l1.16-.67a.24.24,0,0,1,.18,0l1.74,1c.07,0,.08.08,0,.11Z"/><path class="cls-7" d="M61.07,111.26a.19.19,0,0,1-.19,0l-1.74-1c-.06,0-.07-.09,0-.11l1.15-.67a.23.23,0,0,1,.19,0l1.74,1c.06,0,.08.08,0,.11Z"/><path class="cls-7" d="M63.47,112.64a.19.19,0,0,1-.19,0l-1.74-1c-.06,0-.08-.09,0-.11l1.15-.67a.23.23,0,0,1,.19,0l1.74,1c.06,0,.08.08,0,.11Z"/><path class="cls-7" d="M65.86,114a.23.23,0,0,1-.19,0l-1.74-1c-.06,0-.08-.08,0-.11l1.16-.66a.17.17,0,0,1,.18,0l1.74,1c.06,0,.08.09,0,.11Z"/><path class="cls-7" d="M68.25,115.41a.21.21,0,0,1-.18,0l-1.74-1c-.07,0-.08-.08,0-.11l1.15-.66a.19.19,0,0,1,.19,0l1.74,1c.06,0,.08.09,0,.11Z"/><path class="cls-7" d="M70.65,116.79a.22.22,0,0,1-.19,0l-1.74-1c-.06,0-.08-.08,0-.11l1.15-.66a.19.19,0,0,1,.19,0l1.74,1c.06,0,.08.09,0,.11Z"/><path class="cls-7" d="M73,118.17a.26.26,0,0,1-.19,0l-1.74-1c-.06,0-.08-.08,0-.11l1.15-.66a.2.2,0,0,1,.18,0l1.74,1c.07,0,.08.09,0,.11Z"/><path class="cls-7" d="M59.7,108.64a.26.26,0,0,1-.19,0l-1.74-1c-.06,0-.08-.08,0-.11l1.16-.66a.2.2,0,0,1,.18,0l1.74,1c.06,0,.08.09,0,.11Z"/><path class="cls-7" d="M62.09,110a.26.26,0,0,1-.19,0l-1.74-1c-.06,0-.08-.08,0-.1l1.15-.67a.27.27,0,0,1,.19,0l1.74,1c.06,0,.07.08,0,.1Z"/><path class="cls-7" d="M64.48,111.4a.24.24,0,0,1-.18,0l-1.74-1c-.06,0-.08-.09,0-.11l1.15-.67a.26.26,0,0,1,.19,0l1.74,1c.06,0,.08.08,0,.1Z"/><path class="cls-7" d="M66.88,112.78a.19.19,0,0,1-.19,0l-1.74-1c-.06,0-.08-.09,0-.11l1.16-.67a.24.24,0,0,1,.18,0L68,112c.06,0,.08.08,0,.11Z"/><path class="cls-7" d="M69.27,114.16a.19.19,0,0,1-.19,0l-1.73-1c-.07,0-.08-.09,0-.11l1.15-.67a.26.26,0,0,1,.19,0l1.74,1c.06,0,.07.08,0,.11Z"/><path class="cls-7" d="M71.67,115.54a.19.19,0,0,1-.19,0l-1.74-1c-.06,0-.08-.09,0-.11l1.15-.67a.23.23,0,0,1,.19,0l1.74,1c.06,0,.08.08,0,.11Z"/><path class="cls-7" d="M74.06,116.92a.19.19,0,0,1-.19,0l-1.74-1c-.06,0-.08-.09,0-.11l1.16-.66a.17.17,0,0,1,.18,0l1.74,1c.07,0,.08.09,0,.11Z"/><path class="cls-7" d="M54.92,105.88a.19.19,0,0,1-.19,0l-2.94-1.7c-.07,0-.08-.08,0-.11l1.15-.66a.19.19,0,0,1,.19,0l2.95,1.7c.06,0,.08.08,0,.11Z"/><path class="cls-7" d="M78,117.39a.26.26,0,0,1-.19,0l-2.95-1.7c-.06,0-.08-.09,0-.11l1.16-.67a.24.24,0,0,1,.18,0l3,1.71c.06,0,.08.08,0,.1Z"/><path class="cls-7" d="M53.9,107.13a.23.23,0,0,1-.19,0l-3.51-2c-.06,0-.08-.09,0-.11l1.15-.67a.26.26,0,0,1,.19,0l3.52,2c.06,0,.08.09,0,.11Z"/><path class="cls-7" d="M51.15,107.37a.22.22,0,0,1-.19,0L48.61,106c-.06,0-.08-.08,0-.11l1.16-.66a.19.19,0,0,1,.19,0l2.34,1.35c.06,0,.08.09,0,.11Z"/><path class="cls-7" d="M57.69,105.65a.27.27,0,0,1-.19,0l-1.73-1c-.07,0-.08-.09,0-.11l1.15-.67a.26.26,0,0,1,.19,0l1.74,1c.06,0,.08.08,0,.1Z"/><path class="cls-7" d="M60.08,107a.19.19,0,0,1-.19,0l-1.74-1c-.06,0-.08-.09,0-.11l1.15-.67a.23.23,0,0,1,.19,0l1.74,1c.06,0,.08.08,0,.11Z"/><path class="cls-7" d="M62.47,108.4a.19.19,0,0,1-.19,0l-1.74-1c-.06,0-.08-.08,0-.11l1.15-.66a.19.19,0,0,1,.19,0l1.74,1c.06,0,.08.09,0,.11Z"/><path class="cls-7" d="M64.86,109.79a.23.23,0,0,1-.19,0l-1.73-1c-.07,0-.08-.08,0-.11l1.15-.66a.19.19,0,0,1,.19,0L66,109c.06,0,.08.09,0,.11Z"/><path class="cls-7" d="M67.25,111.17a.24.24,0,0,1-.18,0l-1.74-1c-.06,0-.08-.08,0-.11l1.15-.66a.19.19,0,0,1,.19,0l1.74,1c.06,0,.08.09,0,.11Z"/><path class="cls-7" d="M69.65,112.55a.26.26,0,0,1-.19,0l-1.74-1c-.06,0-.08-.08,0-.11l1.16-.66a.17.17,0,0,1,.18,0l1.74,1c.07,0,.08.09,0,.11Z"/><path class="cls-7" d="M72,113.93a.27.27,0,0,1-.19,0l-1.73-1c-.07,0-.08-.08,0-.11l1.15-.66a.26.26,0,0,1,.19,0l1.74,1c.06,0,.08.09,0,.11Z"/><path class="cls-7" d="M74.44,115.31a.26.26,0,0,1-.19,0l-1.74-1c-.06,0-.08-.08,0-.1l1.15-.67a.26.26,0,0,1,.19,0l1.74,1c.06,0,.08.08,0,.1Z"/><path class="cls-7" d="M75.83,116.53l-.1,0-.09,0-1.15.66a0,0,0,0,0,0,0l0,.06.46.26-1.51.88s0,0,0,0a.1.1,0,0,0,.06,0l1.17.68a.17.17,0,0,0,.1,0,.13.13,0,0,0,.09,0l2.74-1.58a0,0,0,0,0,0,0s0,0-.05-.06Z"/><path class="cls-7" d="M80.75,127.87,77,130.4a3.84,3.84,0,0,1-4.59-.27h0a2.27,2.27,0,0,1,.38-3.67l3.7-2.53a3.84,3.84,0,0,1,4.59.27h0A2.27,2.27,0,0,1,80.75,127.87Z"/><path class="cls-4" d="M79.82,127l-3.7,2.54a3.85,3.85,0,0,1-4.59-.27h0a2.27,2.27,0,0,1,.37-3.67l3.7-2.54a3.87,3.87,0,0,1,4.59.27h0A2.27,2.27,0,0,1,79.82,127Z"/><path class="cls-16" d="M78.92,122.94a2.91,2.91,0,0,0-1.26.67.51.51,0,0,0-.15.36.51.51,0,0,0,.51.51.64.64,0,0,0,.37-.15.52.52,0,0,1,.11-.1l-.1.08a2.17,2.17,0,0,1,.53-.31l-.12,0a2.4,2.4,0,0,1,.38-.12.51.51,0,0,0,.3-.24.49.49,0,0,0,.05-.39.51.51,0,0,0-.62-.36Z"/><path class="cls-9" d="M45.06,155.11c2.93-1.67,6.09-3,9.15-4.4,2.6-1.22,4.57-1.35,7.23-1.85A3.63,3.63,0,0,0,64,144.44c-.55-2-4.89-4.13-6.94-3.21-1.29.58-5.14,1.84-6.57,2.5-3.26,1.51-5.89,3.39-9,5.17-4,2.3-.4,8.51,3.63,6.21Z"/><path class="cls-17" d="M29.66,124.18c2.5.07,2.47-2.16,2.79-3.92,0,0,.09-.69,0-.52a1.23,1.23,0,0,1-.58.37,14.36,14.36,0,0,0,2-.07,18.63,18.63,0,0,0,6.27-1.83c2.77-1.34,6.41-5.4,9.63-5.08,2.89.28,2.87-4.23,0-4.51s-5.44,1.65-7.74,3.19a25.62,25.62,0,0,1-5.22,3c-2,.75-4.05.36-6,1A4.14,4.14,0,0,0,28,119.82c0,.26-.17.76-.07,1,.2.44,2.67-.08,2.57-1,0-.3-1.15-1.25-1.35-1.49C28.11,117.08,26.59,124.1,29.66,124.18Z"/><path class="cls-4" d="M23.73,111.85c-1.32,1.44-1.3,3.47-1.46,5.51a4.24,4.24,0,0,0,2.9,4.4L43.87,128s5.23-7.27-.91-9.91c-3.19-1.37-5.36-3.27-7.75-4.93C31.7,110.73,26.8,108.54,23.73,111.85Z"/><path class="cls-4" d="M20,147.58c-1.37-.48.9-19.92,2.53-32.94L44.66,126c-1.59,8.45-1.08,15-.78,23.57.15,4.15-5.12,7.34-8.84,5.49Z"/><path class="cls-17" d="M44.58,126.62c3.31,3,6.42,8.75,11.4,9,5.92.29,11.18-4.73,16.69-6.25,2.79-.76,1.61-5.11-1.2-4.34-4.87,1.33-9.08,5-14,6-2,.37-2.89-.43-4.18-1.82-1.81-2-3.53-3.93-5.5-5.74-2.14-2-5.34,1.23-3.19,3.19Z"/><path class="cls-4" d="M40.36,124.56,49,133c2.8,2.05,6.49-3.11,4.31-5l-8.4-8.79a3.08,3.08,0,0,0-4.36,0h0C39.42,120.46,39.06,123.12,40.36,124.56Z"/><path class="cls-17" d="M31.52,112.13l2.92-7.19,4.05,3.83L36,115.34C35.66,116.43,30.76,114.62,31.52,112.13Z"/><path class="cls-14" d="M40.1,116.45c-5.51-1.09-9.39-.29-10.15-5.83h0a1.74,1.74,0,0,1,2.36.63,5.32,5.32,0,0,0,5.06,2.22,1.67,1.67,0,0,1,1.62.87Z"/><path class="cls-2" d="M73.69,11.08,54.89.23c-1-.6-1.89,0-1.89,1.41l0,39.64a4.48,4.48,0,0,0,1.89,3.59l18.8,10.86c1,.6,1.9,0,1.9-1.41l0-39.64A4.53,4.53,0,0,0,73.69,11.08Z"/><path class="cls-18" d="M133.48,64.7,115.37,54.21a1.73,1.73,0,0,0-1.91-.09h0l-3.07,1.73a26.09,26.09,0,0,1,2.08,3.94V76.14a6.77,6.77,0,0,0,2.84,5.38L130.08,90c1.37,2.32,2.38,3.84,2.38,3.84l2.93-1.65h0a2.65,2.65,0,0,0,.89-2.34V70.08A6.73,6.73,0,0,0,133.48,64.7Z"/><path class="cls-9" d="M130.38,93.84,112.21,83.35A6.77,6.77,0,0,1,109.4,78V58.16c0-2.07,1.26-3,2.81-2.13l18.17,10.49a6.75,6.75,0,0,1,2.82,5.39V91.7C133.2,93.78,131.94,94.73,130.38,93.84Z"/><polygon class="cls-14" points="116.3 78.63 111.49 70.32 116.73 67.33 117.74 69.11 114.29 71.08 118.07 77.61 116.3 78.63"/><polygon class="cls-14" points="125.84 83.71 124.82 81.93 128.23 79.99 124.4 73.38 126.17 72.35 131.03 80.75 125.84 83.71"/><rect class="cls-14" x="114.61" y="74.75" width="13.77" height="2.04" transform="translate(16.6 173.24) rotate(-74.85)"/><path class="cls-4" d="M101.88,44.85,83.76,34.36a1.72,1.72,0,0,0-1.9-.1h0L78.79,36a27.39,27.39,0,0,1,2.08,3.93V56.29a6.76,6.76,0,0,0,2.84,5.38l14.76,8.52c1.38,2.32,2.39,3.83,2.39,3.83l2.93-1.64h0a2.65,2.65,0,0,0,.88-2.34V50.23A6.7,6.7,0,0,0,101.88,44.85Z"/><path class="cls-19" d="M98.78,74,80.61,63.5a6.77,6.77,0,0,1-2.82-5.39V38.31c0-2.07,1.27-3,2.82-2.13L98.78,46.67a6.74,6.74,0,0,1,2.82,5.38v19.8C101.6,73.93,100.34,74.88,98.78,74Z"/><path class="cls-20" d="M131.84,102.64,113.91,92.3a1.73,1.73,0,0,0-1.91-.09h0l-2.9,1.7a21.87,21.87,0,0,1,2.16,3.89v16.13a6.57,6.57,0,0,0,2.68,5.31l14.49,8.4a19,19,0,0,1,1.85,4l3.59-1.83a2.39,2.39,0,0,0,.87-2.32V108A6.76,6.76,0,0,0,131.84,102.64Z"/><path class="cls-11" d="M128.65,131.37,110.74,121a6.64,6.64,0,0,1-2.78-5.31V96.2c0-2,1.24-3,2.78-2.1l17.91,10.34a6.63,6.63,0,0,1,2.78,5.31v19.52C131.43,131.32,130.19,132.26,128.65,131.37Z"/><path class="cls-14" d="M121.57,120.53l.32.18c.69.4.87.22.87-.82s-.06-2-.06-3.14c0-1.44.4-1.76,1.22-1.51v-.08a3.39,3.39,0,0,1-1.22-2.93c0-1.16.06-2,.06-3.06s-.18-1.43-.87-1.83l-.32-.18v-1.49l1,.61a3.9,3.9,0,0,1,2.12,3.92c0,1.35-.16,2-.16,3.15a2.69,2.69,0,0,0,1.42,2.23v1.63c-1.07-.58-1.42-.08-1.42.58,0,1.2.16,2,.16,3.35,0,2-.66,2.31-2.12,1.47l-1-.6Z"/><path class="cls-14" d="M116.4,119l-1-.6a3.9,3.9,0,0,1-2.12-3.92c0-1.35.16-2,.16-3.15a2.66,2.66,0,0,0-1.42-2.23v-1.63c1.08.58,1.42.08,1.42-.59,0-1.19-.16-2-.16-3.34,0-2,.66-2.31,2.12-1.47l1,.6v1.48l-.31-.18c-.7-.4-.88-.22-.88.82s.07,2,.07,3.14c0,1.44-.4,1.76-1.23,1.51v.08a3.37,3.37,0,0,1,1.23,2.93c0,1.16-.07,2-.07,3s.18,1.44.88,1.84l.31.18Z"/><path class="cls-9" d="M69.19,56.52l-17.37-10a4.15,4.15,0,0,1-1.75-3.32l0-36.63c0-1.27.78-1.85,1.75-1.3l17.37,10A4.17,4.17,0,0,1,71,18.59l0,36.63C70.94,56.5,70.16,57.08,69.19,56.52Z"/><path class="cls-11" d="M57.61,18l-3.74-2.16a3.24,3.24,0,0,1-1.37-2.6h0c0-1,.62-1.45,1.37-1l3.74,2.16A3.26,3.26,0,0,1,59,17h0C59,18,58.36,18.42,57.61,18Z"/><path class="cls-14" d="M62.75,27.23,57.11,24A2.6,2.6,0,0,1,56,21.92h0c0-.79.49-1.15,1.09-.8l5.63,3.25a2.59,2.59,0,0,1,1.08,2.06h0C63.83,27.22,63.35,27.58,62.75,27.23Z"/><path class="cls-21" d="M67.46,36.52l-10.35-6A2.56,2.56,0,0,1,56,28.49h0c0-.79.48-1.15,1.08-.81l10.35,6a2.56,2.56,0,0,1,1.09,2.06h0C68.55,36.51,68.06,36.87,67.46,36.52Z"/><path class="cls-14" d="M62.74,40.36l-5.63-3.25A2.59,2.59,0,0,1,56,35.05h0c0-.79.49-1.15,1.09-.81l5.63,3.26a2.55,2.55,0,0,1,1.08,2h0C63.82,40.34,63.34,40.7,62.74,40.36Z"/><path class="cls-11" d="M57.87,43.76,54,41.53a2.58,2.58,0,0,1-1.09-2.06h0c0-.79.49-1.15,1.09-.8l3.86,2.23A2.55,2.55,0,0,1,59,43h0C59,43.74,58.47,44.11,57.87,43.76Z"/><rect class="cls-4" x="58.67" y="149.56" width="2.23" height="30.54" rx="0.96" transform="translate(143.12 319.09) rotate(171.56)"/><path class="cls-4" d="M9.22,181.78h0a1.08,1.08,0,0,1-.91-1.23l5.06-34.14a1.08,1.08,0,0,1,1.23-.9h0a1.07,1.07,0,0,1,.9,1.22l-5.06,34.14A1.09,1.09,0,0,1,9.22,181.78Z"/><path class="cls-4" d="M34.05,196.3h0a1.15,1.15,0,0,1-1-1.31L39,155.11a1.15,1.15,0,0,1,1.31-1h0a1.15,1.15,0,0,1,1,1.31l-5.91,39.88A1.16,1.16,0,0,1,34.05,196.3Z"/><path class="cls-18" d="M37.82,168.1,13.52,154A10.17,10.17,0,0,1,10,150.08c-.85-2,1.18-3.38,3.46-2.06l22.29,13.12c2.28,1.32,3.14,2.69,2.77,4.32C38.5,165.46,40.7,169.59,37.82,168.1Z"/><path class="cls-18" d="M59,157.66,42.09,168c-2.73,1.68-4.85.89-4.7-1.75l.15-2.53c.15-2.64,2.51-6.17,5.25-7.84l16.9-10.35c2.73-1.67,4.85-.88,4.7,1.75l-.15,2.53C64.09,152.46,61.73,156,59,157.66Z"/><path class="cls-18" d="M10,149.72,5.77,123.27c-.72-3.91,2.21-5.22,6.33-2.82L28.6,130a17.84,17.84,0,0,1,7.06,8.06l7,17.18c2,4.92-2.31,9.77-6.48,7.29Z"/><path class="cls-22" d="M39.44,99.93l0,.71s.1,2.15-2,1-2-3.79-2-3.79S37,97.7,39.44,99.93Z"/><path class="cls-23" d="M37.43,101.74c2.75,1.43,2.66-1.07,2.66-1.07h0L40,99.83c-3.08-2.64-5-2.52-5-2.52A4.62,4.62,0,0,0,37.43,101.74ZM35.5,98s1.57-.08,3.93,2v.62s.08,1.86-2,.79A3.86,3.86,0,0,1,35.5,98Z"/><polygon class="cls-23" points="41.12 101.15 39.48 100.4 39.39 99.47 41.03 100.22 41.12 101.15"/><path class="cls-23" d="M35.13,98l-.29-.14a.64.64,0,0,1-.32-.49h0c0-.2.1-.3.25-.23l.29.13a.65.65,0,0,1,.33.49h0C35.4,98,35.29,98.1,35.13,98Z"/><path class="cls-23" d="M45.73,102.86l-.29-.13a.69.69,0,0,1-.33-.5h0c0-.2.1-.3.26-.23l.29.14a.64.64,0,0,1,.32.49h0C46,102.83,45.88,102.93,45.73,102.86Z"/><path class="cls-4" d="M45.49,102.1a8.4,8.4,0,0,0-5-2l.08.85h0a5.09,5.09,0,0,0,3.12,3.71C46.45,105.68,45.49,102.1,45.49,102.1Zm-1.88,2.07a3.77,3.77,0,0,1-2.32-2.75l-.1-.66a6.6,6.6,0,0,1,3.89,1.6S45.64,105,43.61,104.17Z"/><path class="cls-24" d="M41.67,101.89h0c-.07-.08-.09-.18,0-.23l.48-.54c0-.05.14,0,.2.06h0c.07.09.09.19,0,.24l-.49.53S41.74,102,41.67,101.89Z"/><path class="cls-25" d="M35.82,99.1h0c-.07-.08-.09-.18,0-.23l.49-.54s.13,0,.2.07h0c.07.08.09.18,0,.23l-.48.54C36,99.21,35.88,99.18,35.82,99.1Z"/><path class="cls-17" d="M34.76,95.44s-4.17-2.91-4.21,4.16a12.32,12.32,0,0,0,7,11.09c2.51,1.19,5.58-.34,5.72-2.79.6-3.56.6-6.9-.57-9.77.17-2.95-1.86-1.9-5.37-2.09Z"/><path class="cls-4" d="M32.37,109.15s-4.82-1.79-4.36-8.58c.49-7.35,7.25-6.72,11-7.08,1.67-.16,2.82-.4,4.53,1.12,1.55,1.38.1,4.49-2.12,4.69-.88.08-.48,2.45-.66,3.26-.32,1.45-1.22,2.16-1.55,3.56s-2.27,3.41-3.55,3.56A4.74,4.74,0,0,1,32.37,109.15Z"/><path class="cls-4" d="M45.62,103.08l-6.23.6a.4.4,0,0,1-.44-.36h0a.4.4,0,0,1,.36-.44l6.23-.6a.4.4,0,0,1,.44.36h0A.4.4,0,0,1,45.62,103.08Z"/><path class="cls-4" d="M36.82,106.73c-.23.17-.75,5.08,3.38,4.29s3.3-4.93,3.3-4.93-3.28.85-4.19-3.21S36.82,106.73,36.82,106.73Z"/><path class="cls-17" d="M40.34,104.7c.1,1.16-.5,2.16-1.33,2.23a.82.82,0,0,1-.27,0,2,2,0,0,1-1.42-2c-.1-1.16.5-2.16,1.33-2.23S40.24,103.54,40.34,104.7Z"/><path class="cls-14" d="M96.1,56.49h0c-.84-.49-1.27-1.91-.67-2.25h0c.68-.39.68-1.65,0-2.82l-.35-.61c-.68-1.17-1.78-1.8-2.46-1.42h0c-.6.34-1.62-.73-1.62-1.71h0a3.85,3.85,0,0,0-1.74-3l-.5-.28c-1-.56-1.73-.11-1.73,1h0c0,1-1,.87-1.63-.17h0c-.68-1.17-1.78-1.8-2.46-1.42l-.35.2c-.68.39-.68,1.65,0,2.82h0c.6,1,.18,2-.67,1.48h0c-1-.55-1.74-.11-1.74,1v.57a3.85,3.85,0,0,0,1.74,3c.85.49,1.27,1.91.67,2.25h0c-.68.39-.68,1.65,0,2.82l.35.61c.68,1.17,1.78,1.8,2.46,1.42h0c.6-.35,1.63.73,1.63,1.71h0a3.84,3.84,0,0,0,1.73,3l.5.28c1,.56,1.74.11,1.74-1s1-.87,1.62.17,1.78,1.8,2.46,1.42l.35-.2c.68-.39.68-1.65,0-2.82h0c-.6-1-.17-2,.67-1.48h0c1,.55,1.74.11,1.74-1v-.57A3.82,3.82,0,0,0,96.1,56.49ZM89,59.63a9.52,9.52,0,0,1-4.31-7.45c0-2.73,1.93-3.83,4.31-2.46a9.51,9.51,0,0,1,4.32,7.45C93.33,59.9,91.4,61,89,59.63Z"/><path class="cls-26" d="M3.49,72.59A2.81,2.81,0,0,1,5,70.18l31.2-17.25c.87-.48,1.57,0,1.57,1.13l0,26.43a3.54,3.54,0,0,1-1.57,2.87L7,99.51a2.12,2.12,0,0,1-3.34-1.74Z"/><path class="cls-4" d="M3.49,72.47a2.59,2.59,0,0,1,1.36-2.23L35.9,53.07c1-.56,1.83-.24,1.83.71V57L3.51,75.93Z"/><path class="cls-12" d="M12.77,68.22c0,.43.37.57.82.32a1.61,1.61,0,0,0,.83-1.23c0-.43-.37-.57-.83-.32A1.62,1.62,0,0,0,12.77,68.22Z"/><path class="cls-27" d="M9.44,70.06c0,.43.37.57.82.32a1.61,1.61,0,0,0,.83-1.23c0-.43-.37-.57-.83-.32A1.62,1.62,0,0,0,9.44,70.06Z"/><path class="cls-10" d="M6.11,71.9c0,.43.37.57.82.32A1.61,1.61,0,0,0,7.76,71c0-.43-.37-.57-.83-.32A1.62,1.62,0,0,0,6.11,71.9Z"/><path class="cls-9" d="M11.55,92.13l21-11.83a1.54,1.54,0,0,0,.8-1.36l-.11-13.8a.91.91,0,0,0-1.36-.75L11,76.16a1.53,1.53,0,0,0-.79,1.33l.11,14A.82.82,0,0,0,11.55,92.13Z"/><path class="cls-4" d="M30.33,81.57l-2.95-3a1.43,1.43,0,0,0-2.3.36l-2.66,5.81-3.19-4.19a1.43,1.43,0,0,0-2.46.31L12.85,91.41Z"/><path class="cls-14" d="M25.1,72.63c0,1,.64,1.41,1.41,1a3.15,3.15,0,0,0,1.37-2.54c0-1-.64-1.42-1.4-1A3.17,3.17,0,0,0,25.1,72.63Z"/><polygon class="cls-18" points="14.22 54.34 28.89 45.87 28.89 29.04 14.22 37.51 14.22 54.34"/><path class="cls-14" d="M17.21,50.6l9.42-5.76c0-2.21-.41-2.85-.83-3a1.33,1.33,0,0,0-.68,0,5.36,5.36,0,0,1-.71.06,2.68,2.68,0,0,0-.4,0h0l-.31,0h0l-.16,0h0L23.33,42s-.08-.05-.08,0v-.1c0-.28,0-.56,0-.84h0a3.76,3.76,0,0,0,.33-.73,5.41,5.41,0,0,0,.12-.55c.36-.23.47-.84.53-1.25s.12-1.11-.26-.88l0-.14a6,6,0,0,0,.11-.81A1.17,1.17,0,0,0,24,36s-.08-.1-.15-.06a.67.67,0,0,0,0-.24c0-.61-.46-.66-.81-.61a2.81,2.81,0,0,0-1.47.69,4.31,4.31,0,0,0-1.2,1.93.8.8,0,0,0-.05.29.87.87,0,0,0-.1.19,2.25,2.25,0,0,0-.16.82,3.73,3.73,0,0,0,.08.69l0,.11C19.93,40,20,40.69,20,41s.12.88.52.64a1,1,0,0,0,.43.8l0,.82v.13l-.07.08-.26.34-.6.64h0c-.1.1-.2.2-.29.31-.3.3-.6.61-.84.83a5.28,5.28,0,0,0-.69.77h0A8.94,8.94,0,0,0,17.21,50ZM20.07,41v-.09S20.07,41,20.07,41Z"/><polygon class="cls-18" points="5.66 42.96 12.27 39.14 12.27 41.37 5.66 45.19 5.66 42.96"/><polygon class="cls-18" points="0 53.38 12.58 46.12 12.58 43.89 0 51.15 0 53.38"/><polygon class="cls-18" points="0.31 58.13 12.89 50.87 12.89 48.63 0.31 55.9 0.31 58.13"/><polygon class="cls-28" points="20.46 56.54 35.13 48.07 35.13 31.24 20.46 39.71 20.46 56.54"/></g></g></g></svg>