<svg xmlns="http://www.w3.org/2000/svg" xmlns:xlink="http://www.w3.org/1999/xlink" viewBox="0 0 167.74 164.98"><defs><style>.cls-1{fill:#cdeef8;}.cls-1,.cls-10,.cls-11,.cls-12,.cls-13,.cls-14,.cls-15,.cls-16,.cls-17,.cls-18,.cls-19,.cls-2,.cls-20,.cls-21,.cls-22,.cls-23,.cls-24,.cls-25,.cls-26,.cls-27,.cls-28,.cls-29,.cls-3,.cls-30,.cls-31,.cls-32,.cls-33,.cls-34,.cls-35,.cls-36,.cls-37,.cls-38,.cls-39,.cls-4,.cls-40,.cls-41,.cls-42,.cls-43,.cls-44,.cls-45,.cls-46,.cls-47,.cls-48,.cls-6,.cls-7,.cls-8,.cls-9{fill-rule:evenodd;}.cls-2{fill:#0154a3;}.cls-3{fill:#0065d3;}.cls-4{fill:#54b2c6;}.cls-5{opacity:0.32;}.cls-7{fill:#fcfeff;}.cls-8{fill:#333;}.cls-9{fill:#00195f;}.cls-10{fill:#27e0c0;}.cls-11{fill:#ffd22e;}.cls-12{fill:#fff;}.cls-13{fill:#ff65a7;}.cls-14{fill:#ffa2c9;}.cls-15{fill:#666591;}.cls-16{fill:#dd2b78;}.cls-17{fill:#242343;}.cls-18{fill:#c3e2ff;}.cls-19{fill:#e5f5ff;}.cls-20{fill:#003675;}.cls-21{fill:#0059c2;}.cls-22{fill:#ed8a55;}.cls-23{fill:#00265b;}.cls-24{fill:#feb37c;}.cls-25{fill:#b91a5f;}.cls-26{fill:#fd9f6c;}.cls-27{fill:#72c3ff;}.cls-28{fill:#d735a1;}.cls-29{fill:#e8f9ff;}.cls-30{fill:#6ca4df;}.cls-31{fill:url(#linear-gradient);}.cls-32{fill:url(#linear-gradient-2);}.cls-33{fill:#ff65ab;}.cls-34{fill:#d0deff;}.cls-35{fill:#8ec2ff;}.cls-36{fill:#ccc;}.cls-37{fill:#001836;}.cls-38{fill:#63abff;}.cls-39{fill:#826448;}.cls-40{fill:#f7dade;}.cls-41{fill:#5a6771;}.cls-42{fill:#0b2f96;}.cls-43{fill:#999;}.cls-44{fill:#e1f8fe;}.cls-45{fill:#cbdfff;}.cls-46{fill:url(#linear-gradient-3);}.cls-47{fill:url(#linear-gradient-4);}.cls-48{fill:#03f4d0;}</style><linearGradient id="linear-gradient" x1="34.72" y1="91.59" x2="123.9" y2="91.59" gradientUnits="userSpaceOnUse"><stop offset="0.21" stop-color="#29c1ed"/><stop offset="0.36" stop-color="#b3e4f2"/></linearGradient><linearGradient id="linear-gradient-2" x1="52.77" y1="134.1" x2="85.96" y2="76.67" gradientUnits="userSpaceOnUse"><stop offset="0.09" stop-color="#e8faff"/><stop offset="0.97" stop-color="#c4f2ff"/></linearGradient><linearGradient id="linear-gradient-3" x1="-245.26" y1="-881.74" x2="-216.21" y2="-881.74" gradientTransform="translate(-117.43 -724.72) rotate(180)" gradientUnits="userSpaceOnUse"><stop offset="0.34" stop-color="#f11f79"/><stop offset="0.57" stop-color="#ff4494"/></linearGradient><linearGradient id="linear-gradient-4" x1="154.58" y1="141.4" x2="125.61" y2="141.4" gradientUnits="userSpaceOnUse"><stop offset="0.34" stop-color="#00ab8e"/><stop offset="0.57" stop-color="#00e1c0"/></linearGradient></defs><g id="Layer_2" data-name="Layer 2"><g id="Layer_4" data-name="Layer 4"><path class="cls-1" d="M142.26,99.55l10.6-26.45,2.3-5.8,5.7-14.2,1.9-4.75.65-1.7L89.66,4.35l-.5-.3h0L89,4l-.28-.17-.22-.13L87.31,3,64.16,60.85l8.2,4.7c-.9,1.1-1.84,2.15-2.8,3.15a15.11,15.11,0,0,1-1.8-1.15l-1.85-1.3q-4-3.41-4.25-6.1v-1a4.87,4.87,0,0,1,.45-1.75l22-54.6q1.35-3.15,5-2.75a1.72,1.72,0,0,1,.35.05A21,21,0,0,1,96.61,3l60.55,34.9q10.25,6,8,11.7l-22,54.55a4.37,4.37,0,0,1-3.2,2.75h-.1a.92.92,0,0,0-.25,0,.21.21,0,0,0-.15,0h-.15l-4.15-.8a.4.4,0,0,0-.3-.1l-.9-.4a33.58,33.58,0,0,1-3.4-1.75L124,100.1q1.5-1.6,2.8-3.3l13.5,7.75.35-.9Z"/><path class="cls-2" d="M89.13,4.05l.53.3,73.75,42.3-.65,1.7L134.21,31.9c-.2-.1-.39-.2-.55-.3-1.07-.6-2.09-1.12-3-1.55a22.7,22.7,0,0,0-5.55-1.85,12.46,12.46,0,0,0-3-.15,3.94,3.94,0,0,0-.9.1l-22.5-13A2.6,2.6,0,0,0,96,15l-.2.1c-.57.07-1,.53-1.4,1.4L80.46,50.9a1.08,1.08,0,0,1,0,.2l-14.2,8.15L88.41,3.7l0-.05.22.13.23.17h0l.15.1Z"/><path class="cls-3" d="M88.68,3.78,89,4h0ZM66.21,59.25l-.55,1.4L73,64.8q-.3.4-.6.75l-8.2-4.7L87.31,3l1.15.65,0,.05Zm61.15,36.8,13.25,7.6-.35.9-13.5-7.75Q127.06,96.4,127.36,96.05Z"/><path class="cls-4" d="M140,106.9a4.37,4.37,0,0,0,3.2-2.75l22-54.55q2.29-5.7-8-11.7L96.61,3A21,21,0,0,0,89.46.1Q92.7-.55,98.81,3l60.55,34.9q10.29,6,7.95,11.7l-21.95,54.55Q144,107.45,140,106.9Zm-131.3.5c-.17.67-.32,1.33-.45,2L7,108.65a29.07,29.07,0,0,1-4.3-2.9,8.55,8.55,0,0,1-2-2.3,2.38,2.38,0,0,1-.1-2.4,1.86,1.86,0,0,0,.1.2A11.45,11.45,0,0,0,4,104.55a28.94,28.94,0,0,0,3,1.85Zm11.4,8.8-2.9-1.7c.1-.67.21-1.33.35-2l2.7,1.55C20.17,114.78,20.12,115.5,20.06,116.2Zm9.25,5.35c.06-.7.15-1.4.25-2.1l38,22a33.74,33.74,0,0,0,7.8,3.35q4.74,1.2,8-.65h0l53.05-30.65a4.23,4.23,0,0,0,1.7-1.5c.66,1.4.1,2.63-1.7,3.7l-53.1,30.7q-3.25,1.8-8,.6a32.46,32.46,0,0,1-7.8-3.4Z"/><g class="cls-5"><path class="cls-6" d="M121.21,28.15l26,15h0q2.79,1.45,1.4,4.9l-5.15,12.75-2.25,5.6-8.45,21,0,0a48.82,48.82,0,0,1-3.45,6.15q-.85,1.31-1.8,2.55-.3.35-.6.75-1.31,1.7-2.8,3.3a57,57,0,0,1-5,4.75,8.88,8.88,0,0,0-.7.55c-1,.8-2.1,1.6-3.2,2.4l-1.3.9-.85.55,0,0-.65.35a.48.48,0,0,0-.15.1l-2.5,1.4-1,.6-3.4,2-.85.5-3.35,1.9-1,.55-3.4,2-3.35,1.9-1.5.9-1.5.85L68.66,134.75a.48.48,0,0,0-.15.1,4.54,4.54,0,0,1-4.8.05l-33.6-19.4a2.83,2.83,0,0,0,.05-.5c.1-.53.18-1.07.25-1.6l32.9,19a3.23,3.23,0,0,0,3.4-.15l44.15-25.45q13.2-8.51,19.2-21.25l15.85-39.3c.56-1.4.33-2.4-.7-3L96.76,15.3a1.33,1.33,0,0,0-1-.25L96,15a2.6,2.6,0,0,1,2.75.2ZM80.36,51.25a2.6,2.6,0,0,0-.1.25v0Zm-.1.25a5.66,5.66,0,0,0-.2.58c0-.17.09-.35.15-.53Zm-60.5,58-1.4-.8c.16-.63.35-1.28.55-2l.05,0,.3,1.1a2.37,2.37,0,0,1,.15.45Z"/></g><path class="cls-7" d="M31.46,99.1a33.57,33.57,0,0,0-.5-5.75l4.75-2.75,1.7-.95,3.35-2L42,87l3.2-1.85,1-.6,1.25-.75,6,22.5.1,0,0,.05-.15-.1-4-2.3c-.57.37-1.29.83-2.15,1.4l4.3,2.5,2.15-1.25,1.8,2.75-.2.1.4.25.3.45,2.65,4.15L52.91,111l-2.35,1.35,15,8.65,1-.85c.33-.27.65-.5,1-.7L59.86,115l.2-2.8,3.35,2a7.89,7.89,0,0,1,1.3-.9,5.78,5.78,0,0,1,.9-.5l-5.35-3.1.05-.6.15-2.15,9.9,5.7h0l3.8,2.2c.4-.23.88-.48,1.45-.75.4-.2.75-.37,1-.5l-14.1-8.15-2,1.15.15-2.1.1,0L54.26,80l.55-.3,3.35-2,1-.6.2-.1c.5-.3,1-.62,1.45-1,.7-.47,1.4-1,2.1-1.45a8.7,8.7,0,0,1,1-.75,62.1,62.1,0,0,0,5.75-5.15c1-1,1.9-2,2.8-3.15q.3-.35.6-.75A48,48,0,0,0,78.41,56l1.5-3.5a3,3,0,0,1,.15-.42,5.66,5.66,0,0,1,.2-.58,2.6,2.6,0,0,1,.1-.25.17.17,0,0,1,0-.15,1.08,1.08,0,0,0,0-.2l13.9-34.45c.36-.87.83-1.33,1.4-1.4a1.33,1.33,0,0,1,1,.25l48.45,28c1,.6,1.26,1.6.7,3l-15.85,39.3q-6,12.75-19.2,21.25L66.71,132.25a3.23,3.23,0,0,1-3.4.15l-32.9-19q.39-3.15.65-6.3L34.31,109c.5-.37.88-.67,1.15-.9a4.36,4.36,0,0,1,.9-.55l-5.1-3c.06-.93.11-1.87.15-2.8l3.9,2.25a1.93,1.93,0,0,1,.5-.35,5.58,5.58,0,0,1,1.95-.9Zm66.3-75.75.85.5-4.1,9.75a3.62,3.62,0,0,1-.6,1.1.76.76,0,0,1-.55.25,1.77,1.77,0,0,1-.9-.3l-.4-.2-.15.35,6.2,3.55.15-.3-.4-.25a2.61,2.61,0,0,1-.7-.65,1.25,1.25,0,0,1-.2-.65,4.22,4.22,0,0,1,.4-1.25l4.15-9.75.85.5a3.91,3.91,0,0,1,1.1.85,2.91,2.91,0,0,1,.6,1.35,5.78,5.78,0,0,1-.1,2.05l.3.2L105.71,27,95.06,20.85l-1.5,3.4.35.2a3.82,3.82,0,0,1,1.9-1.6A2.64,2.64,0,0,1,97.76,23.35Zm3.1,13.1a4.71,4.71,0,0,0-.35,1.45,4.12,4.12,0,0,0,0,.7,2.43,2.43,0,0,0,1.3,1.95,2,2,0,0,0,1.35.3,3.29,3.29,0,0,0,1.5-.75l-.15-.25a1.64,1.64,0,0,1-.85.35.87.87,0,0,1-.7-.1,1.72,1.72,0,0,1-.75-1.05,3.47,3.47,0,0,1,.2-2l2.85,1.6a3.7,3.7,0,0,0,.25-2.4,1.86,1.86,0,0,1-.1-.2,2.32,2.32,0,0,0-2.6-1.55,1.8,1.8,0,0,1-.4.15,2.19,2.19,0,0,0-.8.6A4.11,4.11,0,0,0,100.86,36.45ZM89.31,41.9a1.82,1.82,0,0,0-1,1.05l-5.2,13a2,2,0,0,0,1,2.7l9.35,5.4v0l3.75,2.25a1.76,1.76,0,0,0,1.35.35c.13,0,.21,0,.25-.1a1.61,1.61,0,0,0,.75-1l5.25-12.95a2,2,0,0,0-1-2.7L97.11,46V45.9l-6.35-3.65A2.34,2.34,0,0,0,89.31,41.9ZM39.06,99.6q-.41.34-.75.6l3.25,1.85h-.05l4.2,2.45c.43-.27,1-.57,1.6-.9.3-.13.58-.27.85-.4l-8-4.65A13,13,0,0,1,39.06,99.6Zm.3,4.1A7.35,7.35,0,0,1,38.11,105l-.55.35,2.5,1.45c.26-.23.58-.5.95-.8a5.47,5.47,0,0,1,1.05-.7Zm-2.45-4.35a10.45,10.45,0,0,1,2.3-1.3l-5.5-3.2-2.3,1.35ZM59.56,87.6c-.3.3-.79.75-1.45,1.35a3.63,3.63,0,0,1-.35.3l13.1,7.55,2.3-1.3ZM57.76,81l-2.35,1.3,7.05,4.1a7.56,7.56,0,0,1,1.9-1.55Zm28.05-9.4,5.7,3.4c.2-.27.43-.55.7-.85a6.81,6.81,0,0,1,1.1-1Q88.06,70,82.41,66.8c-.1.23-.24.5-.4.8a6.74,6.74,0,0,1-1,1.3C82.62,69.8,84.21,70.7,85.81,71.6ZM91,66.9c.2-.23.38-.43.55-.6q-6.15-3.6-12.8-7.3c-.34.67-.7,1.37-1.1,2.1q5.6,3.15,11.25,6.4c.36.23.75.47,1.15.7C90.27,67.8,90.59,67.37,91,66.9Zm1.7.1c-.1.27-.22.58-.35,1a5.72,5.72,0,0,1-.75,1.15q2.14,1.2,4.2,2.45c.46-.9.85-1.6,1.15-2.1ZM82.21,75.5c.83.53,1.7,1,2.6,1.55.13-.2.3-.43.5-.7a4.92,4.92,0,0,1,1.25-1.15Q80,71.26,72.66,67.05a16.1,16.1,0,0,1-1.85,1.75Q76.45,72.1,82.21,75.5ZM79.46,68a7.46,7.46,0,0,1,.6-1.1,6.85,6.85,0,0,1,.85-.9l-4.75-2.7-1.6,1.9Zm21.35,9.3-1.6,1.9q2.25,1.24,4.5,2.55c.3-.3.65-.62,1.05-1s.68-.55.95-.75Zm-7.7-2a4.39,4.39,0,0,0-.3.45c1.1.67,2.21,1.33,3.35,2q.8-1,1.65-2c-1.2-.73-2.4-1.45-3.6-2.15A11.82,11.82,0,0,1,93.11,75.35Zm4.8-5.3q-.15.3-.6,1.65a2.78,2.78,0,0,1-.25.6l2.3,1.4c.46-.7.9-1.37,1.3-2C99.76,71.17,98.84,70.62,97.91,70.05Zm-9.9,6c-.27.7-.45,1.17-.55,1.4a5,5,0,0,1-.6.9q2.79,1.7,5.6,3.45.9-.94,1.8-2C92.26,78.62,90.17,77.35,88,76.05Zm-22.85-2a15.37,15.37,0,0,0-1.55,1.8q12.24,7,21.7,13c.53-.5,1.06-1,1.6-1.6Q77.36,81.2,65.16,74.1Zm11.65,1.2c-.2.3-.47.67-.8,1.1a6.68,6.68,0,0,1-.75.8l3.25,2q5,3.15,10.25,6.35c.53-.53,1.11-1.1,1.75-1.7Q84.15,79.7,76.81,75.3Zm-8-4.7c-.6.57-1.22,1.13-1.85,1.7,2.23,1.33,4.48,2.67,6.75,4l.6-.6c.5-.43.93-.78,1.3-1Q72.36,72.65,68.86,70.6Zm8.55,16.2a6.3,6.3,0,0,1-1.5,1.1l-.65.35,5.2,3L82.81,90Zm-4,.45a7.57,7.57,0,0,1,1.9-1.6L62.56,78.2l-2.35,1.35Zm-7.9.9v0l10.1,5.85L78,92.7,66.41,86l-1.1.7c-.44.27-.82.48-1.15.65Zm16.2,6.15-2.35,1.35,5.3,3a8.8,8.8,0,0,1,2.15-1.4Zm-1.2,4.45a3.12,3.12,0,0,0-1.5.4L68,105.6c-1,.53-.94,1.1.1,1.7l12,6.9a3.17,3.17,0,0,0,1.4.5.5.5,0,0,0,.3,0,2.91,2.91,0,0,0,1.25-.4l11.1-6.4c1-.57,1-1.15,0-1.75l-12-7A4,4,0,0,0,80.56,98.75Zm18.35-11c-.2.27-.45.65-.75,1.15a7.22,7.22,0,0,1-.7.85q2.49,1.4,5,2.9a8.73,8.73,0,0,1,1.3-1.25l.55-.45C102.52,89.93,100.74,88.87,98.91,87.8Zm-1.55-6.75c-.6.6-1.24,1.18-1.9,1.75q5.64,3.3,11.4,6.7c.46.3,1,.6,1.45.9l.65-.75a10.7,10.7,0,0,1,1.3-1.05Q104.16,85,97.36,81.05Zm-7.55,7a15.37,15.37,0,0,0-1.55,1.8q12.24,7,21.7,13c.53-.5,1.06-1,1.6-1.6Q102,95.2,89.81,88.1ZM101,100c-.37.27-.87.65-1.5,1.15-.17.13-.34.25-.5.35l5.45,3.15,2.3-1.35Zm-12.85-1.9c-.4.47-.84.93-1.3,1.4a2.72,2.72,0,0,0-.35.3l13.15,7.6,2.3-1.3Zm-1.6-6.5-2.35,1.3L94.36,98.7l0,0L97,100.3c.46-.27,1-.55,1.65-.85a4.34,4.34,0,0,1,.9-.35Zm-67.65,15.2v-.1l.05.15Zm57.7,8.45q-.4.35-.75.6l4.6,2.65,2.3-1.3-5.05-3C77.44,114.47,77.07,114.8,76.61,115.2Zm-11.7-.2.65.35,0,.05,10.15,5.85L78,119.9l-11.25-6.5c-.24.23-.55.52-.95.85Zm3.5,6a11.35,11.35,0,0,1-1,1l3.4,2,2.35-1.35L69,120.25Q68.76,120.6,68.41,121Zm-2.35,5.8,2.3-1.35-10.45-6c-.3.27-.72.6-1.25,1a7.18,7.18,0,0,1-.65.5Zm-16.9-17.45-5.4-3.15-.9.9a6,6,0,0,1-.9.75l4.9,2.85Zm-7.1,4.1,2.3-1.35-7-4q-.56.56-1.5,1.35a1.3,1.3,0,0,0-.35.25Zm6,.3-2.3,1.3,8.5,5a8.82,8.82,0,0,1,2.5-1.2ZM114,39.7a5.87,5.87,0,0,1-1.65.4l0,.2.65.4-1.25,2.95a7.93,7.93,0,0,0-.4,1.15,1.68,1.68,0,0,0,.15.9,1.38,1.38,0,0,0,.7.75,1.51,1.51,0,0,0,2-.25L114,46c-.4.27-.72.33-.95.2a.29.29,0,0,1-.15-.2.39.39,0,0,1,0-.35,1.63,1.63,0,0,1,.25-.6l1.4-3.4,1.25.7.25-.55L114.71,41l.85-2-.2-.1A6.1,6.1,0,0,1,114,39.7Zm-9.45-4.2a1.29,1.29,0,0,1,0,.6,6.8,6.8,0,0,1-.45,1.35l-1.5-.85.1-.2a2.34,2.34,0,0,1,1-1.25.48.48,0,0,1,.15-.1.61.61,0,0,1,.45.1c.13.07.2.15.2.25A.16.16,0,0,1,104.51,35.5Zm2.65,1.8a9.46,9.46,0,0,1,.2,1.4l.15,2.25-.7.45a6.58,6.58,0,0,1-1.45.65,1.65,1.65,0,0,1-.65-.15.14.14,0,0,1-.1,0l-.1.2,2,1.2.1-.25a2,2,0,0,1-.3-.2,1.18,1.18,0,0,1-.1-.25.45.45,0,0,1,.1-.25.17.17,0,0,1,0-.15l1.15-.7.1,1.15a3.19,3.19,0,0,1,0,.65.2.2,0,0,1-.2.1,2.54,2.54,0,0,1-.45-.15l0,.2,2.85,1.7.1-.25a.84.84,0,0,1-.35-.35,6.35,6.35,0,0,1-.2-1.65l-.15-2.35L110,40a3.19,3.19,0,0,1,1-.4,1.33,1.33,0,0,1,.7.1l.1-.2L110,38.4l-.1.2a1,1,0,0,1,.3.35.27.27,0,0,1,.05.25c-.07.17-.35.38-.85.65l-.35.2L109,38.6l.05-.2c0-.07.06-.1.1-.1l.35.05.15,0,.1-.2-2.85-1.6-.1.2A1.53,1.53,0,0,1,107.16,37.3Zm19.25,35c.16-.3.33-.65.5-1a9.65,9.65,0,0,1,.45-1q-3.7-2.2-7.4-4.35c-.07.3-.17.77-.3,1.4-.1.37-.2.68-.3,1Q122.9,70.15,126.41,72.25Zm4.35-.1-2.5-1.5q-.1.45-.45,1.5a5.82,5.82,0,0,1-.3.75c.83.5,1.66,1,2.5,1.45C130.27,73.62,130.52,72.88,130.76,72.15Zm-6.65,3.2a8.88,8.88,0,0,1-.35,1l4.65,2.7c.26-.77.53-1.5.8-2.2q-2.31-1.39-4.65-2.75C124.46,74.38,124.31,74.82,124.11,75.35Zm7.5-5.6c.26-.7.55-1.43.85-2.2q-10.8-6.45-21.8-12.65a18.83,18.83,0,0,1-.85,2.15q5.55,3.15,11,6.3v0Q126.25,66.55,131.61,69.75ZM118,67.3a10.47,10.47,0,0,1,.45-1c.23-.43.41-.8.55-1.1-2.34-1.37-4.7-2.73-7.1-4.1-.07.3-.15.72-.25,1.25a7.64,7.64,0,0,1-.4,1.1Q114.6,65.4,118,67.3ZM107.16,64c-.27.73-.55,1.47-.85,2.2q3.34,2,6.75,3.85a6.35,6.35,0,0,1,1.1-2C111.86,66.67,109.52,65.33,107.16,64Zm1.75-4.6c-.3.73-.59,1.48-.85,2.25.63.33,1.26.7,1.9,1.1q.5-1.39.9-2.25A20.74,20.74,0,0,1,108.91,59.4Zm-4.45,11.3,5.1,2.9a8.78,8.78,0,0,1,1.2-2q-2.7-1.5-5.4-3C105.06,69.22,104.76,69.93,104.46,70.7Zm7.7,1.7a11.3,11.3,0,0,1-.55,1.25,7.67,7.67,0,0,1-.5.85q2.3,1.35,4.65,2.65l10.7,6.3q.54-1,1.05-2.1Q120.06,76.9,112.16,72.4Zm9.65,12.95a6.76,6.76,0,0,1-.45.75L124,87.65c.46-.67.9-1.32,1.3-2-1-.57-1.94-1.15-2.9-1.75C122.21,84.45,122,84.92,121.81,85.35Zm-3.25-3.7c-.17.43-.37.9-.6,1.4l-.45.8c.83.5,1.66,1,2.5,1.45a8,8,0,0,1,1.4-1.9C120.47,82.83,119.52,82.25,118.56,81.65Zm-4-10.75,3,1.7v.05l4.55,2.65a6.94,6.94,0,0,1,.35-.8,4,4,0,0,1,.8-1.25q-4-2.35-8.05-4.65a11,11,0,0,1-.3,1.4A3.93,3.93,0,0,1,114.56,70.9Zm6.25,20.9c.56-.67,1.11-1.33,1.65-2q-7.5-4.5-15.9-9.25c-.27.43-.64,1-1.1,1.55a3.55,3.55,0,0,0-.4.45q2.7,1.5,5.4,3Zm-10.1,4.75c-.24.33-.47.63-.7.9,1.13.67,2.26,1.35,3.4,2,.56-.53,1.15-1.1,1.75-1.7-1.2-.8-2.44-1.58-3.7-2.35C111.26,95.75,111,96.12,110.71,96.55Zm.9-7.15-.9,1.1c-.3.33-.57.62-.8.85l7.25,4.45,1.75-2C116.57,92.42,114.14,90.93,111.61,89.4Zm-6.35,2.2c-.2.3-.47.67-.8,1.1s-.45.62-.65.85c1.46.9,3,1.83,4.45,2.8.23-.23.48-.47.75-.7a10.44,10.44,0,0,1,1.35-.9Z"/><path class="cls-8" d="M97.76,23.35a2.64,2.64,0,0,0-2-.5,3.82,3.82,0,0,0-1.9,1.6l-.35-.2,1.5-3.4L105.71,27l-1.45,3.45-.3-.2a5.78,5.78,0,0,0,.1-2.05,2.91,2.91,0,0,0-.6-1.35,3.91,3.91,0,0,0-1.1-.85l-.85-.5-4.15,9.75A4.22,4.22,0,0,0,97,36.5a1.25,1.25,0,0,0,.2.65,2.61,2.61,0,0,0,.7.65l.4.25-.15.3-6.2-3.55.15-.35.4.2a1.77,1.77,0,0,0,.9.3.76.76,0,0,0,.55-.25,3.62,3.62,0,0,0,.6-1.1l4.1-9.75Zm3.1,13.1a4.11,4.11,0,0,1,.8-1.2,2.19,2.19,0,0,1,.8-.6,1.8,1.8,0,0,0,.4-.15,2.32,2.32,0,0,1,2.6,1.55,1.86,1.86,0,0,0,.1.2,3.7,3.7,0,0,1-.25,2.4l-2.85-1.6a3.47,3.47,0,0,0-.2,2A1.72,1.72,0,0,0,103,40.1a.87.87,0,0,0,.7.1,1.64,1.64,0,0,0,.85-.35l.15.25a3.29,3.29,0,0,1-1.5.75,2,2,0,0,1-1.35-.3,2.43,2.43,0,0,1-1.3-1.95,4.12,4.12,0,0,1,0-.7A4.71,4.71,0,0,1,100.86,36.45Zm6.3.85a1.53,1.53,0,0,0-.4-.5l.1-.2,2.85,1.6-.1.2-.15,0-.35-.05s-.07,0-.1.1l-.05.2.1,1.45.35-.2c.5-.27.78-.48.85-.65a.27.27,0,0,0-.05-.25,1,1,0,0,0-.3-.35l.1-.2,1.85,1.05-.1.2a1.33,1.33,0,0,0-.7-.1,3.19,3.19,0,0,0-1,.4l-.9.55.15,2.35a6.35,6.35,0,0,0,.2,1.65.84.84,0,0,0,.35.35l-.1.25-2.85-1.7,0-.2a2.54,2.54,0,0,0,.45.15.2.2,0,0,0,.2-.1,3.19,3.19,0,0,0,0-.65l-.1-1.15-1.15.7a.17.17,0,0,0,0,.15.45.45,0,0,0-.1.25,1.18,1.18,0,0,0,.1.25,2,2,0,0,0,.3.2l-.1.25-2-1.2.1-.2a.14.14,0,0,0,.1,0,1.65,1.65,0,0,0,.65.15,6.58,6.58,0,0,0,1.45-.65l.7-.45-.15-2.25A9.46,9.46,0,0,0,107.16,37.3Zm-2.65-1.8a.16.16,0,0,0-.05-.1c0-.1-.07-.18-.2-.25a.61.61,0,0,0-.45-.1.48.48,0,0,0-.15.1,2.34,2.34,0,0,0-1,1.25l-.1.2,1.5.85a6.8,6.8,0,0,0,.45-1.35A1.29,1.29,0,0,0,104.51,35.5ZM114,39.7a6.1,6.1,0,0,0,1.4-.8l.2.1-.85,2,1.25.75-.25.55-1.25-.7-1.4,3.4a1.63,1.63,0,0,0-.25.6.39.39,0,0,0,0,.35.29.29,0,0,0,.15.2c.23.13.55.07.95-.2l.1.25a1.51,1.51,0,0,1-2,.25,1.38,1.38,0,0,1-.7-.75,1.68,1.68,0,0,1-.15-.9,7.93,7.93,0,0,1,.4-1.15l1.25-2.95-.65-.4,0-.2A5.87,5.87,0,0,0,114,39.7Z"/><path class="cls-9" d="M80.06,52.08a3,3,0,0,0-.15.42L78.41,56A48,48,0,0,1,73,64.8l-7.3-4.15.55-1.4,14.2-8.15a.17.17,0,0,0,0,.15l-.1.2v0l-.05,0C80.15,51.73,80.1,51.91,80.06,52.08Zm80.8,1-8-4.6q-2.66-1.5-4-.75l-.35.25q1.4-3.45-1.4-4.9h0l-25.95-15a3.94,3.94,0,0,1,.9-.1,12.46,12.46,0,0,1,3,.15,22.7,22.7,0,0,1,5.55,1.85c1,.43,2,.95,3,1.55.16.1.35.2.55.3l28.55,16.45Zm-31.7,40.4,4.4,2.55,2.85,1.55a17.27,17.27,0,0,0,5.85,2l-1.65,4.1-13.25-7.6Q128.31,94.81,129.16,93.5Zm23.7-20.4-11.75-6.75,2.25-5.6,10.1,5.75a9.33,9.33,0,0,0,1.7.8Z"/><path class="cls-10" d="M89.31,41.9a2.34,2.34,0,0,1,1.45.35l6.35,3.65V46l6.75,3.95a2,2,0,0,1,1,2.7L99.61,65.55a1.61,1.61,0,0,1-.75,1c0,.07-.12.1-.25.1a1.76,1.76,0,0,1-1.35-.35L93.51,64v0l-9.35-5.4a2,2,0,0,1-1-2.7l5.2-13A1.82,1.82,0,0,1,89.31,41.9Zm2.55,12.35c0,.2.16,1,.4,2.55a4.18,4.18,0,0,0,.45,1.05l1.3-.4c.26-.13.9-.4,1.9-.8a13.51,13.51,0,0,1,2-.75c1.06-.27,1.8,1.07,2.2,4,.06.43.13.83.2,1.2l3.45-8.55c.33-1,.15-1.65-.55-2l-12.5-7c-.77-.33-1.37-.07-1.8.8l-5.15,12.8.25.15,2.1-1.15a40,40,0,0,1,4.25-1.95,5.07,5.07,0,0,0,1-.2A.51.51,0,0,1,91.86,54.25Zm-11.3,44.5a4,4,0,0,1,1.5.45l12,7c1,.6,1,1.18,0,1.75L83,114.3a2.91,2.91,0,0,1-1.25.4.5.5,0,0,1-.3,0,3.17,3.17,0,0,1-1.4-.5l-12-6.9c-1-.6-1.07-1.17-.1-1.7l11.1-6.45A3.12,3.12,0,0,1,80.56,98.75Zm-1.3,1.3-11,6.3.2.1c.8,0,1.75-.1,2.85-.2,2.93-.2,4.81-.3,5.65-.3a11,11,0,0,1,1.15.1c.3,0,.43.12.4.25a12.42,12.42,0,0,1-.5,1.55,3.21,3.21,0,0,0,.1.7h1.65c.33,0,1.16-.07,2.5-.1s2.08,0,2.65,0c1.26,0,1.58.93,1,2.7q-.15.41-.3.75L93,107.65c.73-.5.78-.92.15-1.25l-11.5-6.5A2.59,2.59,0,0,0,79.26,100.05Z"/><path class="cls-11" d="M88.81,49.85a1.35,1.35,0,0,1,1-.9,1.63,1.63,0,0,1,1.35.2,2,2,0,0,1,1,1.2,1.83,1.83,0,0,1,0,1.5,1.67,1.67,0,0,1-1,.95,1.91,1.91,0,0,1-1.4-.25,2.25,2.25,0,0,1-1-1.2A2,2,0,0,1,88.81,49.85ZM76.91,104.9a1,1,0,0,1-.65-.85.91.91,0,0,1,.55-.9,3.34,3.34,0,0,1,1.5-.3,2.81,2.81,0,0,1,1.5.4,1.17,1.17,0,0,1,.7.9A.89.89,0,0,1,80,105a3,3,0,0,1-1.55.3A2.76,2.76,0,0,1,76.91,104.9Z"/><path class="cls-12" d="M11.31,49.85l1.6.6c1.13.43,2.3.92,3.5,1.45,2,1,4.13,2.08,6.3,3.35l.9.6a2.21,2.21,0,0,1,.25.3s0,.05.05.05l.45.55a4.85,4.85,0,0,0,.55.65,5.2,5.2,0,0,0-.6-.4l-.45-.2s0,0-.1,0a5.51,5.51,0,0,0-.85-.35.78.78,0,0,0-.35-.1l-.3-.1c-1.74-.63-4-1.45-6.65-2.45s-4.39-1.82-4.95-2.55a5,5,0,0,1-.45-.7,1.15,1.15,0,0,1-.15-.45.33.33,0,0,1,.1-.25l.65-.15.45.2Zm77.5,0a2,2,0,0,0,0,1.5,2.25,2.25,0,0,0,1,1.2,1.91,1.91,0,0,0,1.4.25,1.67,1.67,0,0,0,1-.95,1.83,1.83,0,0,0,0-1.5,2,2,0,0,0-1-1.2,1.63,1.63,0,0,0-1.35-.2A1.35,1.35,0,0,0,88.81,49.85Zm3,4.4a.51.51,0,0,0-.45-.35,5.07,5.07,0,0,1-1,.2,40,40,0,0,0-4.25,1.95l-2.1,1.15-.25-.15L89,44.25c.43-.87,1-1.13,1.8-.8l12.5,7c.7.4.88,1.08.55,2l-3.45,8.55c-.07-.37-.14-.77-.2-1.2-.4-2.93-1.14-4.27-2.2-4a13.51,13.51,0,0,0-2,.75c-1,.4-1.64.67-1.9.8l-1.3.4a4.18,4.18,0,0,1-.45-1.05C92,55.3,91.89,54.45,91.86,54.25Zm-61.1,11,.3.8a.79.79,0,0,0,.05.3l-.25.35c-.47.57-1,1.15-1.6,1.75a12.76,12.76,0,0,1-1.2,1.15,14.54,14.54,0,0,1-3.5,2.35,5.24,5.24,0,0,1-1,.35c-.24-.3-.45-.6-.65-.9l.75-.3a.52.52,0,0,1,.2-.1,18.78,18.78,0,0,0,3.8-2.5c.46-.4.91-.82,1.35-1.25a17.12,17.12,0,0,0,1.45-1.65A3.63,3.63,0,0,0,30.76,65.2Zm46.15,39.7a2.76,2.76,0,0,0,1.5.4A3,3,0,0,0,80,105a.89.89,0,0,0,.55-.85,1.17,1.17,0,0,0-.7-.9,2.81,2.81,0,0,0-1.5-.4,3.34,3.34,0,0,0-1.5.3.91.91,0,0,0-.55.9A1,1,0,0,0,76.91,104.9Zm2.35-4.85a2.59,2.59,0,0,1,2.35-.15l11.5,6.5c.63.33.58.75-.15,1.25l-7.35,4.25q.15-.34.3-.75c.63-1.77.31-2.67-1-2.7-.57,0-1.45,0-2.65,0s-2.17.07-2.5.1H78.16a3.21,3.21,0,0,1-.1-.7,12.42,12.42,0,0,0,.5-1.55c0-.13-.1-.22-.4-.25A11,11,0,0,0,77,106c-.84,0-2.72.1-5.65.3-1.1.1-2,.17-2.85.2l-.2-.1Zm-60.5,32.4-3.35,3.1.45-1.1.25-.5,2.6-2.3Zm18.6,8.5a3.52,3.52,0,0,1-1.15,2.5,5.45,5.45,0,0,1-2.75,1.5,23.08,23.08,0,0,1-3.5.25,21.36,21.36,0,0,0-3.65.4v1.1c-.3,0-.94.17-1.9.4a13.23,13.23,0,0,1-2.2.4q-2.36.25-3.3-2.4a2.4,2.4,0,0,0,2.3.75,5.65,5.65,0,0,0,1.6-.4c1-.17,1.93-.35,2.9-.55a19.35,19.35,0,0,1,3.4-.2,8.12,8.12,0,0,0,6.75-1.9,5,5,0,0,0,.8-.9A7,7,0,0,0,37.36,141Zm-21.2-12.2a2.79,2.79,0,0,0,.7.4A3.57,3.57,0,0,1,18,130a2.11,2.11,0,0,1-1.35.7.37.37,0,0,1-.15-.05l-.3-.5Zm-1.5,8.1q-1.26,5.7-6.15,3.3a.73.73,0,0,1-.5-.75,6.49,6.49,0,0,0,4.8-.85,1,1,0,0,0,.15-.1l1.2-1a0,0,0,0,0,.05-.05A2,2,0,0,0,14.66,136.85Zm16.8,1.1a10,10,0,0,1,1.4-.1,2.56,2.56,0,0,1,.3,1.15q0,1-.15,1.05l-.35,0a7.72,7.72,0,0,1-.85-1.6A3.43,3.43,0,0,0,31.46,138Zm-1.75-.1a3,3,0,0,1,.9,2,11.6,11.6,0,0,1-.05,1.35,1.65,1.65,0,0,0-.25.4h-.5c-.1-.13-.22-.3-.35-.5a.21.21,0,0,0,.05-.15l.15-.4a6.33,6.33,0,0,0,.3-1l.05-.2A1.83,1.83,0,0,0,30,139l-.5-1.1Zm116.6-3.15a2.23,2.23,0,0,1,1.4.15,1.27,1.27,0,0,1,.8.65.77.77,0,0,1-.25.85,2.57,2.57,0,0,1-1.2.5l-11.85,1.4a2.46,2.46,0,0,1-1.2-.1,1.67,1.67,0,0,1-.85-.5.64.64,0,0,1-.15-.7l1.7-4.4a1.37,1.37,0,0,1,.9-.7,2.39,2.39,0,0,1,1.4-.1,1.91,1.91,0,0,1,1.2.45.74.74,0,0,1,.25.8l-1.05,2.75ZM111,147.35c0-.3.2-.57.6-.8a2.75,2.75,0,0,1,1.35-.3,3.1,3.1,0,0,1,1.4.3,1,1,0,0,1,.55.85v2.7h4.7a2.26,2.26,0,0,1,1.35.3c.4.23.6.5.6.8a.91.91,0,0,1-.55.8,2.48,2.48,0,0,1-1.4.3l-4.7,0v2.7a1,1,0,0,1-.55.8,3.1,3.1,0,0,1-1.4.3,2.46,2.46,0,0,1-1.4-.3,1,1,0,0,1-.55-.8v-2.7h-4.7a2.46,2.46,0,0,1-1.35-.35.83.83,0,0,1,0-1.6,2.22,2.22,0,0,1,1.35-.3H111Z"/><path class="cls-13" d="M30.56,11.45l1,4L29,14.25,28,10.3Zm2.95-.8,1.7-2.3,1,4-1.65,2.3ZM82.21,75.5q-5.76-3.41-11.4-6.7a16.1,16.1,0,0,0,1.85-1.75q7.35,4.2,13.9,8.15a4.92,4.92,0,0,0-1.25,1.15c-.2.27-.37.5-.5.7C83.91,76.55,83,76,82.21,75.5ZM65.56,88.15l-1.4-.8c.33-.17.71-.38,1.15-.65l1.1-.7L78,92.7l-2.3,1.35L65.56,88.2Zm-6.8,26.2,1,1.6.1-1,7.65,4.4c-.3.2-.62.43-1,.7l-1,.85-15-8.65L52.91,111ZM68.41,121q.34-.41.6-.75l4.15,2.4L70.81,124l-3.4-2A11.35,11.35,0,0,0,68.41,121Zm59.25,29.9a1.18,1.18,0,0,1-.55.63l-.2.12-12,7a3,3,0,0,1-3.15,0l-12.15-7a2.51,2.51,0,0,1-.63-.5.81.81,0,0,1-.17-.4c0-.3.26-.6.8-.9l12-6.95a3,3,0,0,1,3.15-.05l3.5,2.05v-.05l5.15,3h0l3.5,2a1.51,1.51,0,0,1,.8.85A.23.23,0,0,1,127.66,150.9Zm-6.85-59.1-10.35-6.2q-2.7-1.55-5.4-3a3.55,3.55,0,0,1,.4-.45c.46-.6.83-1.12,1.1-1.55q8.4,4.76,15.9,9.25C121.92,90.47,121.37,91.13,120.81,91.8ZM111,147.35v2.75h-4.7a2.22,2.22,0,0,0-1.35.3.83.83,0,0,0,0,1.6,2.46,2.46,0,0,0,1.35.35H111v2.7a1,1,0,0,0,.55.8,2.46,2.46,0,0,0,1.4.3,3.1,3.1,0,0,0,1.4-.3,1,1,0,0,0,.55-.8v-2.7l4.7,0a2.48,2.48,0,0,0,1.4-.3.91.91,0,0,0,.55-.8c0-.3-.2-.57-.6-.8a2.26,2.26,0,0,0-1.35-.3h-4.7v-2.7a1,1,0,0,0-.55-.85,3.1,3.1,0,0,0-1.4-.3,2.75,2.75,0,0,0-1.35.3C111.16,146.78,111,147.05,111,147.35Z"/><polygon class="cls-14" points="35.21 8.35 33.51 10.65 30.56 11.45 27.96 10.3 29.16 8.4 33.21 7.3 35.21 8.35"/><path class="cls-15" d="M35.26,29.2l8.35,31.25L41,59.1l-.1-.3-.8-3-.55-2-6.7-25.2Zm-3.7-13.8,1.35,5-2.45-.65L29,14.25Zm6.15,2.4L36,19.6l-1.35-5,1.65-2.3ZM51.31,69l2.2,8.2.25.85.5,1.9,6.5,24.45-.1,0L59,106.2l-9.6-35.95c.1-.17.2-.35.3-.55a4.6,4.6,0,0,1,.15-.65v-.2l.85-.95.05-.05-.2-.7-.1-1-1.6,0-.45,0L38.26,28.45l1.8-1.85Zm-6.15-2.7L43,65.65l-.65-1.5-.75-2.85a2.8,2.8,0,0,0,2.2.1l.05,0Zm-.45,6,2-.1L56,107l-2.35-.65-.1,0-6-22.5,0-.3L47,81.9l-.25-.85-2.15-8.2-.15-.55Z"/><path class="cls-16" d="M31.56,15.4l-1-4,2.95-.8,1.1,3.95-3,.8Zm-3.9,53.05a18.78,18.78,0,0,1-3.8,2.5.52.52,0,0,0-.2.1l-.75.3a1.29,1.29,0,0,1-.2-.25c-.4-.53-.8-1-1.2-1.55a1.41,1.41,0,0,0-.6-.4,3.77,3.77,0,0,1-1.5-.7,4.5,4.5,0,0,1-1.75-4.75,4.6,4.6,0,0,1,.65-.15,6.93,6.93,0,0,1,6.15.9,8.77,8.77,0,0,1,2.6,2.8A11.19,11.19,0,0,1,27.66,68.45Zm-4.1,3.8a5.24,5.24,0,0,0,1-.35,14.54,14.54,0,0,0,3.5-2.35c.3.9.63,1.78,1,2.65a7.9,7.9,0,0,1-3.15,1.3c-.37,0-.72,0-1.05,0a2,2,0,0,1-.45,0C24.14,73.1,23.86,72.68,23.56,72.25Z"/><path class="cls-17" d="M32.91,20.4l-1.35-5h.05l3-.8,1.35,5-3.05.85Zm5.35,8.05L48.36,66.3l-2.1.3-1.1-.3-1.35-4.95,0-.05-.15-.8-.1,0L35.26,29.2ZM59,106.2l-3,.8L46.71,72.2l.3,0a3.91,3.91,0,0,0,2.35-1.9Z"/><polygon class="cls-18" points="32.91 20.45 35.96 19.6 38.26 28.45 35.26 29.2 32.91 20.55 32.91 20.45"/><path class="cls-19" d="M30.46,19.75l2.45.65v.15l2.35,8.65-2.45-.65ZM36,19.6l1.75-1.8,2.35,8.8-1.8,1.85Z"/><path class="cls-20" d="M24.06,46.2a1.85,1.85,0,0,0-.4-.5l-.1-.05a1,1,0,0,0-.35-.15l-.25.1c-.2.13-.52.37-.95.7a7.79,7.79,0,0,1-1.55,1,3.11,3.11,0,0,1-.85.15,4.37,4.37,0,0,1-1.1-.2,5.08,5.08,0,0,1-1.35-.5,10.48,10.48,0,0,1-1.35-1.2,2.33,2.33,0,0,1-.45-.65,7.8,7.8,0,0,1-.65-2.1c0-.27-.07-.52-.1-.75V40.25a.16.16,0,0,0,.05-.1l.05-.35v0a5.89,5.89,0,0,0,.75,1.1l.15.25A6.49,6.49,0,0,0,18,42.75c1.4.5,2.83,1,4.3,1.45a9.07,9.07,0,0,1,1.7.65,1.5,1.5,0,0,1,.75.65l.25.6Zm6.1-10.3h.1l.15.05a.41.41,0,0,1,.2.4l.05.3a.46.46,0,0,1,.2,0,1.41,1.41,0,0,1-.8.1l-.8-.1-.1-.2v0a.48.48,0,0,1,.15-.1l.8-.3Zm-14.4,1.55a2.61,2.61,0,0,0,.65,1,3.35,3.35,0,0,0,.9.8,22.38,22.38,0,0,0,5,2,19,19,0,0,0,2.65.6,12.08,12.08,0,0,0,3.95.15,12.52,12.52,0,0,0,1.45-.15c1-.13,1.55-.22,1.65-.25a2.4,2.4,0,0,1-1.7,1.3l-.15.05a5.89,5.89,0,0,1-2.9.25,13.38,13.38,0,0,1-2.6-.05,18.14,18.14,0,0,1-7.1-2.2c-.37-.23-.7-.47-1-.7l-.7-.6a5.56,5.56,0,0,1-.8-.85A5.87,5.87,0,0,1,15.76,37.45Zm17.1,1.35h.2A1.94,1.94,0,0,1,32,40.35a7.43,7.43,0,0,1-1.2.65,1.84,1.84,0,0,1-.45-.35l-.1-.1c-.17-.17-.24-.28-.2-.35s0-.08.15-.15l.75-.3c.7-.23,1.08-.37,1.15-.4l.15-.1A6.62,6.62,0,0,1,32.86,38.8Zm-.45-.2,0,0-1.3-.35c-.1,0-.15-.07-.15-.1v-.15c.1,0,.28-.13.55-.4l1.1-1a.36.36,0,0,0,.15-.15H33a1.36,1.36,0,0,1,.1.65,11.3,11.3,0,0,1-.7,1.45ZM21.21,145.85a2.4,2.4,0,0,1-2.3-.75,3.56,3.56,0,0,1-.9-1.95,1.6,1.6,0,0,0-.15-.35q.45-5.2.9-10.35l-.05-.8.15-3.7c.06-.57.13-1.13.2-1.7q.35-3.19.65-6.35c.1-1.23.21-2.47.35-3.7.06-.7.11-1.42.15-2.15a8.09,8.09,0,0,0,.1-1.2,6.27,6.27,0,0,0,0-1.5l-.55-1.85-.35-1.15a2.37,2.37,0,0,0-.15-.45l-.3-1.1-.05-.15v0c-.6-1.77-1.24-3.53-1.9-5.3a3.25,3.25,0,0,0-.15-.4q-.86-2.25-1.6-4.5-.9-2.85-1.7-5.7v-.1c.13.07.28.13.45.2a13.11,13.11,0,0,0,5.55,1.65c.66,2,1.06,3.13,1.2,3.5.2.83.46,1.75.8,2.75q.39,1.2.9,2.55c.1.3.2.62.3,1l.8,2a30.18,30.18,0,0,1,1.3,5.85c.06.7.1,1.38.1,2v.3c0,1.27-.1,2.65-.2,4.15-.07.67-.14,1.37-.2,2.1-.14,1.13-.3,2.33-.5,3.6v.15q-.51,3.49-.9,6c-.34,2.3-.57,4-.7,5.1s-.3,3.05-.6,5.55-.5,4.2-.6,5.3C21.26,144.85,21.24,145.28,21.21,145.85Z"/><path class="cls-21" d="M31.26,104.55c0,.87-.1,1.72-.2,2.55q-.25,3.15-.65,6.3c-.07.53-.15,1.07-.25,1.6a2.83,2.83,0,0,1-.05.5c-.2,1.3-.39,2.62-.55,4-.1.7-.19,1.4-.25,2.1-.17,1.2-.3,2.4-.4,3.6-.14,1.47-.27,2.93-.4,4.4,0,.67-.07,1.33-.1,2a48,48,0,0,0,.05,4.95,1.57,1.57,0,0,0,1,1.35L30,139v.6a6.33,6.33,0,0,1-.3,1,3.47,3.47,0,0,1-1.1,1.3,5.29,5.29,0,0,1-.6.5,14.42,14.42,0,0,1-3.5,2.35c-.44.2-.87.42-1.3.65l-.35.1a5.65,5.65,0,0,1-1.6.4c0-.57.05-1,.05-1.3.1-1.1.3-2.87.6-5.3s.5-4.35.6-5.55.36-2.8.7-5.1q.39-2.55.9-6v-.15c.2-1.27.36-2.47.5-3.6.06-.73.13-1.43.2-2.1.1-1.5.16-2.88.2-4.15v-.3c0-.67,0-1.35-.1-2a30.18,30.18,0,0,0-1.3-5.85l-.8-2c-.1-.33-.2-.65-.3-1Q22,100,21.56,98.8c-.34-1-.6-1.92-.8-2.75-.14-.37-.54-1.53-1.2-3.5.36,0,.73,0,1.1,0a1.23,1.23,0,0,0,.35,0,12.33,12.33,0,0,0,3-1.15,16.31,16.31,0,0,0,2.6-1.9,9.69,9.69,0,0,0,2.25-3,32.32,32.32,0,0,1,2.1,6.9,33.57,33.57,0,0,1,.5,5.75v.55c0,.7-.05,1.4-.05,2.1C31.37,102.68,31.32,103.62,31.26,104.55ZM25,46.1l-.25-.6a1.5,1.5,0,0,0-.75-.65,9.07,9.07,0,0,0-1.7-.65c-1.47-.47-2.9-1-4.3-1.45a6.49,6.49,0,0,1-2.4-1.65l-.15-.25a5.89,5.89,0,0,1-.75-1.1l.1-.3A3,3,0,0,1,15,39a.6.6,0,0,1,0-.2,5.56,5.56,0,0,0,.8.85l.7.6c.3.23.63.47,1,.7a18.14,18.14,0,0,0,7.1,2.2,13.38,13.38,0,0,0,2.6.05,1.46,1.46,0,0,1,.15.45l-.05.3v.1a1.23,1.23,0,0,1,0,.35v.05l-.05,0-.3.55-.4.5c-.1.13-.24.28-.4.45Zm-9.25-8.65a6.69,6.69,0,0,1,1.15-1.1,12.68,12.68,0,0,1,1.25-.65,19.8,19.8,0,0,1,2.65-1h.05s0,0,.05,0a3.29,3.29,0,0,1,.6-.15,4.58,4.58,0,0,1,.95-.1h.25a7.63,7.63,0,0,1,1.5.15l2.6.75c.53.17,1,.3,1.45.4l1.3.1a5.93,5.93,0,0,0,.6,0l-.05.05-.8.3a.48.48,0,0,0-.15.1v0l.1.2.8.1a1.41,1.41,0,0,0,.8-.1h.5a11.24,11.24,0,0,1,1.35-.1.36.36,0,0,1-.15.15l-1.1,1c-.27.27-.45.4-.55.4v.15s.05.07.15.1l1.3.35,0,0,.45.2a6.62,6.62,0,0,0-.65.45l-.15.1c-.07,0-.45.17-1.15.4l-.75.3q-.15.11-.15.15c0,.07,0,.18.2.35l.1.1a1.84,1.84,0,0,0,.45.35l.1,0a5.26,5.26,0,0,0,1.1.55c-.1,0-.65.12-1.65.25a12.52,12.52,0,0,1-1.45.15,12.08,12.08,0,0,1-3.95-.15,19,19,0,0,1-2.65-.6,22.38,22.38,0,0,1-5-2,3.35,3.35,0,0,1-.9-.8A2.61,2.61,0,0,1,15.76,37.45Zm-.35,98.1-.75,1.3a2,2,0,0,1-.45.5,0,0,0,0,1-.05.05l-1.2,1a1,1,0,0,1-.15.1q-.36-2.15-.6-5.55-.15-2.81-.2-6.1v-3.6c0-1.27.21-3.75.65-7.45.13-1.1.28-2.32.45-3.65.06-.67.15-1.37.25-2.1.13-.93.26-1.9.4-2.9.06-.5.13-1,.2-1.45.1-.67.2-1.3.3-1.9a6.55,6.55,0,0,0,.05-.7q.64-4.5.95-6.65.75,2.25,1.6,4.5a3.25,3.25,0,0,1,.15.4c.66,1.77,1.3,3.53,1.9,5.3v0c-.2.67-.39,1.32-.55,2-.34,1.27-.62,2.53-.85,3.8-.14.67-.25,1.33-.35,2-.2,1.23-.37,2.45-.5,3.65,0,0-.05,0-.05,0q-.41,3.7-.6,7.5v.65a7.44,7.44,0,0,0,.15,2.3v.1l.05,1.35.3.5.25.3-.9,3.55Z"/><path class="cls-22" d="M21.11,51.7l-.2-.55v0q-.6-.26-1.2-.45a3.66,3.66,0,0,0-.45-1.3,3.82,3.82,0,0,0-.9-.9L17.11,47.4a12.32,12.32,0,0,0-2-1.25V46a.16.16,0,0,0,.05-.1c.06-.37.13-.72.2-1a2.33,2.33,0,0,0,.45.65,10.48,10.48,0,0,0,1.35,1.2,5.08,5.08,0,0,0,1.35.5,4.37,4.37,0,0,0,1.1.2,3.11,3.11,0,0,0,.85-.15,7.79,7.79,0,0,0,1.55-1c.43-.33.75-.57.95-.7l.25-.1a1,1,0,0,1,.35.15l.1.05a1.3,1.3,0,0,0-.35.25,1.89,1.89,0,0,0-.75,1v0a.62.62,0,0,0,0,.45,1,1,0,0,0,0,.3,2.48,2.48,0,0,0,.3,1,4.25,4.25,0,0,1-.35.4,2,2,0,0,0-.4.65.51.51,0,0,0,0,.45,2.06,2.06,0,0,0,.4.6l0,.05a1.29,1.29,0,0,0-1.15.2l-.2.4A.36.36,0,0,0,21.11,51.7Zm8.25-6.85a1.42,1.42,0,0,1-.55.1,9.1,9.1,0,0,1-1.9.1l.3-.55.05,0V44.4a1.23,1.23,0,0,0,0-.35V44l.05-.3a1.46,1.46,0,0,0-.15-.45,5.89,5.89,0,0,0,2.9-.25l.15-.05V43c-.24.53-.42,1-.55,1.3a2.08,2.08,0,0,1-.2.45ZM37,54.75c0,.1.06.2.1.3l.7,2.35A5.39,5.39,0,0,1,38,59.5l-.5-.25a31.13,31.13,0,0,1-7.8,2.8,8.56,8.56,0,0,0-1.25-1.75c-.17-.2-.32-.38-.45-.55a42.68,42.68,0,0,0,7.85-1.6l-1-2.45.2-.1Zm3.85,4v.25a4,4,0,0,1-1-2.85,1,1,0,0,0,.05-.3.76.76,0,0,0,.1-.15Zm8.8,10.9a1.75,1.75,0,0,0-.4,0,3.86,3.86,0,0,1-.55,0,2.48,2.48,0,0,1-1-.2,1.14,1.14,0,0,1-.6-.5l1.8-.6,1.75-.6-.85.95v.2A4.6,4.6,0,0,0,49.66,69.7Zm-4.95,2.6h-.25l-.8-.15c-1,1-1.85,2-2.65,2.8a23.1,23.1,0,0,1-5.25,4.35,26,26,0,0,1-4.1,1.75.23.23,0,0,1-.2,0h-.15l0,0a.69.69,0,0,1-.35-.2.55.55,0,0,1-.2-.15,3.34,3.34,0,0,1-.6-.7,20.26,20.26,0,0,0,7.5-4.5Q40.1,72.94,42.26,71v0a3,3,0,0,0-.2-.8,4.74,4.74,0,0,0-1.15-1.9l-.15-.15a8.8,8.8,0,0,1,.05-1c.2.1.43.23.7.4a2.21,2.21,0,0,0,.3.25,10,10,0,0,1,1.9,2,.16.16,0,0,1,0,.1,5.27,5.27,0,0,1,.8,1.4,2.83,2.83,0,0,1,.15.9ZM32.36,70.85a14.89,14.89,0,0,0-2.7,3.4,6.54,6.54,0,0,0-.5,3.65,6,6,0,0,0,.05.8L28.76,78v0l-.3-.48v-.07l-.05,0c-.2-.37-.42-.73-.65-1.1a19.09,19.09,0,0,0-1.85-2.7,7.9,7.9,0,0,0,3.15-1.3,9.63,9.63,0,0,0,2.4-2.7,4.06,4.06,0,0,1,.25-.35Z"/><path class="cls-23" d="M29.36,44.85l.15-.15a3.59,3.59,0,0,1,.35.3c.8.7,1.18,1.13,1.15,1.3-.1.37-.49.73-1.15,1.1a2.56,2.56,0,0,1-2,.4l-.4-.1c.13-.2.25-.38.35-.55a.61.61,0,0,1,.2.1,1.8,1.8,0,0,0,1.4-.35,2.24,2.24,0,0,0,.55-.35c.53-.1.83-.23.9-.4s-.3-.32-1-.35l-.05,0a1.82,1.82,0,0,0-.65-.55A2.3,2.3,0,0,1,29.36,44.85Z"/><path class="cls-24" d="M23.66,45.7a1.85,1.85,0,0,1,.4.5s0,0,0,0l.3.9a23.53,23.53,0,0,1,3.45-.3H28l-.15.25a.16.16,0,0,1-.05.1c-.1.17-.22.35-.35.55-.54.83-1.29,1.87-2.25,3.1l-.05.15a3.11,3.11,0,0,1-.2.25,1,1,0,0,1-.15.1l-.1-.1c-.44-.33-.95-.75-1.55-1.25a8.77,8.77,0,0,1-.65-.75,4.25,4.25,0,0,0,.35-.4,2.48,2.48,0,0,1-.3-1,1,1,0,0,1,0-.3.62.62,0,0,1,0-.45v0a1.89,1.89,0,0,1,.75-1A1.3,1.3,0,0,1,23.66,45.7Zm1.25,11.7a4.85,4.85,0,0,1-.55-.65c5-.43,8.6-.82,10.7-1.15l-.2.1,1,2.45A42.68,42.68,0,0,1,28,59.75a11,11,0,0,0-1.25-1.25c-.37-.23-.95-.57-1.75-1A.12.12,0,0,1,24.91,57.4ZM38,59.5a5.39,5.39,0,0,0-.15-2.1l-.7-2.35c0-.1-.07-.2-.1-.3l1.25-.6,1.25-.4.55,2a.76.76,0,0,1-.1.15,1,1,0,0,1-.05.3,4,4,0,0,0,1,2.85l.1.05,2.65,1.35.1,0,.15.8,0,.05-.05,0a2.8,2.8,0,0,1-2.2-.1,4,4,0,0,1-.65-.35l-2.4-1.25Zm-8.8-14.3-.5.6a3.12,3.12,0,0,1-.55.05c-.77,0-1.44.08-2,.15.16-.17.3-.32.4-.45l.4-.5a9.1,9.1,0,0,0,1.9-.1,1.42,1.42,0,0,0,.55-.1A2.3,2.3,0,0,0,29.16,45.2Zm17.55,27-2,.1v-.25a2.83,2.83,0,0,0-.15-.9,5.27,5.27,0,0,0-.8-1.4.16.16,0,0,0,0-.1,10,10,0,0,0-1.9-2,2.21,2.21,0,0,1-.3-.25c-.27-.17-.5-.3-.7-.4a4.65,4.65,0,0,1,.65-2.25c.4-.63.66-.9.8-.8l.05.15.65,1.5,2.2.65,1.1.3,2.1-.3.45,0,1.6,0,.1,1,.2.7-.05.05-1.75.6-1.8.6a1.14,1.14,0,0,0,.6.5,2.48,2.48,0,0,0,1,.2,3.86,3.86,0,0,0,.55,0,1.75,1.75,0,0,1,.4,0c-.1.2-.2.38-.3.55A3.91,3.91,0,0,1,47,72.15ZM30.11,80c-.27-.33-.57-.75-.9-1.25a6,6,0,0,1-.05-.8,6.54,6.54,0,0,1,.5-3.65,14.89,14.89,0,0,1,2.7-3.4,16,16,0,0,0,1.3,2.5v.05a2.21,2.21,0,0,0,.3.25.52.52,0,0,0,.4,0,.69.69,0,0,0,.4-.15l4.4-3.7,1-.95a5.26,5.26,0,0,1,.8-.65,4.74,4.74,0,0,1,1.15,1.9,3,3,0,0,1,.2.8v0q-2.16,1.95-4.65,4.45A20.26,20.26,0,0,1,30.11,80Z"/><path class="cls-25" d="M7.16,85.1c0-.13-.07-.27-.1-.4s-.14-.4-.2-.6a7,7,0,0,1,0-3.25A23.31,23.31,0,0,1,9,75.3Q8.2,73.7,7.36,72c-.6-1.2-1.17-2.38-1.7-3.55a38.72,38.72,0,0,1-1.55-4A13.34,13.34,0,0,1,3.46,60a16.28,16.28,0,0,1,.7-4.5,10.48,10.48,0,0,1,2-3.65,5.35,5.35,0,0,1,4-2.05.33.33,0,0,0-.1.25,1.15,1.15,0,0,0,.15.45,5,5,0,0,0,.45.7q.84,1.09,4.95,2.55c2.7,1,4.91,1.82,6.65,2.45l.3.1a.78.78,0,0,1,.35.1,5.51,5.51,0,0,1,.85.35c.06,0,.1,0,.1,0l.45.2a5.2,5.2,0,0,1,.6.4.12.12,0,0,0,.05.1,3.63,3.63,0,0,0-.35-.2,4.46,4.46,0,0,0-2.35-.5,4.73,4.73,0,0,0-3.15,2.25,11,11,0,0,0-1.35,4.05c0,.2-.07.4-.1.6a4.5,4.5,0,0,0,1.75,4.75,3.77,3.77,0,0,0,1.5.7,1.41,1.41,0,0,1,.6.4c.4.5.8,1,1.2,1.55a1.29,1.29,0,0,0,.2.25c.2.3.41.6.65.9s.58.85.85,1.25a2,2,0,0,0,.45,0c.33,0,.68,0,1.05,0a19.09,19.09,0,0,1,1.85,2.7c.23.37.45.73.65,1.1l.05,0v.07c.17,1.27.35,2.36.55,3.28,0,.33.08.7.15,1.1.06.77.1,1.67.1,2.7a5.39,5.39,0,0,1-.4,2,9.69,9.69,0,0,1-2.25,3A16.31,16.31,0,0,1,24,91.3a12.33,12.33,0,0,1-3,1.15,1.23,1.23,0,0,1-.35,0,10.93,10.93,0,0,1-.3-1.65q-.11-.6-.15-1.2c-.07-.8-.12-1.67-.15-2.6V85.4a10.06,10.06,0,0,1,.35-1.65,11.49,11.49,0,0,0,.35-1.7,9.54,9.54,0,0,0-.75-3c-.74-1.73-1.3-3.13-1.7-4.2a32,32,0,0,1-2.4-9.9,5.37,5.37,0,0,1-.05-.8,5.78,5.78,0,0,1,.65-2.4,10.47,10.47,0,0,1,.65-1.3A9.67,9.67,0,0,1,20.51,57a4.39,4.39,0,0,1,1-.55l.2-.1c-2.6-.87-4.35-1.43-5.25-1.7a23.68,23.68,0,0,1-5-2,3.21,3.21,0,0,1-1.65-1.9,2.74,2.74,0,0,1,0-.55V50a9.07,9.07,0,0,0-3.1,2.4,8.91,8.91,0,0,0-1.95,3.8,15.55,15.55,0,0,0-.5,4.65A12.82,12.82,0,0,0,5,64.5c.53,1.47,1.1,2.88,1.7,4.25s1.25,2.78,2,4.15a5,5,0,0,1,.15,4.3,43.07,43.07,0,0,0-1.4,4.2,5,5,0,0,0-.2,1A9.78,9.78,0,0,0,7.16,85.1Zm21.5-39.3h1.2c.7,0,1,.15,1,.35s-.37.3-.9.4A8.76,8.76,0,0,1,28,46.8h-.25a23.53,23.53,0,0,0-3.45.3l-.3-.9s0,0,0,0l1-.1,1.1-.1c.56-.07,1.23-.12,2-.15A3.12,3.12,0,0,0,28.66,45.8Z"/><path class="cls-26" d="M19.71,50.65l-.25-.1c-1.17-.43-2.27-.82-3.3-1.15a12.5,12.5,0,0,0-2.45-.5,7.09,7.09,0,0,1,.6-1.15c.33-.53.53-.87.6-1l.2-.6a12.32,12.32,0,0,1,2,1.25l1.25,1.05a3.82,3.82,0,0,1,.9.9A3.66,3.66,0,0,1,19.71,50.65Zm2.8.25a2.06,2.06,0,0,1-.4-.6.51.51,0,0,1,0-.45,2,2,0,0,1,.4-.65,8.77,8.77,0,0,0,.65.75c.6.5,1.11.92,1.55,1.25l.1.1a.58.58,0,0,1-.25.15l0,0a.3.3,0,0,0-.2,0h-.1a1.34,1.34,0,0,1-.5,0q-.3-.11-.75-.3Z"/><path class="cls-27" d="M13.71,48.9a12.5,12.5,0,0,1,2.45.5c1,.33,2.13.72,3.3,1.15l.25.1q.6.2,1.2.45v0l.2.55,1.35,3.2-.05.15c-.27-.2-.55-.4-.85-.6a35.38,35.38,0,0,0-4.4-2.5c-1.3-.63-2.67-1.22-4.1-1.75-.34-.13-.65-.25-1-.35l-.3-.1,1.4-.9h.1A2.53,2.53,0,0,1,13.71,48.9Z"/><path class="cls-28" d="M22.71,55.25c-2.17-1.27-4.27-2.38-6.3-3.35-1.2-.53-2.37-1-3.5-1.45l-1.6-.6h0a1.12,1.12,0,0,1,.45-.1l.3.1c.3.1.61.22,1,.35,1.43.53,2.8,1.12,4.1,1.75a35.38,35.38,0,0,1,4.4,2.5c.3.2.58.4.85.6A1.29,1.29,0,0,1,22.71,55.25Z"/><path class="cls-29" d="M115,107.8c1.1-.8,2.16-1.6,3.2-2.4a24.94,24.94,0,0,1,4.05,2.75,4.65,4.65,0,0,1,1.5,1.7,1.51,1.51,0,0,1-.5.45l-24.5,14c-1.37.77-3.94.23-7.7-1.6-.27-.13-.55-.28-.85-.45l1.5-.85h.15l2.65,1.6a.75.75,0,0,0,.9,0l1-.55h0l.15-.15-2.9-1.7a1.09,1.09,0,0,0-.5-.1l3.35-1.9,2.7,1.6v0a1,1,0,0,0,1,0v0l2.8-1.6v.1c.06-.07.1-.12.1-.15a.32.32,0,0,0-.1-.2l-3.1-1.75,1-.55,2.75,1.6a.64.64,0,0,0,.9,0v0l2.75-1.45q0-.15.15-.15h-.1a.5.5,0,0,0,0-.15l-3-1.75.85-.5,2.7,1.55a.91.91,0,0,0,1,0l2.7-1.55h0a.32.32,0,0,0,.1-.2l-.1-.15-2.75-1.5a.51.51,0,0,0-.3-.1l1-.6,2.65,1.55v0a1.33,1.33,0,0,0,1,0h0l2.65-1.6c.13,0,.2-.08.2-.15l-.2,0-2.9-1.7.85-.55h.1l2.6,1.6a1.29,1.29,0,0,0,1,0l1.1-.65c.1-.1.16-.15.2-.15a1.45,1.45,0,0,1-.35-.15l-2.65-1.55h.1A1.1,1.1,0,0,0,115,107.8ZM54.81,79.65l-.55.3-.5-1.9,5.8-3.3a4.23,4.23,0,0,1,3.3-.15c-.7.5-1.4,1-2.1,1.45a1,1,0,0,0-.75.1l-1,.7h-.2a.31.31,0,0,1,.2.2l.15,0-1,.6a.19.19,0,0,0-.1,0,1.17,1.17,0,0,0-.75,0l-2.75,1.6s0,0-.1,0a.32.32,0,0,1,.1.2v0ZM47.46,83.5l-1.25.75a.49.49,0,0,1-.2.1l.2.2v0l0,0-1,.6a.69.69,0,0,0-.75,0l-2.6,1.5-.2,0a.75.75,0,0,0,.2.3V86.9L42,87l-1.25.7h0a1.39,1.39,0,0,0-.85,0l-2.8,1.7.2.1.15.1-1.7.95a5.11,5.11,0,0,1-1.2-1.4,2,2,0,0,1,.5-.45L47,81.9Z"/><path class="cls-30" d="M93.21,120.55a1.09,1.09,0,0,1,.5.1l2.9,1.7-.15.15h0l-1,.55a.75.75,0,0,1-.9,0l-2.65-1.6h-.15Zm6.75-3.9,3.1,1.75a.32.32,0,0,1,.1.2s0,.08-.1.15v-.1l-2.8,1.6v0a1,1,0,0,1-1,0v0l-2.7-1.6Zm1-.55,3.35-1.9,3,1.75a.5.5,0,0,1,0,.15h.1q-.1,0-.15.15l-2.75,1.45v0a.64.64,0,0,1-.9,0Zm7.6-4.35a.51.51,0,0,1,.3.1l2.75,1.5.1.15a.32.32,0,0,1-.1.2h0l-2.7,1.55a.91.91,0,0,1-1,0l-2.7-1.55Zm4.35-2.5,2.9,1.7.2,0c0,.07-.07.12-.2.15l-2.65,1.6h0a1.33,1.33,0,0,1-1,0v0l-2.65-1.55,2.5-1.4a.48.48,0,0,1,.15-.1l.65-.35ZM115,107.8a1.1,1.1,0,0,1,.85,0h-.1l2.65,1.55a1.45,1.45,0,0,0,.35.15s-.1,0-.2.15l-1.1.65a1.29,1.29,0,0,1-1,0l-2.6-1.6h-.1ZM46.26,84.55l0,0v0l-.2-.2a.49.49,0,0,0,.2-.1l1.25-.75,0,.3Zm-1,.6L42,87l-.15-.1v.15a.75.75,0,0,1-.2-.3l.2,0,2.6-1.5A.69.69,0,0,1,45.21,85.15ZM58.16,77.7l-3.35,2-.25-.15v0a.32.32,0,0,0-.1-.2c.06,0,.1,0,.1,0l2.75-1.6a1.17,1.17,0,0,1,.75,0A.19.19,0,0,1,58.16,77.7Zm2.6-1.65c-.47.33-.95.65-1.45,1l-.2.1-.15,0a.31.31,0,0,0-.2-.2H59l1-.7A1,1,0,0,1,60.76,76.05Zm-20,11.65-3.35,2-.15-.1-.2-.1,2.8-1.7a1.39,1.39,0,0,1,.85,0Z"/><path class="cls-31" d="M118.91,104.85a28.36,28.36,0,0,1,3.35,2.3q2.1,1.75,1.5,2.7a4.65,4.65,0,0,0-1.5-1.7,24.94,24.94,0,0,0-4.05-2.75A8.88,8.88,0,0,1,118.91,104.85Zm-55.1-31a8.7,8.7,0,0,0-1,.75,4.23,4.23,0,0,0-3.3.15l-5.8,3.3-.25-.85,6.05-3.5C60.46,73.17,61.87,73.22,63.81,73.85ZM34.51,89.2a1,1,0,0,1,.5-1.45l11.75-6.7.25.85L35,88.75A2,2,0,0,0,34.51,89.2Z"/><path class="cls-32" d="M123.76,109.85q.6-.94-1.5-2.7a28.36,28.36,0,0,0-3.35-2.3,57,57,0,0,0,5-4.75l6.6,3.85a33.58,33.58,0,0,0,3.4,1.75c2.26,1.53,3.66,2.92,4.2,4.15a2.44,2.44,0,0,1,0,2.1,4.23,4.23,0,0,1-1.7,1.5l-53,30.65h0q-3.25,1.85-8,.65a33.74,33.74,0,0,1-7.8-3.35l-37.95-22c.16-1.33.35-2.65.55-4l33.6,19.4a4.54,4.54,0,0,0,4.8-.05.48.48,0,0,1,.15-.1L90.21,122.3c.3.17.58.32.85.45,3.76,1.83,6.33,2.37,7.7,1.6l24.5-14A1.51,1.51,0,0,0,123.76,109.85ZM7.91,94.1q.69,4.61,1.25,9.25A8.26,8.26,0,0,1,9,106.2l-.3,1.2-1.7-1A28.94,28.94,0,0,1,4,104.55a11.45,11.45,0,0,1-3.35-3.3,1.86,1.86,0,0,1-.1-.2,2.51,2.51,0,0,1,.1-2.3,5.23,5.23,0,0,1,1.6-1.45ZM67.76,67.55a15.11,15.11,0,0,0,1.8,1.15,62.1,62.1,0,0,1-5.75,5.15c-1.94-.63-3.35-.68-4.25-.15l-6.05,3.5L51.31,69l4-2.35Q60,64.06,67.76,67.55ZM41,75l3.6-2.1,2.15,8.2L35,87.75a1,1,0,0,0-.5,1.45,5.11,5.11,0,0,0,1.2,1.4L31,93.35a32.32,32.32,0,0,0-2.1-6.9,5.39,5.39,0,0,0,.4-2c0-1,0-1.93-.1-2.7l1.75-1a.69.69,0,0,0,.35.2l0,0h.15a.23.23,0,0,0,.2,0,26,26,0,0,0,4.1-1.75A23.1,23.1,0,0,0,41,75ZM17.51,112.5c.23-1.27.51-2.53.85-3.8l1.4.8.55,1.85a6.27,6.27,0,0,1,0,1.5,8.09,8.09,0,0,1-.1,1.2Z"/><path class="cls-33" d="M31.06,66q.5,1.55.6,2a1.7,1.7,0,0,0,.3.8,2.19,2.19,0,0,0-.25.4,4.06,4.06,0,0,0-.25.35,9.63,9.63,0,0,1-2.4,2.7c-.37-.87-.7-1.75-1-2.65a12.76,12.76,0,0,0,1.2-1.15c.6-.6,1.13-1.18,1.6-1.75l.25-.35A.79.79,0,0,1,31.06,66Zm-.3-.8a3.63,3.63,0,0,1-.3.35A17.12,17.12,0,0,1,29,67.2c-.44.43-.89.85-1.35,1.25a11.19,11.19,0,0,0-.6-1.2,8.77,8.77,0,0,0-2.6-2.8,6.93,6.93,0,0,0-6.15-.9,4.6,4.6,0,0,0-.65.15c0-.2.06-.4.1-.6a11,11,0,0,1,1.35-4.05,4.73,4.73,0,0,1,3.15-2.25,4.46,4.46,0,0,1,2.35.5,3.63,3.63,0,0,1,.35.2c.8.43,1.38.77,1.75,1A11,11,0,0,1,28,59.75c.13.17.28.35.45.55a8.56,8.56,0,0,1,1.25,1.75v.15c.13.4.48,1.38,1.05,3ZM20.66,92.5c-.37,0-.74,0-1.1,0A13.11,13.11,0,0,1,14,90.9c-.17-.07-.32-.13-.45-.2-.34-.2-.67-.38-1-.55-.7-.43-1.35-.85-2-1.25a10.43,10.43,0,0,1-2.5-2.3,17.25,17.25,0,0,1-.95-1.5,9.78,9.78,0,0,1,0-2.65,5,5,0,0,1,.2-1,43.07,43.07,0,0,1,1.4-4.2,5,5,0,0,0-.15-4.3q-1.05-2.06-1.95-4.15C6.11,67.38,5.54,66,5,64.5a12.82,12.82,0,0,1-.75-3.7,15.55,15.55,0,0,1,.5-4.65,8.91,8.91,0,0,1,2-3.8A9.07,9.07,0,0,1,9.81,50v.25a2.74,2.74,0,0,0,0,.55,3.21,3.21,0,0,0,1.65,1.9,23.68,23.68,0,0,0,5,2c.9.27,2.65.83,5.25,1.7l-.2.1a4.39,4.39,0,0,0-1,.55,9.67,9.67,0,0,0-3.35,3.5,10.47,10.47,0,0,0-.65,1.3,5.78,5.78,0,0,0-.65,2.4,5.37,5.37,0,0,0,.05.8,32,32,0,0,0,2.4,9.9c.4,1.07,1,2.47,1.7,4.2a9.54,9.54,0,0,1,.75,3,11.49,11.49,0,0,1-.35,1.7,10.06,10.06,0,0,0-.35,1.65v1.65c0,.93.08,1.8.15,2.6q0,.6.15,1.2A10.93,10.93,0,0,0,20.66,92.5Z"/><path class="cls-34" d="M28.91,125.15c.1-1.2.23-2.4.4-3.6l38.2,22a32.46,32.46,0,0,0,7.8,3.4q4.74,1.2,8-.6l53.1-30.7c1.8-1.07,2.36-2.3,1.7-3.7a2.44,2.44,0,0,0,0-2.1l.55.35q7.84,4.45,1.2,8.25l-54.7,31.4q-6.66,3.85-14.45-.65ZM31.46,138c-.44.07-.9.17-1.4.3l.1-.35-.45-.05h-.25a1.57,1.57,0,0,1-1-1.35,48,48,0,0,1-.05-4.95l12.35,7.15q3.5,2-1.65,5l-7.8,4.5q-5.2,3-8.7.9L1.41,137q-3.51-2,1.7-5l3.05-1.75A29.82,29.82,0,0,0,8,139.4a.73.73,0,0,0,.5.75q4.89,2.4,6.15-3.3l.75-1.3,3.35-3.1q-.45,5.15-.9,10.35a1.6,1.6,0,0,1,.15.35,3.56,3.56,0,0,0,.9,1.95q.94,2.66,3.3,2.4a13.23,13.23,0,0,0,2.2-.4c1-.23,1.6-.37,1.9-.4v-1.1a21.36,21.36,0,0,1,3.65-.4,23.08,23.08,0,0,0,3.5-.25,5.45,5.45,0,0,0,2.75-1.5,3.52,3.52,0,0,0,1.15-2.5.4.4,0,0,1,.15-.25.85.85,0,0,0,0-1,6.16,6.16,0,0,0-4.6-1.85A10,10,0,0,0,31.46,138Zm-28.8-32.2a29.07,29.07,0,0,0,4.3,2.9l1.25.75c-.24,1.17-.45,2.35-.65,3.55l-1.3-.8Q.35,108.74,2.66,105.75Zm28.4,1.35c.1-.83.16-1.68.2-2.55l5.1,3a4.36,4.36,0,0,0-.9.55c-.27.23-.65.53-1.15.9Zm5.85-7.75-5.5-3.15,2.3-1.35,5.5,3.2A10.45,10.45,0,0,0,36.91,99.35Zm-5.45-.25,6.3,3.65a5.58,5.58,0,0,0-1.95.9,1.93,1.93,0,0,0-.5.35l-3.9-2.25c0-.7,0-1.4.05-2.1Zm7.9,4.6,2.7,1.55A5.47,5.47,0,0,0,41,106c-.37.3-.69.57-.95.8l-2.5-1.45.55-.35A7.35,7.35,0,0,0,39.36,103.7Zm-.3-4.1a13,13,0,0,0,1.1-1l8,4.65c-.27.13-.55.27-.85.4-.64.33-1.17.63-1.6.9l-4.2-2.45h.05l-3.25-1.85Q38.66,99.95,39.06,99.6ZM57.76,81l6.6,3.85a7.56,7.56,0,0,0-1.9,1.55l-7.05-4.1Zm1.8,6.6,13.6,7.9-2.3,1.3-13.1-7.55a3.63,3.63,0,0,0,.35-.3C58.77,88.35,59.26,87.9,59.56,87.6Zm-6.05,18.7.15.1.15.25-2.15,1.25-4.3-2.5c.86-.57,1.58-1,2.15-1.4ZM92.66,67l4.25,2.45c-.3.5-.69,1.2-1.15,2.1q-2.06-1.24-4.2-2.45A5.72,5.72,0,0,0,92.31,68C92.44,67.58,92.56,67.27,92.66,67ZM91,66.9c-.37.47-.69.9-.95,1.3-.4-.23-.79-.47-1.15-.7q-5.65-3.25-11.25-6.4c.4-.73.76-1.43,1.1-2.1q6.65,3.7,12.8,7.3C91.34,66.47,91.16,66.67,91,66.9Zm-5.15,4.7c-1.6-.9-3.19-1.8-4.75-2.7a6.74,6.74,0,0,0,1-1.3c.16-.3.3-.57.4-.8q5.64,3.26,10.9,6.35a6.81,6.81,0,0,0-1.1,1c-.27.3-.5.58-.7.85ZM88,76.05c2.16,1.3,4.25,2.57,6.25,3.8q-.9,1-1.8,2-2.8-1.76-5.6-3.45a5,5,0,0,0,.6-.9C87.56,77.22,87.74,76.75,88,76.05Zm9.9-6c.93.57,1.85,1.12,2.75,1.65-.4.63-.84,1.3-1.3,2l-2.3-1.4a2.78,2.78,0,0,0,.25-.6Q97.76,70.35,97.91,70.05Zm-4.8,5.3a11.82,11.82,0,0,0,1.1-1.65c1.2.7,2.4,1.42,3.6,2.15q-.86.95-1.65,2c-1.14-.67-2.25-1.33-3.35-2A4.39,4.39,0,0,1,93.11,75.35Zm7.7,2,4.9,2.75c-.27.2-.59.45-.95.75s-.75.65-1.05,1q-2.25-1.31-4.5-2.55ZM79.46,68l-4.9-2.8,1.6-1.9L80.91,66a6.85,6.85,0,0,0-.85.9A7.46,7.46,0,0,0,79.46,68Zm-14.3,6.1q12.2,7.09,21.75,13.25c-.54.57-1.07,1.1-1.6,1.6q-9.45-6-21.7-13A15.37,15.37,0,0,1,65.16,74.1Zm3.7-3.5q3.49,2.06,6.8,4.05c-.37.27-.8.62-1.3,1l-.6.6c-2.27-1.33-4.52-2.67-6.75-4C67.64,71.73,68.26,71.17,68.86,70.6Zm8,4.7q7.35,4.4,13.7,8.5c-.64.6-1.22,1.17-1.75,1.7q-5.2-3.19-10.25-6.35l-3.25-2a6.68,6.68,0,0,0,.75-.8C76.34,76,76.61,75.6,76.81,75.3Zm.6,11.5L82.81,90l-2.35,1.3-5.2-3,.65-.35A6.3,6.3,0,0,0,77.41,86.8Zm4.35,7.5,5.1,3a8.8,8.8,0,0,0-2.15,1.4l-5.3-3Zm17.15-6.5c1.83,1.07,3.61,2.13,5.35,3.2l-.55.45a8.73,8.73,0,0,0-1.3,1.25q-2.46-1.5-5-2.9a7.22,7.22,0,0,0,.7-.85C98.46,88.45,98.71,88.07,98.91,87.8ZM86.56,91.55l13,7.55a4.34,4.34,0,0,0-.9.35c-.64.3-1.19.58-1.65.85l-2.7-1.55,0,0L84.21,92.85Zm1.6,6.5,13.8,8-2.3,1.3-13.15-7.6a2.72,2.72,0,0,1,.35-.3C87.32,99,87.76,98.52,88.16,98.05ZM101,100l5.75,3.3-2.3,1.35L99,101.45c.16-.1.33-.22.5-.35C100.14,100.6,100.64,100.22,101,100Zm-84.35,18.2c.13-1.2.3-2.42.5-3.65l2.9,1.7c-.14,1.23-.25,2.47-.35,3.7Zm2.2,9.8-2.8-.3.1,1a7.44,7.44,0,0,1-.15-2.3v-.65a6.25,6.25,0,0,1,3,.55C19,126.82,18.92,127.38,18.86,128Zm-3,6.5.5-1.65L16.11,134ZM76.61,115.2c.46-.4.83-.73,1.1-1l5.05,3-2.3,1.3-4.6-2.65Q76.21,115.54,76.61,115.2Zm-16.15-8.3,0-.35,2-1.15,14.1,8.15c-.3.13-.65.3-1,.5-.57.27-1,.52-1.45.75l-3.8-2.2h0Zm-.4,5.3.2-2.55,5.35,3.1a5.78,5.78,0,0,0-.9.5,7.89,7.89,0,0,0-1.3.9Zm-4.45-2.8.2.35-.4-.25Zm10.45,17.4L56,121a7.18,7.18,0,0,0,.65-.5c.53-.4,1-.73,1.25-1l10.45,6Zm-18-13,8.7,5a8.82,8.82,0,0,0-2.5,1.2l-8.5-5Zm-6-.3-6.6-3.8a1.3,1.3,0,0,1,.35-.25q.94-.8,1.5-1.35l7,4Zm7.1-4.1-2.3,1.35L42,107.85a6,6,0,0,0,.9-.75l.9-.9ZM30,139a1.83,1.83,0,0,1,.05.4l-.05.2Zm-.5,2.15a3.84,3.84,0,0,1-1.5,1.25,5.29,5.29,0,0,0,.6-.5,3.47,3.47,0,0,0,1.1-1.3l-.15.4A.21.21,0,0,1,29.46,141.1Zm94.65-65.75c.2-.53.35-1,.45-1.3q2.34,1.35,4.65,2.75c-.27.7-.54,1.43-.8,2.2l-4.65-2.7A8.88,8.88,0,0,0,124.11,75.35ZM107.16,64c2.36,1.33,4.7,2.67,7,4a6.35,6.35,0,0,0-1.1,2q-3.41-1.9-6.75-3.85C106.61,65.47,106.89,64.73,107.16,64Zm-2.7,6.7c.3-.77.6-1.48.9-2.15q2.7,1.55,5.4,3a8.78,8.78,0,0,0-1.2,2Zm10.1.2a3.93,3.93,0,0,0,.35-.9,11,11,0,0,0,.3-1.4q4.1,2.3,8.05,4.65a4,4,0,0,0-.8,1.25,6.94,6.94,0,0,0-.35.8l-4.55-2.65V72.6Zm4,10.75c1,.6,1.91,1.18,2.85,1.75a8,8,0,0,0-1.4,1.9c-.84-.47-1.67-1-2.5-1.45l.45-.8C118.19,82.55,118.39,82.08,118.56,81.65Zm3.25,3.7c.2-.43.4-.9.6-1.4,1,.6,1.93,1.18,2.9,1.75-.4.63-.84,1.28-1.3,2l-2.65-1.55A6.76,6.76,0,0,0,121.81,85.35ZM105.26,91.6l5.1,3.15a10.44,10.44,0,0,0-1.35.9c-.27.23-.52.47-.75.7-1.5-1-3-1.9-4.45-2.8.2-.23.41-.52.65-.85S105.06,91.9,105.26,91.6Zm6.35-2.2c2.53,1.53,5,3,7.3,4.45l-1.75,2-7.25-4.45c.23-.23.5-.52.8-.85Zm-.9,7.15c.3-.43.55-.8.75-1.1,1.26.77,2.5,1.55,3.7,2.35-.6.6-1.19,1.17-1.75,1.7-1.14-.7-2.27-1.38-3.4-2C110.24,97.18,110.47,96.88,110.71,96.55Z"/><path class="cls-35" d="M73.46,87.25l-13.25-7.7,2.35-1.35,12.8,7.45A7.57,7.57,0,0,0,73.46,87.25Zm16.35.85Q102,95.2,111.56,101.35c-.54.57-1.07,1.1-1.6,1.6q-9.45-6-21.7-13A15.37,15.37,0,0,1,89.81,88.1ZM64.91,115l.85-.75c.4-.33.71-.62.95-.85L78,119.9l-2.3,1.35L65.51,115.4l0-.05Zm47.25-42.6q7.89,4.5,15.35,8.95-.51,1.09-1.05,2.1l-10.7-6.3q-2.36-1.31-4.65-2.65a7.67,7.67,0,0,0,.5-.85A11.3,11.3,0,0,0,112.16,72.4Z"/><path class="cls-36" d="M97.36,81.05q6.8,3.9,12.9,7.55a10.7,10.7,0,0,0-1.3,1.05l-.65.75c-.5-.3-1-.6-1.45-.9q-5.76-3.41-11.4-6.7C96.12,82.23,96.76,81.65,97.36,81.05Zm33.4-8.9c-.24.73-.49,1.47-.75,2.2-.84-.47-1.67-.95-2.5-1.45a5.82,5.82,0,0,0,.3-.75q.34-1.05.45-1.5Zm-4.35.1q-3.51-2.1-7-4.1c.1-.27.2-.58.3-1,.13-.63.23-1.1.3-1.4q3.69,2.15,7.4,4.35a9.65,9.65,0,0,0-.45,1C126.74,71.6,126.57,72,126.41,72.25Zm-8.45-5q-3.36-1.9-6.75-3.85a7.64,7.64,0,0,0,.4-1.1c.1-.53.18-1,.25-1.25,2.4,1.37,4.76,2.73,7.1,4.1-.14.3-.32.67-.55,1.1A10.47,10.47,0,0,0,118,67.3Zm-9-7.9a20.74,20.74,0,0,0,2,1.1q-.4.86-.9,2.25c-.64-.4-1.27-.77-1.9-1.1C108.32,60.88,108.61,60.13,108.91,59.4Z"/><path class="cls-37" d="M8,139.4a29.82,29.82,0,0,1-1.85-9.2,30.23,30.23,0,0,1,.1-4.35q.24-2.89.5-5.75.24-3.6.8-7.15c.2-1.2.41-2.38.65-3.55.13-.67.28-1.33.45-2l.3-1.2a8.26,8.26,0,0,0,.2-2.85Q8.6,98.7,7.91,94.1q-.45-3-1-5.85a17,17,0,0,1-.1-4.15c.06.2.13.4.2.6s.06.27.1.4a17.25,17.25,0,0,0,.95,1.5,10.43,10.43,0,0,0,2.5,2.3c.6.4,1.25.82,2,1.25.33.17.66.35,1,.55v.1q.8,2.85,1.7,5.7-.3,2.15-.95,6.65a6.55,6.55,0,0,1-.05.7c-.1.6-.2,1.23-.3,1.9-.07.47-.14,1-.2,1.45-.14,1-.27,2-.4,2.9-.1.73-.19,1.43-.25,2.1-.17,1.33-.32,2.55-.45,3.65-.44,3.7-.65,6.18-.65,7.45v3.6q0,3.3.2,6.1.24,3.41.6,5.55A6.49,6.49,0,0,1,8,139.4Z"/><path class="cls-38" d="M16.76,130.9l-.25-.3a.37.37,0,0,0,.15.05A2.11,2.11,0,0,0,18,130a3.57,3.57,0,0,0-1.15-.8,2.79,2.79,0,0,1-.7-.4v-.1l-.1-1,2.8.3-.15,3.7-2.6,2.3.25-1.15Zm6,14.55.35-.1c.43-.23.86-.45,1.3-.65a14.42,14.42,0,0,0,3.5-2.35,3.84,3.84,0,0,0,1.5-1.25c.13.2.25.37.35.5h.5a1.65,1.65,0,0,1,.25-.4,11.6,11.6,0,0,0,.05-1.35,3,3,0,0,0-.9-2l.45.05-.1.35c.5-.13,1-.23,1.4-.3a3.43,3.43,0,0,1,.35.55,7.72,7.72,0,0,0,.85,1.6l.35,0q.15,0,.15-1.05a2.56,2.56,0,0,0-.3-1.15,6.16,6.16,0,0,1,4.6,1.85.85.85,0,0,1,0,1,.4.4,0,0,0-.15.25,7,7,0,0,1-.7,1,5,5,0,0,1-.8.9,8.12,8.12,0,0,1-6.75,1.9,19.35,19.35,0,0,0-3.4.2C24.74,145.1,23.77,145.28,22.81,145.45Z"/><polygon class="cls-39" points="16.36 132.8 15.86 134.45 16.76 130.9 16.36 132.8"/><path class="cls-40" d="M60.66,104.45l-.15,2.1,0,.35-.15,2.15-.4.4a3.48,3.48,0,0,1-3,1,3.24,3.24,0,0,1-.8-.2l-.3-.45-.2-.35-1.8-2.75-.15-.25,0-.05L56,107l3-.8Z"/><path class="cls-41" d="M60.26,109.65l-.2,2.55-.2,2.8-.1,1-1-1.6-2.65-4.15a3.24,3.24,0,0,0,.8.2,3.48,3.48,0,0,0,3-1l.4-.4Z"/><path class="cls-42" d="M155.16,67.3a9.33,9.33,0,0,1-1.7-.8l-10.1-5.75L148.51,48l.35-.25q1.39-.75,4,.75l8,4.6Zm-2.3,5.8-10.6,26.45a17.27,17.27,0,0,1-5.85-2l-2.85-1.55-4.4-2.55a48.82,48.82,0,0,0,3.45-6.15l0,0,8.45-21Z"/><path class="cls-43" d="M131.61,69.75q-5.36-3.19-10.85-6.35v0q-5.4-3.15-11-6.3a18.83,18.83,0,0,0,.85-2.15q11,6.2,21.8,12.65C132.16,68.32,131.87,69.05,131.61,69.75Z"/><path class="cls-44" d="M55.76,3.2c0-.33.06-.55.2-.65a1.13,1.13,0,0,1,.65.15l6.6,3.85A1.6,1.6,0,0,1,64.06,8v7.6a.77.77,0,0,1-.15.55.19.19,0,0,1-.1.05q-.21.11-.6-.15l-6.6-3.8a1.62,1.62,0,0,1-.85-1.5Zm6.45,21.3a2.31,2.31,0,0,1,1.25,2.15v10.9a1.1,1.1,0,0,1-.25.85l-.15.1a1.13,1.13,0,0,1-.85-.2l-2.8-1.65v.05l-6.7-4a2.29,2.29,0,0,1-1.25-2.15V19.7q0-.7.3-.9c.2-.1.51,0,1,.2ZM154.71,94l9.5,5.5a2.31,2.31,0,0,1,1.25,2.15v10.9a1.1,1.1,0,0,1-.25.85l-.15.1a1.13,1.13,0,0,1-.85-.2l-2.8-1.65v0l-6.7-4a2.29,2.29,0,0,1-1.25-2.15V94.7q0-.7.3-.9C154,93.7,154.27,93.77,154.71,94Z"/><path class="cls-45" d="M98.76,151.25v1.6h0l0,2.05h0c0,.3.25.62.75.95l12.2,7a2.83,2.83,0,0,0,3.1,0l12-7q.9-.49.75-1V153a.23.23,0,0,0,0-.2v-.9l2.45,1.4c.6.33.93.68,1,1.05v.25a2.05,2.05,0,0,1-1,1l-15.3,8.85a3.75,3.75,0,0,1-4,0l-8-4.6v0l-7.5-4.3c-.64-.4-1-.78-1-1.15s.33-.8,1-1.2Zm55.8-14.83,2.65,1.53c.6.33.93.68,1,1.05v.25a2.05,2.05,0,0,1-1,1l-15.3,8.85a3.75,3.75,0,0,1-4,0L130,144.5v.05l-7.5-4.3c-.64-.4-1-.78-1-1.15s.33-.8,1-1.2l3.17-1.85,0,1.2h0v2.05l0,0c0,.27.23.57.7.9l12.2,6.95a2.89,2.89,0,0,0,3.1,0l12-6.95c.6-.33.86-.68.8-1.05v-1.8a.36.36,0,0,0,0-.25Z"/><path class="cls-46" d="M98.76,150.75a.81.81,0,0,0,.17.4,2.51,2.51,0,0,0,.63.5l12.15,7a3,3,0,0,0,3.15,0l12-7,.2-.12a1.18,1.18,0,0,0,.55-.63v1.85a.23.23,0,0,1,0,.2v1.85q.15.55-.75,1l-12,7a2.83,2.83,0,0,1-3.1,0l-12.2-7c-.5-.33-.75-.65-.75-.95h0l0-2.05h0v-2.1Z"/><path class="cls-47" d="M154.56,135.3v1.85a.36.36,0,0,1,0,.25v1.8c.06.37-.2.72-.8,1.05l-12,6.95a2.89,2.89,0,0,1-3.1,0l-12.2-6.95c-.47-.33-.7-.63-.7-.9l0,0v-2.05h0l0-1.2,0-.9a.86.86,0,0,0,.42.65,2.27,2.27,0,0,0,.38.25l4.8,2.75h0l1.1.65h.05l6.2,3.6a3,3,0,0,0,3.15-.05l12-6.95a.18.18,0,0,0,.07-.05C154.25,135.75,154.5,135.52,154.56,135.3Z"/><path class="cls-48" d="M125.66,135.15q-.06-.45.75-.9l12.05-7a3,3,0,0,1,3.15,0l8.65,4.95,0,.05,3.55,2c.46.27.71.55.75.85a.49.49,0,0,1,.05.2c-.06.22-.31.45-.73.7a.18.18,0,0,1-.07.05l-12,6.95a3,3,0,0,1-3.15.05l-6.2-3.6h-.05l-1.1-.65h0l-4.8-2.75a2.27,2.27,0,0,1-.38-.25A.86.86,0,0,1,125.66,135.15Zm20.65-.45-8.9,1.05,1.05-2.75a.74.74,0,0,0-.25-.8,1.91,1.91,0,0,0-1.2-.45,2.39,2.39,0,0,0-1.4.1,1.37,1.37,0,0,0-.9.7L133,137a.64.64,0,0,0,.15.7,1.67,1.67,0,0,0,.85.5,2.46,2.46,0,0,0,1.2.1l11.85-1.4a2.57,2.57,0,0,0,1.2-.5.77.77,0,0,0,.25-.85,1.27,1.27,0,0,0-.8-.65A2.23,2.23,0,0,0,146.31,134.7Z"/></g></g></svg>