<svg xmlns="http://www.w3.org/2000/svg" xmlns:xlink="http://www.w3.org/1999/xlink" viewBox="0 0 172.21 186.62"><defs><style>.cls-1{fill:#ff65a7;}.cls-1,.cls-10,.cls-11,.cls-12,.cls-13,.cls-14,.cls-15,.cls-16,.cls-17,.cls-18,.cls-19,.cls-2,.cls-20,.cls-21,.cls-22,.cls-23,.cls-24,.cls-25,.cls-26,.cls-27,.cls-28,.cls-29,.cls-3,.cls-30,.cls-31,.cls-32,.cls-33,.cls-34,.cls-35,.cls-36,.cls-37,.cls-38,.cls-39,.cls-4,.cls-40,.cls-41,.cls-42,.cls-43,.cls-44,.cls-45,.cls-46,.cls-47,.cls-48,.cls-5,.cls-6,.cls-7,.cls-8,.cls-9{fill-rule:evenodd;}.cls-2{fill:#bd1c61;}.cls-3{fill:#92d7ff;}.cls-4{fill:#4367c7;}.cls-5{fill:#fabd00;}.cls-6{fill:#4c4cc2;}.cls-7{fill:#fff;}.cls-8{fill:#017ae8;}.cls-9{fill:#d7e8ff;}.cls-10{fill:#c4e7ff;}.cls-11{fill:#9ed8ff;}.cls-12{fill:#ed428b;}.cls-13{fill:#8ec2ff;}.cls-14{fill:#ffdb59;}.cls-15{fill:#fd9c3c;}.cls-16{fill:#ffbd59;}.cls-17{fill:#9999ef;}.cls-18{fill:#6f6fda;}.cls-19{fill:#60a2f0;}.cls-20{fill:#367dd1;}.cls-21{fill:#cb2069;}.cls-22{fill:url(#linear-gradient);}.cls-23{fill:#12bc9e;}.cls-24{fill:#27e0c0;}.cls-25{fill:#ffd22e;}.cls-26{fill:#e8b588;}.cls-27{fill:#ff65ab;}.cls-28{fill:#b91a5f;}.cls-29{fill:#87ceff;}.cls-30{fill:#713d22;}.cls-31{fill:#452312;}.cls-32{fill:#b58866;}.cls-33{fill:#52517b;}.cls-34{fill:#343354;}.cls-35{fill:#dda274;}.cls-36{fill:#a48263;}.cls-37{fill:#826448;}.cls-38{fill:#ceab8b;}.cls-39{fill:#cbdfff;}.cls-40{fill:#333;}.cls-41{fill:#ffdc78;}.cls-42{fill:#75bff1;}.cls-43{fill:url(#linear-gradient-2);}.cls-44{fill:#ff4caa;}.cls-45{fill:#e1f8fe;}.cls-46{fill:url(#linear-gradient-3);}.cls-47{fill:#03f4d0;}.cls-48{fill:url(#linear-gradient-4);}</style><linearGradient id="linear-gradient" x1="73.04" y1="132.24" x2="87.97" y2="106.39" gradientUnits="userSpaceOnUse"><stop offset="0.33" stop-color="#ffb200"/><stop offset="0.57" stop-color="#ffd55d"/></linearGradient><linearGradient id="linear-gradient-2" x1="-416.9" y1="530.95" x2="-387.32" y2="530.95" gradientTransform="translate(-178 -467.73) rotate(-60)" gradientUnits="userSpaceOnUse"><stop offset="0.34" stop-color="#e81876"/><stop offset="0.57" stop-color="#ffb4d4"/></linearGradient><linearGradient id="linear-gradient-3" x1="-1021.56" y1="-322.81" x2="-992.51" y2="-322.81" gradientTransform="translate(-988.09 -159.44) rotate(180)" gradientUnits="userSpaceOnUse"><stop offset="0.34" stop-color="#f11f79"/><stop offset="0.57" stop-color="#ff4494"/></linearGradient><linearGradient id="linear-gradient-4" x1="57.13" y1="178.35" x2="28.15" y2="178.35" gradientUnits="userSpaceOnUse"><stop offset="0.34" stop-color="#00ab8e"/><stop offset="0.57" stop-color="#00e1c0"/></linearGradient></defs><g id="Layer_2" data-name="Layer 2"><g id="Layer_4" data-name="Layer 4"><path class="cls-1" d="M140.75,45.05,135.3,54.5v-9l-1.85,1.1-.2.1a1.63,1.63,0,0,1-1.05.2.3.3,0,0,1-.25-.15,1.76,1.76,0,0,1-.35-1.25V29.25a3.51,3.51,0,0,1,1.85-3.2L162.25,9.4c.6-.33,1.05-.42,1.35-.25s.5.62.5,1.35V26.7a3.51,3.51,0,0,1-1.85,3.2L143.1,41ZM85,38.9a1.79,1.79,0,0,1,.8,1.7,5.07,5.07,0,0,1-.8,2.55,5.21,5.21,0,0,1-1.85,2,1.71,1.71,0,0,1-1.8.15,1.67,1.67,0,0,1-.8-1.65,5.15,5.15,0,0,1,.8-2.6,5,5,0,0,1,1.8-1.9A1.76,1.76,0,0,1,85,38.9ZM103.6,87l-3.75,2.15L98.7,88.4v-3l1.2-.7,3.65,2.15ZM92.7,83.75l1,.65L90,86.55,86.3,84.4,90,82.3l.1-.1ZM159.1,22a1.82,1.82,0,0,0-.75-1.7,1.71,1.71,0,0,0-1.75.2,5,5,0,0,0-1.8,1.9,4.82,4.82,0,0,0-.8,2.5,1.73,1.73,0,0,0,.8,1.65,1.8,1.8,0,0,0,1.8-.2,5.08,5.08,0,0,0,1.8-1.85A5.43,5.43,0,0,0,159.1,22Zm-7.6,4.45A1.57,1.57,0,0,0,149,25a4.61,4.61,0,0,0-1.75,1.95,4.64,4.64,0,0,0-.8,2.5A1.58,1.58,0,0,0,149,30.85a4.55,4.55,0,0,0,1.8-1.9A5,5,0,0,0,151.5,26.45Zm-10.6,3a4.9,4.9,0,0,0-1.8,1.95,4.82,4.82,0,0,0-.75,2.5,1.65,1.65,0,0,0,.75,1.6,1.71,1.71,0,0,0,1.8-.15,5,5,0,0,0,1.8-1.9,5,5,0,0,0,.75-2.5,1.76,1.76,0,0,0-.75-1.65A1.71,1.71,0,0,0,140.9,29.45ZM4.4,157.1c0-.3.27-.6.8-.9l12.05-6.95a3,3,0,0,1,3.15-.05l3.5,2.05v-.05l5.15,3H29l3.5,2a1.48,1.48,0,0,1,.8.85.23.23,0,0,1,0,.2,1.13,1.13,0,0,1-.55.63l-.2.12-12,7a3,3,0,0,1-3.15,0L5.2,158a2.43,2.43,0,0,1-.62-.5A.75.75,0,0,1,4.4,157.1Zm5.55.45a.9.9,0,0,0,.6.8,2.51,2.51,0,0,0,1.35.35h4.7v2.7a1,1,0,0,0,.55.8,2.48,2.48,0,0,0,1.4.3,3.1,3.1,0,0,0,1.4-.3,1,1,0,0,0,.55-.8v-2.7l4.7,0a2.48,2.48,0,0,0,1.4-.3.9.9,0,0,0,.55-.8c0-.3-.2-.57-.6-.8a2.26,2.26,0,0,0-1.35-.3H20.5v-2.7a1,1,0,0,0-.55-.85,3.1,3.1,0,0,0-1.4-.3,2.81,2.81,0,0,0-1.35.3c-.4.23-.6.5-.6.8v2.75H11.9a2.26,2.26,0,0,0-1.35.3A.9.9,0,0,0,10,157.55Z"/><path class="cls-2" d="M140.75,19.45,160.2,8.25c.7-.4,1.2-.47,1.5-.2l1.9,1.1c-.3-.17-.75-.08-1.35.25l-28.8,16.65a3.51,3.51,0,0,0-1.85,3.2v16.2A1.76,1.76,0,0,0,132,46.7l-1.85-1a.16.16,0,0,0-.1-.05q-.45-.3-.45-1.35V28.05a3.41,3.41,0,0,1,1.85-3.15ZM135.3,54.5l-2.05-1.15v-6.7l.2-.1,1.85-1.1Z"/><path class="cls-3" d="M90.9,40.45A1.57,1.57,0,0,1,88.35,39a5.36,5.36,0,0,1,.75-2.6,5,5,0,0,1,1.8-1.9,1.76,1.76,0,0,1,1.85-.2,1.79,1.79,0,0,1,.8,1.7,5.07,5.07,0,0,1-.8,2.55A5.21,5.21,0,0,1,90.9,40.45Z"/><path class="cls-4" d="M85,38.9a1.76,1.76,0,0,0-1.85.2,5,5,0,0,0-1.8,1.9,5.15,5.15,0,0,0-.8,2.6,1.67,1.67,0,0,0,.8,1.65,1.71,1.71,0,0,0,1.8-.15,5.21,5.21,0,0,0,1.85-2,5.07,5.07,0,0,0,.8-2.55A1.79,1.79,0,0,0,85,38.9Zm5.9,1.55a5.21,5.21,0,0,0,1.85-2,5.07,5.07,0,0,0,.8-2.55,1.79,1.79,0,0,0-.8-1.7,1.76,1.76,0,0,0-1.85.2,5,5,0,0,0-1.8,1.9,5.36,5.36,0,0,0-.75,2.6,1.57,1.57,0,0,0,2.55,1.5Zm-12.85,3.1a1.8,1.8,0,0,0-1.85.15,5.21,5.21,0,0,0-1.85,1.95,5.36,5.36,0,0,0-.75,2.6,1.7,1.7,0,0,0,.75,1.65,1.8,1.8,0,0,0,1.85-.15,5.71,5.71,0,0,0,1.85-2,5.28,5.28,0,0,0,.75-2.55A1.82,1.82,0,0,0,78.05,43.55ZM69.7,57.85V43.05L138.15,3.8V18.6Z"/><path class="cls-5" d="M78.05,43.55a1.82,1.82,0,0,1,.75,1.7,5.28,5.28,0,0,1-.75,2.55,5.71,5.71,0,0,1-1.85,2,1.8,1.8,0,0,1-1.85.15,1.7,1.7,0,0,1-.75-1.65,5.36,5.36,0,0,1,.75-2.6A5.21,5.21,0,0,1,76.2,43.7,1.8,1.8,0,0,1,78.05,43.55Z"/><path class="cls-6" d="M99.5,58,93,62.55c-.07-1.1-.45-1.78-1.15-2a2.76,2.76,0,0,0-2.75.5V53.15c2.9-2,5.37-2.57,7.4-1.6S99.5,54.62,99.5,58ZM79.1,108.1v1.25l-3.8,2.15v-4.15l3.8-2.2Z"/><path class="cls-7" d="M99.5,58c0-3.33-1-5.47-3-6.4s-4.5-.43-7.4,1.6v.05a24.75,24.75,0,0,0-7.4,8.7l0,.1a22.74,22.74,0,0,0-3,10.55,7.82,7.82,0,0,0,1.6,5.2A4.55,4.55,0,0,0,81.7,79a6.27,6.27,0,0,0,2.3.45,9.88,9.88,0,0,0,5.1-2.1,23.48,23.48,0,0,0,6.8-7.65c.2-.33.38-.67.55-1A23.37,23.37,0,0,0,99.5,58ZM89.1,61a2.76,2.76,0,0,1,2.75-.5c.7.27,1.08,1,1.15,2a.78.78,0,0,1,0,.3,8.43,8.43,0,0,1-1.2,4.1A9,9,0,0,1,89.1,70.2a0,0,0,0,1,0,0,.58.58,0,0,1-.25.15,2.61,2.61,0,0,1-2.55.45,2.4,2.4,0,0,1-1.15-2.3v-.5a9,9,0,0,1,1.15-3.7,8.78,8.78,0,0,1,2.8-3.25A.16.16,0,0,0,89.1,61Zm13.4-11.15V64.2c0,1.93.83,2.42,2.5,1.45l12.4-7.15A4.71,4.71,0,0,0,120,54.15V39.8q0-2.85-2.55-1.4L105,45.55A4.74,4.74,0,0,0,102.5,49.85Zm28.1,56.55v22.9l-7.35,4.25L97.8,148.25V102.4l13.55-7.8,9.8-5.7a8.78,8.78,0,0,1,.8,1.15.21.21,0,0,1,0,.15,3.14,3.14,0,0,0-.35,2.25c.07.17.2.43.4.8l.5,1.1-11,6.3v1.95l11.65-6.7a.16.16,0,0,1,0,.1c.27.53.53,1,.8,1.55l-12.5,7.2v2l13.3-7.7c.43.8.87,1.58,1.3,2.35.57.93,1.15,1.8,1.75,2.6l-16.35,9.4v1.95l8.25-4.7v-.05l8.3-4.7v-1.6a4.82,4.82,0,0,0,1.65,1.6Zm-20.95-5.75-8.25,4.7v7.55l8.25-4.75ZM74,73.05V58.15l49-28.3V59.2l-36.45,21L74,87.5Zm85.1-51a5.43,5.43,0,0,1-.7,2.5,5.08,5.08,0,0,1-1.8,1.85,1.8,1.8,0,0,1-1.8.2,1.73,1.73,0,0,1-.8-1.65,4.82,4.82,0,0,1,.8-2.5,5,5,0,0,1,1.8-1.9,1.71,1.71,0,0,1,1.75-.2A1.82,1.82,0,0,1,159.1,22Zm-18.2,7.45a1.71,1.71,0,0,1,1.8-.15,1.76,1.76,0,0,1,.75,1.65,5,5,0,0,1-.75,2.5,5,5,0,0,1-1.8,1.9,1.71,1.71,0,0,1-1.8.15,1.65,1.65,0,0,1-.75-1.6,4.82,4.82,0,0,1,.75-2.5A4.9,4.9,0,0,1,140.9,29.45Zm10.6-3a5,5,0,0,1-.75,2.5,4.55,4.55,0,0,1-1.8,1.9,1.58,1.58,0,0,1-2.55-1.45,4.64,4.64,0,0,1,.8-2.5A4.61,4.61,0,0,1,149,25a1.57,1.57,0,0,1,2.55,1.5Zm-13.85,47.2a.65.65,0,0,1-.2-.15l-2-.6a1.49,1.49,0,0,0-1.25.45c-.5-.43-.88-.75-1.15-.95a.16.16,0,0,1-.1-.05c-.4-.17-.67-.28-.8-.35a.49.49,0,0,0-.45.35c-.13.27-.55,1.28-1.25,3.05a9.24,9.24,0,0,1-.8,1.2l-.95-.55-1.4-1.15a14.76,14.76,0,0,0-1.55-1.1q-1.24-.6-3.35,4.7-.34.8-.6,1.5V69.25a2.59,2.59,0,0,1,1.2-2.4l13.45-7.6c.73-.3,1.15.08,1.25,1.15Zm-2.35-7.6a1.26,1.26,0,0,0-1.3.15,3.52,3.52,0,0,0-1,1l-.3.4a3.4,3.4,0,0,0-.55,1.8,1.24,1.24,0,0,0,.55,1.2.51.51,0,0,0,.3.1,1.42,1.42,0,0,0,1-.2,3.85,3.85,0,0,0,1.3-1.4,3.64,3.64,0,0,0,.55-1.85A1.3,1.3,0,0,0,135.3,66.05ZM124.8,86.8l5.8-3.35V96.8l-.5-.8c-.63-1-1.28-2-1.95-3V91.1l-.9.55c-.53-.87-1.08-1.7-1.65-2.5a5.49,5.49,0,0,0-.7-.05c0-.53,0-1.07-.05-1.6A5.49,5.49,0,0,0,124.8,86.8ZM128.15,120,111.6,129.5v1.95l16.55-9.5Zm0-4.1-16.55,9.5v2l16.55-9.5ZM158.5,164l-2.75-1.3-.5-4H157l.15-.2-.45,1.75a10.37,10.37,0,0,0,1,2.5C157.92,163.18,158.2,163.6,158.5,164Zm-11.3,6.5q0,4,4.8,4.9c.37.1.7.2,1,.3a54.6,54.6,0,0,0-7-.25q-3.45.2-4.9-2.1-.25-.3.75-1A20.58,20.58,0,0,1,147.2,170.5Zm-37.55-57.1-8.25,4.75v7.55l8.25-4.75Zm1.95,6.1,16.55-9.5v-2l-16.55,9.5Zm-18.85-5L91.4,120.2A2.55,2.55,0,0,1,90.2,122l-6.55,3.75c-.6.37-.93.22-1-.45l-.5-4.55a2.11,2.11,0,0,1,1-2.35l8.85-5.1c.57-.33.85-.2.85.4A3.13,3.13,0,0,1,92.75,114.55Zm16.9,10.8-8.25,4.75v7.55l8.25-4.75ZM78.6,119.8a.43.43,0,0,1,.4-.15l2.25.55a.15.15,0,0,1,.15.1l.1.2,1,8.1,7.55-4.35a.3.3,0,0,1,.4,0c.1,0,.15.15.15.35a1.33,1.33,0,0,1-.15.6,1.82,1.82,0,0,1-.4.45l-.35.2a.16.16,0,0,1,.1.05.8.8,0,0,1,.4.8,2.43,2.43,0,0,1-.4,1.3,2.17,2.17,0,0,1-1,.95.77.77,0,0,1-.9.1.91.91,0,0,1-.35-.85A2.67,2.67,0,0,1,88,127l.1-.2-3.25,1.9a.16.16,0,0,0,.1,0,.92.92,0,0,1,.4.85,2.35,2.35,0,0,1-.4,1.25,2.17,2.17,0,0,1-.9,1,.82.82,0,0,1-1.3-.75,2.62,2.62,0,0,1,.4-1.3.48.48,0,0,0,.1-.15l-1.25.65a.39.39,0,0,1-.35.1.51.51,0,0,1-.2-.35l-1.05-8.35-2-.5c-.13,0-.2-.13-.2-.3a1.05,1.05,0,0,1,.1-.6A.77.77,0,0,1,78.6,119.8Zm5.05,25.45,7.5.5L83.6,155ZM44.4,166.6a1.41,1.41,0,0,1,.8.7l2.45,6.8a.69.69,0,0,1-.2.7,1.67,1.67,0,0,1-.85.5,4,4,0,0,1-1.25.1l-7.6-1a2.2,2.2,0,0,1-1.2-.5.64.64,0,0,1-.2-.8,1.09,1.09,0,0,1,.8-.65,2.68,2.68,0,0,1,1.45-.2l4.75.65-1.9-5.15a.77.77,0,0,1,.3-.85,2.52,2.52,0,0,1,1.2-.45A3,3,0,0,1,44.4,166.6Zm-34.45-9a.9.9,0,0,1,.6-.8,2.26,2.26,0,0,1,1.35-.3h4.7V153.7c0-.3.2-.57.6-.8a2.81,2.81,0,0,1,1.35-.3,3.1,3.1,0,0,1,1.4.3,1,1,0,0,1,.55.85v2.7h4.7a2.26,2.26,0,0,1,1.35.3c.4.23.6.5.6.8a.9.9,0,0,1-.55.8,2.48,2.48,0,0,1-1.4.3l-4.7,0v2.7a1,1,0,0,1-.55.8,3.1,3.1,0,0,1-1.4.3,2.48,2.48,0,0,1-1.4-.3,1,1,0,0,1-.55-.8v-2.7H11.9a2.51,2.51,0,0,1-1.35-.35A.9.9,0,0,1,10,157.55Z"/><path class="cls-8" d="M106.75,56.75a19.74,19.74,0,0,0-.7,2.1,17.81,17.81,0,0,0-.6,2,1.29,1.29,0,0,0-.1.85c.13.2.32.22.55,0q1.84-1,5-2.8l4.95-2.9a6.2,6.2,0,0,0,.8-.5,1.44,1.44,0,0,0,.45-.9,3.16,3.16,0,0,0-.35-1.1l-.5-1c-.17-.37-.3-.65-.4-.85a.91.91,0,0,0-.65-.4c-.23,0-.55,0-1,0a4.94,4.94,0,0,1-1,0,8.1,8.1,0,0,1-1,1.15,6.06,6.06,0,0,1-1.1.9,2.38,2.38,0,0,1-1,.35,3.66,3.66,0,0,1-1.1,0c-.5.63-.88,1.12-1.15,1.45A8.14,8.14,0,0,0,106.75,56.75Zm2.85-4.1a1.69,1.69,0,0,0,1.55-.2A3.89,3.89,0,0,0,112.7,51a7.24,7.24,0,0,0,1.15-3.15,4.34,4.34,0,0,0-.4-2.55,1.21,1.21,0,0,0-1.4-.35,4.43,4.43,0,0,0-1.8,1,7.4,7.4,0,0,0-.9,1.25,4.76,4.76,0,0,0-.55,1.45,5.34,5.34,0,0,0-.2,2.45A2,2,0,0,0,109.6,52.65Zm-7.1-2.8a4.74,4.74,0,0,1,2.5-4.3l12.4-7.15Q120,36.95,120,39.8V54.15a4.71,4.71,0,0,1-2.55,4.35L105,65.65c-1.67,1-2.5.48-2.5-1.45Z"/><path class="cls-9" d="M109.6,52.65a2,2,0,0,1-1-1.6,5.34,5.34,0,0,1,.2-2.45,4.76,4.76,0,0,1,.55-1.45,7.4,7.4,0,0,1,.9-1.25,4.43,4.43,0,0,1,1.8-1,1.21,1.21,0,0,1,1.4.35,4.34,4.34,0,0,1,.4,2.55A7.24,7.24,0,0,1,112.7,51a3.89,3.89,0,0,1-1.55,1.5A1.69,1.69,0,0,1,109.6,52.65Zm-2.85,4.1a8.14,8.14,0,0,1,1.15-1.5c.27-.33.65-.82,1.15-1.45a3.66,3.66,0,0,0,1.1,0,2.38,2.38,0,0,0,1-.35,6.06,6.06,0,0,0,1.1-.9,8.1,8.1,0,0,0,1-1.15,4.94,4.94,0,0,0,1,0c.4,0,.72,0,1,0a.91.91,0,0,1,.65.4c.1.2.23.48.4.85l.5,1a3.16,3.16,0,0,1,.35,1.1,1.44,1.44,0,0,1-.45.9,6.2,6.2,0,0,1-.8.5L110.9,59q-3.15,1.8-5,2.8c-.23.17-.42.15-.55,0a1.29,1.29,0,0,1,.1-.85,17.81,17.81,0,0,1,.6-2A19.74,19.74,0,0,1,106.75,56.75Z"/><path class="cls-10" d="M135.3,54.5l5.45-9.45V79.1a3.29,3.29,0,0,0-.6-.15,7.48,7.48,0,0,1-.4-2.3,3.21,3.21,0,0,0-1.1-2V58.9c0-.77-.17-1.23-.5-1.4L134,55.1c-.3-.17-.77-.08-1.4.25L118.35,63.6a3.42,3.42,0,0,0-1.8,3.15v0l-1.3.75a3.86,3.86,0,0,0-2,3.55v18a1.74,1.74,0,0,0,.4,1.35.58.58,0,0,0,.25.15,1.91,1.91,0,0,0,1.4-.35l5.35-3a2.79,2.79,0,0,0,.55,1.7l-9.8,5.7-3.2-1.85.2-.1V88.5l-3.65-2.3-1.15.65L99.9,84.7l-1.2.7v-.65L95,82.4l-2.3,1.35L90.1,82.2l-.1.1-3.5-2L123,59.2V29.85L74,58.15v14.9L67.55,69.3v-27L140.75,0V19.45L131.4,24.9a3.41,3.41,0,0,0-1.85,3.15V44.3q0,1.05.45,1.35a.16.16,0,0,1,.1.05l1.85,1a.3.3,0,0,0,.25.15,1.63,1.63,0,0,0,1.05-.2v6.7Zm-4.7,70.15,9.85,5.65-11.4,6.6-5.8-3.35,7.35-4.25Zm-63,25.75,4.3,2.5V166a1.86,1.86,0,0,0,.35,1.3.43.43,0,0,0,.3.15,1.67,1.67,0,0,0,1.4-.35l11.25-6.45,0-.05,1.4.8-19,10.95Zm0-49V88.2l13.75,8v.3l-.9-.55-3.85,2.2v5.5l-1.15-.7-2.6,1.5ZM69.7,57.85,138.15,18.6V3.8L69.7,43.05Zm14,52.85-3.35-2,3.8-2.2v-1l.95.55,3.65-2.3v-1.3l1.25.65,1.7-1,6.1,3.55v13.15l-3.7-2.15v-5.65c0-.67-.15-1.08-.45-1.25l-1.85-1h0l-1.9-1.15a1.47,1.47,0,0,0-1.25.25Zm46.9-13.9V83.45l-5.8,3.35-.1-.4c-.13-.3-.27-.58-.4-.85l2.45-1.4v0l9.15-5.35a6.52,6.52,0,0,0,.7.25,3.19,3.19,0,0,1,.65.45s-.07,0-.1.1a3.26,3.26,0,0,0-.7,2.3,4.66,4.66,0,0,0,.3.85c.33.93.65,1.88.95,2.85s.75,1.9,1.15,2.8.75,1.92,1.15,2.85l.75,1.6v10.75a16.6,16.6,0,0,0-2.65-1.15,14.24,14.24,0,0,1-3.25-1.3c-.73-.4-1.48-.78-2.25-1.15V100a4.39,4.39,0,0,0-.3-.45,8.68,8.68,0,0,0-.55-1.1C131.35,97.87,131,97.33,130.6,96.8Z"/><path class="cls-11" d="M130.6,124.65V106.4a3.07,3.07,0,0,1,.55.25,5.92,5.92,0,0,1,1.1.65c.33.2.8.5,1.4.9s1.25.8,1.85,1.2c.77.5,1.55,1,2.35,1.4a9.39,9.39,0,0,0,1.2.6,9,9,0,0,1,1.7.9v17.85l-.3.15Zm-63-36.45V69.3L74,73.05V87.5l12.5-7.25,3.5,2-3.7,2.1v5.35L85,89l-3.7,2.25v4.9Zm0,13.2,5.25,3-1.25.75v4.15l3.75,2.2,3.8-2.15V108.1l1.2.7,0,0,3.35,2-8,4.6a3,3,0,0,0-1.65,2.8l-.2.1a3.83,3.83,0,0,0-2.05,3.5v18a1.94,1.94,0,0,0,.35,1.35,1.05,1.05,0,0,0,.3.15,2,2,0,0,0,1.4-.35l11.25-6.45v0l4.45-2.6a3.72,3.72,0,0,0,2-2.65l.9-.5a3.12,3.12,0,0,0,1.65-2.9v-9l3.7,2.15v29.4l25.45-14.7,5.8,3.35L86.6,161.4l-1.4-.8,4.4-2.55a3.68,3.68,0,0,0,2-3.05l.9-.55a3,3,0,0,0,1.6-2.75V137.55c0-.63-.13-1-.4-1.2l-3.7-2.1c-.27-.13-.67-.05-1.2.25l-12.35,7.15a3,3,0,0,0-1.55,2.2l-1,.55A3.86,3.86,0,0,0,71.85,148v5l-4.3-2.5Zm30.25,4.3-6.1-3.55,2-1.15V99.65l1.15.65,3.8-2.15v-1.3l1.15.7,3.75-2.2v-1.1l1.05.5,3.5-2,3.2,1.85L97.8,102.4Z"/><path class="cls-12" d="M93,62.55,99.5,58a23.37,23.37,0,0,1-3,10.7c-.17.33-.35.67-.55,1a23.48,23.48,0,0,1-6.8,7.65V70.2A9,9,0,0,0,91.85,67a8.43,8.43,0,0,0,1.2-4.1A.78.78,0,0,0,93,62.55Zm-3,24v16.6l-1.25-.65V91.15l-2.45-1.4V84.4Zm9.85,2.6v8.4l-1.15-.7V88.4Z"/><path class="cls-13" d="M89.1,53.2V61a.16.16,0,0,1,0,.1,8.78,8.78,0,0,0-2.8,3.25,9,9,0,0,0-1.15,3.7l-6.45,4.5a22.74,22.74,0,0,1,3-10.55l0-.1A24.75,24.75,0,0,1,89.1,53.2Zm4.65,31.2-1-.65L95,82.4l3.7,2.35L94.9,87l-1.15-.7Zm-9.6,13.75L80.3,100.3l-3.75-2.2,3.85-2.2.9.55Zm38.4-3.8c.23.5.47,1,.7,1.55l-11.65,6.7v-1.95Zm1.55,3.2.6,1.1a1.07,1.07,0,0,1,.2.4l-13.3,7.7v-2Zm-14.45,3.1v7.5l-8.25,4.75v-7.55Zm17.6-9,.9-.55V93a2.92,2.92,0,0,0-.25-.4C127.67,92.25,127.45,92,127.25,91.65Zm.9,12.65v1.6l-8.3,4.7v.05l-8.25,4.7V113.4L128,104a.58.58,0,0,1,.15.25Zm0,15.65v2l-16.55,9.5V129.5Zm0-4.1v2l-16.55,9.5v-2ZM111.6,119.5v-2l16.55-9.5v2Zm-1.95-6.1V121l-8.25,4.75v-7.55Zm0,11.95v7.55l-8.25,4.75V130.1Z"/><path class="cls-14" d="M89.1,77.3A9.88,9.88,0,0,1,84,79.4,6.27,6.27,0,0,1,81.7,79a4.55,4.55,0,0,1-1.45-1.2,7.82,7.82,0,0,1-1.6-5.2l6.45-4.5v.5a2.4,2.4,0,0,0,1.15,2.3,2.61,2.61,0,0,0,2.55-.45.58.58,0,0,0,.25-.15,0,0,0,0,0,0,0Zm19.25,11.2-3.8,2.15-1-.55V87l0-.15,1.15-.65ZM85,93.35l-3.7-2.1L85,89l1.3.75,2.45,1.4Z"/><path class="cls-15" d="M108.15,92.75l-3.5,2-.1-4.1,3.8-2.15v4.15Zm-19.4-1.6V103.8l-3.65,2.3L85,93.35Z"/><path class="cls-16" d="M85,93.35l.1,12.75-.95-.55v-7.4l-2.85-1.7v-5.2Zm18.6.9V90.1l1,.55.1,4.1Z"/><polygon class="cls-17" points="76.55 103.6 79.1 105.15 75.3 107.35 71.55 105.15 72.8 104.4 75.4 102.9 76.55 103.6"/><polygon class="cls-18" points="75.3 107.35 75.3 111.5 71.55 109.3 71.55 105.15 75.3 107.35"/><path class="cls-19" d="M76.55,103.6V98.1l3.75,2.2v8.5l-1.2-.7v-2.95Zm18.35-3.3-1.15-.65V86.25l1.15.7Z"/><path class="cls-20" d="M98.7,96.85v1.3l-3.8,2.15V87l3.8-2.2v12.1Zm-18.35,11.9,0,0v-8.5l3.85-2.15v8.4Z"/><path class="cls-21" d="M90,86.55l3.75-2.15V101l-2,1.15-1.7,1Zm9.85,2.6L103.6,87v8.35l-3.75,2.2Z"/><path class="cls-22" d="M93.65,109.8c-.27-.13-.67,0-1.2.25l-5,3v0l-7.8,4.55a3.19,3.19,0,0,0-1.7,2.9v14.7a1.49,1.49,0,0,0,.35,1.15l-1.7-1a.28.28,0,0,1-.2-.1l-1.7-1c-.37-.07-.55-.48-.55-1.25V118.1a3,3,0,0,1,1.65-2.8l8-4.6,4.9-2.85a1.47,1.47,0,0,1,1.25-.25l1.9,1.15h0Z"/><path class="cls-23" d="M120.75,85.85c0,.2-.07.42-.1.65l-1.4-.85a.58.58,0,0,1-.25-.15l-1.85-1c-.4-.1-.6-.57-.6-1.4V66.75a3.42,3.42,0,0,1,1.8-3.15l14.25-8.25c.63-.33,1.1-.42,1.4-.25l4.15,2.4c-.3-.13-.73,0-1.3.3l-5.6,3.25v0l-8.65,5a3.51,3.51,0,0,0-1.85,3.2V85.85Z"/><path class="cls-24" d="M138.65,74.65a7.25,7.25,0,0,0-1-1V60.4c-.1-1.07-.52-1.45-1.25-1.15L123,66.85a2.59,2.59,0,0,0-1.2,2.4V80q.25-.7.6-1.5,2.1-5.3,3.35-4.7a14.76,14.76,0,0,1,1.55,1.1l1.4,1.15.95.55a9.24,9.24,0,0,0,.8-1.2c.7-1.77,1.12-2.78,1.25-3.05a.49.49,0,0,1,.45-.35c.13.07.4.18.8.35a.16.16,0,0,0,.1.05c.27.2.65.52,1.15.95l-.1.1.85,1.1h-.1a1,1,0,0,1,.5,1.4,3.57,3.57,0,0,0-.4.65.52.52,0,0,0-.75.3c-.23.7.35,1.35,1.75,1.95l-9.15,5.35v0l-2.45,1.4a2.56,2.56,0,0,0-.3-.65,10.6,10.6,0,0,0-.65-1l-.1-1.25a2.57,2.57,0,0,0-.75.1,7.61,7.61,0,0,0-.7.35,12.06,12.06,0,0,0-1,2.65l0,0V69.2A3.51,3.51,0,0,1,122.6,66l8.65-5v0l5.6-3.25c.57-.33,1-.43,1.3-.3s.5.63.5,1.4Z"/><path class="cls-25" d="M135.3,66.05a1.3,1.3,0,0,1,.55,1.2,3.64,3.64,0,0,1-.55,1.85,3.85,3.85,0,0,1-1.3,1.4,1.42,1.42,0,0,1-1,.2.51.51,0,0,1-.3-.1,1.24,1.24,0,0,1-.55-1.2,3.4,3.4,0,0,1,.55-1.8l.3-.4a3.52,3.52,0,0,1,1-1A1.26,1.26,0,0,1,135.3,66.05Z"/><path class="cls-26" d="M122.1,90.05a.48.48,0,0,0-.1.15.21.21,0,0,0,0-.15,8.78,8.78,0,0,0-.8-1.15,2.79,2.79,0,0,1-.55-1.7V87a2,2,0,0,1,.05-.45c0-.23.07-.45.1-.65l0,0a12.06,12.06,0,0,1,1-2.65,7.61,7.61,0,0,1,.7-.35,2.57,2.57,0,0,1,.75-.1l.1,1.25a10.6,10.6,0,0,1,.65,1,2.56,2.56,0,0,1,.3.65c.13.27.27.55.4.85l.1.4a5.49,5.49,0,0,1,0,.7c0,.53.05,1.07.05,1.6A3.31,3.31,0,0,0,122.1,90.05ZM140.15,79a3.7,3.7,0,0,0-2.9.6,3.19,3.19,0,0,0-.65-.45,6.52,6.52,0,0,1-.7-.25c-1.4-.6-2-1.25-1.75-1.95a.52.52,0,0,1,.75-.3,3.57,3.57,0,0,1,.4-.65,1,1,0,0,0-.5-1.4h.1l-.85-1.1.1-.1a1.49,1.49,0,0,1,1.25-.45l2,.6a.65.65,0,0,0,.2.15,7.25,7.25,0,0,1,1,1,3.21,3.21,0,0,1,1.1,2A7.48,7.48,0,0,0,140.15,79Zm8.85,21-.25.3a2.21,2.21,0,0,1-.25-.3,2.5,2.5,0,0,1-.6-1.55l.35.25-.2-1.2a3.26,3.26,0,0,1,.85,1.95C148.93,99.52,149,99.7,149,99.9Z"/><path class="cls-27" d="M147.4,96.8c-.73-.5-1.52-1.07-2.35-1.7s-1.38-1.28-1.65-1.55a34.22,34.22,0,0,1-2.5-5.3,1.93,1.93,0,0,1-.15-.35c-1.23-3.07-2-4.85-2.2-5.35-.5-1.07-1-2-1.4-2.9,0-.07.07-.1.1-.1a3.7,3.7,0,0,1,2.9-.6,3.29,3.29,0,0,1,.6.15c.63,1.23,1.27,2.45,1.9,3.65s1.23,2.47,1.8,3.7q.7,1.24,1.35,2.55a5.1,5.1,0,0,1,.45,1.1,3.07,3.07,0,0,1,.25.55v0a5.05,5.05,0,0,1,.5.35.48.48,0,0,0-.1.15,2.19,2.19,0,0,0-.3,1.15v.45c0,.37.07.75.1,1.15a1.63,1.63,0,0,1,.05.35,10.16,10.16,0,0,0,.3,1.3V96ZM158,99.1a11.23,11.23,0,0,0-1.2.4l-1.15.6-.4.3-.1-.15.75-1.2a9.44,9.44,0,0,0,.45-.9l.25-1.3.45.35a8.36,8.36,0,0,0,1.45,1A3.93,3.93,0,0,1,158,99.1Zm-30.75-7.45c.2.3.42.6.65.9a2.92,2.92,0,0,1,.25.4c.67,1,1.32,2,1.95,3l.5.8c.37.53.75,1.07,1.15,1.6a8.68,8.68,0,0,1,.55,1.1,4.39,4.39,0,0,1,.3.45v.1c.77.37,1.52.75,2.25,1.15a14.24,14.24,0,0,0,3.25,1.3,16.6,16.6,0,0,1,2.65,1.15,5.62,5.62,0,0,1,1.05.5c.7.4,1.37.8,2,1.2a8.36,8.36,0,0,0,1.45.8.16.16,0,0,1,.1,0,.51.51,0,0,1-.1.3,3.39,3.39,0,0,1-1.25,1.6,7.71,7.71,0,0,1-1.15.55,5.33,5.33,0,0,1-2.1.35,6,6,0,0,1-1.6-.45,57,57,0,0,1-7.5-4,10,10,0,0,0-1.05-.7,6.94,6.94,0,0,0-.8-.65,40.48,40.48,0,0,1-3.05-5,.5.5,0,0,0,0-.15c-.3-.57-.58-1.07-.85-1.5-.33-.63-.63-1.17-.9-1.6-.33-.67-.62-1.18-.85-1.55a4.35,4.35,0,0,0-.3-.55,2,2,0,0,0-.15-.2c-.53-.93-1.05-1.8-1.55-2.6a3.31,3.31,0,0,1,2.8-1,5.49,5.49,0,0,1,.7.05C126.17,90,126.72,90.78,127.25,91.65Z"/><path class="cls-28" d="M158,99.1a3.93,3.93,0,0,0,.5-.9.3.3,0,0,0,.2,0c.27.17.53.35.8.55a.28.28,0,0,1,.15.15A4.09,4.09,0,0,0,158,99.1Zm-11.4,7.7a7.38,7.38,0,0,1,.7.85,4.85,4.85,0,0,1,.7,2.5,2.33,2.33,0,0,1-1.4,2.5,6,6,0,0,1-3.1.55,5.06,5.06,0,0,1-1.05-.1,5,5,0,0,1-1.5-.65.65.65,0,0,1-.2-.15,9,9,0,0,0-1.7-.9,9.39,9.39,0,0,1-1.2-.6c-.8-.43-1.58-.9-2.35-1.4-.6-.4-1.22-.8-1.85-1.2s-1.07-.7-1.4-.9a5.92,5.92,0,0,0-1.1-.65,3.07,3.07,0,0,0-.55-.25l-.8-.5a4.82,4.82,0,0,1-1.65-1.6l-.05,0A.58.58,0,0,0,128,104c-.6-.8-1.18-1.67-1.75-2.6-.43-.77-.87-1.55-1.3-2.35a1.07,1.07,0,0,0-.2-.4l-.6-1.1c-.27-.5-.53-1-.8-1.55a.16.16,0,0,0,0-.1c-.23-.53-.47-1.05-.7-1.55l-.5-1.1c-.2-.37-.33-.63-.4-.8A3.14,3.14,0,0,1,122,90.2a.48.48,0,0,1,.1-.15c.5.8,1,1.67,1.55,2.6a2,2,0,0,1,.15.2,4.35,4.35,0,0,1,.3.55c.23.37.52.88.85,1.55.27.43.57,1,.9,1.6.27.43.55.93.85,1.5a.5.5,0,0,1,0,.15,40.48,40.48,0,0,0,3.05,5,6.94,6.94,0,0,1,.8.65,10,10,0,0,1,1.05.7,57,57,0,0,0,7.5,4,6,6,0,0,0,1.6.45,5.33,5.33,0,0,0,2.1-.35,7.71,7.71,0,0,0,1.15-.55,3.39,3.39,0,0,0,1.25-1.6.51.51,0,0,0,.1-.3h.2a4.3,4.3,0,0,1,.85.5Zm-9.45-27.15c.43.87.9,1.83,1.4,2.9.23.5,1,2.28,2.2,5.35a1.93,1.93,0,0,0,.15.35,34.22,34.22,0,0,0,2.5,5.3c.27.27.82.78,1.65,1.55s1.62,1.2,2.35,1.7l.5,1.55a2.5,2.5,0,0,0,.6,1.55,2.21,2.21,0,0,0,.25.3l.05.5-.4-.4a16.43,16.43,0,0,1-1.7-1.4c-.57-.43-1-.78-1.3-1.05a9.56,9.56,0,0,0-1.05-.7c-.4-.3-.83-.62-1.3-1a5.85,5.85,0,0,1-1.45-1.8c-.3-.47-.58-1-.85-1.5L140,91.3c-.4-.93-.78-1.88-1.15-2.85s-.78-1.83-1.15-2.8-.62-1.92-.95-2.85a4.66,4.66,0,0,1-.3-.85A3.26,3.26,0,0,1,137.15,79.65Z"/><path class="cls-29" d="M120.65,86.5a2,2,0,0,0-.05.45v.25l-5.35,3a1.91,1.91,0,0,1-1.4.35.58.58,0,0,1-.25-.15,1.74,1.74,0,0,1-.4-1.35v-18a3.86,3.86,0,0,1,2-3.55l1.3-.75V83.05c0,.83.2,1.3.6,1.4l1.85,1a.58.58,0,0,0,.25.15Z"/><path class="cls-30" d="M156.75,96a4.66,4.66,0,0,1-.75.45,6.13,6.13,0,0,1-2.85.6,7.35,7.35,0,0,1-5.7-3c-.3-.47-.58-.88-.85-1.25v-.45a2.19,2.19,0,0,1,.3-1.15.48.48,0,0,1,.1-.15q1.91-3.49,5.5-1.35C155.47,91.53,156.88,93.62,156.75,96Zm-.4,2.2a9.44,9.44,0,0,1-.45.9,5.23,5.23,0,0,0-.6.15,12.33,12.33,0,0,1-3,.1q-2.25-.15-5.25-3.7a10.16,10.16,0,0,1-.3-1.3,9.24,9.24,0,0,0,.8.9c2.07,2.3,4,3.45,5.9,3.45A8.63,8.63,0,0,0,156.35,98.15Z"/><path class="cls-31" d="M146.6,92.8c.27.37.55.78.85,1.25a7.35,7.35,0,0,0,5.7,3,6.13,6.13,0,0,0,2.85-.6,4.66,4.66,0,0,0,.75-.45,2.68,2.68,0,0,1-.05.45v.1l-.1.35-.25,1.3a8.63,8.63,0,0,1-2.9.5c-1.87,0-3.83-1.15-5.9-3.45a9.24,9.24,0,0,1-.8-.9,1.63,1.63,0,0,0-.05-.35C146.67,93.55,146.63,93.17,146.6,92.8Zm.8,4-.35-.85V95.6q3,3.56,5.25,3.7a12.33,12.33,0,0,0,3-.1,5.23,5.23,0,0,1,.6-.15l-.75,1.2a2.7,2.7,0,0,1-.35.3.52.52,0,0,0-.2.1,2.11,2.11,0,0,0-.4.2h-.1a.16.16,0,0,0-.1.05,2.38,2.38,0,0,1-.5.15l-.05,0a.16.16,0,0,0-.1.05A4.69,4.69,0,0,1,149,99.9c0-.2-.07-.38-.1-.55a3.26,3.26,0,0,0-.85-1.95l.2,1.2-.35-.25Z"/><path class="cls-32" d="M153.35,101.15a1.42,1.42,0,0,0-.35.15,9.65,9.65,0,0,0-1.75,1.15,5.21,5.21,0,0,0-1.3,1.65,5.85,5.85,0,0,1-1.1-.1l.25-1-.3-2.25-.05-.5.25-.3A4.69,4.69,0,0,0,153.35,101.15Zm1.9-.75.3.4a.92.92,0,0,1-.25,0,2.14,2.14,0,0,0-1.1.1,2.11,2.11,0,0,1,.4-.2.52.52,0,0,1,.2-.1,2.7,2.7,0,0,0,.35-.3Z"/><path class="cls-33" d="M155.55,100.8l-.3-.4.4-.3,1.15-.6a11.23,11.23,0,0,1,1.2-.4,4.09,4.09,0,0,1,1.65-.15,2,2,0,0,1,1,.45q1.15,1,1.65,4.45c.33,2.27-.28,5.17-1.85,8.7-.23.4-.45.78-.65,1.15v.1c-.07.2-.25.75-.55,1.65a4.64,4.64,0,0,0-.2,1.5,5.53,5.53,0,0,0,.15,1.25q.6,3,1,6.15a10.48,10.48,0,0,1-1.85,2.35,15,15,0,0,1-2.7,2,19.09,19.09,0,0,1-3.65,1.5c-.73.2-1.52.38-2.35.55q-.75.11-1.5.15l1.25-13.55v-.2q.15-3.55.15-3.75a8.94,8.94,0,0,0-1.2-4.85,5.08,5.08,0,0,0-1.7-1.7l-.2-.1a4.3,4.3,0,0,0-.85-.5h-.2a.16.16,0,0,0-.1,0,4.17,4.17,0,0,1,.35-.4,18.26,18.26,0,0,1,1.4-1.25c.63-.5,1.33-1,2.1-1.55l-.25,1a5.85,5.85,0,0,0,1.1.1,7.44,7.44,0,0,0,3.05-.5,6.27,6.27,0,0,0,2.75-2.3,393373238681.32,393373238681.32,0,0,0,.1-.2Z"/><path class="cls-34" d="M148.1,130.85a7.33,7.33,0,0,1-5.35-1.75,41.39,41.39,0,0,0,1.05-4.2,11.11,11.11,0,0,0-.1-4.45,4.16,4.16,0,0,0-.2-.9,2.77,2.77,0,0,0-.45-.6,2.34,2.34,0,0,0-.15-.55,5.69,5.69,0,0,1-.3-1.1,13.53,13.53,0,0,1-.15-4.2,5.06,5.06,0,0,0,1.05.1,6,6,0,0,0,3.1-.55,2.33,2.33,0,0,0,1.4-2.5,4.85,4.85,0,0,0-.7-2.5,7.38,7.38,0,0,0-.7-.85,5.08,5.08,0,0,1,1.7,1.7,8.94,8.94,0,0,1,1.2,4.85q0,.2-.15,3.75v.2Z"/><path class="cls-35" d="M154.2,100.85a2.14,2.14,0,0,1,1.1-.1.92.92,0,0,0,.25,0l.3.3a393373238681.32,393373238681.32,0,0,1-.1.2,6.27,6.27,0,0,1-2.75,2.3,7.44,7.44,0,0,1-3.05.5,5.21,5.21,0,0,1,1.3-1.65A9.65,9.65,0,0,1,153,101.3a1.42,1.42,0,0,1,.35-.15.16.16,0,0,1,.1-.05l.05,0a2.38,2.38,0,0,0,.5-.15.16.16,0,0,1,.1-.05Z"/><path class="cls-36" d="M155.2,158.5a.49.49,0,0,0,.05.2l.5,4,.05.8q.55,4.75.9,10a2.83,2.83,0,0,1-.85,2.05l-2.5.1a92.46,92.46,0,0,0-1.55-12.85c-.13-.8-.27-1.52-.4-2.15q-1.05-6.1-1.1-6.45a50.65,50.65,0,0,1-.7-7.5,43.67,43.67,0,0,1,1-8.65q.9-4.61,1.35-7.9a19.09,19.09,0,0,0,3.65-1.5,15,15,0,0,0,2.7-2,10.48,10.48,0,0,0,1.85-2.35c.2,1.57.37,3.15.5,4.75,0,.4.07.78.1,1.15.07,1,.1,1.95.1,2.95q.19,2.55.3,5.1a10.64,10.64,0,0,0,.4,2.6,94.33,94.33,0,0,1,3,12.75,35.84,35.84,0,0,1,.4,7.5,30.57,30.57,0,0,1-.7,4.95,1,1,0,0,1-.65.1,5.2,5.2,0,0,1-1.55.15,1.53,1.53,0,0,0,0-.3c0-.33.05-1.72.05-4.15,0-.77,0-1.57-.1-2.4a96.76,96.76,0,0,0-1.85-12.65c-.87-4.17-1.43-7.57-1.7-10.2a32.61,32.61,0,0,1-.25-3.65,10.34,10.34,0,0,1,.15-1.2,22.57,22.57,0,0,1-2,1.65,6.67,6.67,0,0,0-2.2,2.55,2.38,2.38,0,0,0-.15.5.21.21,0,0,0,0,.15c0,.17-.07.32-.1.45s-.12.62-.35,1.65a15,15,0,0,0-.15,1.85s0,.6.1,1.7c0,1.4-.07,2.82-.1,4.25a37.73,37.73,0,0,0,1.6,11.5A3,3,0,0,1,155.2,158.5Z"/><path class="cls-37" d="M156.6,153c-.17-.9-.35-1.78-.55-2.65-.13-.5-.27-1-.4-1.45a.51.51,0,0,1-.1-.3q-1.05-3.41-2-6.75a3.64,3.64,0,0,1,0,.5c-.07-1.1-.1-1.67-.1-1.7a15,15,0,0,1,.15-1.85c.23-1,.35-1.58.35-1.65s.07-.28.1-.45a.21.21,0,0,1,0-.15,2.38,2.38,0,0,1,.15-.5,6.67,6.67,0,0,1,2.2-2.55,22.57,22.57,0,0,0,2-1.65,10.34,10.34,0,0,0-.15,1.2,32.61,32.61,0,0,0,.25,3.65c-.17.47-.32.9-.45,1.3q-.26,1.25-.45,2.85c-.07.6-.13,1.53-.2,2.8s-.25,3.12-.45,5.65c-.13,1.53-.22,2.9-.25,4.1C156.67,153.22,156.63,153.08,156.6,153Z"/><path class="cls-38" d="M153.35,175.65l-.35,0c-.3-.1-.63-.2-1-.3q-4.84-.85-4.8-4.9l.65-.4a16.44,16.44,0,0,0,.3-2.6,4.38,4.38,0,0,0-.05-1.15c-.13-1.2-.28-2.38-.45-3.55a91.17,91.17,0,0,0-1.8-9.65q-1.6-6.6-3.1-13.2a34.62,34.62,0,0,1,0-10.85,7.33,7.33,0,0,0,5.35,1.75q.75,0,1.5-.15c.83-.17,1.62-.35,2.35-.55q-.45,3.3-1.35,7.9a43.67,43.67,0,0,0-1,8.65,50.65,50.65,0,0,0,.7,7.5q0,.35,1.1,6.45c.13.63.27,1.35.4,2.15A92.46,92.46,0,0,1,153.35,175.65Zm3.75-17.15v-1.3c-.07-.67-.12-1.33-.15-2a.92.92,0,0,0,0-.25.28.28,0,0,0-.1-.2,7.16,7.16,0,0,0-.05-.8.21.21,0,0,0-.05-.15v-.35c0-.17-.07-.33-.1-.5,0,.13.07.27.1.4,0-1.2.12-2.57.25-4.1.2-2.53.35-4.42.45-5.65s.13-2.2.2-2.8q.19-1.61.45-2.85c.13-.4.28-.83.45-1.3.27,2.63.83,6,1.7,10.2a96.76,96.76,0,0,1,1.85,12.65c.07.83.1,1.63.1,2.4,0,2.43,0,3.82-.05,4.15a1.53,1.53,0,0,1,0,.3A4.8,4.8,0,0,1,158.5,164c-.3-.4-.58-.82-.85-1.25a10.37,10.37,0,0,1-1-2.5Z"/><path class="cls-39" d="M155.8,163.5a18.93,18.93,0,0,1,5.35,3.5,2.75,2.75,0,0,0,.7.45,2.42,2.42,0,0,0,1.45,0,1.56,1.56,0,0,0,.95-1.3,30.57,30.57,0,0,0,.7-4.95l4.45,2.55q4.69,2.7,1.55,4.5l-19.1,11q-3.15,1.8-7.85-.85l-7-4.05q-4.65-2.7-1.5-4.5l12.15-6.95c.17,1.17.32,2.35.45,3.55a4.38,4.38,0,0,1,.05,1.15,16.44,16.44,0,0,1-.3,2.6l-.65.4a20.58,20.58,0,0,0-5.35,1.8q-1,.75-.75,1,1.54,4.65,7.2,3.25a5.65,5.65,0,0,1,1.95-.35l.3.9a5.78,5.78,0,0,0,2.85.25,3.76,3.76,0,0,0,2.45-1.85,2.83,2.83,0,0,0,.85-2.05Q156.36,168.25,155.8,163.5Zm-.6-5a6,6,0,0,1,1.9-.4v.4l-.15.2h-1.7A.49.49,0,0,1,155.2,158.5Zm-121.9-.3,2.45,1.4c.6.33.93.68,1,1.05v.25a2,2,0,0,1-1,1l-15.3,8.85a3.75,3.75,0,0,1-4,0l-7.95-4.6v0L1,161.9c-.63-.4-1-.78-1-1.15s.33-.8,1-1.2l3.4-2v1.6h0l0,2.05h0c0,.3.25.62.75.95l12.2,7a2.83,2.83,0,0,0,3.1,0l12-7q.9-.49.75-1V159.3a.23.23,0,0,0,0-.2Zm23.8,15.18,2.65,1.52c.6.33.93.68,1,1v.25a2,2,0,0,1-1,1l-15.3,8.85a3.75,3.75,0,0,1-4,0l-8-4.6v.05L25,177.2c-.63-.4-1-.78-1-1.15s.33-.8,1-1.2L28.17,173l0,1.2h.05v2.05l.05.05c0,.27.23.57.7.9l12.2,7a2.89,2.89,0,0,0,3.1,0l12-7c.6-.33.87-.68.8-1v-1.8a.36.36,0,0,0,0-.25Z"/><path class="cls-40" d="M155.75,162.7l2.75,1.3a4.8,4.8,0,0,0,3.55,2.35,5.2,5.2,0,0,0,1.55-.15,1,1,0,0,0,.65-.1,1.56,1.56,0,0,1-.95,1.3,2.42,2.42,0,0,1-1.45,0,2.75,2.75,0,0,1-.7-.45,18.93,18.93,0,0,0-5.35-3.5Zm-2.75,13,.35,0,2.5-.1a3.76,3.76,0,0,1-2.45,1.85,5.78,5.78,0,0,1-2.85-.25l-.3-.9a5.65,5.65,0,0,0-1.95.35q-5.66,1.4-7.2-3.25,1.46,2.29,4.9,2.1A54.6,54.6,0,0,1,153,175.7Z"/><path class="cls-41" d="M91.55,129.15l-2.8,1.6v.05l-9.15,5.25a1.44,1.44,0,0,1-1.15.3.52.52,0,0,1-.2-.1,1.49,1.49,0,0,1-.35-1.15V120.4a3.19,3.19,0,0,1,1.7-2.9L87.4,113v0l5-3c.53-.3.93-.38,1.2-.25s.45.58.45,1.25v14.7a3.12,3.12,0,0,1-1.65,2.9Zm1.2-14.6a3.13,3.13,0,0,0,.15-.9c0-.6-.28-.73-.85-.4l-8.85,5.1a2.11,2.11,0,0,0-1,2.35l.5,4.55c.07.67.4.82,1,.45L90.2,122a2.55,2.55,0,0,0,1.2-1.75ZM78.6,119.8a.77.77,0,0,0-.4.45,1.05,1.05,0,0,0-.1.6c0,.17.07.27.2.3l2,.5L81.4,130a.51.51,0,0,0,.2.35.39.39,0,0,0,.35-.1l1.25-.65a.48.48,0,0,1-.1.15,2.62,2.62,0,0,0-.4,1.3.82.82,0,0,0,1.3.75,2.17,2.17,0,0,0,.9-1,2.35,2.35,0,0,0,.4-1.25.92.92,0,0,0-.4-.85.16.16,0,0,1-.1,0l3.25-1.9-.1.2a2.67,2.67,0,0,0-.35,1.25.91.91,0,0,0,.35.85.77.77,0,0,0,.9-.1,2.17,2.17,0,0,0,1-.95,2.43,2.43,0,0,0,.4-1.3.8.8,0,0,0-.4-.8.16.16,0,0,0-.1-.05l.35-.2a1.82,1.82,0,0,0,.4-.45,1.33,1.33,0,0,0,.15-.6c0-.2,0-.32-.15-.35a.3.3,0,0,0-.4,0L82.5,128.6l-1-8.1-.1-.2a.15.15,0,0,0-.15-.1L79,119.65A.43.43,0,0,0,78.6,119.8Z"/><path class="cls-42" d="M78.25,136.25a.52.52,0,0,0,.2.1,1.44,1.44,0,0,0,1.15-.3l9.15-5.25v-.05l2.8-1.6a3.72,3.72,0,0,1-2,2.65l-4.45,2.6v0L73.9,140.9a2,2,0,0,1-1.4.35,1.05,1.05,0,0,1-.3-.15,1.94,1.94,0,0,1-.35-1.35v-18a3.83,3.83,0,0,1,2.05-3.5l.2-.1v14.8c0,.77.18,1.18.55,1.25l1.7,1a.28.28,0,0,0,.2.1Zm-3.35,7.6a3.12,3.12,0,0,0-.05.55v14.15c0,.73.18,1.13.55,1.2l1.6.95a.58.58,0,0,0,.25.15l1.6.9a.29.29,0,0,0,.2.15,1.57,1.57,0,0,0,1.1-.3l3.6-2.1v.05L91.6,155a3.68,3.68,0,0,1-2,3.05l-4.4,2.55,0,.05L73.9,167.1a1.67,1.67,0,0,1-1.4.35.43.43,0,0,1-.3-.15,1.86,1.86,0,0,1-.35-1.3V148a3.86,3.86,0,0,1,2.05-3.55Z"/><path class="cls-43" d="M93.7,136.35c-.27-.13-.67,0-1.2.25l-12.35,7.15a3,3,0,0,0-1.55,2.75v14.2a1.54,1.54,0,0,0,.25,1.05l-1.6-.9a.58.58,0,0,1-.25-.15l-1.6-.95c-.37-.07-.55-.47-.55-1.2V144.4a3.12,3.12,0,0,1,.05-.55,3,3,0,0,1,1.55-2.2L88.8,134.5c.53-.3.93-.38,1.2-.25Z"/><path class="cls-44" d="M83.65,145.25,83.6,155l7.55-9.25ZM91.6,155l-7.85,4.55v-.05l-3.6,2.1a1.57,1.57,0,0,1-1.1.3.29.29,0,0,1-.2-.15,1.54,1.54,0,0,1-.25-1.05V146.5a3,3,0,0,1,1.55-2.75L92.5,136.6c.53-.3.93-.38,1.2-.25s.4.57.4,1.2V151.7a3,3,0,0,1-1.6,2.75Z"/><path class="cls-45" d="M83.15,13.55q.3.19.3.9v10.9A2.31,2.31,0,0,1,82.2,27.5l-6.7,3.95V31.4l-2.8,1.65a1.14,1.14,0,0,1-.85.2.48.48,0,0,1-.15-.1,1.06,1.06,0,0,1-.25-.85V21.4a2.31,2.31,0,0,1,1.25-2.15l9.5-5.5C82.63,13.52,83,13.45,83.15,13.55Zm-19.7,71.9v10.9A2.31,2.31,0,0,1,62.2,98.5l-6.7,4v0l-2.8,1.65a1.14,1.14,0,0,1-.85.2.48.48,0,0,1-.15-.1,1.06,1.06,0,0,1-.25-.85V92.4a2.31,2.31,0,0,1,1.25-2.15l9.5-5.5c.43-.23.75-.3.95-.2S63.45,85,63.45,85.45Zm97-41v10.9a2.31,2.31,0,0,1-1.25,2.15l-6.7,4V61.4l-2.8,1.65a1.14,1.14,0,0,1-.85.2.48.48,0,0,1-.15-.1,1.06,1.06,0,0,1-.25-.85V51.4a2.31,2.31,0,0,1,1.25-2.15l9.5-5.5c.43-.23.75-.3,1-.2S160.45,44,160.45,44.45Z"/><path class="cls-46" d="M33.3,157.25v1.85a.23.23,0,0,1,0,.2v1.85q.15.56-.75,1l-12,7a2.83,2.83,0,0,1-3.1,0l-12.2-7c-.5-.33-.75-.65-.75-.95h0l0-2.05h0v-2.1a.75.75,0,0,0,.18.4,2.43,2.43,0,0,0,.62.5l12.15,7a3,3,0,0,0,3.15,0l12-7,.2-.12A1.13,1.13,0,0,0,33.3,157.25Z"/><path class="cls-47" d="M57.1,172.25c-.06.22-.3.45-.72.7l-.08.05-12,6.95a3,3,0,0,1-3.15.05l-6.2-3.6h0l-1.1-.65h0L29,173a2.17,2.17,0,0,1-.37-.25.85.85,0,0,1-.43-.65q0-.45.75-.9L41,164.25a3,3,0,0,1,3.15-.05l8.65,5,0,0,3.55,2c.47.27.72.55.75.85A.49.49,0,0,1,57.1,172.25ZM44.4,166.6a3,3,0,0,0-1.45-.15,2.52,2.52,0,0,0-1.2.45.77.77,0,0,0-.3.85l1.9,5.15-4.75-.65a2.68,2.68,0,0,0-1.45.2,1.09,1.09,0,0,0-.8.65.64.64,0,0,0,.2.8,2.2,2.2,0,0,0,1.2.5l7.6,1a4,4,0,0,0,1.25-.1,1.67,1.67,0,0,0,.85-.5.69.69,0,0,0,.2-.7l-2.45-6.8A1.41,1.41,0,0,0,44.4,166.6Z"/><path class="cls-48" d="M28.17,173l0-.9a.85.85,0,0,0,.43.65A2.17,2.17,0,0,0,29,173l4.8,2.75h0l1.1.65h0l6.2,3.6a3,3,0,0,0,3.15-.05l12-6.95.08-.05c.42-.25.66-.48.72-.7v1.85a.36.36,0,0,1,0,.25v1.8c.07.37-.2.72-.8,1l-12,7a2.89,2.89,0,0,1-3.1,0l-12.2-7c-.47-.33-.7-.63-.7-.9l-.05-.05V174.2h-.05Z"/><path d="M103.6,87.5a.48.48,0,0,1-.47-.34l0-.15a.5.5,0,1,1,.94-.32l0,.15a.49.49,0,0,1-.31.63A.45.45,0,0,1,103.6,87.5Z"/></g></g></svg>